<?xml version="1.0" standalone="no"?>
<!DOCTYPE svg PUBLIC "-//W3C//DTD SVG 1.1//EN" "http://www.w3.org/Graphics/SVG/1.1/DTD/svg11.dtd" >
<svg xmlns="http://www.w3.org/2000/svg" xmlns:xlink="http://www.w3.org/1999/xlink" version="1.1">
<metadata>
Created by FontForge 20170731 at Fri Jan  1 02:30:17 1904
 By Aleksey,,,
COPYRIGHT ESSELTE LETRASET LTD., 1995  
</metadata>
<defs>
<font id="CarumbaHotCapsPlain" horiz-adv-x="210" >
  <font-face 
    font-family="CarumbaHotCapsPlain"
    font-weight="400"
    font-variant="small-caps"
    font-stretch="normal"
    units-per-em="1000"
    panose-1="0 0 0 0 0 0 0 0 0 0"
    ascent="800"
    descent="-200"
    x-height="605"
    cap-height="717"
    bbox="-76 -246 1105 943"
    underline-thickness="50"
    underline-position="-155"
    unicode-range="U+0020-F002"
  />
<missing-glyph 
 />
    <glyph glyph-name=".notdef" 
 />
    <glyph glyph-name="glyph1" horiz-adv-x="0" 
 />
    <glyph glyph-name="glyph2" 
 />
    <glyph glyph-name="space" unicode=" " 
 />
    <glyph glyph-name="space" unicode="&#xa0;" 
 />
    <glyph glyph-name="exclam" unicode="!" horiz-adv-x="295" 
d="M168 84l7 -13l-2 -12l-14 -15l-9 -16l-4 -20l-15 -20l-16 12l-6 23l-1 21l-13 19v22l2 19l-6 19l20 -3l16 7l22 -10l7 -18l12 -15v0zM155 641l13 -22l3 -18l16 -6l14 -18l-4 -25l-2 -33l-9 -19l-5 -23l-12 -32l5 -8l-13 -46v-26l-6 -20l-2 -25l3 -21l-8 -26l1 -29l-4 -22
l-15 -21h-8l-7 42v21l-7 19l-1 22l-4 23l2 24l-5 17l-5 36l-2 37l5 72l-11 6l7 24l2 17l5 14l1 14l-7 23l13 16l9 19l20 -5l18 -1v0z" />
    <glyph glyph-name="quotedbl" unicode="&#x22;" horiz-adv-x="260" 
d="M102 572l10 -23l-2 -24l-2 -14q0 -3 -2 -12t-5 -19q0 -2 -0.5 -4.5t-1.5 -4.5q-1 -4 -2 -7.5t-2 -6.5q-2 -33 -7.5 -46.5t-13.5 -23.5l-12 -1l-4 16q-1 1 -1.5 3t-0.5 5q-1 4 -2 12.5t-4 21.5q2 5 3 8t1 6v0.5t1 1.5q0 2 1.5 5t4.5 7l-5 18l3 9l-1 31l3 19q0 1 1.5 2.5
l3.5 3.5t3 4l2 4q0 2 -0.5 4t-2.5 4q2 0 3.5 1t3.5 1q2 1 4.5 2t5.5 1q1 0 2 -0.5t3 -0.5l0.5 -0.5t1.5 -0.5q1 -1 3 -1.5t5 -0.5h0.5h0.5h0.5h0.5v0zM210 560v-18l-1 -28l-7 -23l-1 -24l-7 -25l-9 -22l-7 -14l-7 -10q-1 -1 -2 -1.5t-2 -1.5q-2 -2 -4 -3l-4 -2
q-1 -1 -2.5 -1.5t-3.5 -0.5l-0.5 0.5t-0.5 1.5q-1 1 -1 2.5t-1 3.5q0 2 -1 3.5t-3 2.5l1 27l5 7v30l3 23l4 30q2 2 2.5 3.5t0.5 3.5t-0.5 4t-1.5 4l-1.5 3l-0.5 1q0 1 -0.5 2t-0.5 3q-1 3 -2 7.5t-4 9.5q2 11 6.5 14.5t10.5 3.5q3 0 6 -0.5t6 -0.5q1 -1 2 -1h2q2 -1 4 -1h4
h0.5h0.5h0.5h0.5l8 -3l8 -10v0z" />
    <glyph glyph-name="numbersign" unicode="#" horiz-adv-x="400" 
d="M33 0v667h334v-667h-334v0zM40 7h320v653h-320v-653v0z" />
    <glyph glyph-name="dollar" unicode="$" horiz-adv-x="508" 
d="M324 720l13 -3q14 -7 20 -16.5t6 -20.5l-0.5 -3t-1.5 -7q-1 -2 -2 -4.5t-2 -3.5v-29l-4 -9l4 -21l16 3l20 -9l11 -13l14 -10q4 -3 7 -6l5 -5q2 -3 3 -6t1 -6l-4 -2v-12l-14 -3l-15 -10l-28 -7l-6 -6l-16 -10l-4 -11l-2 -26v-32l3 -28l-7 -19q1 -1 1 -4v-6q1 -3 1 -5.5
v-5.5v-13.5t1 -14.5l27 -3l12 -3h8q7 -2 14.5 -5t17.5 -8q3 -1 6 -2.5t5 -3.5q1 -1 2 -1.5t2 -1.5q2 -2 5 -3.5t7 -1.5l16 -19v-13l2 -10l-10 -20l-6 -10l-14 -10l-20 -13l-8 -4l-9 -6h-10q-1 -1 -2.5 -1.5t-2.5 -1.5l-0.5 -0.5l-0.5 -0.5q-2 -1 -4.5 -3.5l-6.5 -6.5
q-6 -2 -9 -4t-6 -3q-1 -1 -3 -2t-5 -1q-3 -6 -4.5 -10.5l-2.5 -7.5v-3.5v-3.5v-3.5v-3.5v-10t1 -19q1 -1 1 -2.5t1 -2.5q0 -1 1 -2.5t2 -2.5q0 -12 2 -22t4 -17l-6 -14l-9 -2q-5 0 -8.5 1.5t-6.5 3.5t-5 3.5t-4 1.5q-2 2 -3.5 4t-2.5 6q0 1 -0.5 2.5t-0.5 4.5t-0.5 7t-0.5 8
l-1.5 1.5l-0.5 0.5q-2 1 -2 3v6q-1 3 -1 9v13l-3 24l-10 -5l-16 -12h-2.5t-2.5 -1q-2 0 -3.5 -0.5t-2.5 -1.5q-1 0 -1.5 -0.5t-0.5 -1.5l-17 -15l-1 -19l2 -23q0 -3 1 -8.5t2 -13.5q1 -3 1.5 -6t0.5 -6q1 -2 1.5 -4.5t0.5 -5.5t0.5 -6.5t1.5 -6.5l-22 6l-1 3l-7 2
q-1 7 -2 13.5t-1 11.5q0 1 -0.5 3.5t-0.5 5.5q-1 7 -2 17t-4 20q-1 -1 -1.5 -2.5t-1.5 -2.5q-2 -3 -4 -4t-5 -2q-1 -1 -2.5 -1t-2.5 -1t-2 -2.5t-1 -2.5q-4 -3 -8 -4t-11 -2l-6 12q-4 1 -5 2.5t-2 4.5v0.5v1.5h-9l-11 25v0v1q1 0 2 1l2 2q3 1 9 4t20 9l39 25l1 22l-2 36
l1 23l-2 35l-5 -1t-11 -2v0v-1q-5 -1 -9 -2t-6 -1l-18 -2l-12 -4l-33 3h-2h-2l-0.5 0.5t-1.5 0.5q-2 0 -5.5 0.5t-9.5 1.5l-7 5h-0.5h-0.5q-3 1 -5 2t-4 3q-1 2 -3 5.5t-4 9.5q-2 2 -3.5 4.5t-3.5 5.5q-1 0 -1.5 1t-0.5 2l-4 6t-5 4l-2 2q-4 6 -6.5 10.5t-3.5 8.5t-1.5 8
t-0.5 9q0 17 6.5 35.5t19.5 37.5q7 10 15 19.5t18 18.5l12 12l20 18l25 16q11 6 16.5 10t9.5 8q4 2 8 5t10 7q2 0 8 2.5t22 11.5l1 43q-1 8 -1 13v9q-2 16 -4 20.5t-2 6.5t0.5 4t0.5 4v0.5t1 1.5q0 2 0.5 4.5t0.5 5.5l17 -7q3 -1 5.5 -2t3.5 -1q1 -1 2 -1t2 -1
q14 -18 17.5 -24t3.5 -8q0 -1 0.5 -1.5l0.5 -0.5q0 -7 0.5 -16.5t2.5 -29.5l27 16l-2 14q2 14 2 24v16v5.5v4.5q1 19 1.5 29t3.5 18q1 4 3 9t5 11v0zM294 284l-45 -6l-6 -12l1 -28l-8 -29l4 -9l2 -28l27 19l15 11l11 6l5 20l-2 15l2 16l-1 24l-5 1v0zM368 281l-18 2l-5 -26
l4 -19l27 15l12 22l-20 6v0zM216 422l-36 -17q-1 -1 -1.5 -2.5t-0.5 -2.5q-2 -3 -3.5 -5t-3.5 -3t-3.5 -2t-3.5 -2l-11 -18q-2 -3 -2.5 -4t-1.5 -1h-0.5h-0.5q-1 0 -3 -1t-7 -5l-24 -29l-6 -13q3 0 6 -0.5t5 -0.5q5 -1 8.5 -1.5t5.5 -0.5q4 0 20.5 2.5t44.5 7.5l22 2l2 96
h-6v0zM295 487q-6 -8 -9 -11l-5 -5l-0.5 -0.5l-0.5 -0.5q-1 -1 -2 -1.5t-2 -1.5q-1 -3 -2.5 -5t-2.5 -3q0 -1 -0.5 -1t-1.5 -1q-2 -2 -4.5 -6t-2.5 -15l-7 -54l-4 -30l-2 -20l53 4v3v2v3.5v2.5q0 4 0.5 7.5t1.5 7.5q0 4 0.5 8t0.5 5q2 5 2 8v6t-0.5 5t-0.5 4q-1 1 -1 2v2
q-1 2 -1 3.5t1 3.5v25l2 14l-6 16l1 16l-7 7v0z" />
    <glyph glyph-name="percent" unicode="%" horiz-adv-x="400" 
d="M276 526q17 -2 26 -5.5t13 -11.5l20 -17l-1 -16q0 -4 -2 -7t-7 -5l-4 -11l-7 -2v-7h-5q-1 -3 -2 -5l-2 -4l-2 -2t-2 -1q0 -1 -0.5 -1.5t-1.5 -0.5q-1 -2 -2.5 -4t-2.5 -3l-4 -8t-4 -7t-3.5 -5t-3.5 -3l-7 -15l-3 -8l-14 -18q-4 -9 -6.5 -15t-4.5 -10q-1 -3 -2 -5t-3 -4
l-17 -36l-6 -4l-4 -13l-6 -7l-4 -15l-7 -4l-3 -18q-12 -22 -15 -28.5t-3 -8.5t-0.5 -3t-1.5 -2q0 -1 -0.5 -1.5t-0.5 -1.5q-1 0 -1.5 -0.5l-1.5 -1.5l-11 -27l-4 -15l-9 -15l-1 -12l-5 -8l-11 -44l-13 -39l-5 -5l-1 -9h-12.5t-3.5 1l-1 1v0l-13 10l-9 4q0 1 -0.5 2t-1.5 2
t-1.5 2.5t-0.5 3.5v4.5t1 5.5q0 2 1 4.5t2 4.5q2 3 3 6l2 6q1 5 3 11t4 15l4 4l14 44l15 38l34 71l19 33l19 45l12 19l10 25l13 22l17 35l10 24l7 12l2 10l9 16l9 12l6 16l-5 6v4v0zM271 262h5l8 -2h10l28 -12v-10l-7 -5l6 -7h14l9 -12l3 -11l7 -9q1 -1 1 -2.5t1 -2.5
q1 -4 1 -9v-16l-2 -29l-5 -23l-10 -30l-0.5 -1t-1.5 -2q-1 -2 -1.5 -4.5t-2.5 -5.5q-1 -3 -3 -5l-4 -4v-4l-13 -17q-4 -4 -7.5 -7t-6.5 -4q-2 -1 -3.5 -1.5t-3.5 -0.5h-0.5t-1.5 1h-1.5h-0.5l-6 -3l-18 5l-9 1q-10 5 -18 20.5t-9 33.5l-4 12l4 23q2 12 6 29.5t9 35.5
q5 15 10.5 29.5t10.5 26.5q2 5 3 8t2 5q0 2 0.5 4t0.5 5v0zM312 230l-1 -2v-4.5t-1 -4.5q-1 -4 -3 -8.5t-6 -12.5l-2 -10l-4 -7l-1 -12l-8 -30l-4 -14v-6q-1 -4 -1.5 -7t-1.5 -6q0 -3 -0.5 -5t-0.5 -5q-1 -3 -1 -7t-1 -9l-1 -5l1 -16l5 -17l8 8t6 5q1 2 2 3l2 2q3 3 5 6.5
t5 8.5q2 7 3.5 12.5t3.5 10.5q3 8 5 17t4 23q0 1 0.5 3t0.5 4q0 1 0.5 3t0.5 3l2 4l2 4t1.5 5t0.5 6q-1 1 -1 2v2l-8 44l-9 6l-3 6v0zM79 516h1.5h1.5q3 0 7.5 -1.5t14.5 -5.5q6 -3 10 -4.5t6 -2.5l1.5 -1.5t1.5 -0.5q1 -1 2.5 -2t2.5 -2q2 -2 2.5 -3.5t1.5 -2.5
q1 -2 1 -3.5v-3.5v-1.5v-2.5l-6 -4.5t-2 -3.5q-1 -1 -1 -2v-3q-8 -10 -10.5 -15t-4.5 -8q-4 -7 -6 -10t-4 -5l-0.5 -0.5t-0.5 -1.5l-2.5 -5t-3.5 -9q-8 -22 -10.5 -32t-2.5 -16q0 -3 0.5 -6.5t0.5 -6.5q1 -7 3.5 -13.5t5.5 -12.5q2 1 4 1.5t4 1.5q4 2 7 4t6 6q2 3 4.5 7
t4.5 9q4 4 6 13.5t3 20.5q1 5 1.5 10.5t0.5 9.5q0 1 0.5 3.5t0.5 6.5t0.5 9.5t0.5 11.5l0.5 1t0.5 3t0.5 4.5t0.5 6.5t-0.5 9t-2.5 11h7q7 0 12 -6t7 -14l1 -14v-25l2 -20l-2 -13v-15l-5 -12q-2 -7 -3.5 -10t-2.5 -4q-4 -15 -17.5 -25.5t-30.5 -10.5q-4 0 -8 1t-8 3l-8 6
l-7 4q-4 2 -9 8.5t-10 14.5q0 1 -0.5 2.5t-1.5 2.5q-2 5 -3.5 12t-1.5 18q0 5 0.5 12t1.5 15l8 39l4 7l9 33l9 17v12h5v4v0z" />
    <glyph glyph-name="ampersand" unicode="&#x26;" horiz-adv-x="620" 
d="M194 565l16 -5l21 3q2 2 8.5 2h13.5l0.5 -0.5t1.5 -0.5q1 -2 3.5 -2h9.5l15 -4l9 -13l16 -16l1 -27l-6 -15h-15l-6 3h-2.5h-2.5q-1 1 -2.5 1t-2.5 1q-3 0 -7.5 0.5t-12.5 0.5h-3.5h-4.5q-1 -2 -2 -3.5t-2 -2.5l-1.5 -1.5t-1.5 -0.5l-0.5 -0.5l-0.5 -0.5l-5 -8l2 -9l-2 -1
v-3q-2 -2 -4 -3.5t-3 -3.5q-1 0 -1.5 -0.5l-1.5 -1.5q-1 -2 -3 -4.5t-4 -5.5l-11 -6l-2 -4l-10 -11l-7 -9l-10 -3q-6 -7 -9.5 -12t-5.5 -9q-3 -5 -3.5 -11.5t-0.5 -18.5l-0.5 -2t-0.5 -4q0 -1 -0.5 -2.5t-1.5 -2.5l12 -13l51 20l26 -4l10 2l15 -4l8 -11v1l5.5 -5.5l4.5 -4.5
q0 -1 0.5 -1.5l0.5 -0.5q3 -3 6 -5.5t8 -6.5v-3h4l10 -22l-1 -5l-13 -10v-3l-21 -2q-3 3 -5.5 4.5t-5.5 3.5q-3 1 -7 1.5t-9 0.5l-24 -15l-6 -2t-6 -3t-6.5 -5.5t-8.5 -9.5h-5v-6l-11 -10h-4q-2 -3 -3.5 -5t-2.5 -4q0 -1 -1 -1.5t-1 -1.5l-3.5 -3.5l-4.5 -4.5l-2 -6l-8 -10
l-3 -13l-4 -7q-1 -2 -2 -5t-1 -7l-0.5 -0.5l-0.5 -0.5q0 -6 -1.5 -10.5t-5.5 -4.5l7 -21q11 -5 18.5 -9t14.5 -7t15 -4.5t20 -1.5q12 -1 19 -1h11h7t3 1l22 6q2 1 4 1t3 1q2 0 3 0.5t2 0.5q4 1 9.5 3t14.5 6q2 1 5.5 3t8.5 5q2 1 4.5 1.5t4.5 1.5l25 22v0.5v0.5q0 1 0.5 1.5
l0.5 0.5q0 2 2 5.5t8 11.5l9 20l5 8l3 16v6l5 51q-3 5 -5.5 9t-3.5 8q-2 4 -3 8t-2 9q0 2 -0.5 3t-0.5 3q-1 2 -1.5 3.5t-0.5 3.5l-2 4l-2 4q-1 1 -2 2.5t-2 3.5h-20h-6t-4 2l-2.5 2.5l-3.5 3.5l-14 -2l-6 8l-11 10l-9 4l-10 13q0 1 -0.5 2t-0.5 2l-2.5 2.5t-2.5 1.5l-15 12
l-4 14l9 -4h10l5 -3h13t11 1h9h7q9 0 14.5 -0.5t10.5 -1.5q2 0 4 -0.5t5 -1.5l3 -3l89 3l65 4q0 2 3.5 3t8.5 1h4h4h3h2q3 -1 6 -1h5h23l10 3l13 -7q-4 -7 -7.5 -11.5t-5.5 -4.5h-9l-4 -3l-10 -23l-17 -8l-3 -12l-15 -7q-1 1 -3.5 1h-4.5q-4 0 -8 -1.5t-9 -4.5
q-7 3 -10.5 3.5t-5.5 -0.5h-0.5h-0.5q-2 0 -4 0.5t-6 3.5l-11 -1h-10l-6 -6l8 -25l-2 -6q1 -1 1.5 -2.5t1.5 -2.5q6 -11 10 -21t4 -15v-3l-7 -7v-5l-3 -13v-10l-3 -4h-4q0 -3 -1 -4t-3 -2q-1 -1 -3 -2l-4 -2l-2 -8v-6l-7 -16v-7l-3 -5l2 -6h-2l-6 -10l-6 -7l-14 -22l-6 -6
l-7 -11q-2 -2 -6 -5t-12 -7l-2 -2l-2 -2q-1 0 -1.5 -1t-1.5 -2q-2 -1 -3.5 -3.5t-3.5 -6.5v-0.5v-0.5q-1 -2 -1 -3t-1 -2t-3 -2.5l-6 -4.5h-3v-1.5t1 -1.5v-1.5v-0.5q0 -7 -4 -9t-10 -3q-1 0 -2 -0.5t-2 -0.5l-7 -2l-6 -6l-16 -10l-4 -4l-5 3l-2 -9h-1.5h-0.5q-3 -1 -4.5 -2
t-2.5 -5l-14 -4l-20 1l-8 3h-7l-11 6l-12 4l-17 10l-12 3q-13 7 -24.5 17.5t-19.5 24.5h-3l-20 27l-19 30q-5 9 -7 13.5t-4 7.5v0.5v0.5q-1 2 -1.5 3.5t-1.5 3.5q-1 1 -1.5 2.5l-1.5 4.5q-2 4 -3.5 11t-2.5 15q0 3 -0.5 5.5t-0.5 4.5q-1 5 -1.5 8.5t-0.5 6.5q0 7 1 13t3 13
q6 16 20.5 33.5t40.5 40.5l-4 9l-12 7l-10 12l-6 21l-4 9l-6 27l-7 22l-1 20q0 30 10.5 51.5t32.5 34.5l24 14l10 9l25 6q0 1 1 1.5l3 1.5l4 2t5 1q1 1 2 1h2v0z" />
    <glyph glyph-name="quotesingle" unicode="'" horiz-adv-x="161" 
d="M53 555l8 9l9 2h1.5h0.5h1h1h1h2h4t4 1h4h4q7 -1 12 -4.5t6 -15.5q-1 -1 -1.5 -2t-1.5 -2l-2 -6l-2 -6q0 -1 -0.5 -2.5t-1.5 -2.5l-1 -1t-2 -3t-2 -5t0 -6q1 -1 1.5 -2t1.5 -2l2 -53l-1 -13v-15l-4 -13l-2 -27q-2 -1 -3 -2.5t-2 -3.5q0 -2 -0.5 -3.5t-1.5 -2.5
q0 -1 -0.5 -1.5l-0.5 -0.5q-4 1 -7.5 3.5t-6.5 5.5l-1.5 1.5l-1.5 1.5l-6 10l-6 15l-3 16l3 11l-5 25l2 24l-5 24l1 28l2 18v0z" />
    <glyph glyph-name="parenleft" unicode="(" horiz-adv-x="411" 
d="M288 678v-7l-1.5 -1.5t-1.5 -0.5v-1v0q-1 -1 -2 -1.5l-3 -1.5q-1 0 -1 -1v-2q0 -2 -0.5 -4.5t-2.5 -4.5q-1 -2 -3.5 -3.5t-6.5 -3.5v-7h-3l-22 -47h-4l-1 -10l-4 -9l-11 -34l-1 -12l-10 -40l2 -15l-9 -30l-2 -28l-2 -14l2 -78v-24t1 -15q0 -1 0.5 -2.5t0.5 -2.5l6 -37
q1 -14 14.5 -59t35.5 -106l-1 -4l5 -5l12 -31h2l4 -17q4 -7 7 -11.5l5 -7.5q2 -2 3 -5.5t1 -9.5l11 -20l-1 -13l-15 -4l-12 4v-4l-17 -3l-21 3l-1 6q-14 1 -24 7t-19 21q-4 7 -8 14.5t-8 17.5l-28 65q-3 7 -8 21.5t-10 33.5q-4 13 -7.5 28t-6.5 30q-3 19 -5.5 37t-2.5 34v26
l4 7l-4 4q1 12 2 21t2 17q0 3 0.5 5.5t0.5 5.5q1 10 2.5 21t3.5 26q3 14 5 25.5t4 20.5q1 8 3 15.5t4 14.5q1 3 2 6.5t2 6.5q17 49 21.5 62.5t7.5 16.5v1v0q1 4 1.5 7.5t1.5 5.5q1 5 2.5 7t5.5 2v8q0 3 4.5 12l20.5 41q8 14 18 28t20 26q14 16 27 26.5t22 10.5q12 0 22 -6.5
t10 -16.5q0 -5 -2 -8t-6 -4l-9 -12l-15 -8l-9 -6v0z" />
    <glyph glyph-name="parenright" unicode=")" horiz-adv-x="411" 
d="M109 753l7 -5l7 4h12l16 -9l8 -1l8 -3q12 -4 17 -6t8 -3v0l1 -1q3 -1 10 -5t30 -16v-2l13 -7l11 -9l4 -2q2 -1 3 -2.5t2 -2.5q6 -5 9.5 -11.5t5.5 -20.5h1l6 -17q1 -1 1.5 -2.5t1.5 -2.5q1 -3 1.5 -6t0.5 -8q0 -4 1 -8l2 -8q1 -3 2 -5.5t1 -5.5l4 -26l-2 -5v-13l-2 -1
v-0.5v-0.5q2 -5 2 -13v-31h-2l4 -10q0 -1 -0.5 -1.5l-0.5 -0.5q-1 -2 -1 -6v-23l-2 -53l-11 -85l-23 -114l-5 -20l-24 -71q-2 -4 -3.5 -8t-3.5 -8q0 -2 -0.5 -3t-1.5 -2q-5 -13 -11 -28.5t-15 -36.5q-8 -15 -12 -21.5t-6 -11.5q0 -1 -0.5 -1.5t-0.5 -1.5q-1 -2 -2 -4.5
t-2 -5.5l-11 -14l-10 -23l-4 -2l-0.5 -0.5l-0.5 -0.5q-1 -2 -3 -3t-9 -1l-0.5 0.5t-0.5 2.5t-0.5 4.5t-0.5 7.5q0 8 2 22t6 36l32 134q4 19 8 38.5t8 39.5q10 58 16 113t6 96q0 35 -4.5 74t-11.5 79q-2 11 -4 21.5t-4 21.5t-4 19t-4 14q-3 8 -5.5 13t-5.5 10t-7 9.5
t-10 10.5q-2 1 -3.5 1.5t-2.5 1.5q-17 9 -28 19t-19 26l6 1v0z" />
    <glyph glyph-name="asterisk" unicode="*" horiz-adv-x="395" 
d="M64 617h16l19 -1l37 -28l11 -2l17 -17l13 -8v45l-3 37l-6 26l-6 25h16l18 -10l10 -11l6 -16l3 -15l1 -14l6 -6l-1 -23l-1 -23l-2 -18v-7l10 6l1 9l21 17l22 25l13 22l14 11l1 8l22 -20l2 -11l5 -11l11 -12l-9 -9l-4 10l-12 -7l-10 -3l-3 -8l-9 -3l-4 -9l-15 -4l2 -6
l-7 -5l-13 -12l-6 -7l-17 -18l8 -15l11 -4l3 -9l8 -3l10 -14l9 -2l6 -7l7 -8l8 -3l11 -14l14 -20l9 -18l7 -18l-34 25l-43 30l-26 21l-12 -1l-14 11v-26l1 -26l6 -22l-1 -31l1 -16v-14l-8 -5l-9 1l-7 22l-6 56l-7 43l-10 -2l-17 -11l-5 -10l-20 -11l-15 -12l-10 -6l-12 -1
l-10 -14l-12 7l19 35l34 37l25 22l26 27l-20 17l-16 17l-16 15l-31 19l-17 17l-28 13l14 11v0z" />
    <glyph glyph-name="plus" unicode="+" horiz-adv-x="400" 
d="M33 0v667h334v-667h-334v0zM40 7h320v653h-320v-653v0z" />
    <glyph glyph-name="comma" unicode="," horiz-adv-x="250" 
d="M141 138l8 -9q14 -10 20 -24t6 -33h-2l-7 -26q-4 -8 -6 -10l-4 -4v0v0q-2 -1 -3.5 -3.5t-5.5 -10.5l-9 -17l-5 -2l-0.5 -1t-0.5 -2v-2t-1 -2q-1 -3 -3.5 -8t-8.5 -16q0 -1 -0.5 -2t-0.5 -2q-1 -3 -2.5 -4.5t-3.5 -2.5l-3 -1.5l-3 -1.5q-1 -3 -1.5 -5t-1.5 -3
q0 -2 -0.5 -3t-1.5 -1l-1.5 -1.5t-1.5 -0.5v-7q-1 0 -1.5 -1t-1.5 -1q-3 -2 -5.5 -5t-5.5 -11q0 -1 -0.5 -2t-1.5 -2q0 -1 -1 -1.5t-3 -0.5l-6 -14l-15 -14l-6 3l40 107l5 29q5 18 6 22t2 5v0v0q0 1 0.5 1.5t1.5 2.5l2 33q1 2 1 3.5v2.5q0 5 -2 10l-4 10l-4 12t-2 13v2v2v1
v2l-2 13l13 2q3 0 5 -1t3 -2q3 -2 5.5 -5t7.5 -6l5 -2.5t7 -2.5v0z" />
    <glyph glyph-name="hyphen" unicode="-" horiz-adv-x="256" 
d="M50 233l2 -2h4l6 2l4 -5l10 -2l5 2l18 -4h22l85 -3l-3 -25h-2l-8 -5l-5 -5l-1 2v-4l-9 -2l-1 2l-3 -3l-14 1l2 -8h-17v-2l-18 -3l-35 15h-2h-2q-3 1 -7 2.5t-10 4.5q-1 1 -1.5 2t-0.5 2q-1 1 -1.5 2t-1.5 2q-1 0 -2 0.5t-2 1.5q-2 2 -3.5 4t-2.5 4q-2 4 -3.5 8t-1.5 11
q-1 1 -1 2.5v2.5v0z" />
    <glyph glyph-name="period" unicode="." horiz-adv-x="250" 
d="M152 94l4 -4l9 -14l2 -12l9 -13h-4l1 -8l-7 -6l-4 -7l-11 -4l-7 -15h-17q-10 4 -13 3t-3 -3v-0.5v-0.5l-9 -1l-3.5 7t-1.5 7q-1 2 -1 4v4q0 5 -0.5 10t-3.5 10l-14 25l4 20q2 2 2 3.5v2.5q0 2 -1 4t-2 3q-1 2 -2 3t-1 2q0 6 1.5 7.5t3.5 2.5v0v0q2 1 2.5 1.5l1.5 1.5
q-1 0 -0.5 0t3.5 1q1 0 3.5 0.5t5.5 0.5t6 -0.5t7 -1.5t7.5 -3t6.5 -4q8 -3 15 -8t11 -18v0z" />
    <glyph glyph-name="slash" unicode="/" horiz-adv-x="439" 
d="M407 685q2 -1 4.5 -1h3.5h1.5h0.5q3 0 5.5 -1.5t6.5 -6.5l1 -9l9 -15l-2 -9l-6 -9l-5 -16l-12 -5l-6 -12l-11 -10l-5 -19l-8 -9l-12 -19q-7 -5 -10.5 -10.5t-6.5 -10.5q0 -1 -0.5 -2t-0.5 -2q-3 -7 -7 -13t-12 -11l-5 -13l-10 -7l-5 -18l-10 -9l-11 -30l-9 -18l-11 -17
l-15 -29l-16 -14v-1.5t-1 -1.5q-1 -4 -3 -8l-4 -8q-3 -5 -5.5 -9l-2.5 -4q-3 -3 -4 -6t-2 -7q-1 -2 -1.5 -4t-1.5 -4q-1 -3 -3 -6.5t-5 -6.5l-14 -10l-15 -25l-22 -30l-7 -12l-12 -26l-22 -33l-3 -13l-18 -12q0 -2 -0.5 -5t-1.5 -6t-3.5 -6t-6.5 -5q-5 -12 -8 -15l-5 -5
q0 -2 -1 -5l-2 -6q-3 -6 -7 -10.5t-11 -5.5v-2t-1 -2q-1 -4 -5 -7t-8 -3l-14 -15l-9 3l-14 -6l3 12l14 18l22 42l52 90l27 38l23 35l10 26l10 11l12 24l34 45l9 19l4 16l33 46l20 33l9 20l27 44l12 12l9 18l20 27l14 16l9 15l2 12q7 2 11 6.5t6 9.5q1 2 2 4.5t1 4.5
q1 1 1.5 2.5t1.5 2.5t1.5 2t0.5 3q3 5 4.5 10.5t2.5 8.5v0z" />
    <glyph glyph-name="zero" unicode="0" horiz-adv-x="388" 
d="M142 552q3 -2 5.5 -3.5t4.5 -2.5q5 -3 10 -5.5t11 -4.5t12.5 -4t14.5 -4l17 -10l8 6l29 -6q-1 3 -2 4.5t-2 2.5q0 2 -1 2.5t-2 1.5t-2 1.5t-2 1.5l14 -4l22 -16l24 -15t12 -9q2 -1 3.5 -2.5t2.5 -3.5q0 -1 0.5 -2t1.5 -2l9 -11l10 -22q7 -12 10.5 -19t4.5 -13
q1 -2 1 -4.5v-5.5v-7.5t-1 -6.5q-1 -2 -2.5 -4.5t-3.5 -5.5l2 -3l-8 -16l-3 -18l-4 -11v-15q-2 -3 -4 -7.5t-4 -9.5q0 -1 -1 -2.5t-1 -3.5q-4 -9 -7 -17t-3 -11l-13 -29l-5 -14l2 -12l-9 -24l-1.5 -1.5t-2.5 -1.5h-0.5t-1.5 -1q-1 0 -2 -1.5t-2 -4.5q0 -1 -0.5 -4t-3.5 -12
l-7 -12v-6l5 -8v-14l0.5 -1t1.5 -2q0 -2 0.5 -4t0.5 -4q0 -4 -2.5 -9.5t-8.5 -10.5v-5l-12 -6l-4 -7l-14 -7q-8 -2 -12.5 -3t-7.5 -2h-5h-6l-7 -1l-20 3l-16 7l-9 3l-30 18q-3 2 -5 3l-4 2q-2 0 -3.5 1.5l-2.5 2.5q-40 29 -60.5 65.5t-20.5 77.5q0 8 1.5 26t4.5 47
q0 7 0.5 13.5t0.5 13.5q1 4 1.5 9t1.5 10q1 7 1.5 13t1.5 11q1 6 2 11.5t2 11.5q3 12 8 25.5t16 33.5l10 12q0 3 0.5 4.5t1.5 3.5q2 3 4 6.5t4 9.5l12 24l16 20l11 2l12 4v0zM214 495l-3 -4q0 -5 -0.5 -8t-2.5 -6q-1 -1 -2 -2.5t-3 -2.5l-13 -22l-25 -40q-3 -6 -5 -9.5
t-4 -6.5q-1 -2 -1.5 -3.5t-1.5 -3.5q-2 -5 -4 -11.5t-5 -18.5l-8 -16q-2 -8 -3 -13.5t-2 -10.5v-3.5t-1 -3.5q0 -3 -0.5 -6t-0.5 -7l-3 -3l1 -13l-6 -16v0v0l-1 -1t-1 -3q-1 -4 -2 -11t-1 -21v-7v-9l4 -17l-4 -8q4 -31 20.5 -53.5t34.5 -25.5q2 -1 3.5 -1h3.5q12 0 22 5
t17 15q7 11 10.5 18.5t5.5 14.5q0 1 0.5 2.5t1.5 3.5q1 4 2.5 8.5l3.5 10.5q3 10 6 16.5t5 12.5q3 11 4.5 25.5t1.5 47.5l2 10l-3 13l2 10l1 67v4t1 4v3v4q-1 35 -15 57.5t-32 34.5v0z" />
    <glyph glyph-name="one" unicode="1" horiz-adv-x="292" 
d="M157 523l13 -1l4 -5l9 -1l5 -4l10 -3v-2q2 -1 4.5 -2.5t4.5 -3.5q5 -4 9 -11t4 -17v-6l5 -6l-2 -4q3 -3 5 -4.5t3 -3.5q1 -3 1.5 -6t0.5 -9q-8 -6 -12.5 -8.5t-7.5 -5.5l-1 -1t-1 -2q-2 -1 -3 -2.5t-2 -3.5v-10q0 -3 0.5 -6t1.5 -6t1.5 -5.5t0.5 -4.5q1 -3 1 -5.5t1 -4.5
v-7.5v-7.5l1 -5v-10l3 -10v-0.5v-0.5q-1 -2 -1 -9v-36l-2 -8l-1 -15h-7l-2 -9l1 -12l-4 -23l2 -2v-30q1 -2 1 -4v-4v-2v-2v-1.5v-1.5v-1.5v-1.5q-1 -1 -1 -3v-4q0 -4 -1.5 -12t-3.5 -18q0 -1 -0.5 -2t-0.5 -2q-2 -11 -4 -19.5t-2 -7.5q-1 -1 -1.5 -2.5t-1.5 -2.5
q-1 -3 -1 -6v-8l-4 -16v-3l-2 -7l8 -20q0 -2 -1.5 -4.5t-4.5 -4.5l-12 5v4q-1 -2 -2.5 -2.5t-3.5 -0.5q-1 0 -2 0.5t-2 1.5q-2 1 -3.5 2.5t-3.5 2.5t-4 2.5t-5 2.5l-20 20q2 16 2 29.5v26.5q0 14 -0.5 26.5t-1.5 24.5v11t-1 11v20v20q0 17 1 35t4 40v23l5 23l8 59v22l-3 -5
l-7 -5v-2l-4 -4v-3l-8 -9l2 -7h-7v-3l-5 -10q0 -7 -3.5 -10.5t-7.5 -6.5q-3 -3 -6 -5.5t-4 -7.5l-7 -6v-7l-6 -3l-6 -7v-3l-5 -3l-2 -4q-1 0 -3 -0.5t-4 -0.5q-4 -1 -8 -1.5t-9 -0.5q-4 0 -7.5 1t-6.5 2l-22 22l-10 6l-5 4l-5 10l22 -4q6 0 13 3.5t17 11.5v2l15 10l3 5
l12 12q1 0 1.5 0.5t1.5 0.5t1 0.5v0.5q1 0 1 0.5v0.5h0.5t0.5 1h0.5t1.5 1q3 2 8 7.5t18 20.5l10 4l25 25l10 17l4 1l-3 6l6 32l7 1v0z" />
    <glyph glyph-name="two" unicode="2" horiz-adv-x="319" 
d="M223 522q7 -4 11.5 -7.5t7.5 -6.5q3 -2 5 -4.5t4 -4.5q4 -5 8.5 -12t12.5 -19l4 -22l3 -3v-8t1 -5l-4 -20q0 -4 -1 -7l-2 -6q-1 -4 -2 -6.5t-1 -3.5q-1 -4 -3 -8l-4 -8q-2 -3 -3.5 -5.5t-3.5 -5.5q-8 -11 -13 -16t0 6l-28 -36l-12 -13h-10l-23 -21l-10 -12l-8 -10
l-18 -31l-2 -5h-1l-7 -10.5t-6 -8.5v0v0q-3 -5 -6 -9.5t-8 -10.5q0 -2 -0.5 -4t-0.5 -3q-1 -4 -2 -7t-2 -5q-1 -4 -3 -7.5t-4 -8.5l-1 -2l1 -8q19 6 33.5 10t28.5 7q16 3 33.5 5t43.5 3v1l10 -2t9 -2q28 -6 37.5 -13.5t14.5 -21.5l-22 -5l-45 -2l-57 -4h-11l-20 -10
q-4 -3 -7.5 -5t-5.5 -3q-1 -1 -1.5 -1h-1.5q-2 -2 -5.5 -3.5t-8.5 -3.5l-28 -16q-1 0 -2.5 -0.5t-3.5 -0.5q-1 -1 -2 -1.5t-2 -0.5l-16 15l-7 3l-13 27l-7 4q-1 1 -1.5 2t-1.5 2q-2 2 -3 5t-1 7q0 3 1 7t3 9q2 2 3 4.5t2 5.5q2 4 3.5 9.5t4.5 13.5l2 3l15 45l58 122l10 10
q2 6 5 10.5t6 5.5q4 6 6.5 9t3.5 4v5h5l1 5q1 0 8 8.5t16 20.5q7 11 13 23.5t9 25.5q1 4 1.5 8t0.5 8v1.5v0.5q0 4 -1 7.5t-4 3.5l-11 3l-4 2l-22 4v1l-4 -1l-6 3h-2v-2l-33 -10v-7h-5l-3 -3v-7l-10 -6l-10 -13l-13 -7l-7 -8l-2 -6l-17 1l-29 30v2.5t-1 2.5q0 2 -3 5l-9 9
l-3 9l16 -2l15 9l27 11h3l1 3q3 1 4.5 1t3.5 1h2t2 1q2 0 3.5 1t4.5 2l20 4h3v2q1 0 2 0.5t2 0.5q4 1 9.5 1.5t14.5 0.5q4 1 9 1h11l18 -4l3 -2l14 -4l6 -1l9 -5l13 -10v0z" />
    <glyph glyph-name="three" unicode="3" horiz-adv-x="284" 
d="M-8 469l5 7q3 -1 5 -2.5t4 -1.5q10 -5 27 -5.5t71 -0.5l44 1h57l5 2l2 -3h17l3 -3l11 -16l6 -13q-7 0 -10 -0.5t-6 -3.5q-1 -1 -2 -3l-2 -4l-3 -1.5l-3 -1.5q-1 -2 -3 -4l-5 -5q0 -1 -1 -1.5l-1 -0.5q-4 -4 -10 -9t-21 -16q-1 -1 -1.5 -2.5t-1.5 -2.5l-0.5 -0.5
t-0.5 -1.5q-1 -1 -3.5 -3t-6.5 -6q-2 -1 -3.5 -2.5l-2.5 -2.5l-2 -2t-2 -3l-8 -11l-31 -35q26 0 42 -3t25 -11l17 -15l10 -8l9 -9l11 -13q2 -2 4 -5.5t4 -8.5q1 -2 2 -5t3 -5q3 -8 5 -15t2 -10q0 -9 -1.5 -17t-6.5 -16l-10 -19l-12 -13l-10 -7l-23 -10l-4 -7h-12
q-1 -3 -2.5 -4.5t-3.5 -2.5l-1.5 -3t-0.5 -2v0l-1 -1l-0.5 -0.5l-0.5 -0.5l-14 -8l-19 -13l-4 -2l-13 -9l-15 -19l-5 -1l-1 -6l-5 -3l-5 -1l-18 -19q-1 -4 -4 -5.5t-7 -1.5h-2.5h-2.5q-2 1 -4 1.5t-5 2.5l-2 5l-6 5q-1 1 -2 3l-2 4l-2 6t-2 7q-1 2 -1 3.5t-1 3.5q0 4 -1 8
l-2 8l1 2v6q9 8 16 13.5t14 10.5q3 2 5.5 4t5.5 4q8 5 17 10t21 12q21 17 35 30t23 24q10 13 16 27t11 34q1 1 1.5 2.5t0.5 3.5q-6 2 -11.5 2.5t-8.5 0.5h-23l-44 -5h-20v-6l-4 1v-0.5t-1 -0.5q-1 -2 -3.5 -3.5t-4.5 -0.5t-4 3.5t-3 6.5l-11 34l-4 17l-6 16q0 1 0.5 2.5
t1.5 2.5l2 4l2 4l5.5 5.5l8.5 8.5h1l3 7l7 5l9 8l7 5.5t16 12.5q9 8 17 14t6 4l20 17l9 6l1 0.5t2 2.5q0 1 1 2.5t1 3.5l-3 -1.5t-2 -0.5h-1.5h-1.5t-2 -0.5t-2 -1.5q-3 -1 -6 -1.5t-8 -0.5h-3.5t-5.5 1l-9 -4l-20 -3l-16 -7l-13 3l-9 -4q-20 3 -33 13t-23 30q-2 3 -3.5 6.5
t-3.5 6.5h-1z" />
    <glyph glyph-name="four" unicode="4" horiz-adv-x="441" 
d="M258 569l22 -5l7 -2l13 -11l6 -9l7 -5l6 -12l-5 -8l2 -18l-3 -19v-11t1 -10v-13q0 -15 -1.5 -20.5t-2.5 -7.5q-1 0 -1.5 -0.5l-0.5 -0.5q-1 0 -1.5 -1t-0.5 -2l7 -24q0 -3 -0.5 -4.5t-0.5 -3.5q0 -1 -0.5 -2t-0.5 -2v-2.5t1 -2.5v-5v-7v-9.5t-1 -13.5l-1 -3v-17l-6 -10
v-7l48 7q15 3 22.5 3.5t8.5 0.5q17 0 30.5 -11t19.5 -27l-10 -2l-18 5l-22 -3h-13l-44 -5h-2.5h-3.5q-3 0 -7 -0.5t-9 -1.5l-4 -15h-3v-9q0 -1 -0.5 -2t-0.5 -3q-1 -1 -1 -3t-1 -4q0 -5 -1 -13.5t-3 -23.5l7 -41v-10l-3 -12l3 -22l-4 -8l4 -12l4 -24v-7h-3h-1q-1 -1 -1.5 -1
t-1.5 -1h-0.5h-1.5q-1 1 -3.5 2l-7.5 3q-2 0 -4.5 1.5t-6.5 3.5l-0.5 0.5l-0.5 0.5q-1 1 -2 1.5t-2 0.5l-10 9l-5 11l-6 4l-9 8l-15 27l-5 119q-8 -1 -14 -2.5t-11 -2.5q-4 -1 -7.5 -2t-6.5 -2q-5 -2 -10.5 -4t-12.5 -5l-26 -7q-39 -8 -51 -10t-18 -2h-2h-2h-3.5t-2.5 1
q-3 0 -6.5 1.5t-8.5 3.5l-9 13q-1 1 -2 1.5l-1 0.5q-1 1 -1.5 2.5t-1.5 2.5v1.5v1.5q-4 1 -6 2l-4 2l-2 2l-2 2q-3 3 -4.5 5t-2.5 4q-2 2 -3 4.5t-2 6.5q2 5 3.5 8.5t3.5 7.5q1 4 3 7t4 7q5 7 12.5 15.5t19.5 21.5l19 16l86 84q2 2 4 3.5t3 2.5l1.5 1.5t1.5 0.5l7 7l11 11
q0 -1 8.5 12t42.5 47v2l3 4l-1 2l7 37l1.5 -1.5l0.5 -0.5q3 -2 5.5 -2t6.5 2l10 -8l3 15v0zM221 406l-10 -12l-6 -1l-6 -12l-13 -13l-5 -8l-9 -10l-6 -2q-22 -23 -28 -30t-9 -11h-1v0q0 -1 -0.5 -1.5l-0.5 -0.5q-1 -1 -1.5 -2t-1.5 -2v0l-1 -1q-2 -3 -5 -6.5t-8 -9.5
l-18 -18v-4q10 2 16.5 3t12.5 2q3 1 6 1.5t5 1.5q1 0 2.5 0.5t2.5 0.5q5 1 9.5 1.5t8.5 0.5q12 2 17.5 3.5t6.5 2.5l39 7l3 120v0z" />
    <glyph glyph-name="five" unicode="5" horiz-adv-x="313" 
d="M65 502l10 -10l39 -6l74 -16q8 -1 19 -2t33 -1l65 -5v-4h-0.5t-0.5 -1q-1 0 -1.5 -0.5t-1.5 -0.5q-1 -1 -3 -2t-5 -1l-1 -1l-2 1l-40 -11l-7 -5v-7l-4.5 -1.5t-3.5 -1.5l-1 -0.5t-1 -1.5q-1 0 -1 -0.5t-1 -1.5q-1 0 -2 -0.5t-2 -1.5l-0.5 -0.5t-1.5 -0.5q0 -1 -0.5 -1.5
t-0.5 -1.5q-4 -1 -6.5 -2t-4.5 -2t-4 -3l-5 -5h-3q-5 0 -8 -1t-5 -3h-0.5h-0.5q-2 -2 -4.5 -3t-7.5 -1h-10q-2 0 -3.5 0.5t-3.5 1.5h-2h-2q-4 0 -9 -1.5l-15 -4.5v-54h-2q1 -3 1.5 -6.5t0.5 -8.5v-5t-2 -7q0 -4 -0.5 -10t-2.5 -15q25 -1 46.5 -7t34.5 -17l20 -13
q2 0 3.5 -0.5t2.5 -1.5l1.5 -1.5l0.5 -0.5l19 -15q1 -1 2.5 -1.5t2.5 -1.5q5 -4 11 -10.5t17 -19.5l7 -20v-25l-3 -6l2 -4q-4 -6 -6.5 -11t-2.5 -9q0 -1 -0.5 -3t-0.5 -3l-3.5 -7t-5.5 -5l-3 -7l-10 -6v-3q-3 -2 -5.5 -4t-4.5 -3l-2 -2t-4 -2q-1 -1 -2.5 -1t-3.5 -1l-4 -7
h-6l-2 -5h-2l-22 -16l-13 -5l-21 -9q-5 0 -7 -0.5t-4 -1.5q-1 0 -1.5 -0.5t-1.5 -0.5t-4.5 -1t-7.5 -4q-1 0 -1.5 -0.5l-1.5 -1.5l-20 -10q-5 -2 -9.5 -3.5t-5.5 -1.5l-7 4q-3 1 -4.5 3t-2.5 5v0.5v1.5q0 5 4.5 10.5t10.5 14.5l29 26l14 9l1 3l15 12h1v4l23 25q5 8 8.5 13.5
t6.5 9.5l8 20l10 21l3 3v6l4 14q0 5 -4.5 10t-10.5 10q-1 1 -2.5 1.5t-2.5 0.5q-3 1 -7 2.5t-8 1.5q-10 5 -17.5 6t-11.5 1l-20 -1q-4 -3 -6.5 -5t-4.5 -4q-3 -4 -4.5 -7t-2.5 -8q-1 -1 -1.5 -2t-0.5 -3q0 -1 -0.5 -2t-0.5 -2q-2 -7 -6.5 -13.5t-11.5 -9.5q-1 -2 -2.5 -4
t-3.5 -2q-4 0 -5.5 0.5t-1.5 2.5l-17 17l-0.5 0.5l-0.5 0.5q-2 1 -3 3t-2 6q0 2 -1.5 4.5t-4.5 5.5q1 -1 -5 3.5t-17 26.5l-8 5l13 133l11 84q6 12 7.5 16.5t1.5 7.5l-0.5 0.5t-0.5 1.5v0z" />
    <glyph glyph-name="six" unicode="6" horiz-adv-x="325" 
d="M193 579l12 -10h1h6l14 -11l7 -16l9 -12q2 -2 2.5 -7t0.5 -10v-2v-2q0 -3 -0.5 -6.5t-2.5 -5.5l-25 -25t-7 -6v0l-1 -1h-1t-2 -1h-0.5t-0.5 -1q-2 -2 -5.5 -8t-16.5 -14l-3 -3l-12 -19l-4 -3v-5q-2 -4 -3.5 -6.5t-2.5 -4.5l-0.5 -0.5l-0.5 -0.5l-4 -6t-6 -8l-11 -13
l-3 -13l1 -4l19 11h4l23 -3l3 -3h7h1.5h0.5h3.5t4.5 -1l24 -7l21 -22q4 0 6 -0.5t3 -1.5l1.5 -1.5l0.5 -0.5l16 -27l9 -12l1 -6v-9v-8l2 -22l-2 -39v-4.5t-1 -10.5q0 -1 -0.5 -3t-0.5 -4t-0.5 -4t-0.5 -3v-2v-2v0v0l-2.5 -3t-5.5 -21l-7 -18q-4 -10 -6 -14t-4 -6
q-1 0 -1 -0.5v-0.5l-4.5 -4.5t-5.5 -8.5v-1l-10 -10l-7 -7h-3l-11 -12h-2q-2 0 -3 -0.5t-2 -0.5q-1 -1 -2 -1h-2q0 -1 -1 -1h-2h-5l-13 -7h-9h-6q-5 1 -6 1t-1 1t-0.5 2t-4.5 3q-7 0 -18 6t-24 14q-9 4 -16.5 11t-13.5 14l-12 20l-17 24q-15 19 -22.5 49.5t-7.5 66.5
q0 19 1.5 36.5t5.5 34.5q5 20 12.5 39.5t18.5 40.5l8 17h1q4 7 6.5 12.5t5.5 9.5l1.5 3l1.5 3q3 5 7 11t10 14l6.5 6.5l4.5 4.5v0l1 1q2 2 5 5.5t9 9.5l16 18l21 24l1.5 1.5l0.5 0.5q4 4 10 8.5t17 12.5v0zM249 281l-4 5l-6 10l-7 -2l-6 5l-11 2q-4 10 -10 12.5t-17 2.5
q-5 0 -11 -1t-11 -4q-9 -3 -17 -9.5t-16 -15.5q-8 -8 -15 -17.5t-13 -19.5q-8 -13 -12.5 -25.5t-4.5 -21.5v-15l3 -27q0 -1 2.5 -6.5t7.5 -13.5q10 -15 20 -22.5t20 -7.5h3.5t2.5 1q8 1 16.5 7t19.5 15q8 7 14 13.5t11 12.5q8 10 13.5 21t10.5 25l10 29q2 10 3 16t2 11
q1 4 1.5 8.5t0.5 11.5v0z" />
    <glyph glyph-name="seven" unicode="7" horiz-adv-x="355" 
d="M228 538h4v-2q5 0 7.5 -0.5t5.5 -1.5t6 -3t7 -5v-3h0.5h1.5q1 -1 2 -1t2 -1q2 0 4 -2t5 -6q2 -1 3.5 -2.5l3.5 -3.5q1 -1 2.5 -2t3.5 -2q2 0 3.5 -1.5l2.5 -2.5q1 0 1 -0.5v-1.5q2 0 3.5 -2.5t3.5 -5.5v-7l6 -22h-1l-8 -43l-4 -19l-12 -51l-3 -25l-8 -30l-2 -19l-2 -32
q0 -4 -1.5 -8l-4.5 -12q-1 -3 -1.5 -6t-1.5 -5q-1 -3 -1.5 -6t-1.5 -6t-1.5 -5t-1.5 -4q0 -1 -0.5 -2t-0.5 -2l-2 -2t-2 -3l-12 -61h-2v-7h-1v-13q0 -7 1 -19t3 -25q0 -1 0.5 -2.5t0.5 -2.5l4 -21h-2v-2l-4 -8q1 -1 1 -1.5t1 -1.5v-2.5v-1.5v-5l-5 -3l-5 6l-5 -3h-3
q-2 -3 -3 -5t-2 -2q-1 -1 -1 -2.5v-2.5t0.5 -1h1.5v-7v-7l-5 7l-11 20l-4 -8l-3 5l-7 3l-2 5v1h-1v-3l-3 -1l-6 11l-1 -1q-2 2 -3.5 4t-3.5 3q-1 3 -2.5 5.5t-2.5 5.5q0 1 -0.5 2.5t-0.5 2.5h-3l-7 20l-9 3q-4 11 -6.5 18.5t-4.5 11.5q-2 5 -3.5 9t-1.5 5q0 2 -1 4.5t-3 5.5
q-1 1 -2 2.5t-2 2.5v4q-1 2 -1.5 3.5t-1.5 2.5q-1 3 -2 6.5t-1 5.5l1.5 3t0.5 2l0.5 0.5t0.5 1.5q1 1 1.5 4t1.5 7q3 3 4 9t1 13q1 1 1 2.5v2.5q1 2 1 3.5v2.5t0.5 2t0.5 2l45 138l10 29l26 66q3 5 5 10t4 12q1 7 3 16.5t5 22.5q-3 -1 -6.5 -1.5t-5.5 -1.5q-3 -1 -5 -1.5
t-3 -1.5q-7 -1 -13.5 -2t-8.5 -1l-10 -3l-6 -1l-20 4q0 -1 -1 -2l-1 -1q-1 -1 -2 -1h-1l-10 -3h-9h-19l-7 -2l-1 2q-2 -1 -3 -1t-2 -1h-0.5h-1.5t-2 -0.5t-3 -0.5l-20 -4l4 -8l-4 -8v-3l-7 -6v-1q-1 0 -2.5 -0.5t-1.5 -1.5h-1.5t-0.5 -1q-1 0 -2 -1l-2 -2h-9l-3 6l-23 11
l-4 3h-1l-2 -3l-1 3l-30 53h1l-3 10h1.5t1.5 -1v0v0q2 0 3 -0.5t1 -2.5q4 -2 6.5 -4t5.5 -3q3 -2 7 -2.5t9 -0.5l44 4q13 2 20.5 2h9.5t4 0.5t4 0.5h4h4l4 3q15 2 23.5 2.5t15.5 0.5q1 0 2.5 0.5t2.5 0.5h2h2l33 5q1 0 2.5 0.5t2.5 0.5q6 2 13 2.5t17 0.5q3 1 6 1h7l2 5v0z
" />
    <glyph glyph-name="eight" unicode="8" horiz-adv-x="369" 
d="M277 392l-29 -42l-6 -7l-3.5 -3.5t-7.5 -9.5q-3 -4 -5 -9.5t-4 -11.5q-4 -8 -5 -12.5t-1 -6.5t0.5 -3t0.5 -2q2 -2 4.5 -4l7.5 -6l10 -6l13 -8l13 -14l10 -6l8 -11l7 -7t5 -6q4 -5 5 -11t1 -15l2 -3l-2 -9l-4 -8q-1 -7 -2.5 -10.5t-4.5 -5.5q-2 -2 -3.5 -3l-4.5 -3v-3
q-3 -1 -4.5 -2t-2.5 -2t-1.5 -2t-1.5 -2t-1.5 -2l-1.5 -3q-8 -6 -13 -11t-9 -10l-14 -6l-3 -4.5t-2 -2.5l-1 -0.5t-2 -0.5q-1 -1 -2.5 -1t-4.5 -1l-5 -9l-20 -11h-2h-2q-1 -1 -4 -3t-9 -7q-3 -1 -5.5 -1.5t-4.5 -0.5q-3 0 -5 -0.5t-4 -3.5l-18 3h-5l-10 3l-10 8l-10 3l-3 6
l-7 3q-5 4 -8 6.5t-6 4.5q-2 2 -3.5 4t-2.5 5l1 22q5 16 12.5 30.5t16.5 28.5q3 4 5 7.5t5 7.5q1 2 2.5 4t2.5 4l16 24l8 11q1 2 2 3.5t2 3.5q1 1 1.5 2.5t1.5 2.5q2 4 5.5 8.5t8.5 11.5l-19 8l-16 4l-12 6q-16 9 -28 18t-17 19l-4 8l-16 22l-10 20q-3 12 -3.5 18.5
t-0.5 11.5q0 34 18.5 65t44.5 50q5 4 9 8l7 7q1 1 2 1.5t2 1.5q2 2 6 4.5t9 5.5q3 1 6.5 2.5t6.5 2.5q9 5 15 8t10 4l12 7q2 0 3.5 0.5t2.5 0.5q3 1 4 1.5t2 0.5h8q1 -1 3 -2t6 -1q2 -1 5.5 -1t8.5 -1l4 3l5 -8l21 -19l13 -6l7 -8l3 -23h6v-8q2 -4 2.5 -6t0.5 -3v-0.5v-1.5
v0v0v-2v-1q-1 -2 -3.5 -3.5t-8.5 0.5l-4 -3q-5 -4 -8 -6.5t-5 -2.5q-1 -1 -2 -1h-2q-1 -2 -2.5 -3t-1.5 -2l-3 -1.5l-3 -1.5q-2 0 -4 -0.5t-5 -1.5q-2 0 -5 -1.5t-10 -9.5l-8 -5l-10 -9l-13 -8l-19 -11l-10 -6q-1 -1 -2 -1.5t-2 -0.5q-1 -1 -2.5 -1.5t-2.5 -0.5l-4.5 -4.5
t-3.5 -7.5l-6 -3l-11 -13l-11 -10q-1 -5 -2 -9t-2 -7q-2 -6 -4.5 -9t-6.5 -5l4 -8l23 -15l52 -19l13 16l13 19l50 69l9 10l73 98l15 21l8 8l6 14l-4 1l5 17l5 3l4 -1l7 6l10 -3q1 0 2 -0.5t2 -0.5q5 -1 5.5 -3t0.5 -8l-8 -5l-3 -15l-10 -17q-1 -1 -2 -1.5t-2 -1.5
q-2 -2 -4.5 -6.5l-7.5 -13.5l-9 -9l-8 -11l-9 -2l-6 -11l-11 -10l-22 -33q-3 -5 -5 -8t-4 -5q-1 -1 -1.5 -2t-1.5 -1q-1 -2 -2.5 -3t-3.5 -3q-2 -6 -4.5 -9.5t-3.5 -6.5q-1 -1 -1.5 -2t-0.5 -2v0zM196 264l-20 -30l-9 -20q-1 -1 -2.5 -1.5t-2.5 -1.5q-1 0 -1.5 -0.5
t-1.5 -0.5l-2 -2l-3 -3l-3 -10l-8 -10l-9 -19l-5 -3l-5 -18h-3v-9q-5 -10 -6 -13.5t-1 -5.5v-1v0q0 -9 4.5 -14t16.5 -6v-3h8q7 0 13 1t12 3q8 3 17.5 10t22.5 20q11 8 19 21.5t13 28.5l2 12t1 12q0 17 -6.5 28.5t-21.5 22.5q-4 3 -8.5 6t-10.5 6v0z" />
    <glyph glyph-name="nine" unicode="9" horiz-adv-x="391" 
d="M110 553l5 -3l7 1l11 -1q7 -6 10.5 -8.5t6.5 -4.5q1 0 2 -0.5t2 -1.5q2 0 3.5 -0.5t3.5 -1.5q5 0 12.5 -2.5t17.5 -7.5l27 -12l22 -14l21 -10l29 -29l10 -7q0 -1 0.5 -1.5l1.5 -1.5q1 -2 1.5 -3.5t1.5 -2.5q2 -3 4.5 -6t6.5 -7v-4l13 -19l21 -46l2 -28l4 -15q2 -2 2.5 -9
t0.5 -30q-1 -3 -1.5 -5t-0.5 -4q-1 -3 -2 -5.5t-3 -5.5q-1 -3 -3 -6t-4 -8q-1 -1 -1.5 -2t-1.5 -1q0 -1 -1 -2t-1 -2q-1 -3 -2.5 -7t-4.5 -11l-23 -57l-10 -23l-17 -43l-5 -15h-2l-10 -20l-30 -49l-10 -7l-2 2l-6 -5l-2 3v-3l-2.5 -0.5t-5.5 -1.5h-2.5h-3.5q-2 -1 -3.5 -1
h-3.5t-4 0.5t-3 1.5l-27 -4v5l-9 9h-7l-3 9l-4 -2v-1l-8 1l-11 -3q-3 0 -4.5 0.5t-2.5 1.5h-0.5h-0.5q0 1 -0.5 1h-0.5v4l-5 3l5 13l2 22q7 14 11 20.5t6 10.5l1.5 1.5t0.5 1.5q1 2 3 4t4 5q1 3 3.5 7.5t6.5 8.5q1 2 2 3l2 2q0 1 0.5 1.5t0.5 1.5q3 4 6.5 12t12.5 27l26 48
l4 19l12 36q0 1 0.5 2t0.5 2q3 8 4.5 17.5t2.5 27.5l-6 -5q-1 -1 -2 -2.5t-1 -2.5q-1 -1 -1 -1.5t-1 -0.5q-1 -2 -2.5 -4t-4.5 -4l-2 -5l-4 -2l-7 -8l-10 -6q-2 -2 -4.5 -3t-4.5 -1v0v0q-1 0 -2 -0.5t-5 -3.5l-6 2l-4 -2l-22 4l-21 8l-3 2l-12 5l-17 12l-13 13q-5 3 -9 6.5
t-7 7.5q-2 3 -4 5.5t-4 4.5t-3.5 5l-2.5 5q-5 8 -7.5 15t-2.5 11l-4 16l-5 26v6q0 11 1.5 20t4.5 19q6 14 17.5 30t30.5 37l2 -3l16 17l20 12v0zM179 484v-10q-1 0 -2.5 -0.5t-3.5 -0.5q-1 0 -2 -0.5t-2 -0.5q-1 -1 -2.5 -1.5t-2.5 -0.5q-3 -2 -4.5 -4t-2.5 -5q-1 0 -1.5 -1
t-0.5 -2l-13 -7q0 -2 -5 -7l-11 -11v-0.5v-0.5l-9.5 -9.5l-6.5 -6.5l-1 -5l-16 -18q0 -1 -0.5 -3t-1.5 -4q0 -1 -0.5 -2t-0.5 -2t-0.5 -2t-0.5 -2q-1 -2 -2 -4.5t-2 -5.5t-2.5 -8t-2.5 -12l2 -11l1 -9q0 -4 6 -7.5t13 -7.5q2 -1 3.5 -2t3.5 -2q5 -3 9 -4t7 -1q6 0 18 3.5
t29 10.5q14 6 25.5 13t18.5 15q5 5 7.5 10t2.5 9v11l-4 29q0 8 -2.5 16t-5.5 18q-6 12 -9.5 19.5t-5.5 9.5l-18 17l-2 -1v0z" />
    <glyph glyph-name="colon" unicode=":" horiz-adv-x="250" 
d="M111 126q3 0 5.5 -0.5t5.5 -1.5q3 0 5.5 -1t5.5 -2q4 -2 7.5 -6t6.5 -8l1 -1t1 -2l3.5 -3.5t2.5 -3.5l1.5 -1.5t0.5 -1.5q7 -6 12 -11t5 -10v-6t-1 -6v-3t-1 -3l-11 -24l-9 -1v-6h-3v-5l-24 -9l-2 -4l-9 6l-6 -6l-12 12l-7 15l4 17l-13 26l-2 13l5 16l-5 11l5 7l17 3h11
v0zM139 413h11l10 -8l12 -2l2 -11l3 -8l-5 -11l-4 -21l6 -14l-13 -18l1 -13l-13 -5l-13 -3l-6 -6l-29 13l-3 6l-9 6l-2 14l-9 10q-1 2 -2 4.5t0 4.5v4.5v4.5t1 4t3 4q1 2 1.5 3.5t1.5 2.5q1 2 1.5 3.5t1.5 3.5q1 3 2.5 5.5t3.5 4.5l2 2t2 1l1.5 1.5t1.5 0.5q1 2 3 3t3 1h1.5
h0.5h2h2q1 -1 3 -1t3 1q2 1 3.5 2.5t3.5 4.5v0v0q2 2 3.5 4t2.5 3t2.5 0.5t3.5 -0.5l1 -0.5t2 -0.5v0z" />
    <glyph glyph-name="semicolon" unicode=";" horiz-adv-x="250" 
d="M141 138l8 -9q14 -10 20 -24t6 -33h-2l-7 -26q-4 -8 -6 -10l-4 -4v0v0q-2 -1 -3.5 -3.5t-5.5 -10.5l-9 -17l-5 -2l-0.5 -1t-0.5 -2v-2t-1 -2q-1 -3 -3.5 -8t-8.5 -16q0 -1 -0.5 -2t-0.5 -2q-1 -3 -2.5 -4.5t-3.5 -2.5l-3 -1.5l-3 -1.5q-1 -3 -1.5 -5t-1.5 -3
q0 -2 -0.5 -3t-1.5 -1l-1.5 -1.5t-1.5 -0.5v-7q-9 -10 -12 -15.5t-4 -7.5q-1 0 -1.5 -0.5t-2.5 -0.5l-6 -14l-15 -14l-6 3l25 66l15 41l5 29q5 18 6 22t2 5v0v0q0 1 0.5 1.5t1.5 2.5l2 33q1 2 1 3.5v2.5q0 5 -2 10l-4 10l-4 12t-2 13v2v2v1v2l-2 13l13 2q3 0 5 -1t3 -2
q3 -2 5.5 -5t7.5 -6l5 -2.5t7 -2.5v0zM119 413q3 0 5.5 -0.5t5.5 -1.5q3 0 5.5 -1t5.5 -2q4 -2 7.5 -6t6.5 -8l1 -1t1 -2l3.5 -3.5t2.5 -3.5l1.5 -1.5t0.5 -1.5q7 -6 12 -11t5 -10v-6t-1 -6v-3t-1 -3l-11 -24l-9 -1v-6h-3v-5l-24 -9l-2 -4l-9 6l-6 -6l-12 12l-7 15l4 17
l-13 26l-2 13l5 16l-5 11l5 7l17 3h11v0z" />
    <glyph glyph-name="less" unicode="&#x3c;" horiz-adv-x="400" 
d="M33 0v667h334v-667h-334v0zM40 7h320v653h-320v-653v0z" />
    <glyph glyph-name="equal" unicode="=" horiz-adv-x="400" 
d="M33 0v667h334v-667h-334v0zM40 7h320v653h-320v-653v0z" />
    <glyph glyph-name="greater" unicode="&#x3e;" horiz-adv-x="400" 
d="M33 0v667h334v-667h-334v0zM40 7h320v653h-320v-653v0z" />
    <glyph glyph-name="question" unicode="?" horiz-adv-x="470" 
d="M168 90l9 -4l13 2l9 -3l13 -11l14 -9l2 -4l7 -5l5 -10l9 -8l1.5 -1.5l1.5 -1.5l2 -4t1 -6q0 -1 0.5 -2t0.5 -2q1 -2 2.5 -4t3.5 -3q0 -1 0.5 -2t0.5 -2t0.5 -2.5t0.5 -3.5v-2.5t-1 -2.5v-0.5v-0.5q-1 -1 -1.5 -3.5t-1.5 -5.5q0 -2 -1.5 -4t-3.5 -3l-18 -3l-6 -3
q-3 1 -4.5 1t-3.5 -1h-2h-2t-1.5 1t-0.5 3l-7 -2l-7 8l-16 7q-10 5 -15.5 24t-5.5 50l-2 11l1 7l3 5v0zM400 496q1 -1 2 -2.5t2 -3.5q1 -1 1 -2v-2q5 -9 8 -15.5t3 -11.5v-23q0 -4 -1 -7.5t-4 -6.5q-1 -2 -3 -3.5t-5 -3.5h-4q-1 -2 -1.5 -3.5t-0.5 -3.5q-1 -1 -1.5 -2
t-0.5 -2q-1 -2 -2.5 -3.5l-3.5 -3.5q-1 -4 -1.5 -6.5t-0.5 -5.5v-4v-4t-0.5 -4.5t-0.5 -3.5q-1 -4 -1.5 -6.5t-2.5 -4.5l-2 -2l-2 -2l-4 -5l-9 -27l-12 -16v-2l-4 -2l-2 -5l-7 -2q-2 -3 -3.5 -5t-2.5 -3q-2 -1 -3.5 -1h-3.5l-1 -2h-9l-3 2l-5 -2h-6q-19 -9 -23.5 -12
t-6.5 -3v0v0q-1 -1 -2.5 -1.5t-2.5 -1.5q-2 -1 -3 -2t-2 -4l-8 -4l-9 -8l-2 -8v-8l-3 -1q4 -8 5.5 -13.5t1.5 -9.5q0 -2 -0.5 -4.5t-1.5 -4.5q0 -1 -0.5 -2t-0.5 -2l-13 -28l-19 4l-11 5h-9l-3 3l-13 7l-3 18l-6 11l-2 9l-2 26q0 5 0.5 15.5t1.5 35.5l3 -4l4 7l2 -2
q4 4 7.5 6.5t6.5 4.5q6 3 12 4t16 2q4 1 8.5 2t8.5 2q9 3 17.5 6.5t12.5 10.5q1 1 1.5 2l0.5 1q0 1 0.5 1h0.5q1 2 2.5 3.5l5.5 5.5l21 27q1 2 2.5 3.5t2.5 3.5q3 6 5 13t4 22q1 3 1.5 6.5t0.5 7.5v6h2l-2 32l-3 18l-10 19q-2 1 -5.5 4.5t-9.5 7.5l-3 1.5l-3 1.5
q-7 6 -12.5 9.5t-10.5 4.5l-18 9l-11 7h-7l-2 -4l-6 -3l-3 -5h-1.5h-1.5q0 -1 -1 -1h-1l-4 -2l-6 -3l-7 -6v-2q-4 -1 -6 -2t-3 -2q-1 0 -2 -0.5t-1 -1.5l-2 -2t-3 -2h-10q-5 -2 -7 -3.5t-4 -2.5h-1.5h-1.5q-2 0 -5.5 1t-11.5 2h-24q-1 1 -4 3t-14 5q-6 5 -10.5 7t-6.5 4
l-2 2l-2 2l-2 7l-12 6l-6 13l-13 10l-2 7h2l4 -5v10q7 0 11 0.5t8 2.5l5 2.5l7 3.5v2l6 6l18 5l3 4l13 3l1 3q11 2 18 3t13 1h2.5h2.5h5.5h6.5q3 -1 7.5 -1h9.5l4 -3q9 -2 18 -4.5t19 -4.5q16 -5 31.5 -10.5t28.5 -10.5q6 -3 11 -6t9 -6l53 -35l22 -18l9 -8l3 -1.5t3 -2.5
q3 -2 6.5 -6.5t9.5 -10.5v0z" />
    <glyph glyph-name="at" unicode="@" horiz-adv-x="400" 
d="M33 0v667h334v-667h-334v0zM40 7h320v653h-320v-653v0z" />
    <glyph glyph-name="A" unicode="A" horiz-adv-x="787" 
d="M410 657l47 -14l44 -18l33 -9l28 -19l15 -16l5 -22l-12 -15l2 -12l-10 -37l7 -46l16 -41l-6 -12l23 -73l19 -78l8 -26l1 -30l9 -14l18 -52l4 -32l28 -99l30 -56l-1 -9l8 -7l-8 -7l5 -13l-8 -1l2 -23l4 -23l1 -16l-8 -9l-48 92l-2 11l-53 137l-34 123l-27 -4l-32 5l-8 -3
l-112 15l-5 -6l-20 5l-30 -28l-10 -12v-12l-20 -39l-24 -61l-10 -12l-20 -7l-9 -8l-15 -8l-10 -24l-15 -8l-5 -20l-10 -8l-20 -9l-32 -32l-5 -2l-13 -13h-10l-14 -5l-8 9l2 24l42 72l36 83l21 32l42 80l-50 1l-84 -15l-55 -3v14l-13 16l11 28l-2 24l8 1l7 -5l12 -1l8 5
l12 -9l13 4l18 -6l44 3l62 -3l35 2l40 89l12 13l3 15l17 37l29 52l35 80l21 60l11 24l-5 10l-8 8l-14 2l7 10v6v0zM498 423l-16 -28l-11 -11l-10 -23l-19 -36l-11 -4l-4 -14l-15 -31l-13 -6l-12 -26l179 -16l-27 88l-32 101l-9 6v0zM33 -3l50 12l26 11l-18 -32l-21 -21
l-11 -19l-16 5l-1 14l-16 8l-5 14l-2 14l14 -6v0zM657 191l14 -12l16 -40l14 -20l9 -46l19 -69l6 -35l-1 -9l-23 44l-22 75l-32 112v0zM45 101l53 16l57 3l8 -7l-25 -29l-39 -12l-33 -3l-21 32v0zM438 180l79 -4l16 -4l-38 -13l-26 2l-24 -4l-16 -8l-32 8l-23 -6l-12 12
l4 14l15 8l57 -5v0zM131 317l79 -10l16 -12l-5 -15v-11l-32 10l-43 5l-31 20l2 7l14 6v0zM194 413l36 -8l44 -22l8 -14l-7 -12l-13 -8h-21l-58 34l-24 8l-12 9l9 8l10 -4l28 9v0zM598 523l13 -11l6 -43l6 -36l7 -56l-1 -9l-23 59l-15 36l-2 41l-6 19h15v0zM210 532l37 -5
l24 -7l30 -13l22 -20l12 -22l-14 -13l-28 -1l-34 18l-69 55l20 8v0zM235 623l48 -11l30 -19l44 -24l5 -14l-16 -14l-20 2l-23 5l-33 20l-43 39l-4 8l12 8v0zM281 697l22 -1l32 -12l31 -17l28 -16l3 -8l-6 -11h-10l-19 -9l-27 18l-25 20l-33 30l4 6v0z" />
    <glyph glyph-name="B" unicode="B" horiz-adv-x="715" 
d="M448 288l-4 -7l15 3l60 -15l24 -9l50 -24l51 -48l12 -20l17 -40l-4 -13l-10 -18l-4 -13l-11 -16l-13 -7l-31 -61l-39 1l-13 -2l-55 -23h-21l-37 -5l-35 8l-57 16l-15 9v-15l4 -10v-24l9 -28l-10 -6l-43 15l-8 -3l-9 8l-14 3l-34 28l-12 83l-4 81l-8 77l4 18l-6 8v125
l3 39l-3 28l-6 17l-2 11l48 -11l38 -11l41 -17v-8l4 -7l-4 -32l-5 -16l4 -21l16 -1l36 12l44 22l61 39l15 23l6 1l6 -7l16 26l-27 12l-122 23l-57 5l-68 1l-34 1l-35 -2l-44 4l-29 5l-16 17l-32 59l-15 21l-4 24l-3 35l40 -63l63 -2l11 4l86 -6l102 -10l82 -18l71 -22
l47 -26l32 -28l10 -17l35 -32l11 -27l-44 -46l-50 -40l-77 -35v0zM323 240l-7 -13l13 -198h34l84 24l66 39l2 8l40 35l32 34l5 34l-37 20l-52 16l-79 8l-101 -7v0zM340 229l19 -13l-4 -48l9 -67l-4 -25l-7 -13l-14 126l1 40v0zM76 -23l99 47l16 16l-2 -25l7 -11l-11 -12
l-28 -9l-18 -8l-34 -3l-29 5v0zM73 64l52 17l40 12l11 8l1 -13l4 -11l-18 -17l-20 -7l-30 3l-40 8v0zM69 149l91 2l25 5l4 -8l-8 -12l-12 -8l-18 -5l-27 4l-48 14l-7 8v0zM67 203l25 -4l63 6l13 7l8 -1l-12 -18l-28 -16l-9 -1l-55 15l-5 12v0zM59 259l40 -2l57 6l31 -2
l-3 -8l-25 -16l-20 -4l-31 4l-23 6l-26 16v0zM65 323l106 -7l2 -9l-12 -2l-4 -9l7 -5l-25 -6l-38 15l-14 3l-22 20v0zM535 309l21 8l53 50l10 2l-34 -38l-29 -26l-21 4v0zM69 395l51 -15l60 -13l-3 -10l2 -10l-28 5h-26l-29 13l-9 12l-18 18v0zM75 457l36 -14l69 -5l-1 -29
l-52 2l-30 13l-22 33v0zM577 585l6 -12l5 -18v-18l-27 -14l-10 4l-15 -4l3 16l10 20l28 26v0zM487 627l12 -14l8 -20l4 -13l-10 -3l-18 -12l-22 -10l-6 5l5 25l12 27l15 15v0zM408 657l9 -22l3 -22l1 -21l-2 -9l-19 -4l-7 -3l-8 23l4 22l10 24l9 12v0zM251 696l10 -20l7 -23
l-7 -17l-6 -17l-14 -16l-9 -4l-4 20l4 29l11 25l8 23v0zM81 692l18 -11l9 -12l4 -26l4 -16v-18l-8 -9l-19 8l-8 84v0zM319 680l9 -13l7 -14l-2 -22l-13 -18l-16 -13l-3 16l18 64v0zM157 699l14 -12l14 -27l3 -19v-21l-1 -8l-7 4l-9 -7l-12 16l-3 31l3 28l-2 15v0z" />
    <glyph glyph-name="C" unicode="C" horiz-adv-x="737" 
d="M620 642l16 -10l3 -11l19 -13l18 -40l15 -14l2 -21l-5 -20l-9 -11l-28 -6l-56 -17l-43 -17l-47 -30l-32 -18l-70 -49l-65 -52l-54 -55l-21 -24l-24 -21l-17 -20l-34 -75l-12 -34l-13 -41l12 -7l41 -8l51 -10l30 -3h68l44 1l35 -3l49 2l99 -4l48 2l19 -2l8 -10l-2 -9h-20
l-44 -8l-120 -14l-57 -5l-49 -7l-84 -4l-20 5l-8 -2l-19 7l-31 6l-24 3l-13 7l-16 5l-37 46l-11 26l-5 30l-1 65l13 53l16 42l25 44l9 9l15 29l20 26l33 39l26 27h8l26 30l18 10l28 23l29 17l11 11l33 20l32 21l89 39l43 14l15 6l18 5l7 9v16v0zM235 103l4 -8v-8l28 -11
l50 -7l39 2l33 -3l106 -1l25 4l32 -4l40 -3l20 -3l20 2l7 -8l-28 -7l-44 -4l-28 -1l-70 4l-33 -6l-31 3l-28 -4l-29 3h-33l-14 -4l-25 2l-21 6l-26 2l-16 10l-10 10l13 22l19 12v0zM33 99l22 -7l28 -4l4 -11l-3 -12l-17 -1l-18 3l-20 13l-10 13l-2 14l16 -8v0zM0 217l19 -4
l44 7h28l9 -10l3 -8l-8 -9l-14 -5h-14l12 -7l4 -13l-23 2l-12 15l-20 9l-19 10l-9 13v0zM311 232v18l44 34l28 30l16 10l26 22l46 31l36 25l29 16l21 12l24 10l19 10l20 6l25 6l40 15l15 -11l12 -18l4 -11v-12l-7 1l-9 7l-23 12l-18 -5l-47 -16l-27 -4l-9 -11l-40 -17
l-35 -23l-21 -9l-35 -30l-22 -10l-26 -23l-21 -15l-13 -13l-19 -9l-33 -28v0zM68 288l28 -14l5 -10l12 -6l-10 -6l-27 2l-11 14l-18 9l-16 15l20 -4h17v0zM107 373l28 -1l14 -3l18 -3l16 -8l-11 -9l-12 -3l-24 4l9 -13l8 -19l-1 -13l-8 -7l-13 -4h-19l-8 19l-3 20l-6 13
l-2 14l-10 12l2 9l8 -1l14 -7v0zM141 427l31 -11l24 -14l13 -1l6 -12l-6 -8l-9 -5l-19 10l-25 20l-15 21v0zM205 517l15 -4l19 -8l14 -4l26 -11l5 -10l-20 -6l-15 6l-20 12l11 -24v-31l-9 -9l-13 -4l-6 16l-8 16l-5 56l6 5v0zM243 572l14 -12l22 -10l10 -13l14 -9l8 -7
l2 -13l-8 -4h-9l-15 12l-36 41l-2 15v0zM323 625l10 -15l26 -16l21 -17l16 -11l3 -8l-2 -6l-20 10l-17 10l-4 -16l-3 -23l-4 -12l-9 -4l-12 5l-11 27v53l6 23v0zM380 654l28 -16l15 -18l10 -5l6 -12l7 -26l-3 -8l-6 -3l-17 8l-15 22l-12 28l-1 10l-12 20v0zM516 682l25 -17
l10 -16l-10 -1l-29 18l-3 -32l-12 -34l-8 -2l-12 14l-5 13v29l3 24l-4 23l6 8l12 -5l27 -22v0zM431 669l10 -17l19 -16v-15l-11 3l-14 13l-8 15l4 17v0zM567 736l15 -18l8 -14l1 -16l-4 -15l-2 -21l-4 -16l-8 -3l-10 15l1 30l-1 27l-2 25l6 6v0z" />
    <glyph glyph-name="D" unicode="D" horiz-adv-x="849" 
d="M204 18l8 -5l13 -94l1 -13q0 -4 -2 -6.5t-6 -2.5l-9 1l-8 117l3 3v0zM62 648l78 8l56 2l50 -2l103 -1l39 -7l29 4l21 -5l70 -5l70 -21l80 -43l76 -69l28 -37l15 -22l25 -61l7 -45v-27v-2.5v-2.5q-1 -8 -1.5 -14t-2.5 -12q-1 -8 -4.5 -16t-9.5 -20l-9 -27l-42 -62l-8 -10
l-13 -5l-10 -10l-40 -32l-101 -73l-60 -36l-38 -20l-106 -42l-37 -11l-72 -13l-13 15l-6 16q0 1 -0.5 1.5l-1.5 1.5q-3 3 -3 8.5t15 11.5q14 4 21 5.5t11 1.5q2 0 4.5 -0.5t4.5 -1.5l-13 10q-3 2 -7 3.5t-8 4.5l-3 1.5t-2 0.5l-10.5 7l-4.5 3q-4 3 -6 20t-2 53l-1 134l3 86
l-2 31v152l-3 22l3 25l-3 35l-98 -7q-44 -13 -58.5 -17.5t-16.5 -4.5t-4.5 0.5t-4.5 0.5q-11 3 -20.5 10.5t-13.5 17.5l-14 32h-2l-4 27l-11 36q1 1 1 1.5v1.5v2v2q1 3 2 5.5t2 2.5t5 -3.5t8 -12.5q1 -1 1 -2t1 -3l61 3v0zM390 552q-12 -1 -16 -4.5t-4 -15.5l11 -121l-3 -35
l2 -12l-7 -33v-14l-6 -45l-3 -25l-3 -71q-1 1 -2 1.5l-1 0.5h-1h-1q-2 0 -3.5 -4.5t-1.5 -14.5l-4 -38v-57l-9 -16l-3 101l-1 24l-7 -3l-5 -114l2 -44l5 -15l3 -22l38 14l58 37l43 35l37 34l98 97l73 88l30 44l2 6t2 5q5 13 8 26.5t3 30.5q0 7 -0.5 14t-1.5 15l-16 27
l-25 29l-39 27l-81 26l-55 10l-40 4l-76 8v0zM681 445l14 -34l-5 -22q0 -1 0.5 -3t0.5 -4t0.5 -4.5t0.5 -5.5t-0.5 -6.5t-2.5 -6.5q-1 -3 -3.5 -6.5t-6.5 -6.5l-56 -56l-24 -27l-38 -47l-8 -11l-17 -14l-18 -11l-12 -8l-9 -8l-15 -10l143 173l41 64l6 34l9 20v0zM164 -40
q11 -8 15 -12.5t4 -5.5q0 -2 -2.5 -5t-5.5 -7l-3.5 -3.5l-3.5 -3.5q-4 -2 -7 -4t-5 -2t-3.5 1t-1.5 3q0 4 3 11.5t10 28.5v-1zM156 10q8 -4 12 -7t4 -6q0 -6 -5 -12.5t-16 -15.5q-2 2 -3.5 3t-1.5 2q-1 1 -1 1.5v1.5v0.5v0.5q0 4 2 9.5t9 22.5v0zM154 74l23 -24
q-1 -8 -5 -12.5t-8 -6.5t-8 -2.5t-5 -0.5q-2 0 -4 3t-2 8v2.5v2.5q1 5 2.5 11t6.5 19v0zM164 527l37 -19l3 -20l-10 -121l-3 -80l-5 -48l2 -43l8 -104l-3 -4l-18 101l-11 80l3 82l-6 141l3 35v0zM152 95l-12 6q-2 5 -3 9t-1 8q0 6 2.5 10t5.5 7q2 2 4.5 3.5l2.5 1.5
q1 0 3.5 -1.5t4.5 -3.5l3.5 -3.5t2.5 -3.5q2 -3 3 -5t1 -4q0 -3 -4.5 -9.5t-12.5 -14.5v0zM137 188q1 0 1.5 -0.5l1.5 -1.5l6 -4t5 -4q3 -3 5.5 -6t2.5 -5q0 -4 -4.5 -8.5t-17.5 -15.5q0 3 -1 5l-2 4v0l-1 1t-1.5 3t-0.5 5q0 4 1 10.5t5 16.5v0zM127 256q14 -5 19.5 -8
t6.5 -5q1 -1 1 -2v-2l-10 -26h-15l-2 43v0zM122 290q-1 10 -1.5 17t-0.5 11q0 9 2 12t5 3q1 0 4.5 -1.5t6.5 -4.5q2 -1 4 -2.5t4 -3.5t3 -3.5t1 -3.5q0 -1 -2.5 -5.5t-6.5 -9.5q-1 -1 -1.5 -2t-1.5 -2q-3 -4 -6.5 -7.5t-4.5 -3.5t-2 1t-3 5v0zM111 408q15 -4 21 -6t8 -3
l1.5 -1.5t0.5 -1.5l-12 -24q-1 -3 -2 -5l-2 -4q-1 -1 -1.5 -2t-2.5 -1q-1 0 -1.5 0.5t-1.5 0.5q-2 2 -3.5 4.5t-1.5 6.5v19l-3 17v0zM105 471q10 -1 15 -2.5t9 -5.5q2 -2 4 -3.5t4 -4.5l-5 -10l-13 -14l-1 -7l-8 4l-5 43v0zM105 519q14 -2 22.5 -5.5t11.5 -6.5q0 -1 0.5 -2
t0.5 -2t-0.5 -2.5t-1.5 -2.5q-1 -2 -2 -3.5t-2 -2.5q-1 0 -5.5 -1.5t-8.5 -3.5h-1v0q-6 -2 -10 -3.5t-6 -1.5h-0.5t-0.5 1q-1 1 -1.5 2.5t-0.5 4.5q0 2 0.5 4t1.5 4l3 21v0z" />
    <glyph glyph-name="E" unicode="E" horiz-adv-x="590" 
d="M140 497l15 -6l-7 -14l-13 -5l-11 -12l-5 -9l-8 -7l34 -23l10 -12l-3 -24l-16 -4l-12 -12l-15 -1l15 -13l11 -14l6 -13l4 -16l-4 -16l-16 -13l-9 2l-13 -8l12 -12l14 -22l7 -24l-1 -15l-11 -15l-16 -14l-12 -15l9 -15l15 -13l9 -9l2 -10l6 -10l4 -12l-4 -15l-10 -12
l-43 -23l-5 -6l10 -10l20 -12v-8l14 -9l12 -37l-7 -27l-5 -5l-15 -7l8 -16l-9 -5l-11 8l-7 20l10 24l17 20l-40 38l-8 19l-8 11l8 21l12 17l15 7l18 15l4 12l-18 9l-14 17l-8 20l8 30l7 15l7 8l16 9l5 8l-34 37l-3 17l8 14l21 12l13 2l-5 11l-4 15h-7l-6 13l-14 11l6 28
l12 4l10 9l15 4l-12 11l-20 12v8l-8 4l4 25l13 19l12 10l19 4v0zM299 524l14 -28l4 -39l-4 -30l-9 -52l-7 -30l28 -8l50 -3l17 -7l8 6l49 -6l26 -14l28 -41l-6 -15l-14 -16h-24l-58 -5l-52 -17h-17l-13 10l-17 35l-4 31l-8 -4l-5 -28l2 -31l5 -12l-3 -37l-9 -28l-1 -31
l-5 -24l2 -35l120 4h41l62 -5l28 -23l29 -20l25 -44l-6 -25l-23 4l-21 15l-56 -7l-46 2l-29 -5h-20l-25 -10l-20 -3l-14 8l-12 -1l-18 16l-27 9l-3 12l-10 1l-30 -46l-10 -8l-15 -1l-18 -13l-3 11v85l-6 52l-1 48l-5 84l1 90l12 112l-5 8l9 96l-5 6l-26 -5l-28 1l-29 15
l-17 27l-4 32l-8 37l17 -11l20 -4l24 6l29 -3l28 7l26 2l38 -4l22 11l47 -4l23 5l20 -6l43 3l75 -25l54 -42l-5 -18l-63 2l-38 6h-44l-36 -5l-31 -8l-13 -12v0zM79 669l40 -10l70 9l29 3l21 -2l14 3l33 -4l13 8l34 2l22 -3l36 -2l48 -11l22 -11l21 -7l14 -8l7 -11l-8 -9
l-18 9l-20 14l-49 9l-53 5l-62 -1l-77 -5l-33 -4l-32 -6l-19 -6h-24l-24 5l-21 3l-18 6l-9 8l24 12l19 4v0z" />
    <glyph glyph-name="F" unicode="F" horiz-adv-x="708" 
d="M226 626l80 -2q16 0 26.5 -6t18.5 -13q1 0 1.5 -0.5l0.5 -0.5q7 -6 14.5 -10.5t18.5 -6.5l-4 16l-5 10q-1 0 -1.5 1t-0.5 2v1.5v0.5q0 2 1 3t2 1l1.5 -1l4.5 -3q2 -1 6 -2.5t8 -1.5q5 0 11 0.5t12 1.5q5 1 10.5 2t10.5 2q10 2 19 4t15 2l38 1l106 -9l37 -10l24 -13
l3.5 -3.5t2.5 -3.5q2 -3 2.5 -6t0.5 -9l-9 -13l-10 -5l-8 -6q-5 0 -9.5 -0.5t-7.5 -0.5q-7 -1 -11 -1.5t-8 -2.5q-6 -1 -12.5 -3.5t-18.5 -7.5v-3l-18 -7l-12 -9l-47 -8l-8 -5l-43 -7l-27 21q-2 2 -4 3l-4 2q-2 2 -4 3.5t-3 3.5q-3 3 -5.5 7t-6.5 10q-2 4 -4 7.5t-4 5.5
q-1 2 -2 3.5t-3 3.5l-4.5 4.5l-5.5 5.5q-2 0 -2.5 -1t-0.5 -8l-6 -10h1l-5 -62l5 -90q2 -26 10 -35.5t30 -10.5l58 5h16l11 3h123l-1 -16l-4 -10l7 -11l-34 -32l-9 -5h-2l-11 -13l-15 -1l-72 -13l-46 5l-10 5l-32 33l-14 40l-1.5 1.5t-0.5 1.5l-0.5 0.5l-0.5 0.5
q-3 4 -5 3.5t-2 -12.5v-36l-6 -101l-6 -103l-4 -33v-0.5v-0.5q1 -1 1.5 -2.5t-0.5 -5.5v-11.5t-1 -21.5l-4 -13h-2q-1 -3 -2 -5.5t-2 -4.5q0 -2 -1 -3t-2 -3q-2 -5 -6 -11t-11 -16l5 -6l-10 -13l-12 -8l-18 -16l-16 -15l-15 -31l4 65l1 24l-6 138l-11 213l-2 24l-13 88
l-8 49l-13 56v7l-9 52q-1 4 -2.5 7t-4.5 6t-7.5 6t-11.5 7l43 2v0zM401 266q1 0 2.5 -0.5t2.5 -1.5q10 -3 13.5 -8t6.5 -18l-1 -1l1 -35l-4 -40l-7 -28h-1q0 -4 -0.5 -7t-0.5 -6q-1 -3 -1 -5.5t-1 -5.5q0 -4 -1.5 -8.5l-3.5 -10.5v-6h1l-6 -63q-1 -6 -1.5 -10.5t-1.5 -8.5
v-6.5v-8.5l-2 -1v-16q0 -6 -0.5 -9.5t-1.5 -4.5q0 -1 -0.5 -1.5l-0.5 -0.5h-0.5h-1.5q-2 0 -3.5 1t-1.5 2l-3 72l3 44l4 28l6 55l6 46l-1 63v0zM202 61q5 -5 7.5 -8.5t4.5 -7.5q2 -3 2.5 -7.5t0.5 -11.5l-5 -16l-6 -12l-15 -12l-8 -4q-1 1 -5.5 -0.5t-9.5 -2.5q-2 0 -4 -0.5
t-4 -1.5q-5 -1 -9.5 -1.5t-7.5 -0.5q-2 -1 -6.5 -1h-10.5l-1 -0.5t-2 -0.5q-1 -1 -2 -1h-3q-1 -1 -2 -1h-2t-2.5 1t-1.5 3q0 4 1 7.5t5 5.5l48 39l26 19l8 8l4 7v0zM206 141q0 -28 -18 -40.5t-66 -20.5h-9v2l-34 -4v0v1v0v0q0 2 1.5 4t3.5 3q1 2 3 3t4 3l2 2l2 2l29 22
l32 20l11 12l8 16q0 1 1 1.5t2 1.5q2 2 5 4t6 0q1 0 2 -1l2 -2l8 -23l5 -6v0zM196 234q0 -4 -1.5 -9t-4.5 -19l-8 -9l-34 -10v2h-25t-16 -2q-3 0 -6 -1l-6 -2v2q-9 -2 -13 -3.5t-7 -0.5q-1 0 -4 0.5t-8 1.5q7 7 20 16.5t30 20.5q15 9 32 17.5t35 14.5q1 0 2 -0.5l1 -0.5h1v0
q4 -2 8 -5t4 -13v0zM188 338q0 -2 -0.5 -3.5t-0.5 -2.5q-2 -11 -4 -16t-7 -8q-1 0 -2 -0.5t-2 -1.5q-6 -2 -10 -3t-7 -1q-3 -1 -6.5 -1h-8.5q-8 0 -16.5 0.5t-16.5 0.5q-9 1 -17.5 2.5t-16.5 4.5q-4 0 -7 1t-5 2t-3 2l-1 1q0 6 23.5 15.5t67.5 19.5q6 3 12 4t12 1
q5 0 9 -2.5t7 -14.5v0zM132 429l42 -3v-7l4 -9q-1 -3 -2 -5l-2 -4q-4 -11 -10.5 -14t-23.5 -3q-4 0 -17 2.5t-33 7.5q-9 2 -15 3.5l-10 2.5q-6 2 -9 4t-6 5l-4 4l-5 5q5 1 8 2l6 2q0 1 0.5 1h0.5q7 3 17.5 5t34.5 2h5.5h5.5q3 -1 6.5 -1h6.5v0zM407 523q9 -4 16.5 -13
t7.5 -32q0 -6 -0.5 -13t-2.5 -15v-8.5t-2 -12.5v-2v-2v-2v-2q0 -8 -0.5 -13.5t-1.5 -9.5q-1 -2 -1.5 -3.5t-0.5 -2.5q-5 0 -8.5 6.5t-3.5 15.5l-3 87v22v0zM77 556l11 -4l50 2q3 0 6.5 -1t7.5 -3q8 -4 15 -12t8 -16v-1.5v-1.5q0 -3 -1 -6t-4 -6l-1 -5q-2 -1 -4 -2.5t-6 -3.5
t-11 -4t-17 -2h-6t-7 1l-16 8l-4 -3l-35 19l-42 22l-7 17l24 3v-2l39 1v0zM46 658l36 -10l64 -13l8 -1q11 -8 15 -13t6 -9q1 -1 1 -2.5t1 -3.5v-0.5v-0.5q-3 -8 -6 -13.5t-5 -8.5q-4 -5 -8 -6.5t-10 -2.5q-8 3 -13.5 5.5t-10.5 4.5q-1 0 -1.5 0.5l-0.5 0.5q-5 2 -9 4l-10 5
q-12 6 -21 13.5t-16 15.5q-8 10 -13 19.5t-7 15.5v0z" />
    <glyph glyph-name="G" unicode="G" horiz-adv-x="812" 
d="M674 643l9 -4l36 -51l23 -52l-3 -7l-17 8l-36 4l-48 -5l-44 -12l-148 -52l-83 -37l-76 -42l-8 -10l-48 -31l-59 -61l-9 -40l-7 17l-30 -69l-12 -52l-4 -36l5 -13l40 -19l68 -19l37 -4l55 -2l55 4l75 14l95 32l-4 11l4 7l2 38l-2 19l2 12l1 41l-9 14l10 6h50l44 -5l56 -16
l13 -8l-9 -10l-8 -7l-21 -66l-9 -60l-6 -18v-18l-8 -13l-5 -19l-14 -22l1 -7l-6 -6l-6 -22l-6 -10l-26 -22l-27 -19l-7 -17l-3 -21l-7 -16l-1 24l3 13l-1 35l2 36l-2 36v43l-35 -17l-92 -32l-50 -1l-33 -5h-31l-28 3l-56 12l-41 15l-46 20l-29 24l-7 12l-10 5l-17 24l-16 43
l-5 86l14 59l27 53l45 70l34 34l51 43l43 29l18 9l35 22l73 31l58 23l63 16l115 22l53 6v0zM638 -104l3 8l20 19l15 11l28 13l-12 5l-30 6l-9 4l2 16l7 5l20 9l44 14l-14 1h-33l-12 5l-1 9l4 11l7 4l29 11l40 15l-52 11l-4 7l1 10l18 10l49 15l-16 6h-26l-14 3l-3 10l3 11
l14 10l35 12l-44 16l9 18l40 13l12 2l2 -7l-3 -5l-20 -9l-22 -3l39 -16l12 -7l5 -7l-1 -8l-6 -3h-12l-49 -14l49 -10l10 -5l4 -18l-6 -6l-18 -8l-12 -2l-18 -6l24 -8l12 -5l6 -8l-5 -13l-17 -6l-36 -8l-22 -12l14 -2l40 -8l6 -6v-7l-11 -6l-21 -3l-22 -7l-29 -14l45 -8
l12 -6l4 -5l1 -9l-5 -3l-30 -18l-38 -18l-12 -6v0zM226 -34l30 -1l51 -13l69 7l46 2l67 15l25 14l6 -6l-23 -22l-15 -22l-21 -8l-30 -5l-33 -2h-24l-63 9l-58 16l-27 16v0zM740 491l1 -9l-9 -8l-42 21l-23 7l3 -31v-15l-4 -9l-6 -7l-8 2l-16 11l-15 8l-25 10l5 -17l2 -12
l-1 -11l-10 -9l-15 4l-23 12l-52 14l22 -29l6 -11l-5 -15l-5 -1l-8 2l-14 7l-36 13l-20 4l3 -6l26 -24l1 -8l-8 -12l-8 1l-24 9l-8 5l-64 9v-4l64 -42l3 -10l-3 -8l-5 -3l-24 5l-55 6l26 -16l6 -8v-10l-3 -5l-37 -7l-44 3l-7 4l-31 -3l39 -18l9 -4l1 -10l-5 -8l-18 1l-69 -2
l2 -5l44 -18l3 -8l-6 -14l-58 -10l-12 -6l42 -18l6 -4l2 -8l-5 -8l-55 -19l-14 -2l-4 8l8 9l24 12l20 6l-12 2l-32 11l-6 7l2 9l8 9l10 6l58 13l-20 4l-15 1l-11 4l-8 6l3 9l8 9l11 7l14 1l55 6l-14 2l-16 5l-7 9l2 13l12 7l8 2l18 3l16 -3l72 -1l-17 9l-23 9l-18 5l-10 7
l-1 8l5 7l11 2l94 -9l-21 14l-31 17l-7 8l1 10l21 8l70 -8l-10 11l-13 9l2 7l23 9l6 -3l67 -15l-11 12l-12 10l-6 10l7 13l9 3l14 -1l17 -5l53 -10l-12 24l7 10l9 3h16l27 -10l31 -9l-5 40l10 6l16 1l37 -13l12 -4l12 -7v0zM150 476l22 9l8 9l23 1l-92 -74l-48 -73l-16 -58
l-8 29l17 48l9 5l22 47l31 30l32 27v0zM643 692l22 -23l-19 -6l-50 -4l-33 -10l-56 -8l-8 -7l-51 -12l-68 -31l-11 4l48 28l54 26l25 9l30 5l40 10l42 8l35 11v0z" />
    <glyph glyph-name="H" unicode="H" horiz-adv-x="942" 
d="M276 368l3 105l-3 29l6 99l-4 55l-12 20l26 2l46 -6l50 -15l24 -9l38 -23q4 -3 6 -6t2 -7q-1 -5 -5 -12.5t-14 -17.5t-15.5 -19t-6.5 -16l-7 -50l2 -32l-4 -18l3 -29l-1 -47q45 -4 69 -7.5t42 -3.5h4h3q6 0 11.5 1t12.5 2q6 -1 15 -2t19 -2q16 -2 34.5 -3.5t37.5 -2.5
h5.5h4.5v79l-8 92l11 127l-6 72l-19 24l19 9l42 -11l33 -9l37 -15q15 -4 26 -12t17 -17q5 -7 7.5 -13.5t2.5 -11.5q0 -2 -3 -9t-7 -15q0 -1 -0.5 -2t-0.5 -2l-4 -10t-3 -9l-10 -83v-30l-6 -19l-3 -50l-2 -18l1 -21l-1 -20v-32l76 1l39 -2l-57 -14l-32 -12l-15 -10l-11 -5
q-2 -2 -4 -8.5t-2 -20.5q0 -2 -0.5 -10.5t-2.5 -22.5l-20 -170l-1 -32l-7 -21l-4 -25v-15v-4t-1 -4q0 -7 -3.5 -15t-10.5 -28q1 -4 1.5 -7.5t0.5 -6.5q0 -9 -3 -14.5t-6 -9.5l-7 -7t-3 -5v19t-1 8q0 1 -0.5 1.5t-0.5 1.5h-0.5h-1.5h-3t-4 -1q-3 0 -6 -2t-4 -5l-9 19v38
l-4 39l-3 118l-8 80l-2 67l-3 27h-21l-22 -5l-93 2l-19 -6l-21 4h-24q-1 0 -2.5 -0.5t-2.5 -0.5h-3h-3q-5 0 -10 1l-10 2q-4 0 -8.5 1t-8.5 1q-5 0 -10.5 -1.5t-10.5 -6.5l-1 -18l9 -51q0 -1 0.5 -2.5t1.5 -3.5q0 -3 0.5 -5t0.5 -5q0 -6 -3 -12.5t-13 -14.5
q-12 -16 -14.5 -27.5t-2.5 -17.5q0 -2 -0.5 -3t-0.5 -2q0 -2 -2 -9.5t-6 -15.5q-2 -6 -5.5 -11t-8.5 -9l-6 -13l-6 -1v-13q-2 -3 -4.5 -6t-4.5 -5q-4 -3 -6.5 -5t-4.5 -3l-8 -37q-3 -1 -6.5 -10.5t-7.5 -34.5l-8 -25l-13 105l3 31l2 92l8 47l-7 36l-3 34l-45 -6l-33 -3
l-38 -2l-75 -13l-32 10l-12 25l-6 7l-2 16q-1 5 -1.5 8.5t-0.5 5.5t0.5 3.5l1.5 4.5v4.5t-1 7.5v1v2q-1 2 -1 4v4q0 3 0.5 5.5t1.5 3.5v34v25h5l32 -27l43 -8l136 -14l21 5v0zM183 191l37 46q0 -1 3.5 -2.5t8.5 -3.5q2 -2 4.5 -3t4.5 -3q4 -5 7 -12.5t5 -15.5q1 -3 1.5 -6.5
t0.5 -6.5q0 -1 -0.5 -2t-0.5 -2q0 -2 -0.5 -3t-0.5 -2l-10 -14l-8 -23l31 -45l-19 -47v0v0q-1 -2 1.5 -8t14.5 -29q4 -6 5.5 -10t1.5 -8v-1.5v-1.5l-0.5 -0.5t-0.5 -1.5l-2 -4t-3 -5l-0.5 -1l-0.5 -1q-3 -4 -5 -7.5t-3 -5.5l-17 -15l-9 12l-14 25l1 16l21 39q1 1 -0.5 2.5
t-3.5 2.5l-6 2l-6 2q-6 2 -11 3.5t-6 1.5l-12 8q-3 2 -5.5 5.5t-2.5 6.5v3v2l16 31l22 28l-33 26q-4 2 -6 6t-2 10q0 3 0.5 6t1.5 6v0zM200 7q-4 -5 -9.5 -9.5t-10.5 -8.5q-3 -3 -6.5 -4.5t-11.5 -2.5q-4 -1 -10.5 -2t-15.5 -2q-2 0 -6 -1l-12 -3l-3 1q1 3 1 5v3q1 1 1 2v2
l3.5 3.5t6.5 7.5l0.5 0.5l0.5 0.5q4 3 7 6t4 3q3 2 5.5 2.5t5.5 1.5h5.5h5.5h7t4 1l28 -6v0zM812 209l10 -99l-5 -51l-8 -16l-18 -48h-11l26 201l6 13v0zM182 127h-2l-5 -1q-7 -4 -12.5 -6t-10.5 -2q-2 0 -4 0.5t-4 1.5l-38 15l5 8l32 8l24 -4l18 -11q1 0 1.5 -1t0.5 -3
q0 -1 -1 -2t-4 -3v0zM429 263l58 1l49 -3l47 3l44 -4l2 -9l-50 1l-72 -8h-31l-24 -5l-20 6l-3 18v0zM471 592l3 -2l5 -11l-19 -112l-4 -18l-9 -33l-1 -24l-5 -15l-3 99l9 74l23 35l1 7v0zM210 393l-7 28l-21 25q-1 1 -1 2.5v2.5q0 5 2 12t5 15t7.5 15.5t9.5 12.5
q-8 8 -12.5 13.5t-6.5 9.5q-3 5 -3.5 9.5t-0.5 12.5l32 34q-14 16 -22 25.5t-5 16.5l21 45l12 -3l32 -27l7 -12l-31 -37l27 -27l-3 -11l-30 -37l25 -39q7 -10 10.5 -17t3.5 -12q0 -4 -1.5 -7t-4.5 -6l-18 -20l-0.5 -0.5t-0.5 -1.5q-5 -6 -8 -11t-5 -9q-3 -3 -5.5 -4t-7.5 2
v0zM129 431l40 -11l6 -15l-46 -9l-42 9l10 15l32 11v0zM842 646l24 -12l7 -10l-24 -79l-4 -42l-2 -38l-4 -17l-4 -23l-12 3v-3l7 106l9 93l3 22v0zM173 492l-53 -11l-49 6l13 16l31 6l25 -1l33 -16v0zM174 587l-41 -16l-29 4l-18 12l-2 4l16 12l36 1q1 -2 2.5 -3t3.5 -1
q2 1 5 1h7h2.5h2.5q1 -2 3 -3t4 -1l1 -1v0q3 0 5.5 -2t1.5 -7v0z" />
    <glyph glyph-name="I" unicode="I" horiz-adv-x="512" 
d="M253 -124q0 -3 -1.5 -7t-4.5 -8q-4 -5 -11.5 -10t-19.5 -11l-5.5 -5.5l-4.5 -4.5q-1 -1 -3 -2t-3 -2q-2 -1 -4.5 -2.5t-5.5 -2.5q1 1 -0.5 -0.5t-4.5 -3.5q-4 -1 -9 -2.5t-11 -1.5q-4 0 -9 1t-10 3v1l-31 3l-11 7l14 11q1 1 1.5 1h0.5q5 1 9 2t7 3q6 2 13.5 8t20.5 17
q22 14 33.5 20.5t21.5 9.5q2 1 4.5 1.5t4.5 0.5q0 1 1 1.5t3 0.5q1 0 3 -1.5t4 -4.5t4 -7t3 -8q1 -1 1 -3v-3v-1zM211 695h47l44 -7l52 -14l11 -5q29 -12 43 -23.5t14 -22.5q0 -2 -0.5 -6.5t-1.5 -8.5q-1 -2 -1 -3.5t-1 -2.5l-13 -38l-7 -56l-4 -20v-30l-7 -32l5 -22l-2 -45
l15 -146v-48l-7 -48l-8 -24v-22l-12 -37l-5 -22q0 -7 -0.5 -10t-2.5 -6q-2 -2 -5 -4t-7 -5q-5 -7 -7 -13.5t-3 -12.5q-1 -5 -2.5 -9.5t-6.5 -7.5l-13 31l2 -23l-35 -92l-2 22l-9 168l2 111l-1 70l-16 173l-25 228q-1 6 -1.5 10.5t-1.5 7.5q-1 7 -2.5 10t-5.5 5q-1 1 -2 1.5
t-2 0.5l-14 8l-19 18l17 2v0zM258 -27v-5t1 -6v-4v-4q0 -3 -0.5 -5t-1.5 -4q-3 -4 -9 -8.5t-19 -11.5l-61 -32l-24 -9l-45 8q-4 2 -6.5 3.5t-2.5 3.5l1 1t3 2t5.5 2t6.5 1l32 27q2 3 9 7.5t35 18.5l26 14l26 8l24 -7v0zM194 4l-56 -18q-11 -1 -17.5 -3.5t-8.5 -3.5t-4 -1.5
t-3 -0.5q-1 -1 -2.5 -1.5t-2.5 -0.5q-2 -1 -4 -1.5t-4 -0.5q-4 1 -9.5 2.5t-13.5 5.5l8 -1l78 49q2 2 8.5 4.5t18.5 6.5q14 8 25 11.5t18 3.5t11.5 -2t8.5 -5l0.5 -0.5t1.5 -0.5l1.5 -1.5t1.5 -0.5q7 -5 6 -9t-4 -7l-1 -0.5l-1 -0.5l-56 -24v0zM238 124q3 -6 4 -10t1 -6
q0 -1 -0.5 -2l-1.5 -3q-2 -2 -6.5 -4t-12.5 -6l-59 -19l-38 -18q-2 0 -6.5 -1t-9.5 -4q-5 -2 -9.5 -5t-6.5 -6l-16 -4l-8 12l14 15l23 11l46 32q17 12 36 18t39 6h3.5t3.5 -1l2 -2t2 -3v0zM253 200l-15 -12l-4 -12l-26 -17l-40 -7l-67 -6l-52 -21l-9 8q1 2 4 7.5t8 11.5
q2 4 4.5 7t4.5 6q2 2 3.5 3t2.5 2l39 18l60 17l48 8l12 -3q1 2 2.5 2.5t5.5 0.5q7 0 11 -2.5t8 -10.5v0zM174 314l12 -2q18 -3 24 -8.5t6 -15.5q0 -3 -0.5 -6t-2.5 -8l-13 -6l-19 -13q-1 -1 -2.5 -1h-3.5q-3 0 -8 1t-12 3q-2 0 -16 1t-70 4l-26 -8l-14 1l48 48l49 8l48 2v0z
M189 407l30 1h2.5h2.5q2 0 4 -1t2 -5q0 -3 -1 -7t-3 -9q-1 -3 -4 -6l-6 -6q-4 -3 -7.5 -6t-2.5 -4l-19 -12l-21 5l-86 11l-61 4l-19 -2l3.5 3t7.5 7l2 2t1 2q3 3 4.5 5.5t2.5 4.5l20 9l17 4l16 1q-1 0 2.5 1l10.5 3q5 1 12.5 2t14.5 1h1.5h1.5h9t8 -2l55 -6v0zM122 517
q18 -3 31 -5t22 -4q12 -2 19 -5t13 -9q4 -3 8 -7.5t9 -10.5l-10 -13l-30 -23q-4 -1 -7.5 -1h-7.5q-9 0 -15.5 1.5t-11.5 2.5q-3 1 -5 2t-3 2q-32 18 -54.5 24.5t-43.5 7.5h-6h-6q24 22 40.5 31t26.5 9l31 -2v0zM74 615l59 -11l77 -26q6 -2 8 -5.5t2 -6.5q0 -5 -4.5 -9.5
t-10.5 -6.5q0 -1 -0.5 -1h-1.5l-32 -3l-28 7l-33 17l-16 10l-54 17h0.5h1.5q3 1 8.5 6t23.5 12v0zM93 717l72 -27l14 -10l29 -32q2 -2 3.5 -5t2.5 -6t1.5 -6t0.5 -5q0 -8 -3 -13t-7 -6h-2h-2t-2.5 1t-2.5 2l-43 32l-66 62l-13 7l18 6v0z" />
    <glyph glyph-name="J" unicode="J" horiz-adv-x="459" 
d="M333 471l7 -37l-4 1l5 -75l-5 -16l-4 -112l1 -5l-3 -64l-3 -35h-2v-3h2l-11 -37l-12 -13l-4 -8l-31 -32l-24 -38l-16 -11l-29 -24q0 2 -0.5 2h-2.5q-1 0 -4.5 -2t-8.5 -6l-17 -9l-18 -19l-17 -14l-12 -19q-2 -3 -8 -8t-15 -10t-20 -10t-22 -9q-2 -1 -5 -2l-6 -2l-10 5
q3 5 2 7t-6 2q-3 -1 -6.5 -1.5t-8.5 -1.5v1l-28 -3l-17 11l16 1l40 7l46 19q3 2 7 3.5t7 3.5q14 7 27.5 19.5t21.5 30.5l8 9l29 54v16l10 5l9 29l8 41l1 21l7 72l-3 74l-21 136l-15 64l-19 43q-2 5 -5 9t-7 6q-1 1 -2.5 1.5t-2.5 0.5h-20l-24 10l15 10l41 22l6 2t7 2t9 2
l10 2l55 6h1.5t1.5 1q1 0 1 0.5t1 0.5q1 1 3 1.5t5 0.5l17 -2h21v0v0q3 0 10.5 -2t32.5 -14q8 -4 11.5 -10.5t3.5 -16.5q0 -4 -2.5 -8t-10.5 -11l1 -20l5 -44v0zM85 520q26 -1 43.5 -17.5t22.5 -44.5l16 -95q3 -22 4.5 -35.5t1.5 -21.5q0 -6 -1.5 -8.5t-4.5 -2.5l-2 -2
l-48 160l-13 43q-1 5 -2.5 8t-5.5 5q-1 1 -2 1.5t-2 0.5l-10 9l3 -1v1v0zM384 631l-17 -48l-11 -8v-2q-15 12 -22 21.5t-8 18.5q-1 2 -1 3.5v2.5q0 6 2 14.5t6 17.5q3 9 7 17t9 14l42 56l27 32h2q8 -10 9.5 -17.5t1.5 -14.5q0 -10 -1 -17.5t-4 -14.5q-2 -6 -5 -11.5
t-8 -12.5l-21 -37l-8 -14v0zM7 760l22 -3l39 -11l3 -5l13 -6q5 -8 9 -12.5t7 -7.5q1 -1 2 -1.5t2 -1.5l20 -48l1 -5l8 -12l3 -13l8 -16l-1 -8q4 -6 3 -9.5t-8 -3.5q-4 0 -10.5 1.5t-16.5 4.5l-2 4q-18 3 -28.5 10t-18.5 26q-4 7 -7.5 16t-7.5 21q-10 25 -14.5 38t-7.5 19
q-2 3 -4 5.5t-4 4.5q-1 1 -3 2.5t-4 2.5l3 2l-6 3v3v0zM306 807h2q13 -14 18 -19.5t7 -10.5v-2v-2l-1 -51l-8 -45q-3 -14 -6.5 -25.5t-7.5 -19.5t-7.5 -12t-6.5 -4t-8 6t-17 25q-2 3 -4 7t-3 8q-2 3 -2.5 7t-0.5 7t0.5 4.5t1.5 2.5l6 37l15 37l22 45v5v0zM154 792
q23 -8 35 -17t15 -20l8 -38l12 -37l10 -16q2 -4 2.5 -9.5t0.5 -12.5q0 -12 -5 -18t-16 -6h-3h-3q-3 0 -5 1t-3 2q-4 2 -8 5.5t-9 7.5l-8.5 8.5t-7.5 9.5q-4 6 -7 11.5t-3 10.5l-8 33l5 80l-2 5v0z" />
    <glyph glyph-name="K" unicode="K" horiz-adv-x="762" 
d="M128 729q29 -22 34.5 -35.5t5.5 -25.5q-6 -30 -8.5 -37.5t-3.5 -8.5l-50 -24l-3.5 -3.5t-1.5 -2.5q-1 -3 5 -6.5t21 -8.5q24 -10 36.5 -25t12.5 -33q0 -4 -1 -7t-5 -6l-58 -38q-4 -2 -7.5 -6t-5.5 -8q-3 -5 -3.5 -9.5t2.5 -6.5l53 -42q7 -6 11.5 -15t4.5 -20
q0 -7 -2.5 -13t-7.5 -11l-54 -55l-5 -12l43 -23q3 -1 7 -5.5t8 -11.5q4 -6 7.5 -13t6.5 -14q2 -6 3.5 -12t1.5 -11q0 -13 -9 -21.5t-30 -10.5q-2 -1 -3.5 -1.5t-2.5 -1.5q-2 0 -3 -1t-2 -1q-5 -3 -9.5 -6t-12.5 -8l-1 -1l-2 -2q-2 -3 -3 -7.5t4 -9.5q1 -2 3 -3.5t5 -2.5
l34 -14q11 -5 20 -14t15 -18q3 -5 4.5 -10t1.5 -9q0 -2 -1.5 -5t-3.5 -6q-3 -4 -7.5 -7t-9.5 -6l-50 -26q-1 0 -2.5 -1t-2.5 -2q-3 -2 -4.5 -5.5t-1.5 -8.5q0 -4 1.5 -8t5.5 -9l28 -36l2 -16q-10 6 -17.5 10t-12.5 8q-9 7 -12.5 15t-5.5 22q0 2 -0.5 3.5t-1.5 3.5
q-2 7 -3 13t-1 9q0 15 7.5 28t19.5 19l38 17l11 12l-41 16q-20 8 -28.5 20t-8.5 31q0 12 2.5 20t8.5 12q41 33 48.5 39.5t7.5 8.5v0v0q0 7 -8 10.5t-22 3.5q-22 5 -32.5 19.5t-10.5 39.5q0 23 4.5 35.5t19.5 23.5q3 2 6.5 4.5t7.5 4.5l29 16v0.5v0.5q1 1 0.5 3t-1.5 4
q-2 2 -5 3.5t-9 2.5q-4 2 -10 5.5t-17 13.5l-17 11l-10 47l8 33l30 32l28 18q-25 2 -42.5 16.5t-17.5 34.5q0 3 1 9.5t3 14.5q2 7 5 13.5t6 9.5l49 33q0 2 -3.5 8.5t-20.5 31.5l8 18v0zM219 716l61 -22l47 -8l9 -7l44 -17l17 -23l-8 -43l-5 -53l-11 -115q0 -1 -0.5 -1.5
l-0.5 -0.5q-1 -2 -1.5 -4t0.5 -5q0 -1 0.5 -3.5t1.5 -4.5l42 19l32 27l29 34l40 40l44 53l28 36q5 7 8 11.5t5 8.5t3 8t2 10q0 1 0.5 2t0.5 2l35 -27l27 -24q1 -1 2 -2.5t2 -2.5q2 -5 4.5 -14t7.5 -29l-64 -58l-43 -37l-7 -3.5t-6 -3.5q-1 0 -2 -0.5t-2 -1.5q-6 -3 -12.5 -8
t-18.5 -13v-2l-70 -33l-58 -26l34 -29l59 -43l43 -43l35 -32l63 -59l16 -16q38 -43 58.5 -63t30.5 -20q8 0 13.5 1.5t9.5 4.5q4 2 6.5 3.5t4.5 1.5h0.5t0.5 -1q1 -1 1.5 -2.5t0.5 -3.5q0 -4 -1.5 -6t-4.5 -5q-4 -4 -11.5 -8.5t-14.5 -14.5q-4 -4 -7 -9.5t-6 -12.5l-5 -18
q-1 2 -4 3t-6 0q-2 -1 -3.5 -2.5t-3.5 -5.5l-11 -15l4 -22l-19 3l-38 30l-71 71l-52 49l-39 51l-45 53l-71 94l-12 10l-6 -56l-5 -21v-19l-26 -35l-6 2l-10 -58l3 -15l-6 -9l-5 -11l-8 1l-16 -16l-3 -18l-9 -6l-13 -49l-15 -51l-2 -4l-2 -4q-4 -5 -12 -11.5t-24 -18.5l5 46
l11 78l5 128l2 155l4 22l-1 13l5 15l6 72l2 206q0 14 -5.5 22.5t-17.5 14.5q-4 2 -7 4t-5 4q-4 3 -5.5 5.5t-1.5 6.5v0.5v0.5v0.5v0.5l30 2v0zM695 553q8 -12 11 -18t3 -8q0 -1 -1 -4t-4 -7l-32 -24q-4 -2 -6 -3.5t-4 -1.5q-1 -1 -2 -1h-2l-53 -37l-29 -13l-28 -16l-10 2
l62 38l34 30q29 28 40 37.5t16 15.5q1 1 1.5 2.5t1.5 3.5q0 1 0.5 2t1.5 2v0zM428 625l5 -5t3 -4q3 -3 3.5 -7.5t0.5 -12.5l-8 -21l-12 -67l-15 -37l-1 -9l-10 -8l3 25l19 117l0.5 1.5t0.5 3.5q0 1 0.5 2t0.5 2v2v2v3.5t-2 2.5q-4 7 -4 11t4 4l12 -5v0z" />
    <glyph glyph-name="L" unicode="L" horiz-adv-x="786" 
d="M200 -72q6 -5 11.5 -11.5t9.5 -13.5q3 -4 4.5 -8.5t1.5 -8.5q0 -14 -8.5 -19t-26.5 -5l-48 -1l-30 6l-8 10l94 51v0zM563 -50h84l15 -4v-12h-38l-40 -2l-36 -7l-62 -3v16l4 3l73 9v0zM211 725l13 7l48 -8l42 -12l25 -18l17 -15l27 -18l44 -42l21 -37l-5 -35l-1 -62
l-4 -56l-14 -99l-5 -10l-21 -5l-3 -21l10 -33h6l-9 -43h-4l7 -87l-11 -13l-12 10l-9 -80l9 -8v0v1v0v0q0 3 2.5 7t5.5 8q2 2 4 3.5t4 3.5l2 2l2 2l33 3l5 -4h18l47 14l14 -1l47 15l4 13l38 7h26v3h30q47 0 68 -10.5t34 -40.5l-3 -2v-35l-6 -38l-16 -50h-16l-7 11l-11 8
l-28 7l-36 3l-14 3l-21 -3l-23 2l-25 -5l-23 2l-49 -9l-21 -10l-13 13l-10 10q-2 3 -4 5.5t-4 4.5l-8 12t-9 15v16l-17 4l-10 -16h-6l-8 7l-18 -13v-21h-21l-9 -9v-18l-13 -6q-4 4 -8.5 5.5t-9.5 1.5q-7 0 -14.5 -6t-17.5 -21l-11 -1l-11 9l3 13l2 64l8 61l-7 5l-7 34l1 44
l-7 46l-6 26l-2 53l8 51l10 34l-19 94l-8 19v27l8 35l2 29q5 52 7 74.5t2 34.5q0 6 -2 11t-8 9q-3 3 -8 6t-11 6v7v0zM166 40h13q6 -14 9.5 -26t3.5 -21q0 -22 -17.5 -34t-52.5 -14l-4 6l-4 6q-3 4 -7 8t-10 7q-5 3 -11.5 6t-15.5 7v4l22 16l74 35v0zM51 106l3 11l42 6
l54 24q10 0 18.5 -12.5t10.5 -32.5q0 -14 -7.5 -21t-19.5 -7q-7 0 -15 1.5t-17 4.5q-2 0 -4 1l-4 2l-61 23v0zM173 262q0 -2 0.5 -4.5t0.5 -4.5v-8.5v-9.5q0 -18 -8 -27.5t-25 -9.5q-6 0 -12 1.5l-14 3.5q-4 1 -7 2l-6 2q-14 4 -22.5 9t-16.5 13q-5 5 -10.5 12t-12.5 17v4
l18 4l60 6q6 2 11.5 2h9.5h3h3q6 -1 12 -4l16 -8v0zM53 419l105 -9l26 -13l-10 -42l-6 2q-4 -6 -7.5 -9.5t-6.5 -5.5q-4 -2 -7.5 -2.5t-7.5 -0.5q-20 0 -32 4.5t-23 18.5q-5 6 -9.5 14t-10.5 19h-5l-14 19l8 5v0zM475 568l19 -8v-54l-19 -79l-13 -86l-8 -2l-4 5l20 128l-1 6
l6 90v0zM53 541l47 -6l28 2l29 -2l19 -7l-6 -37q-11 -6 -19 -10t-15 -6q-9 -3 -19.5 -5t-25.5 -4l-8 8l-3 11h-8l-11 32l-13 9v13l5 2v0zM96 685l44 -23l34 -10l29 -17v-5l2 -3q-15 -18 -26.5 -28t-21.5 -13q-3 -1 -6.5 -1.5t-6.5 -0.5q-10 0 -19.5 6.5t-12.5 15.5l-10 27
l-4 29l-10 15v6l8 2v0z" />
    <glyph glyph-name="M" unicode="M" horiz-adv-x="1078" 
d="M299 709l12 -38l22 -43l26 -47l95 -161l46 -78l13 -18l24 -74l14 -30v-16l11 -13l32 -75l16 37l23 53l12 31l26 39l10 18l22 41l58 111l24 56l43 83l9 4l5 15l-11 50l15 6l27 -1l51 -4l48 -6l25 -10l4 -12l-5 -34l-8 -10l-22 -165v-116l1 -34l3 -29l-3 -26l8 -33l13 -101
l-16 -30l-5 -13l-6 -24l-5 -25l3 -35v-33v-32l5 -18l5 -20l-14 -1l-18 40l-11 36l-19 71l-7 52l-11 80l-26 146l-5 45l-6 67l-11 65l-8 4l-29 -58l-27 -43l-7 -7l-20 -40l-4 -11l-16 -19l-6 -3l-6 -16l-16 -29q-1 -1 -7.5 -16t-32.5 -64q1 2 -6 -8t-16 -24q-1 -3 -2.5 -5
t-2.5 -4q-7 -11 -12 -21.5t-5 -15.5l5 -23q0 -2 -2.5 -5.5t-13.5 -11.5q1 -7 1 -12.5v-10.5q0 -7 -0.5 -9.5t-1.5 -2.5l-16 12l-18 -24q-5 -1 -9 1.5t-4 9.5q0 3 1.5 7t3.5 10q1 1 1.5 3t0.5 4q2 4 2.5 8t0.5 8v0.5v1.5v1.5v0.5l-40 56l-3 6l-125 192q-1 5 -8 15.5t-16 22.5
q-2 3 -4.5 6t-4.5 6q-8 10 -15.5 17.5t-12.5 10.5l-13 28l-0.5 1t-1.5 1l-1.5 1.5l-0.5 0.5q-2 1 -3.5 0t-1.5 -6l6 -40l21 -38v-13h-2v-18l-9 -22q-2 -8 -4 -12.5t-3 -5.5t-2 -1t-3 1l-14 -61l3 -20l10 -20l-11 -91l-5 -75q0 -10 -1.5 -14.5t-3.5 -5.5q-16 -19 -25.5 -25.5
t-14.5 -10.5l-2.5 -2.5l-2.5 -2.5l-13 -25l-11 -7l-29 -33l20 308l4 205l5 40l4 24l2 33l-1 55q0 4 -0.5 7.5t-1.5 6.5q-2 3 -5 7t-9 10l-19 24l-15 12l-46 42l-54 27l69 36l30 19l31 1l28 5l24 3l31 -10v0zM93 641l10 -10l-30 -23l46 -3l25 -4l11 -9l-3 -12l-33 -27l48 -6
l14 -2l7 -9l-35 -29l-18 -11v-9l26 -2l30 -9l10 -8l-6 -12l-14 -4l-40 -15l-12 -14l40 -12l24 -10l-6 -21l-51 -13l24 -10l24 -8l4 -12l-31 -16l-32 -17l28 -11l16 -4l10 -12l1 -9l-29 -12l-38 -17l30 -7l17 -11l12 -22l-15 -10l-57 -32l29 -12l28 -12l15 -13l-7 -12l-18 -1
l-27 -14l-17 -8l38 -17l23 -9l5 -14l-6 -6h-20l-42 -15l-5 -11l36 -16l28 -9l7 -13l-12 -8l-32 -8l-18 -10l-8 -12l48 -13l28 -8l15 -12l-8 -11l-28 15l-32 5l-21 7l-23 7l-7 16l23 20l23 9l21 11l-57 24l-4 21l30 15l35 9l-55 17l-12 15l8 11l35 16l32 12l-25 10l-32 12
l-15 12l12 14l13 9l24 11l27 16l-24 9l-20 4l-20 5l-8 12l11 10l52 21l16 13l-27 1l-27 5l-9 13l7 13l22 11l34 16l-42 9l-18 15l5 11l16 6l52 12l-45 16l-20 6l-3 13l31 17l36 22l-28 5l-26 4l-12 13l7 18l36 26l-36 3l-21 8l4 17l34 24l-52 4l-25 2l-4 13l11 12l34 25v0z
M988 -96l-13 25l-6 21l-3 44l17 49l5 -58v-81v0zM833 344l6 -74l10 -56l1 -39l15 -91l5 -26l9 -17l-3 -9l-17 17l-4 28l-8 21l-13 76l-17 137l-13 49l22 12l7 -28v0zM377 299l2 -15l43 -72l34 -63l16 -14l8 -28l-12 2l-41 64l-38 54l-14 25l-20 15l5 20l17 12v0zM741 607
l50 6l-6 -10l-33 -8l-1 -12l12 -15l-6 -11l-9 -8l-21 -8l9 -20l1 -18l-13 -10l-27 -14l20 -34l-5 -20l-41 -10l12 -22l6 -21l-12 -23l-41 -8l12 -14l20 -20v-16l-25 -7h-26l14 -19l2 -20l-18 -13l-15 -8l4 -28l-12 -11v18l-1 21l8 17l13 10l13 2l-20 19v17l8 8l20 3h23
l-3 11l-25 14l-8 18l5 12l15 8l19 2l18 11l-17 27l-4 14l15 14l33 9l-19 25l-1 23l15 15l25 10l-13 22l4 18l12 10l21 4l-20 16v16l13 8v0zM807 631l14 -11l-4 -16l-17 -37l-5 -23l-40 -68l-27 -53l-12 -7l24 53l16 47l12 33l23 31l16 51v0z" />
    <glyph glyph-name="N" unicode="N" horiz-adv-x="968" 
d="M252 705l16 -38l91 -99l22 -29l77 -115l64 -77l22 -29l26 -44l9 -25l13 -14l18 -19l21 -15l19 -19l64 -73l7 -19l15 -32l-11 110v45l-13 135l8 116l1 40l6 22l5 77l-12 32v42l51 8l81 -35l12 -13l-19 -56l-25 -167l-2 -105l-5 -48l3 -18l-6 -79l8 -31l-2 -26l2 -45
l-3 -67l-3 -39l-16 -53l-4 -33l5 -28l-19 22l-4 29l-12 34l-24 75l-51 67l-82 77l-117 110l-67 69l-37 37l-19 11l11 -35l7 -31l-14 -67l3 -104l6 -61q-2 -7 -3.5 -10.5t-2.5 -5.5q-1 -1 -2 -1h-2l-14 -42l-24 -38l-22 -26l-4 -15l-14 -11l-2 -36v-28l-22 -27l-8 80l-6 77
l-3 101l4 35l8 113l-8 71l6 45l-6 17l1 65l3 30l-5 37v20l-101 127l-59 49l44 14l34 1l22 5l21 -2h24l15 -15v0zM196 -37q3 1 5.5 1.5t5.5 0.5q15 2 18 3t3 -4l-5 -30q-4 -22 -19 -30t-47 -12q-10 2 -18 3.5t-14 3.5q-15 5 -21 8.5l-6 3.5q20 5 33 13t23 23l42 16v0z
M856 237l-4 -67l6 -76l5 -65l-3 -75l-16 -55l1 42l-3 96l-6 85l11 102l9 13v0zM678 45l51 -85l7 -42l-12 3l-64 125l18 -1v0zM188 -14l-45 3q-10 2 -18.5 6.5t-7.5 13.5v0.5v1.5v1.5v0.5l12 -3t7 0q2 1 5 3t8 6q8 6 19.5 10t22.5 5h4h4q12 0 22 -4t15 -12l3 -10l-51 -22v0z
M213 77l-29 -11q-3 -2 -8.5 -3.5t-13.5 -0.5q-6 0 -13.5 0.5t-14.5 2.5q-10 3 -19 7t-17 11q5 0 9 1l8 2q6 2 11.5 4t11.5 4t12.5 4t13.5 3q11 2 20.5 4t17.5 2q11 0 17.5 -2t6.5 -7q0 -4 -3.5 -9.5t-9.5 -11.5v0zM400 306l36 -37l-8 -18l-4 -53l-2 -50l-12 -36l-5 61v80
l-5 53v0zM226 173q-9 -7 -14.5 -11.5t-11.5 -6.5q-4 -2 -8.5 -2.5t-10.5 -0.5l-53 8l-35 8q1 0 1.5 0.5t0.5 1.5q1 0 1 0.5t1 0.5q4 3 14 7.5t40 15.5l54 11l11 5q2 0 4.5 -0.5t4.5 -1.5q4 -3 7.5 -7t3.5 -12q0 -4 -2 -7.5t-8 -8.5v0zM212 298q9 -3 13 -6.5t4 -8.5
q0 -2 -1.5 -4.5t-3.5 -5.5q-2 -2 -4.5 -4t-5.5 -4q-4 -3 -8 -5t-6 -2l-40 1l-44 11l-24 10l-2 8q0 1 0.5 1.5t0.5 1.5q1 2 2.5 2.5t6.5 0.5l49 12h6h6h10.5t9.5 1h7h6q6 0 10 -2t8 -7v0zM879 619l15 9l16 -18l-18 -47l-7 -22l-8 -43l-3 -40l-6 -50l-4 -86l-20 -12l8 72l1 31
l10 123l3 10l13 73v0zM237 362l-49 -18l-45 5l-63 14l12 11l68 16q32 0 44.5 -1.5t16.5 -7.5l16 -19v0zM333 632l-62 93l41 -5l19 -27l17 -31l35 -51l32 -35l46 -72l48 -85l23 -30l-7 -5l-25 32l-119 160l-48 56v0zM231 499l-0.5 -6t-2.5 -13q-1 -6 -3.5 -11.5t-6.5 -7.5
l-0.5 -0.5l-0.5 -0.5q-1 0 -2 -0.5t-2 -0.5q-3 -1 -8 -2.5t-17 -5.5q-1 -2 -2.5 -3.5t-4.5 -2.5q-7 -3 -25.5 -6.5t-60.5 -11.5l-19 2l12 8l37 27l42 27q1 1 5.5 3t10.5 4q4 1 8 2.5t8 2.5q6 1 11.5 2t9.5 1q5 -1 8 -2t3 -5v0zM60 512l15 19l29 18q18 11 33.5 18t29.5 7
q11 0 17.5 -5t6.5 -12q0 -1 -0.5 -2.5t-0.5 -3.5q-4 -10 -20 -18.5t-35 -10.5l-75 -10v0zM136 622q-2 -10 -5.5 -15.5t-7.5 -8.5q-4 -2 -7 -3t-5 -2q-1 0 -1.5 -0.5l-0.5 -0.5q-1 0 -1.5 -0.5t-1.5 -0.5q-7 -1 -27 -2.5t-72 -6.5h-18l6.5 6.5t4.5 3.5q0 1 1.5 2t2.5 2l5 2.5
t6 3.5l85 28l22 4q2 0 3 -0.5t2 -1.5q2 -1 4 -3.5t5 -6.5v0zM48 642l-41 6l-39 11q-17 13 -15 18t18 5l34 3h42l27 -10q1 0 2 -1l2 -2q2 -2 3 -4t2 -5q1 -2 1.5 -3.5t0.5 -3.5v-0.5v-0.5v-2.5t-2 -3.5q-2 -3 -10 -5t-25 -2v0zM-59 781l47 -8q35 -13 51.5 -20t22.5 -13
q4 -3 5 -6.5t1 -8.5t-8.5 -8t-20.5 -3h-4h-4q-10 2 -25 11.5t-54 36.5l-22 12l11 7v0zM103 741q-1 0 -2 0.5t-2 0.5q-12 2 -19 5t-14 9q-3 3 -6 6.5t-7 8.5l-29 39q-1 5 4 7.5t12 2.5h4t5 -1q4 0 8 -1t7 -2t5 -1.5t3 -1.5l34 -32q16 -16 21.5 -22t5.5 -9v-0.5v-0.5l-30 -8v0
zM125 851q14 -2 21.5 -7t14.5 -11l3.5 -3.5l3.5 -3.5q-1 0 2.5 -1t8.5 -5q3 -3 6 -7.5t4 -10.5l26 -42q-7 -2 -11.5 -3t-8.5 -2h-2.5h-3.5q-16 0 -27 6t-14 18l-21 53l-13 19h11v0z" />
    <glyph glyph-name="O" unicode="O" horiz-adv-x="773" 
d="M386 706l24 -14l27 -7l17 -12l24 -12l27 -21l17 -21l9 -14l-7 -21l-15 -4l-65 -51l-14 -10l-44 -48l-18 -22l-31 -48l-20 -36l-19 -57l-5 -19v-13l-11 -39v-29l6 -16l1 -39l13 -45l20 -39l51 -62l29 -23l23 -20l57 -37l34 -4l22 1l15 -4l43 59l32 53l18 37l10 32l10 42
l2 72v36l-14 70l-10 56l-8 20l-31 61l-37 26l-31 5l-24 -4l-25 -8l-14 11l23 13l28 6l19 1l34 -7l18 -5l33 -13l45 -52l16 -30l12 -29l9 -43l5 -16l5 -36l6 -33l6 -60l-5 -31v-24l-8 -28l-3 -30l-20 -30l-19 -33l-31 -44l-13 -8l-41 -29l-5 -12l-28 -5l-14 -18l-16 -9
l-17 -14l-15 4l8 7l16 12l10 11l-22 5l-30 1l-23 2l-44 9l-40 15l-24 11l-76 62l-41 49l-10 22l-22 37l-23 52l1 11l-16 46v65l11 53l1 18l6 10l2 38l24 60l52 80l26 44l28 36l48 55l26 22v0zM174 -45l27 12l24 2l20 5l21 -1l14 -10l13 -14l3 -16l-12 -6h-20l-23 8l-20 2
l-16 7h-12l-19 11v0zM514 -45l55 49l27 44l14 24l7 -8l-15 -39l-9 -29l-31 -29l-16 -24l-10 -8l-15 -2l-17 7l-12 9h12l10 6v0zM121 80l37 -13l24 -7l26 -2l21 -35l-5 -8l-14 -6h-30l-28 16l-18 14l-22 13l-11 21l20 7v0zM61 187q35 -1 60 -9.5t36 -20.5l4 -10l3 -21l-11 1
l-12 -6l-15 7l-18 -4l-36 35l-11 28v0zM44 308l29 -10l14 -3l20 -1l15 -5l9 -13l7 -7l-8 -33l-15 -8l-24 7l-31 38l-26 24l10 11v0zM308 267l16 48l17 41l33 52l34 47l40 44l9 16l9 3l20 15l22 12l16 6l14 -10l7 -10l-12 -6l-19 -4l-25 -13l-12 -9l-21 -23l-24 -16l-14 -16
l-50 -77l-11 -22l-3 -16l-16 -21l-21 -49l-9 8v0zM36 408l22 -5l14 -4l26 -10l16 -8l22 -17l2 -17l-5 -11l-7 3l-10 -8l-18 6l-22 12l-18 16l-16 23l-12 12l6 8v0zM47 524h13l13 -14l42 -14l10 -2l15 -12l8 -12l4 -11l1 -9l-12 -28l-18 1l-20 12l-23 27l-19 16l-9 13l-8 23
l3 10v0zM88 641h8l21 -20l24 -19l30 -15l13 -12l19 -26l8 -14l-3 -16l-5 -8l-24 4l-46 28l-28 55l-10 12l-7 31v0zM161 725l21 -7l15 -15l12 -15l17 -27l15 -16l12 -17l3 -16l-4 -12l-11 -11l-16 12l-21 11l-18 12l-8 25l-4 31l-13 45v0zM236 778l13 -5l13 -12l29 -22
l16 -17l10 -21l-7 -22l-12 -9l-12 -5l-6 10l-11 6l-17 50l-12 18l-4 29v0z" />
    <glyph glyph-name="P" unicode="P" horiz-adv-x="668" 
d="M115 713l109 -1l34 -5l76 -7l10 -3l61 -6l17 -3l56 -20l56 -28l28 -26l43 -48l8 -16l8 -29q4 -7 7 -14.5t4 -15.5q2 -8 2.5 -15.5t0.5 -14.5t-0.5 -13t-1.5 -10q0 -1 -0.5 -2.5t-0.5 -2.5q-2 -6 -4 -10.5t-4 -8.5q-2 -3 -3.5 -6.5t-3.5 -6.5q-3 -5 -8 -11.5t-13 -14.5
l-23 -27l-13 -20l-22 -29q-14 -14 -22 -21t-16 -10q-5 -2 -10 -2.5t-12 -0.5q-2 0 -3.5 0.5t-3.5 1.5q-6 1 -9.5 3t-5.5 6q-1 1 -1.5 2l-0.5 1q-2 2 -3.5 3t-4.5 2l-48 15q0 2 -3.5 3.5t-12.5 1.5v-48l3 -48l-3 -50l-1 -14l-2 -18l-5 -26l2 -41q1 -2 1.5 -5.5t1.5 -6.5v-2.5
v-3.5q0 -6 -1.5 -10.5t-4.5 -5.5l-7 -9l-1 -26l-3 -16v-0.5t1 -1.5v-1.5v-1.5q0 -3 -1 -6t-4 -7l-9 -3l-5 -29l-16 -19q-10 -8 -14.5 -11.5t-8.5 -3.5q-2 -1 -3.5 -1h-3.5l-26 -8q-19 5 -23 12t-6 17v0.5v0.5l-3 63l6 221l-7 118l1 155l-3 39l5 73l54 -11l27 -9l39 -20
l25 -38l2 -35l-2 -28l-1 -51l-2 -17q0 -1 -0.5 -2.5t-0.5 -2.5t-0.5 -2.5t-0.5 -2.5v-3.5v-3.5t0.5 -5t1.5 -7l16 13l37 24l73 59l13 14q10 9 18 20.5t12 23.5q4 8 5.5 16.5t1.5 15.5q0 18 -13 30.5t-49 21.5l-44 13l-33 7l-42 4l-73 10l-13 -2h-24l-32 4h-64l-24 -2
l-61 -10h-1.5h-0.5q-4 0 -9 3t-18 10l-21 11l-14 16l-14 28l-10 32h21l30 3l64 6v0zM170 57l20 -5l5 -9q4 -1 6.5 -2.5t3.5 -2.5q2 -1 2.5 -2.5t0.5 -2.5v0v0v0v0q0 -1 -0.5 -3.5t-5.5 -12.5l-38 -28q-1 1 -7 -2t-15 -7q-7 -2 -15 -4.5t-17 -3.5l-33 -11l-9 -5l-18 -1l11 14
l29 27l9 16l26 21l24 16l21 8v0zM186 166q14 -3 25 -9.5t11 -19.5v-0.5v-1.5q-1 -1 -1 -1.5v-1.5t-0.5 -2t-1.5 -1q-2 -6 -8.5 -10.5t-20.5 -6.5l-8 -10q-2 0 -8.5 -3.5t-24.5 -7.5q-2 0 -5 -0.5t-6 -1.5q-5 -3 -8.5 -4t-7.5 -1q-1 0 -2 -0.5t-2 -0.5q-6 0 -14.5 -2
t-23.5 -10l-24 1q10 9 14.5 13.5t8.5 6.5q1 1 1.5 1t0.5 1q1 0 2.5 1t2.5 2l29 29l15 13l41 22l15 5v0zM174 244l15 -6l8 -8q5 -2 7 -3.5t3 -2.5t1 -2v-2v-2v-2q-1 -8 -4 -14t-7 -6l-16 -4l-18 -12l-16 -4l-14 -2h-15l-4.5 -3t-2.5 -2t-3.5 -1.5t-10.5 -0.5l-20 -3l-23 5
l44 29l11 13l24 14q6 5 11 7.5t10 4.5q1 0 2 0.5t2 0.5q3 1 7 2.5t9 3.5v0zM149 304l40 9l14 -8l3 -8l8 -6q0 -11 -9.5 -17.5t-31.5 -11.5q-3 -2 -6 -3.5l-5 -2.5q-3 -1 -6 -1.5t-7 -0.5l-18 2q-3 0 -6 -0.5t-6 -0.5t-5.5 -0.5t-4.5 -0.5q-1 0 -3 0.5t-5 0.5t-6 0.5t-7 0.5
l-21 3q7 5 12 9t10 7q3 2 6 3.5t6 3.5q8 4 19 9t29 13v0zM163 385l11 -5l1 1l2 2t2 1.5t3 0.5q0 1 0.5 1h1.5h1.5t0.5 -1q1 0 2.5 -1.5t1.5 -4.5l7 -16q2 -4 2.5 -7.5t0.5 -5.5q0 -1 -0.5 -2t-0.5 -2q-2 -3 -7 -5.5t-11 -4.5l-18 -4l-56 2l-11 5l-45 8l19 9h4l48 20l14 3
l27 6v0zM126 465h16l23 2l40 -5q2 -7 2 -11.5v-6.5v-3.5t-1 -2.5q-3 -5 -5 -9t-4 -6t-4.5 -3t-6.5 -1l-24 -2l-12 2h-11l-38 11l-51 22l17 7l43 5l16 1v0zM82 574l59 -3l49 -13l12 -10l22 -11l-3 -9l-2 -13l-16 -5l-24 -6l-49 24l-34 20l-35 23l21 3v0z" />
    <glyph glyph-name="Q" unicode="Q" horiz-adv-x="907" 
d="M981 -60l3 -19l20 -26l3 -12l13 -21l20 -23l-1 -9l-29 22l-35 21l-5 5l-216 139l-14 8l-12 -20l-16 -5l-20 -12l-36 -17l-25 -8l-21 -16l-31 -4l-20 1l-59 9l-42 11l-67 25l-29 18l-8 8l-37 26l-13 6l-13 21l-14 3l-6 13l-20 32l-14 13l-16 42l-4 29l-10 45l1 47l4 29
l33 98l28 44l62 61l43 37l77 42l91 41l114 42l24 -39l11 -22l14 -14l11 -18l5 -16l7 -11l-18 -31l-11 -4l32 -32l21 -28l40 -62l11 -21l16 -40l5 -9l20 -78l-4 -54l-8 -41l-8 -19l-4 -15l35 -40l14 -11l20 -22l16 -11l14 -16l6 -41l10 -12l19 -4l15 -19l-1 -9l9 -7v0z
M685 63l-6 5l-122 74l-58 27l-3 11l39 40l38 27l50 18l25 3l19 -13l9 -19l44 -40l24 -27l8 44l7 20l8 88l-11 58l-36 91l-31 61l-89 -19l-53 -20l-56 -33l-7 10l-16 -2l-31 -19l-32 -32l-1 -18l-23 -19l-24 -31l-13 -11l-3 -8l-24 -34l-19 -49l-3 -45l5 -29l25 -48l32 -40
l42 -32l54 -22l69 -10l35 2l107 19l21 22v0zM505 149l22 -9l52 -45l17 -4l44 -29l16 -11l-13 -4l-72 31l-60 29l-12 14l-19 8l-1 11l26 9v0zM674 510l6 -23l-25 -11l-24 -17l-18 -7l-65 -13l-35 -14l-52 -42l27 40l26 20l56 32l51 16l53 19v0zM753 3l4 -11l34 -28l46 -27
l39 -32l44 -30v-7l-77 41l-22 15l-46 25l-42 36l6 12l14 6v0zM116 -36l9 19l16 14l19 10l28 6v-13l-9 -8l-3 -13l-20 -8l-17 -12l-15 -6l-8 11v0zM451 709l8 -8l1 -38l-7 -18h-45l-5 -40l-7 -4l-51 -1l-17 -55l-7 -14l-10 -7l-42 1l-10 -6l2 -12l-8 -32l-2 -19l-34 -9
l-19 -11l9 -45l-8 -11l-3 -7l-20 -14l-16 -25l12 -30l-3 -12l-24 -41l-4 -15l26 -17l12 -19l1 -13l-5 -20l4 -20l41 -31l2 -39l-3 -15l26 -27l14 -12l1 -18l-8 -22l-9 -12l-27 18l-7 8l-2 16l4 35v11l-16 -3l-32 5l-14 10l3 24l13 48l-48 14l-9 12l1 12l16 43l-5 5l3 11
l-28 39l-6 4l2 14l44 38l-2 12l2 13l-4 28l4 23l22 24l15 2l9 11l3 43l5 26l28 4l39 11l9 60l40 13l20 -1l2 31l14 18h27l23 -4l5 35l4 13l51 12v0zM56 103l8 9l29 11h20l18 8l6 -10l-16 -9l-9 -15l-20 -2l-21 -4l-15 12v0zM15 269h30l26 -6l9 -14l-9 -10l-14 -9l-12 -1
l-12 8l-21 3l-9 6l12 23v0zM32 415l23 -3l13 -8l17 -16l16 -13l3 -10h-17l-31 4l-20 11l-11 15l-1 13l8 7v0zM84 532l35 -13l9 -10l15 -24l8 -20l-3 -9l-20 7l-24 21l-19 19l-6 20l5 9v0zM173 636l15 -16l25 -9l15 -28l3 -18l-11 -1l-21 9l-35 52l9 11v0zM229 699l22 -11
l14 -15l16 -24l11 -24l-5 -6l-20 12l-16 14l-12 16l-12 18l2 20v0zM313 753l18 -12l6 -14l20 -23l7 -19l-23 3l-18 13l-10 20l-6 16l6 16v0z" />
    <glyph glyph-name="R" unicode="R" horiz-adv-x="891" 
d="M-45 733l8 -3l23 -23h48l126 11l139 8l42 4h112l81 -13l29 -7l75 -32l56 -36l34 -40l24 -36l8 -19q1 -3 2.5 -6.5t2.5 -6.5q4 -7 6 -16t2 -22q0 -15 -1 -24.5t-4 -16.5q-1 -5 -3.5 -10t-6.5 -11q0 -7 -1.5 -11t-4.5 -8q-2 -2 -5 -4.5t-8 -5.5l-14 -19l-18 -16
q-5 0 -8.5 -2.5t-6.5 -6.5q-1 0 -1.5 -1t-1.5 -2q-3 -3 -7 -6.5t-10 -4.5q-4 -4 -8 -6.5t-10 -2.5q-2 -2 -9 -6.5t-16 -9.5q-2 -1 -4.5 -2.5t-4.5 -2.5q-11 -5 -20 -9t-13 -4h-11l-53 -7l-24 2l35 -37l79 -71l86 -71l138 -82l50 -18l54 -8l48 -2h24q-3 -1 -6 -2.5t-5 -3.5
q-4 -3 -7 -5t-5 -3h-1.5h-1.5l-25 -4q-11 -2 -18 -4t-12 -5q-2 0 -3.5 -1t-3.5 -2q-3 -1 -6 -2.5l-7 -3.5q-1 -3 -2 -4.5t-2 -3.5q-2 -3 -4.5 -4.5t-7.5 -2.5q-4 -1 -5 -3t-1 -6l-14 -10l-12 -1l-8 -6q-5 0 -7 -2l-3 -3v-2.5v-2.5q1 -1 1 -1.5v-1.5t-1 -1h-3h-2h-3
q-3 0 -18 4.5t-33 18.5l-12 1l-20 14l-121 77q-4 2 -8 3.5t-7 3.5q-5 2 -9.5 5t-8.5 6q-7 5 -14 12t-17 18q-28 32 -47.5 44t-21.5 18l-26 29l-22 25l-23 29l-4 -3l-18 -37l-3 -13l-8 7l-13 -7q0 -1 0.5 -2.5t0.5 -3.5q0 -3 0.5 -5t0.5 -5t-0.5 -5.5t-2.5 -5.5
q-1 -3 -3.5 -5.5t-6.5 -5.5q-5 -5 -7 -10.5t-2 -11.5q0 -2 -0.5 -4.5t-0.5 -4.5q0 -7 -1.5 -13t-6.5 -9l-13 -24l-6 -54l-10 -42l-9 -13l-16 -28l1 -4q-2 -1 -3 -3.5t-2 -4.5q-3 -5 -3.5 -11.5t-0.5 -20.5l-5 -1l-7 47l2 14q1 2 1 4.5v4.5q0 3 -0.5 7.5t-0.5 9.5
q0 4 -0.5 7.5t-0.5 7.5v2.5v3.5q0 9 1 16t5 13v15l3 65h-1l4 79l7 48l1 25h-1l5 40h3l6 55l11 56l-1 5l11 60l6 58l5 109v29l-73 -7q-8 0 -13 -0.5t-9 -2.5q-2 -1 -5 -3t-7 -5l-53 -14q-4 -1 -6 -3t-3 -7h-16l-12 -6l-30 -7q-1 0 -10 -3.5t-21 -7.5q-4 -1 -8.5 -2.5
t-8.5 -2.5q-9 -3 -17 -4.5t-15 -1.5q-16 0 -30.5 9t-22.5 19q-1 2 -2 3.5t-2 3.5l-15 61l-14 27q0 1 -0.5 3.5t-0.5 7.5q0 4 0.5 8.5t2.5 9.5h-1zM488 557l-2 -13l-3 -32l-13 -77l2 -8l-13 -51l7 -6l35 4h0.5h0.5q2 1 8 2t24 6l45 13q22 11 28.5 14.5t8.5 4.5l50 34
q7 6 14.5 14t15.5 18q14 17 20.5 32t6.5 29q0 8 -2.5 15.5t-7.5 15.5q-15 27 -49.5 50.5t-73.5 33.5l-35 8q-10 2 -15.5 3.5t-6.5 1.5h-5t-10 -2l-16 2h-4h-29q-2 0 -3.5 -0.5t-3.5 -0.5q-4 -1 -6 -2.5t-2 -3.5v-1l16 -10l12 -13l8 -8l9 -19l-11 -54v0zM530 474v-20v-1.5
v-0.5q-1 -4 -4.5 -9.5t-13.5 -20.5l-2 -11q0 -8 -1 -12t-5 -7l-1 -0.5t-2 -1.5l-3 7v56l9 67l11 66q0 21 0.5 25.5t1.5 4.5q2 0 6 -1.5t8 -4.5q6 -4 9.5 -9t3.5 -12q0 -2 -1 -8t-2 -13q-1 -3 -1.5 -6.5t-1.5 -6.5q-1 -2 -1.5 -3.5t-0.5 -3.5q-3 -10 -4 -21.5t-1 -30.5
l-4 -22v0zM664 -13h13l10 -5l28 -16l17 -14q7 -3 16.5 -8.5t19.5 -11.5t20 -13t17 -14l9 -11l-17 -4l-133 97v0zM752 368l-2 -22l-14 -10l-19 -6l-10 -8l-14 -8l-53 -37q-3 -1 -5.5 -2t-4.5 -2q-4 -2 -8.5 -5.5t-10.5 -8.5l-3 -1.5t-7 -2.5q-4 -2 -10.5 -3.5t-12.5 -1.5
h-0.5h-1.5h-1.5h-0.5l-35 30l15 2q-1 0 1 -1t5 -2t7 -2t9 -1q2 0 4.5 0.5t5.5 1.5q2 1 4.5 2t4.5 2l112 54l15 11l19 11l11 10v0zM310 528l-28 -66l-13 -12l-16 -32l-2 -13q-1 -10 -2 -16.5t-2 -12.5q0 -3 -0.5 -7t-0.5 -8q-1 -7 -1.5 -16t-1.5 -22l-11 -17q-4 -4 -5.5 -7.5
t-1.5 -6.5q0 -2 1.5 -2.5t5.5 0.5l-10 -20q-2 -3 -4.5 -5.5t-5.5 -2.5q-1 -1 -2 -1h-2t-3 0.5t-3 0.5q-3 1 -6 3.5t-6 4.5l-8 10l-41 26l-8 17q5 -1 8.5 -1h7.5q7 0 11.5 1.5t8.5 5.5l5 7.5l7 10.5l59 98l29 38l41 45v0zM310 614q1 -2 1.5 -2.5l0.5 -0.5v-1v0v0v0
q0 -2 -3 -5t-24 -8l-56 -35q-3 -2 -5 -3.5t-4 -3.5q-1 -1 -1.5 -2t-1.5 -1q-2 -3 -5 -6t-7 -8l-27 -23l-2 -6l-8 -5l-5 -14l-6 -5l-7 -21l-8 -8h-3l-3 -11l-8 -7q-1 -2 -1 -5v-6q0 -7 1 -15t3 -17q0 -5 1 -10t1 -11q1 -2 1 -4.5v-4.5q0 -5 -2.5 -7.5t-6.5 -2.5h-0.5h-1.5
q-4 0 -16.5 9t-39.5 54l-45 112q6 -2 11 -5t9 -7q7 -6 11.5 -11t8.5 -5l15 4l46 17l-1 2l35 19l17 6l114 56l22 7v1v0z" />
    <glyph glyph-name="S" unicode="S" horiz-adv-x="699" 
d="M613 649l11 -26l26 -48l5 -29l3 -11l-5 -29v-0.5t-1 -0.5q-3 -10 -9.5 -14t-29.5 -6q-9 -2 -23 -3t-33 -3l-12 -8l-23 -6l-50 -18l-28 -6l-32 -15l-35 -22l-28 -14l-9 -8l-16 -8l-19 -20l-47 -40l-5 -11q-5 -4 -7.5 -8.5t-2.5 -7.5q0 -10 21 -17t53 -12l101 -14l112 -18
l56 -22l40 -29v-3l24 -34q1 -1 2 -2.5t2 -3.5q3 -5 5 -12t2 -15t-2.5 -17t-8.5 -18q-3 -3 -5.5 -6t-5.5 -6l-37 -17q-2 -2 -6.5 -5t-20.5 -8l-78 -40l-16 -6l-53 -34q-2 -1 -3 -2.5t-3 -2.5l-1.5 -1.5t-1.5 -0.5q-2 -2 -5 -3t-7 -3l-34 -24l-14 -5l-4 -4l-4 -4
q-3 -2 -6 -2.5t-8 -0.5q-1 -1 -2.5 -2t-3.5 -2q-2 -2 -6 -4t-8 -2t-8 2.5t-9 8.5q-7 -5 -10.5 -5.5t-6.5 9.5q0 1 -0.5 2.5t-0.5 3.5q-3 4 -5 9.5t-4 19.5l6 15l32 30q32 25 46 34.5t23 14.5q1 0 2 0.5t2 1.5q2 0 3.5 1t3.5 2l30 18l19 9l19 12l36 19l22 11l69 35
q16 9 20 12.5t4 5.5t-1 4t-4 4q-3 3 -7.5 6t-9.5 5l-37 10l-37 3l-13 -2l-19 5l-16 -1h-94l-55 1q-16 2 -22.5 3t-9.5 1h-1.5h-0.5l-0.5 -0.5l-0.5 -0.5l-35 10q-3 1 -7.5 4t-9.5 6q-1 1 -2 1.5t-2 1.5q-8 6 -13.5 10.5t-2.5 2.5l-17 12l-15 20l-5 20q0 1 -2 5t-5 12
q-3 7 -5 17.5t-2 25.5l6 33l8 16l28 43l41 42l27 19l31 23l54 32l35 16l50 25l41 14l17 3l24 12l42 13l30 5l20 11v0zM401 157l12 7l-6 -30l-34 -44l-20 -22q-3 -3 -8 -4.5t-11 -2.5q-3 -1 -5 -1h-4q-1 0 -2 0.5t-2 1.5q-2 2 -4.5 5t-3.5 7v2.5v2.5t4.5 10.5t20.5 21.5
q1 1 3 2.5t4 2.5l27 18l29 23v0zM322 158l16 -4l-9 -16l-52 -36q-18 -15 -26.5 -19t-14.5 -4q-8 0 -13 4t-5 12v2v1q2 11 9.5 20t17.5 12l40 13q1 0 2 0.5t2 0.5q2 1 3.5 1.5t3.5 0.5q4 2 9.5 4.5l16.5 7.5v0zM244 190q1 -3 1 -5v-4v-0.5v-1.5v-1.5v-2.5v-2v-3l-14 -3
l-66 -57q-7 -5 -16 -8.5t-19 -3.5q-8 0 -14.5 5.5t-6.5 14.5v2t1 2q1 4 9 10.5t32 23.5l29 10l45 20l19 4v0zM154 239q8 -2 11.5 -3.5l3.5 -1.5q0 -1 0.5 -1t0.5 -1v-0.5v-0.5l-11 -9l-59 -28l-18 -9l-14 -3l-23 1q-6 0 -8.5 2.5t-2.5 8.5q0 8 5.5 14t15.5 10l32 10l51 6
l16 5v0zM82 311l34 -8q5 1 9 1h6q4 0 5 -1l2 -2v-0.5v-0.5l10 -3l-15 -7l-6 -8l-18 -1l-52 -7h-8q-18 0 -30 6.5t-12 16.5t8 15.5t25 5.5q8 0 18.5 -1.5t23.5 -5.5v0zM52 414l14 -8l15 -5l20 -13l6 -2t5 -1q3 -1 5 -2t4 -3q3 -1 6.5 -3.5t7.5 -6.5q-1 0 -3 -0.5t-4 -1.5
q-3 -1 -7.5 -1.5t-10.5 -0.5q-7 0 -15 2t-19 6q-26 0 -36.5 5t-10.5 17q0 8 4.5 13t11.5 5h7v0zM157 439l8 -21l-6 7l-16 3l-19 18q-37 24 -45 38t-8 24q0 8 3.5 12t9.5 4q2 0 6.5 -1.5t9.5 -4.5q4 -2 8 -5.5t6 -7.5l43 -66v0zM209 473l-4.5 4.5t-3.5 2.5t-3.5 2t-3.5 1
q-1 0 -2.5 0.5t-2.5 0.5l-30 40l-22 24l3 11q-7 20 -9 29.5t-2 13.5q0 8 3 12t8 4q4 0 7 -2t4 -6l30 -51l28 -73v-13v0zM249 666h3l8 -41l9 -23l-4 -8l3 -78l-3 10l-15 11l-22 64l-3 21l-7 33q0 2 0.5 5t1.5 6q2 5 6 9t11 4q3 0 4.5 -1.5t3.5 -4.5q1 -2 2 -3.5t2 -3.5v0z
M335 769q5 -4 8.5 -6.5t5.5 -5.5q3 -4 4 -7.5t1 -9.5l-1 -16l3 -14l-10 -50l-13 -45l-16 -27l-4 -29l-4 -13l-12 29l-4 18l-3 72l7 48l3 13l13 30l11 8l11 5v0zM413 660q-1 -1 -1 -1.5t-1 -1.5q-2 -4 -5.5 -12t-12.5 -25l-15 -10l2 15l-2 25l7 48l1 15q0 8 5.5 21t15.5 27
q3 7 7 11t9 6q2 1 4 1.5t4 0.5q8 0 12 -6.5t4 -17.5q0 -5 -1 -10.5t-2 -11.5q-3 -11 -6.5 -21.5t-9.5 -22.5l-15 -30v0zM565 748l-25 -48l-4 -4t-8 -9q-2 -1 -3.5 -3t-2.5 -4q-1 -1 -1.5 -2t-1.5 -2q-1 -2 -2.5 -4t-2.5 -3q-2 -3 -4 -5.5t-4 -4.5q-3 -3 -7 -5.5t-9 -6.5
l5 15l1 34l23 62l13 27l14 16h5t3 -2l2.5 -2.5t2.5 -3.5l13 -12l-7 -12v-21v0zM620 694q-1 -2 -4 -6l-6 -8l-1.5 -3t-1.5 -2q-3 -4 -5.5 -6.5t-4.5 -3.5q-1 -1 -3.5 -2t-7.5 -1l2 12l-5 2l24 53l32 61l24 14l6 -6q3 -6 5 -11t2 -9q0 -3 -2.5 -9t-7.5 -16q-4 -11 -8 -18.5
t-8 -12.5q-3 -5 -7 -8.5t-8 -7.5q-3 -3 -7 -5.5t-8 -6.5v0z" />
    <glyph glyph-name="T" unicode="T" horiz-adv-x="757" 
d="M32 737l16 -23l5 -11l14 -6l152 -2l64 -5v-1l74 -5l156 -6l224 -26l56 -18q2 0 6 -2.5t9 -6.5l6.5 -6.5t5.5 -6.5t3 -6t1 -5q0 -3 -3 -3.5t-8 -0.5h-6.5h-8.5q-6 0 -12 -0.5t-13 -2.5h-12l-40 -3l-33 -5l-37 -1l-24 -5l-45 -10l-38 -11l-23 -3l-8 3q-5 -2 -9.5 -6
t-6.5 -8q-1 -1 -1 -3t1 -4l-3 -20l7 -13l-4 -47l4 -16l-12 -33l4 -50l-12 -80q-1 -31 -4 -51.5t-7 -30.5q-1 -2 -1.5 -3.5t-1.5 -2.5q-8 -9 -13 -16t-9 -14q-4 -8 -6.5 -17.5t-4.5 -22.5q0 -4 -0.5 -8t-1.5 -8l-7 -18l-1 -45l5 -30l-2 -4t-2 -3q-1 -2 -2.5 -3t-2.5 -2
q-1 0 -2.5 -1t-3.5 -2l-6 -9l-16 -6l-15 -21l-16 -16l-11 -26l3 -1l-20 -26l-15 -37l-27 -48l-2 7l7 51l6 16l3 61l5 24l3 51l-1 107l11 72l2 21l1 73l10 93l5 42l5 34l-1 18l2 17l-2 35q0 13 -9 18t-22 5h-6t-6 -1q-7 -1 -13 -2.5t-11 -3.5h-21l-76 -18l-22 -10
q-13 -5 -20 -7.5t-12 -2.5q-2 0 -3 0.5t-3 0.5q-3 2 -6.5 4.5t-9.5 5.5q-1 1 -2.5 1.5t-3.5 0.5q-1 0 -2 0.5t-2 0.5q-4 2 -8.5 6t-6.5 15l-21 28l-11 34l-11 46v12l-5 75v0zM437 -18q3 0 5.5 -1t3.5 -1q5 -2 7 -4.5t3 -6.5q0 -1 0.5 -2t0.5 -2l4 -6q-3 0 -6 -1.5t-6 -2.5
l-8 -4t-7 -4q-9 -6 -18.5 -16.5t-25.5 -31.5v-4l-13 -24l-17 -51q0 1 -1 1.5l-1 0.5q-3 3 -5 8t-2 12q0 5 1.5 11.5t4.5 14.5l24 58l24 33l12 21l7 2h13v0zM297 140l4 -6l-15 -60l-11 -49l-10 -15l-19 -40q0 1 -0.5 0.5t-0.5 -1.5l-2 -2l-2 -2q-2 -1 -3.5 -1.5t-2.5 -0.5
t-2 1.5t-1 6.5l-5 14l16 62l13 45l25 29l15 19h1v0zM262 166q-1 -1 -0.5 -2t2.5 -1q1 0 2 -0.5l3 -1.5t3.5 -2.5t2.5 -4.5q-4 -20 -21 -32t-41 -14h-2.5h-3.5q-9 0 -16 -3t-13 -6q-6 -4 -11.5 -7t-10.5 -3h-0.5t-1.5 1h-1.5h-0.5l-26 -9q1 2 2.5 3.5t2.5 3.5q1 1 2 2.5
t2 2.5q5 6 16 14t36 27l51 25l24 7v0zM198 234l40 -3q10 0 16.5 -5.5t6.5 -13.5v-2v-2q-1 -3 -4 -6.5t-9 -5.5l-5 -5h-29l-16 -4l-41 9l-4 3l-57 16q-8 0 -11 1.5t-4 2.5t-1 1.5v0.5q0 1 -0.5 1.5t-1.5 0.5v3l120 8v0zM124 379l98 -55q8 -5 14.5 -11.5t11.5 -13.5
q4 -5 6 -10.5t2 -9.5t-2.5 -6.5t-10.5 -4.5q-25 0 -36 2.5t-18 10.5l-28 29l-28 23l-28 39l-4 10l11 3l12 -6v0zM195 502l10 -8q3 -3 12 -17t36 -59l27 -48l1 -16v0t1 -2v-4v-5v-2v-2q-1 -5 -3 -9.5t-6 -3.5q-2 0 -5.5 2t-8.5 6l-2 -2l-12 16l-42 94l-14 41l6 19v0zM297 514
q1 -1 2.5 -1.5t2.5 -0.5q3 -2 5 -4t4 -5q0 -2 0.5 -3l1.5 -3v1l2 -59v-41l-3 -25l-15 7l-6 13l-5 17l-3 23l2 22l8 56l4 3v0zM46 758q8 -4 12 -5.5t8 -1.5q2 -1 5 -1h7l69 -4l43 -6l8 2l63 -4l3 4l221 -16l94 -4l102 -11q5 0 8.5 -2t3.5 -4l-0.5 -0.5l-0.5 -0.5
q-1 0 -1 -0.5v-0.5q-1 0 -2 -1t-3 -2l-72 10l-6 -4q-1 0 -1.5 0.5t-1.5 0.5q-5 1 -11 1h-15l-26 -5l-11 3l-43 2l-16 -2h-46l-34 2l-48 -2l-43 8l-45 2l-30 -2l-117 5l-19 -1h-5.5h-5.5q-18 1 -22.5 2t-5.5 6v1v0l-6 2l-10 29v0z" />
    <glyph glyph-name="U" unicode="U" horiz-adv-x="825" 
d="M517 713h26l17 -5l53 -19l14 -9l29 -34q2 -2 3 -4.5t1 -6.5q0 -5 -1.5 -11.5t-3.5 -15.5q-1 -2 -1.5 -4.5t-0.5 -5.5l-3 -34l-2 -51l-4 -56v-43l-9 -35l-6 -77l2 -13v-14l-4 -19l2 -15l-5 -54l2 -39h-3l6 -76h-2l20 -108q-6 -18 -11.5 -22.5t-8.5 -4.5t-12 2t-18 5
q-6 2 -11.5 4.5t-9.5 4.5q-19 2 -30.5 8.5t-21.5 24.5q-4 7 -8.5 16.5t-9.5 21.5l-16 -28q-1 -1 -2 -3l-2 -4q-3 -5 -6.5 -9t-7.5 -8q-6 -5 -12.5 -10.5t-16.5 -15.5q-10 -7 -18 -11t-15 -7q-9 -4 -18 -6t-22 -4q-2 0 -5 -0.5t-6 -0.5q-1 -2 -4 -3t-8 -1q-3 0 -7 0.5t-9 2.5
l-20 2l-52 14l-22 13l-42 29l-15 14l-13 20l-23 32q-1 1 -1.5 2t-1.5 2q-2 5 -5.5 16.5t-15.5 39.5l-3 18l-6 22l-15 96l-12 87l-5 102l-2 99q0 10 -2.5 15.5t-8.5 8.5q0 1 -0.5 1.5l-1.5 1.5l-3 6t5 4q0 1 0.5 1.5t0.5 1.5q3 15 9 18t23 3h106q5 0 10 -1l10 -2
q15 -4 27 -11t12 -15l-8 -27l-17 -83l4 -80v-26l1 -25l7 -23l5 -44l11 -122h-1l5 -46l11 -40l16 -29q0 -1 0.5 -1.5t0.5 -1.5q10 -20 28.5 -37.5t40.5 -17.5q4 0 8.5 0.5t9.5 2.5q9 2 17.5 6.5t12.5 10.5l24 31l13 25l11 22l26 77l-8 116l5 135l16 195l14 77l3 37l-3 25v0z
M727 683l3 -2l21 -40l-45 -29l13 -8l32 -12q12 -5 22 -16.5t12 -23.5q1 -2 1 -4v-4t-0.5 -3.5t-1.5 -3.5q-1 -4 -4 -7.5t-7 -6.5l-37 -27l-27 -26q8 -6 12.5 -10.5t7.5 -8.5q2 -4 3 -8t1 -8q0 -7 -3 -13.5t-8 -10.5l-27 -23l-24 -27l40 -9q2 -1 5.5 -3t6.5 -4q2 -1 3 -2.5
t2 -2.5q3 -2 5.5 -4.5t4.5 -5.5q4 -4 6 -8t2 -7q0 -4 -1.5 -7.5t-3.5 -8.5q-2 -3 -3.5 -6l-2.5 -5q-2 -4 -4 -7.5t-5 -6.5q-4 -4 -10 -8.5t-15 -9.5q1 1 -1.5 -5.5t-20.5 -28.5q26 -7 39 -17t13 -25q0 -4 -2 -8t-6 -9l-5 -5l-6 -6l-1.5 -1.5l-1.5 -1.5l-4 -4l-4 -4
q-9 -9 -15.5 -17.5t-6.5 -11.5q0 -5 4 -6.5t11 -2.5q3 -1 6.5 -1.5t7.5 -1.5t8 -3t7 -5q12 -7 18 -14.5t6 -15.5v-1.5v-0.5q-1 -7 -7.5 -16.5t-24.5 -31.5q-1 -1 -4 -4.5t-5 -7.5q-2 -2 -3.5 -4.5t-2.5 -5.5q-3 -5 -4 -9.5t-1 -7.5t1 -8.5t2 -13.5l-4 4l-4 4q-7 8 -10 17
t-3 21q0 8 2 15t6 12l21 30l19 24l-56 13q-5 4 -9 9.5t-5 11.5q-1 3 -1.5 6t-0.5 6v0.5v0.5q0 5 5 13t22 31l23 26q-25 3 -34.5 4.5t-12.5 2.5q-1 0 -1.5 0.5t-1.5 0.5v0v0q-5 4 -8.5 10t-4.5 12v2.5v2.5q0 10 20.5 37.5t64.5 61.5q-5 1 -8 2.5t-7 2.5q-5 1 -11 2t-17 1
q-16 2 -24 6t-10 10v3.5v3.5q-1 2 -1 4v4v3.5v3.5q1 9 5.5 17t13.5 12q3 1 5.5 2t4.5 2q3 1 4.5 2.5l3.5 3.5q1 2 2 3t2 3q11 5 15 9.5t4 8.5q0 5 -3.5 10t-13.5 12q-5 6 -8 10.5t-4 8.5q-1 3 -1 6v7h-2v5l39 31q5 5 10 8.5t9 6.5q5 3 9.5 5t9.5 4q6 2 9.5 4.5t3.5 4.5
l-2 3.5t-11 8.5q-3 1 -7 3t-10 3l-37 8q-11 2 -16 7.5t-5 17.5l8 32l42 39v0zM298 569q9 -7 15 -13.5t10 -12.5q2 -4 3 -7.5t1 -7.5v-0.5v-0.5q0 -5 -5 -14t-19 -37l32 -17q9 -5 14.5 -13.5t5.5 -18.5q0 -2 -4.5 -10t-27.5 -40l-14 -13l-2 -16l34 -27q8 -6 13 -14t5 -16
q0 -2 -0.5 -7t-3.5 -11q-9 -4 -13.5 -11t-6.5 -15q-2 -6 -2.5 -12t-1.5 -10q0 -2 -0.5 -3.5t-0.5 -2.5l-5 -11l24 -16l14 -23q1 -3 1.5 -6t0.5 -8q0 -4 -1.5 -9.5t-6.5 -11.5h-2l-17 -37q-1 -3 -2.5 -6.5t-1.5 -8.5t3.5 -13.5t13.5 -19.5q-13 6 -24 18.5t-18 26.5
q-2 6 -4 12.5t-2 11.5v1.5v0.5q0 15 5 24.5t11 17.5q2 3 3.5 5.5t3.5 4.5q2 3 4 6.5t3 6.5q-19 8 -30.5 23t-11.5 32q0 6 2.5 12t5.5 12l28 41q1 2 -2.5 5.5t-9.5 6.5q-1 1 -2.5 2t-3.5 2t-6 3.5t-8 6.5q-5 5 -9 10t-6 11v1.5v1.5v4.5t1 5.5q1 7 3.5 14.5t5.5 13.5l16 32
l3 12l-24 11l-13 14l7 61l19 46v0z" />
    <glyph glyph-name="V" unicode="V" horiz-adv-x="645" 
d="M61 703l4 -22l-25 -14l-5 -7l26 -12l18 -12l5 -16l-5 -20l-14 -24l-5 -11l16 -10l23 -14l9 -22l-1 -14l-11 -25l-15 -20l24 -17l16 -18l7 -10l-7 -19l-16 -24l-10 -20l14 -7l16 -9l15 -19l-4 -24l-17 -30l-14 -23v-13l30 -16l14 -16l4 -16l-5 -19l-15 -27l-7 -9l14 -12
l21 -17l14 -7l5 -24l-15 -17l-4 -18l-8 -14l-8 -12l26 -10l20 -14l9 -18l-1 -21l-12 -39l25 -22l20 -19l7 -16h-10l-26 13l-15 15l-15 9l-11 37l12 43l-19 10l-22 9l-6 33l12 27l18 36l-8 11l-36 14l-14 23l6 16l10 27l17 24l-24 4l-21 8v21l1 28l13 25l16 36l-14 15l-20 19
l-4 26l12 24l16 24l-31 19l-13 19l1 24l4 18l17 19l-8 11l-21 10l-11 23l7 24l17 25l-5 11l-21 5l-14 8l-12 14l3 20l11 14l30 18v0zM229 -16l7 7l12 -4l13 -27l26 -17l20 -26l-7 -4l-13 10l-10 4l-24 21l-13 9l-9 14l-2 13v0zM124 657h20l55 -16l52 -24l12 -12l18 -10
l24 -22l8 -21l11 -21l11 -35l1 -37l5 -27l-4 -41l12 -39l-6 -44l-4 -76l4 -97l13 48l3 24l6 25l14 32l17 48l31 64l22 37l11 20l16 56l12 19l20 56l17 37l4 24l11 28l-4 28l12 6l16 -19l7 -20l24 -32l9 -7l8 -25l-3 -23l6 -28l-3 -20l-17 -44l-12 -32l-22 -37l-22 -45
l-11 -26l-8 -8l-8 -28l-31 -45l-4 -19l-28 -48l-4 -21l-8 -13l-18 -36l-16 -46l-2 -12l-10 -32l-12 -22l-8 -24l-11 -15l-7 -24l-18 13l-23 19l-25 16l-26 15l-17 14l-16 23l4 24l-17 45l-11 35l-3 23l-6 20l1 16l-7 16l-1 30l-1 22l-11 29l-4 37l-3 44l-9 64l-5 28l-11 51
l-5 48l-6 36l-6 21l-7 15l-11 9l15 8v0zM488 672l15 -27l4 -18l-11 -14l-3 -22l-10 -22l-26 -57l-14 -29l-31 -52l-20 -34l-5 6l17 38l5 19l19 23l3 28l17 26l8 35l11 16l1 20l8 25l12 39v0z" />
    <glyph glyph-name="W" unicode="W" horiz-adv-x="1108" 
d="M591 380l5 -17l-13 -36l22 -27l2 -15l-12 -22l-7 -19l24 -15l9 -17l-1 -13l-16 -23l37 -29l6 -12l-7 -14l-8 -21l-13 -17l22 -8l20 -12l2 -18l-10 -9l-2 -8l-6 -12l40 -29l-1 -11l-13 -11l-8 -14l28 -4l33 -10l31 -16l-3 -13l-52 19l-24 2l-23 4l-24 26l4 17l15 21
l-16 11l-16 23l20 28l-23 9l-12 13l-4 12l14 28l12 19l-30 24l-13 20l1 16l15 17l-15 18l-12 17l-1 23l9 13l10 16l-15 3l-5 21l8 25l16 27v0zM966 688l39 -34l27 -7l33 -20l18 -23l22 -29l-9 -23l-24 2l-8 -13l-2 -16l8 -13l3 -22l-18 -19l-20 -10l-10 16l-36 -38l19 -28
l-27 -34l-16 -24l-14 -13l-12 -56l-37 -40l-11 -48l-22 -59l-21 -31l-13 -42l-12 -33l-4 -23l-3 -15l-11 -7l-12 -20l-1 -26l-7 -8l-9 8h-20l-24 13l-25 14l-6 16l11 17l-15 52l-8 17v10l-20 65l-44 164l-19 78l-15 58l-15 -26l-2 -14l-13 -24l-11 -21l-5 -11l-1 -39
l-10 -19l-23 -14l-33 -63l-9 -29l-8 -12l3 -37l-7 -21l-11 -22l-8 -8l-5 -20h-3l-6 -35l-15 -24l-22 -54l-19 -3l-13 11l-26 7l-44 126l-20 60l-1 10l-19 62l-25 65l-12 39l-8 10l-27 118l-7 15l-12 58l-5 39l-12 20l-12 40l-45 38l32 3h70l67 -14l50 -32l-3 -50l-16 -24
v-11l-3 -18l4 -32l16 -51l-2 -28l17 -13l1 -40l7 -37l3 -18l17 -22l33 -18l18 -64l-19 -50l17 -27l16 24l19 56l13 26l12 43l12 39l22 68l27 106l15 45l8 30l3 43l-23 47h20l54 -13l38 -22l31 -23l17 -33l28 -26l27 -64l-16 -48l13 -26l3 -29l21 -27l9 -51l8 -22l10 -42
l-2 -38l11 -42l15 51l14 39l18 46l19 40l8 26l37 81l32 79l24 54v11h1l23 72l-10 48v0zM19 649l16 -1l26 -11l28 -17l22 -25l-18 -24l5 -19l28 -39l-17 -33l2 -20l16 -15l16 -6l8 -32l-15 -12l-4 -10l12 -13l13 -21l-1 -8l-13 -18l-10 -8l2 -8l21 -16l24 -21l8 -11l-9 -16
l-7 -13l-7 -8l19 -15l24 -26l3 -14l-7 -28l4 -13l17 -15l10 -16l2 -32l-5 -12l1 -14l20 -14l20 -8l2 -21l1 -41l-7 -7l-17 4l-17 13l-19 15v19l8 21l-25 24l-14 11l3 13l4 33l9 11l-34 25l-14 15v12l11 35l-31 22l-13 15l-3 16l14 13l1 19l-11 16l-20 13l-12 19l3 12l15 20
l2 17l-14 18l-16 22l21 27l-3 13l-12 11l-21 15l-9 17l13 19l15 18l-4 11l-19 13l-19 15l-8 13l3 20l3 19l-20 17v0zM787 359l18 -18l8 -16v-29l-12 -16h-12l-10 12l-8 29l6 16l10 22v0zM803 449l17 -16l11 -14l9 -34l-11 -17l-5 -8l-13 7l-10 21l-10 31l12 30v0zM837 525
l16 -18l10 -26l2 -20l2 -13l-12 -17l-11 8l-15 20l-10 26l4 21l14 19v0zM861 596l23 -13l21 -32v-11l-20 -9l-1 -24l-12 2l-16 26l-5 29l2 16l8 16v0zM900 674l43 -42l12 -21l-6 -6l2 -12l-10 -10l-20 1l-8 20l-20 9l-10 12l4 31l10 5l3 13v0z" />
    <glyph glyph-name="X" unicode="X" horiz-adv-x="708" 
d="M124 705l32 10l36 -8l16 -2l7 -27l39 -34l-2 -47l19 -35l4 -16l8 -10l6 -24l22 -17l12 -36l27 -38l21 -22l25 -15l37 40l51 52l75 94l29 29l27 28l9 20l7 21l23 -12l11 -4l20 -15l26 -22l-2 -32l-22 5l-22 4l-13 -24l-21 -25l-35 -12l-21 -22l-14 -32l-32 -11l-11 -10
l-11 -4l-8 -12l-43 -36l-17 -42l-8 -10l18 -43l21 -30l13 -24l6 -16l54 -88l31 -45l14 -25l29 -24l87 -136l28 -38l-5 -15l-96 49l-28 8l-54 12l-57 31l-32 50l-57 74l-20 44l-11 20l-5 14l-23 34l-21 -13l-16 -23l-20 -6l-11 -8l-16 -6l-12 -25l-4 -15l-9 -24l-7 -10
l-22 -34l-7 -19l-10 -13l-20 -8l-22 -65l11 -8l-2 -13l-13 -5l-24 2l-48 38l-28 32l19 -5l32 23l22 30l27 35l31 44l32 46l33 37l20 32l17 21l8 11l17 21l-15 32l-15 24l-11 33l-38 50l-53 67l-24 31l-10 23l-30 37l-27 43l-29 21l-43 3l-5 4l46 28l77 33v0zM332 171l8 -11
l-9 -23l6 -22l2 -15l12 -8l9 -23l7 -22l12 -7l-2 -15l-14 -14h-15l-32 9l-16 15l-28 14l12 38l11 32l12 20l25 32v0zM115 369h10l6 -14l64 -14l62 -6l3 -10l-37 -17l-28 -23l6 -12l-10 -13l-18 3l-16 -10l-29 2l-20 20l-8 10l7 11l-2 36l10 37v0zM483 363l24 4l30 12l36 1
l11 8l7 -21l5 -40l-3 -18l2 -26l-26 -28l-18 26h-19l-17 10l-12 20l-2 24l-26 9l-14 4l22 15v0zM339 575l24 4l57 -3l32 -13l3 -10l-10 -18l-9 -19l-8 -16l-17 9l-19 -12l-7 -28l-8 -12l-6 -2l-16 49l-16 71v0z" />
    <glyph glyph-name="Y" unicode="Y" horiz-adv-x="742" 
d="M317 656l-2 -15l18 -38l3 -18l14 -20l4 -13l-8 -37l14 -19l8 -26l13 -30l5 -21l4 -24l-1 -5l13 -38l3 -28l16 -19l11 -11l24 32l22 48l29 40l27 42l21 37l8 21l34 49l13 40v27l4 24l-14 18v3l10 2l43 -16l35 -21l20 -27l-1 -13l-39 -35l-30 -19l-11 -32l-1 -16l-7 -23
l-8 -20l-22 -18l-27 -48l-15 -42l-11 -14l-8 -13l-13 -11l-9 -13l-4 -10l-14 -19l-13 -35l4 -20l9 -12l7 -28l5 -17l-5 -28l2 -34l2 -34l-7 -16l-1 -32l-6 -16v-25l-7 -10l5 -36l-22 -10l-16 -13v-11l-7 -26l-21 7l-11 -33l-17 2l-13 66l3 80l-5 11l-3 56l8 113l-1 12
l-21 48l-2 32l-25 32l-21 44l-37 64l-43 72l-26 55h-1l-26 40l-37 75l-48 25l32 -1l38 14l21 -1l52 13l48 1l27 -7l8 -28v0zM259 -128l14 16l19 27l21 24l30 27l2 -34l-1 -16l-7 -15l-18 -13l-21 -13l-15 -8l-35 -16l-7 5l18 16v0zM239 -28l18 20l28 23l24 17l28 15l4 -22
l-1 -16v-14l-25 -14l-21 -13l-34 -5l-35 -15l-5 9l19 15v0zM201 53l43 34l45 41l27 29l19 -9l1 -29l8 -4l-12 -18l-25 -14l-24 -16l-24 -16l-35 -6l-28 -3l5 11v0zM176 164l41 15l42 21l26 13l23 3l11 -12l2 -11l-3 -13l-25 -13l-26 -10l-34 -5l-29 3l-28 -3v12v0zM137 274
l60 16l38 2l16 7l14 -3l14 -12l11 -8l1 -16l-26 -14l-25 1l-36 7l-29 7l-35 5l-3 8v0zM69 356l46 13l36 12l33 6l29 -4l22 -10l-2 -14l-9 -18l-24 -9l-28 -3l-36 7l-37 5l-27 7l-3 8v0zM592 670l2 -4l3 -7h-2l-8 -19l-16 -61l-17 -25l-20 -40l-22 -37l-6 -11l-21 -39l-3 -11
l-15 -13q0 -1 -1 -3l-2 -4q-1 -3 -2 -6.5t-1 -8.5q-1 -5 -3.5 -8t-6.5 -3q-2 0 -3.5 2t-1.5 4q0 5 3 12t7 15l19 37h2l54 104l7 19l16 40l3 10l5 43q0 1 0.5 1.5t0.5 1.5v0.5v1.5q0 2 -0.5 4.5t-2.5 3.5l-11 9h5v5l-2 -1q0 1 0.5 1h1.5l22 -6l19 -3l-3 -4v0zM53 448h26l28 5
l33 6l29 -4l22 -10l-2 -14l-26 -10l-24 -1h-22l-10 5h-24l-34 6l4 17v0zM722 587l4 -6l2 1v-16l-24 -38l-13 -2l-8 -9l-22 -7l-23 -20l-1 6v1.5v0.5q1 3 4.5 7t11.5 12v3h0.5h0.5v0v0q1 0 3 1.5t12 8.5l8 11v-3l45 49v0zM0 561l11 7l58 -9l30 -9l29 -4l20 -13l3 -21l-16 -12
l-23 3l-25 7l-24 14l-24 12l-26 14l-13 11v0zM-15 703l15 -4l32 -14l40 -21l32 -19l9 -14l4 -15l4 -10l-21 -7l-28 13l-27 12l-23 22l-42 50l5 7v0z" />
    <glyph glyph-name="Z" unicode="Z" horiz-adv-x="794" 
d="M625 604l4 -19l20 -45l-61 -72l-72 -75l-62 -74l-5 -8l-7 -7l-47 -57l-10 -9l-19 -28l-27 -35l-13 -22l-12 -9l-4 -11l39 -5l93 -20l13 -1l74 -17l9 -5l70 -7l35 1l64 6l11 6l99 15l-4 -6l-24 -8l-4 -6l-20 -11l-14 -12l-7 -15l3 -14l-3 -8l-10 -4l-7 -12l-19 -4l11 -10
l-22 -8l-12 -8v-14l-38 -7l-9 4l-16 -5l-35 6l-100 25l-5 3l-89 26h-15l-30 7l-9 -1l-85 -4l-48 -16l-15 -11l-2 -9h-7l-11 4l-9 12l3 9l-7 10l-2 22l-9 9l-5 19l13 1l47 73l18 31l54 68l60 78l38 42l16 12l4 11l17 16l26 33l38 31l17 20l19 18l18 7l-33 4l-45 -5l5 -7
l-43 -13l-63 -6l-49 -8l-34 -3h-36l-24 -2l-9 14l-12 1l-13 9l-17 -7l-1 -11l19 -12l-17 -7l-16 -14l-8 1l-12 -18l-3 11l-7 11l-5 39l1 35l5 51v19l-2 16l7 15l8 -10l5 4l4 -14l120 -2l8 -2l160 2l76 -8l106 -6l23 17v0zM394 437l-1 -9l-8 -6l-22 -8l-19 -4l-29 -16l26 -9
l18 -9l4 -13l-28 -11l-34 -5l-29 -16l-27 -11l14 -8l32 -8l3 -10l-7 -6l-17 -4l-26 -4l-26 -10l-7 -7l30 -7l6 -9l2 -9l-5 -5l-14 -1l-25 -5l-25 -7l-27 -12l21 -11l17 -5l3 -8l-3 -9l-11 -6l-21 -7l-47 -21l20 -9l18 -7l-3 -12l-15 -7l-43 -14l-27 -5l30 -8l27 -2l6 -10
l-5 -6l-23 -6l-30 -13l-12 -4l-31 -19l69 -2l17 3l-3 -11l-22 -5l-27 -1l-33 -4l-22 5l-3 19l8 10l14 8l22 8l20 7l16 10l-30 1l-10 9l-3 18l25 12l35 5l30 6l-5 5l-25 5l-11 13l11 15l20 12l58 17l-16 4l-20 7l-9 13l5 12l43 15l13 7l17 -1l4 5l-33 4l-4 8l7 14l30 11l20 4
l18 9l-27 6l-5 12l3 14l15 10l14 1l16 9l30 14l33 8l-25 10l-10 15v17l18 10l16 3l20 6l46 6v0zM663 575l16 -4l61 -25l8 -6l1 -7l-52 -29l-36 -10l13 -10l20 -9l12 -26l-5 -6l-14 5l-29 -4l-40 -11l15 -11l17 -13l3 -12l-1 -6h-12l-26 -8l-37 -9l-11 -6l9 -6l13 -3l14 -3
l12 -7l5 -12l-8 -6h-18l-15 -6l-37 -10l-30 -16l9 -8l33 -13l2 -9l-7 -11l-11 3l-18 -1l-27 -8l-18 -4l-9 -8l19 -9l12 -1l7 -8v-8l-13 -4l-28 -4l-53 -19v-7l20 -12l5 -8l-1 -8l-9 -7l-31 -2l-29 -8l-20 2l7 13l47 8l4 7l-12 3l-9 14l1 10l8 8l20 7l54 13l-26 6l-9 8l2 10
l21 10l26 10l36 11l-16 7l-10 16l2 10l9 5l37 15l34 10l9 7l-12 6l-24 2l-9 11l6 10l16 8l61 21l-23 18l-8 13l8 11l12 7l27 4l35 10l-17 9h-12l-3 14l8 16l15 10l12 6l38 13l-13 10l-14 1l-19 30v0z" />
    <glyph glyph-name="bracketleft" unicode="[" horiz-adv-x="411" 
d="M152 756h9l134 -27q2 0 5.5 -0.5t6.5 -0.5h2t1 -1q8 0 14 -1t6 -4q0 -2 1.5 -4.5t3.5 -5.5q1 -1 1.5 -2l0.5 -1q3 -4 5 -7l2 -3h-5.5h-4.5h-30t-21 2q-7 1 -14.5 3.5t-17.5 5.5q-4 0 -11.5 1t-15.5 3l-5 -19q0 -2 0.5 -4t0.5 -4q1 -5 1 -10v-13q-1 -1 -1.5 -4t-0.5 -6v-3
t1 -4q0 -2 1 -4.5t2 -4.5l9 -13q2 -5 2.5 -14.5t0.5 -31.5l-3 -31q-1 -2 -1.5 -9t-0.5 -16v-5v-6q0 -6 -0.5 -12.5t-1.5 -11.5l-4 -1l-1 -45h1v-20l-5 -16l0.5 -1t1.5 -2q0 -1 0.5 -2l1.5 -3v-0.5v-1.5v-1v-1q-1 -1 -1.5 -2t-2.5 -2v-22l2 -8v0v0q0 -1 -0.5 -1h-0.5
q0 -1 -0.5 -3t-0.5 -5q0 -6 2 -19t7 -37l2 -5v-45l-7 -31l-4 -31v-34l2 -24q0 -1 -0.5 -1.5t-0.5 -1.5q-1 -4 -1 -11v-32l-1 -16v-12l-5 -10v-24l-3 -14l2 -16h-2v-12l56 6q11 2 19 2h15q8 0 13.5 -0.5t10.5 -2.5q6 -2 12 -5t15 -8l-2 -10h-3l-2 -5l-45 -1l-20 5h-15
l-54 -12v-4l-8 -4q-10 1 -17 2t-13 3t-12.5 5t-16.5 7q-2 10 -3 26t-1 32v10.5v10.5q-1 7 -1 13.5v12.5v12v9v51l-4 42l5 97l6 51l-4 52q0 41 0.5 67t0.5 49q1 18 1.5 37t1.5 45l-4 38l4 46l7 75v27v0z" />
    <glyph glyph-name="backslash" unicode="\" horiz-adv-x="439" 
d="M167 522l18 -31l1 1l45 -73h2l42 -91l-1 -3l4 -4l24 -50l3 -2v-6h2l14 -27l14 -22l6 -13l12 -17l18 -32l35 -52h-3l10 -7l20 -42h3q4 -13 6.5 -19t4.5 -11q1 -1 1.5 -2t0.5 -2q3 -4 4.5 -8.5t1.5 -7.5q0 -1 -0.5 -2t-0.5 -4q0 -2 -0.5 -6t-0.5 -10l-1 -5l-71 111l-30 49
l-66 101l-72 132l-7 9q-1 2 -1.5 4t-1.5 4q-2 3 -3.5 5.5t-4.5 4.5q0 1 -0.5 1.5t-1.5 0.5q-7 11 -12 20t-8 15l-10 12l-1 4l-58 83q-1 4 -4 8t-9 11q-6 9 -10.5 15t-6.5 7l-52 65q-1 1 -4 4.5t-6 8.5q-1 1 -1.5 2.5t-1.5 2.5q-4 3 -8 10.5t-11 17.5h-6l2 3l6 4q4 1 6 2t4 1
q2 1 3.5 1.5t3.5 1.5t4 2.5t5 3.5h1.5t3.5 1h3.5h4.5q5 0 8.5 -1t4.5 -3l5 3l15 -19q2 0 4 -5t5 -11q2 -4 4 -7.5t4 -5.5q3 -3 5.5 -6t3.5 -5q0 -2 0.5 -4t0.5 -4h2q3 -6 5.5 -10.5t4.5 -7.5q0 -1 0.5 -1.5l0.5 -0.5q2 -4 5 -8.5l7 -10.5v-2l8 -8l23 -33l20 -30v0z" />
    <glyph glyph-name="bracketright" unicode="]" horiz-adv-x="411" 
d="M167 717q11 -1 19 -1h13h9.5t5.5 1h10l26 -8l12 -2l16 -13l-3 -9q3 -5 4 -8.5t2 -6.5v-4v-4l8 -7l1 -30l3 -23l-4 -10l4 -4l-3 -30l-7 -8l3 -5q-1 -4 -2 -6.5t-2 -5.5q-1 -1 -2 -2.5t-1 -3.5q-2 -2 -3.5 -5t-4.5 -7l-3 -30l-1 -40l-5 -26q2 -10 2 -16v-11v-4v-4
q-1 -4 -1.5 -8.5t-1.5 -10.5h-4l4 -26l-5 -20l1 -38q3 -11 3.5 -18t0.5 -10v-0.5v-1.5l-1 -1l-3 -3v-23t1 -13q1 -2 1.5 -4.5t1.5 -5.5q0 -15 -1.5 -25t-3.5 -16q-2 -5 -3.5 -8t-1.5 -5l-5 -47q3 -5 3.5 -11.5t0.5 -15.5l-5 3l1 -21h4q-1 -6 -2 -10.5t-1 -9.5q-1 -5 -1 -11
v-15v-52h-6l-4 -10q0 -5 -0.5 -7.5t-1.5 -4.5q-1 -1 -2 -2.5t-3 -2.5l-22 12h-43q-4 1 -7.5 1h-6.5q-25 1 -49 5.5t-41 15.5l5 -1l3 9q7 2 12.5 3t10.5 1q6 1 12.5 1.5t16.5 0.5h14t18 -1l17 -7l22 2v4t-1 1v1l-1 1v42l-6 75v24v7.5t1 6.5v6v5q0 7 -0.5 11.5t-0.5 8.5
q0 3 -0.5 5.5t-0.5 5.5q0 4 -0.5 9t-0.5 12l4 92l11 152l2 53l5 64q0 1 0.5 4.5t1.5 7.5q1 3 1.5 7t0.5 8q0 7 1.5 23t4.5 40l1 31l-50 15l-1 3q-1 0 -2 0.5l-3 1.5v0v0q-6 2 -15 6.5t-34 18.5v4h4l2 5h15l37 -16v0z" />
    <glyph glyph-name="asciicircum" unicode="^" horiz-adv-x="400" 
d="M33 0v667h334v-667h-334v0zM40 7h320v653h-320v-653v0z" />
    <glyph glyph-name="underscore" unicode="_" horiz-adv-x="500" 
d="M0 -133h500v-50h-500v50v0z" />
    <glyph glyph-name="grave" unicode="`" horiz-adv-x="329" 
d="M207 789q2 2 5.5 -3t18.5 -16l17 -9v0v0q1 0 4 -2t11 -13l1 -9l15 -11l-0.5 -1t-0.5 -2v-2v-2q-1 -3 -3 -5t-7 -2q-4 0 -9.5 1.5t-14.5 5.5l-27 24l-37 20l-39 25l-37 18l-17 14l-20 12l-17 23l8 9l15 -1q4 8 11.5 11t15.5 3q3 0 6 -0.5t6 -1.5h2.5h2.5q4 0 11 -3t19 -15
l23 -16l18 -26l12 -11q0 -1 0.5 -3t1.5 -4q1 -3 2 -5.5t3 -2.5v0z" />
    <glyph glyph-name="a" unicode="a" horiz-adv-x="705" 
d="M14 337l11 -15l19 -3h28l12 6l58 -5l28 4l34 1l51 156l4 14l11 16l18 69l11 52l10 32l1 19l8 9l-6 17l11 7l49 -1l35 -4l48 -10l23 -10l30 -28l2 -10l-14 -17l6 -24v-25l8 -35l10 -32l-1 -8l4 -33l3 -43v-40l-5 -9l5 -42l18 -90l6 -40l12 -42l9 -24l-4 -30l4 -43l1 -35
l11 -49l8 -35l13 -29l11 -16l17 -12l-8 -4l-8 5l-1 -8l-17 8l-16 2l-30 9l-6 19l-15 38l-5 31l-18 48l-12 45l-10 47l-24 75l-7 10l-3 26l-21 6l-37 -5l-39 4l-7 -4l-38 4l-10 -5l-21 4l-16 -1l-19 1l-12 -8l-9 -28l-5 -40l-10 -22l-1 -22l-11 -40l-13 -59l-11 -21l-17 -10
l-9 -12l-3 -18l4 -13l-3 -9l-10 14l-14 4l-5 9l-13 4l-6 11l4 25l11 16l-1 13l14 55l16 40l12 36l3 13l8 15l3 21l9 14l-5 10l-15 -5l-49 -3h-22l-28 -2l-14 2l-21 24l-16 59l9 9v0zM359 601l-8 -37l-7 -23l-11 -29l-6 -25l-19 -19l-5 -24l-23 -31l-8 -34l-17 -32l-1 -22
l42 3l66 -8l48 9l16 -2l-14 70l-12 46l-8 14l-12 64l-9 48l-12 32v0zM595 60l28 -74l-1 -37l-31 67l4 44v0zM256 204l-6 -45v-44l-8 -38l-22 -52l-26 -33l10 28l11 41l8 19l5 39l8 46l2 36l6 18l12 -15v0zM554 440l9 -48l5 -44l10 -43l7 -44l3 -49l-5 -20l-13 59l-22 86
l-1 43l-4 56l11 4v0zM109 367l50 -9l24 -3l-18 -6l-40 -2l-34 -7l-24 8l-6 -5h-19l-19 12l46 12h40v0zM290 708l1 -11l-3 -24l-16 -30l-10 -39l-20 -43l-16 -46l-34 -64l-8 -12l11 38l20 59l20 53l12 44l21 42l10 28l12 5v0z" />
    <glyph glyph-name="b" unicode="b" horiz-adv-x="604" 
d="M188 672l53 -8l6 -3l58 -13v-3l3 -1.5t2 -1.5v0v0q1 -1 2.5 -1.5t3.5 -2.5q3 -1 4.5 -3t1.5 -5q0 -4 -1.5 -8t-6.5 -9l53 -5v2l51 -10l47 -27l15 -6l15 -21v-13l2 -13l-16 -32l-3 -11q0 -3 -6.5 -10t-14.5 -14q-1 -1 -2 -2.5t-2 -2.5q-4 -3 -7 -6.5t-5 -6.5l-37 -27
l-18 -11l-17 -15l85 -24l38 -27l32 -30l18 -38q3 -9 4.5 -15.5t1.5 -12.5q0 -22 -10.5 -43.5t-43.5 -44.5l-24 -24l-37 -61l-2.5 -2.5t-4.5 -3.5q-4 -2 -9.5 -4t-12.5 -2q-3 -1 -5.5 -2.5t-5.5 -2.5t-7 -1.5t-11 -0.5v-3l-37 -3l-16 -2l-16 3q0 -15 -0.5 -19.5t-1.5 -7.5
l-0.5 -0.5l-0.5 -0.5l-3 -3t-22 -9q-7 -2 -12 -3.5t-9 -1.5q-3 0 -11.5 1t-18.5 4q-3 1 -6.5 1.5t-6.5 2.5q-5 1 -9 4t-8 7q-3 3 -5.5 7t-5.5 9q0 19 -4.5 24t-22.5 5l-3 3l-42 8l-22 1l-19 10l-18 -5q10 10 22.5 15t28.5 6l74 8l4 17l-4 22l-5 43l-6 264l-8 99l-64 -34
l-11 -9l-20 4l-4 -8l-21 10l-11 19l-10 13l-6 13l12 3l5 -2l19 7l106 30l1 48l-3 24l34 5v0zM295 222h-1l3 -43v-11l5 -32l48 16l64 19l41 31l27 40q3 3 5 8.5t2 11.5q0 8 -3 13.5t-7 7.5l-33 19l-20 7l-32 3q-1 0 -3 0.5t-4 1.5q-1 0 -2 0.5t-2 0.5h-1.5h-1.5
q-2 0 -3.5 0.5t-3.5 1.5q-2 0 -3.5 0.5t-3.5 0.5l-18 4l-38 11h-13q-2 0 -3.5 -1.5t-1.5 -6.5v-18l3 -85v0zM439 256l5 -3l-6 -13l-7 -20q0 -1 -5 -5t-12 -9q-3 -1 -6 -4t-7 -8q-3 -3 -5 -4l-4 -2q-1 -1 -2.5 -1t-3.5 -1h-1.5h-1.5v-2l-12 -10l-29 -12q-4 -3 -11.5 -4
t-19.5 -1l-5 16l13 3l39 18l12 8l47 30l22 24v0zM297 539l-1 -13l-1 -20l-6 -44q-2 -7 -3 -11.5t-2 -9.5v-1v-2q0 -2 0.5 -6t1.5 -10l1 -19l11 5l72 38l48 34l34 30q2 2 3 3.5t2 3.5q2 4 3.5 7.5t1.5 6.5q0 14 -20.5 21.5t-58.5 7.5h-19l-59 -2q-5 0 -7.5 -2t-2.5 -7
q0 -1 0.5 -2.5t0.5 -2.5t0.5 -2.5t0.5 -2.5v0zM534 150q3 -1 5.5 -3.5t2.5 -7.5q0 -1 -0.5 -2.5t-0.5 -2.5q-1 -2 -2 -3.5t-2 -2.5l-21 -32l-21 -19l-21 -15l-14 -8h-5l24 26l51 69l4 1v0zM138 526l5 -4l3 -48l-1 -13l9 -93l-1 -83l1 -8l-1 -47l-3 -8l-5 -54l-8 2v14l-5 14
l-10 55v25v60l7 65v71l5 25l-2 5l4.5 7.5t1.5 4.5q-1 1 -1.5 2t-1.5 2l3 6v0zM351 646l47 -4l54 -10q2 -4 4.5 -7t6.5 -5q1 -1 3 -2l4 -2v2q11 -1 21.5 -11t18.5 -22q6 -9 10 -17.5t4 -12.5q0 -2 -0.5 -3.5t-1.5 -3.5l-3.5 -3.5t-4.5 -3.5l-4 3l-23 40l-59 37l-26 5l-27 9
l-22 3l-3 4l1 4v0zM113 624l-31 -16l-49 -19q0 -1 -0.5 -1.5t-0.5 -1.5q-2 -3 -4.5 -4t-7.5 -1h-7h-9l3 3h-3v2l19 14l82 26l8 -2v0z" />
    <glyph glyph-name="c" unicode="c" horiz-adv-x="603" 
d="M90 163l8 -17l31 -13l3.5 -1t7.5 -2q0 -1 0.5 -1h0.5q4 -1 7.5 -2t4.5 -1t6.5 -3t11.5 -7t11 -7t6 -3l18 -3l34 -10l44 -8l33 -9l37 -10l-4 -5h-20l-13 -12l-27 -1l-29 4l-40 9l-24 8l-24 7l-21 12l-30 16l-23 11l-13 24l-10 22l14 2v0zM471 649l-4 -28l11 -24l14 -24
l7 -28l-11 -19l-6 -13l-9 -6l-14 4l-39 -4l-24 -15h-24l-34 -20l-21 -1v-6l-15 -6l-26 -27l-33 -14l-34 -18l-42 -42l-30 -31l-27 -30l-10 -21l4 -20l33 -12l18 -10l34 -12l42 -11l39 -6l27 -10l57 -9l65 -8l42 5l21 1l39 14l15 -3l33 -38l1 -15l12 -22l-9 -9l-18 -8l-18 9
l-31 -12l-29 8l-25 -9l-45 3l-75 8l-65 5l-64 17l-24 15l-69 24l-21 21l-20 16l-19 24l4 11l-10 14l-4 53l4 32l8 26l2 11l14 15l4 21l17 20l16 15l26 31l49 38l29 18l39 23l46 22q2 1 3.5 2t2.5 2q20 12 36.5 17t19.5 6l19 6l23 11l34 2l39 21v0zM336 451l62 18l33 8l39 10
h18v-13l-14 -9l-40 -8l-32 -7l-49 -14l-24 -6l-11 -10l-30 -12l-18 -14l-16 -4l-18 -6l-2 9l21 12l24 13l21 14l36 19v0z" />
    <glyph glyph-name="d" unicode="d" horiz-adv-x="619" 
d="M178 634q13 -4 16.5 -12t3.5 -32h-1q0 -7 2 -8.5t12 -2.5h2h2q2 0 12 -1.5t50 -12.5l39 -14l58 -26l42 -29l53 -40l42 -45l22 -31l11 -36l-2 -43l-9 -24q-14 -23 -21.5 -35t-14.5 -20q-2 -3 -4.5 -5.5l-5.5 -5.5q-3 -2 -6 -4.5t-7 -5.5q-1 -3 -2.5 -5t-2.5 -4
q-1 -1 -2 -2.5t-3 -2.5q-1 0 -2 -0.5t-2 -1.5q-7 0 -11 -1t-8 -4q-2 -1 -4 -3l-5 -5q-10 -4 -16.5 -7t-11.5 -6q-2 0 -3.5 -1t-3.5 -1q-6 -2 -13 -4.5t-19 -5.5q-3 0 -9 -4t-15 -9q-6 -4 -13.5 -7t-15.5 -5l-21 -11l-37 -13l-53 -6l-18 -8q-3 0 -6 -0.5t-6 -1.5t-5.5 -1.5
l-2.5 -0.5q0 -1 -0.5 -1.5t-0.5 -1.5q-1 0 -1 -0.5v-0.5q-2 -4 -5 -13t-10 -34l-4 -15l-8 -6v-0.5v-0.5q-1 -2 -2 -2h-4q-2 2 -4 5l-4 6l-2 6t-1 5l2 36l-3 4l-44 -4h-3h-3q-9 1 -11.5 2t-2.5 6l-36 -5q0 1 -0.5 2t-0.5 2v2v2q0 5 2 8t4 4q2 2 3.5 2.5t2.5 0.5q1 1 3 2.5
t4 3.5q2 1 3.5 2.5t3.5 2.5l-3 -5l84 31l6 21l2 68h1l-1 17l12 212l6 45l-29 2l-57 13l-40 16q-1 0 -1.5 0.5t-1.5 0.5q-9 4 -14 8.5t-10 12.5l-4 8t-4 9l8 9l62 4l50 7l24 2h1.5h1.5q5 0 9 -0.5t8 -1.5t7 -1.5t5 -0.5h1l6 20l8 37v0zM222 487h-32q-2 0 -3 -0.5t-2 -0.5
q-2 0 -3 -0.5t-2 -2.5q-1 -3 -3 -10t-7 -22l-6 -27v-26l-3 -29v-27l5 -52l6 -55l-4 -18l-1 -23l2 -20l-1 -27l22 10l49 28l55 39l46 35l45 52q15 39 20 52.5t6 21.5v2v2v2.5v2.5q-1 11 -2.5 19t-6.5 11l-50 29l-50 23l-30 7l-50 4v0zM190 473l3 -6l2 2q3 -5 4.5 -9t1.5 -7
v-2v-2v-3v-4q-1 -3 -1 -5.5v-5.5l-3 -3l7 -30l-4 -21l3 -69l-3 -29q0 -4 0.5 -6.5t0.5 -5.5v0v-1q1 -2 1.5 -5t0.5 -8v-1.5v-0.5v-1.5v-1.5l-15 43l-9 109l9 67l2 6v0zM307 92l120 25l-14 -9l-22 -8l-20 -17l-35 -7l-12 -5l-102 -18q-2 0 -3.5 -0.5t-2.5 -1.5
q-8 -1 -19.5 -1.5t-37.5 -0.5v0.5v0.5q1 2 5 5.5t26 8.5l47 12l70 16v0zM470 513l39 -22l30 -33q8 -8 12 -11t6 -5q1 -2 2 -3t2 -3t2 -5.5t2 -8.5l14 -31l-3 -38l3 -26l-3 -11l-22 61l-20 45l-20 29l-37 38l-13 22l6 2v0zM132 604l-14 -4l-54 -7l-20 -6q-2 -1 -6.5 -1.5
t-9.5 -1.5q-8 0 -18 -1t-21 -4q2 7 8 10.5t20 5.5l69 14q3 1 7 1.5t8 0.5q7 0 15 -2t16 -5v0z" />
    <glyph glyph-name="e" unicode="e" horiz-adv-x="621" 
d="M26 579l11 -1l9 6l13 1l42 8l53 7l20 5l41 3l50 3l36 1h22l14 4l18 -5h37l42 -2l52 -8l18 -11l7 -12l4 -7l-21 -4l-21 -1l-11 -1l-9 -8l-20 -2l-2 -5l37 -4l-8 -3h-28h-19l-19 -7l-4 -6l-32 -3h-23l-10 -5l-11 2l-16 -10h-15l-8 -4l10 -6l-15 -1l-15 -3l4 -25l5 -30
l5 -23l4 -65q4 1 8.5 1.5t8.5 1.5l44 5.5t23 3.5q1 0 2.5 0.5t3.5 1.5h0.5h0.5q3 1 5 2t3 1l40 2l2 -4l15 3h0.5h0.5h0.5h0.5h1.5h0.5h2.5h2.5q2 -1 3 -1h3q2 -1 4.5 -1.5t4.5 -0.5l48 -1l29 -18l8 -12v-16l-6 2l1 -10l-18 -6l-4 -12h-23l-31 -12l-43 -3l-39 -6l-31 -3
l-24 -5l-39 -9l-2 -39l2 -42l2 -35v-35l36 6l11 -4l12 6l30 4l40 -2l22 5l6 -1l39 4l34 1l37 1l47 -2l-18 -5l-36 -3h-13l-13 -8h-17l-21 -8l-13 2v-5l-13 -4l-25 -13l28 4l21 -4l-5 -5l-30 -3l-16 -6l-19 1l3 -6l-35 -3l-29 -10l-13 -2l-28 -6h-31l-7 -4l-25 2l-23 2h-14
l-18 9l-23 3l-20 5l-21 8l-17 7l-9 14l1 12l9 -3l6 -5l16 2h26l15 -4l5 6l33 2l-1 34v31l-1 38l-1 26l-5 20l-36 -2l-6 -7l-33 4l-27 4l-11 1l-6 -4l-13 19l-8 24l-13 25l2 12l13 -8l28 6l41 5l32 7l44 7l5 74l3 41v30l-7 11l-13 -3l-28 -6l-23 -4h-10l-23 -5l-17 -4l-12 -5
l-15 -1l-15 4l-8 21l-13 35l-10 16l-2 20l-8 12l2 8l13 -7v0zM176 232l9 -20l12 -58v-18l-5 -8l-5 2l-7 16l-6 26v27l2 33v0zM377 159l27 3l25 -3l36 4l42 4l25 -4l-36 -6l-23 -6v-7l-26 -1l-41 -3h-35l-24 2l-25 -2l-2 7l8 1l25 7l24 4v0zM181 483l8 -12l2 -19l3 -30v-20
l-8 -26l-10 -12l1 27v24l2 27v34l2 7v0zM65 632l56 10l52 10h26l-28 -7l-19 -6l-1 -6l-11 -6l-24 -9l-39 -3l-24 -4l-28 -7l-13 5l14 5l23 13l16 5v0z" />
    <glyph glyph-name="f" unicode="f" horiz-adv-x="597" 
d="M132 716l30 -4l47 -11l22 -10l4 -9l11 -6q5 -2 7.5 -7.5t2.5 -12.5q0 -10 1 -14.5t2 -6.5h27l11 -2l37 -1l75 7l70 -6q18 -1 32.5 -8.5t26.5 -23.5q8 -5 11.5 -8t4.5 -5v-1v-1t-0.5 -2.5t-5.5 -1.5q-3 0 -9.5 1t-17.5 4l-29 2q-8 1 -14 2t-8 2l-3.5 -0.5t-7.5 -0.5h-3.5
t-3.5 -1h-6h-5h-3.5t-2.5 1l-26 4l-19 -6h-13l-16 -10l-42 -3l-38 -12l-12 -11l-2 -37l3 -60l-6 5l-5 -10q0 1 -0.5 1.5t-0.5 1.5t-0.5 3t-1.5 4t-3 4l-5 5l-3 -14l9 -43l2 -29l5 -5l6 33l3 8l8 -2l-1 -9l7 -28l-8 -11l7 -18l39 6h13l123 12l61 4q1 0 7 -2t13 -5
q3 -1 6.5 -3t6.5 -4t5 -3.5t2 -3.5q-1 0 -1 -0.5t-1 -0.5q-1 -1 -1.5 -1h-2.5q-1 0 -2.5 -0.5t-4.5 -0.5l-1.5 -3t-0.5 -3q-2 -3 -4 -5t-5 -4q-1 0 -2.5 -0.5t-3.5 -1.5l-3 -4q-1 0 -1 -0.5v-0.5q0 -1 -0.5 -3t-2.5 -5l-49 -10q-12 -4 -18 -6.5t-8 -3.5l-2.5 -2.5l-2.5 -2.5
q-2 -2 -6 -3t-14 -1l-20 -5l-88 -10l-14 -7l11 -48l-9 -24v-4v-3q0 -6 0.5 -12.5t2.5 -19.5l-21 -14l5 -34h-2v-14q1 -3 2 -5l2 -4q1 -4 1 -8.5v-13.5q1 -2 2 -3.5t1 -3.5t-3.5 -4.5l-10.5 -7.5q10 -18 12.5 -22t4.5 -5v0v0l0.5 -0.5t1.5 -0.5l-3 -16l-5 3q-11 -4 -15 -5
t-6 -1v0h-1h-2.5t-5.5 1q-2 0 -4.5 0.5t-6.5 0.5l-10 9h-19v1.5v0.5q0 2 -2 3t-4 1q0 1 -0.5 1h-0.5q-2 0 -3.5 0.5t-2.5 2.5l-18 72l-8 47l-11 51l-3 27l-8 32l-7 41l-20 -4v2l-63 6l-5 8l2 3h-5l-6 32l-7 11l5 2l11 -9l45 3l35 2l-3 27l-13 108l-3 40q-1 11 -3 13.5
t-10 2.5l-52 5l-21 14l-9 37l-11 7l-4 11l-5 25l35 -8l51 1l20 2l-8 67l-7 8l2 7l27 2v0zM327 255l7 -5l3 -59h-2l-9 -56v-2.5t1 -3.5v-2.5v-2.5q0 -2 -1 -4.5t-5 -4.5l1 56l2 78l3 6v0zM98 519l15 -45l9 -41l-1 -16l1 -4l-8 -40l-6 -6l-13 152h3v0zM79 697q0 8 0.5 9t2.5 1
l1.5 -1.5l1.5 -1.5q3 -3 5 -6t2 -8q0 -6 -3.5 -14.5t-12.5 -20.5l3 42v0z" />
    <glyph glyph-name="g" unicode="g" horiz-adv-x="635" 
d="M462 565v-2l15 -17l31 -49l2 -14l-0.5 -0.5t-1.5 -0.5q-1 -1 -1 -2.5v-5.5h-1.5h-1.5q-4 0 -8.5 -2t-13.5 -11q-4 -3 -14 -6.5t-33 -10.5l-14 -4l-43 -21l-56 -31l-47 -30l-23 -15l-14 -16l-18 -12l-9 -11l-17 -13l-25 -34l-20 -23l-13 -20q-1 -1 -1.5 -2.5t-1.5 -2.5
q-10 -17 -15.5 -32.5t-5.5 -23.5v-3.5t1 -2.5q4 -14 22 -26t41 -15l79 -10h57l78 9l48 12l-10 61l-21 -2l-11 -3h-14.5h-11.5q-10 0 -14 0.5t-7 1.5q-2 1 -4 2.5t-6 2.5l-2 -4l-17 4l-8 17h-6l-11 23l-8 11l-3 26l-6 11l3 9q8 -10 17 -16.5t18 -9.5q4 -1 7.5 -1.5t7.5 -0.5
l33 5l39 3l20 -1l158 11l42 -2q-16 -1 -31 -6t-26 -11l-3 -1.5t-2 -1.5q-23 -2 -24.5 -6.5t1.5 -17.5q1 -1 1 -1.5v-1.5l-3 -62l23 9q3 0 5 -1.5t2 -4.5t-5.5 -8.5t-16.5 -12.5q-3 -2 -4.5 -3.5t-3.5 -2.5q-1 -2 -2 -3t-2 -3q-2 -2 -4 -5t-4 -8q-2 -1 -4 -2.5t-4 -2.5
q-4 -3 -5.5 -7t-2.5 -12q-7 3 -9.5 1.5t-4.5 -5.5q-1 -1 -1.5 -2.5t-1.5 -3.5q-1 -1 -1 -1.5t-1 -1.5l-11 -15l-13 -36l-1 -34l-9 -56l-3 50v2.5t-1 1.5h-0.5h-0.5q-1 1 -1.5 2t-0.5 2l4 7l-6 15v12l-5 17q0 1 0.5 3t0.5 4v2t1 2v3.5v2.5q0 3 -0.5 4.5t-2.5 1.5l-36 -17
l-36 -8l-14 -7h-15l-20 -8h-22l-72 8l-57 15l-8 4l-41 27l-42 42l-9 11l-15 35l-1 20l2 43l11 50l36 51l15 13l30 44l14 13l18 12l30 26l15 9l15 12l15 10l37 20l69 31l48 18l16 10q1 0 1.5 0.5t1.5 0.5q4 2 9.5 3.5t16.5 2.5l10 7v0zM239 139l81 12l-31 -24l-33 -14l-63 4
q-1 0 -2.5 0.5t-3.5 0.5q-11 3 -23.5 10t-33.5 22l109 -11v0zM391 287l63 -6v-4l-86 -1l-42 -5l-11 8l76 8v0zM357 550l-43 -13l-12 -11q-1 -2 -12.5 -10t-47.5 -32l-57 -31l-63 -60l-17 -22l-13 -14l-24 -42l-16 -34l-12 -7v3l27 69l52 76l25 23v5l59 44l36 23l56 28l12 3
q1 0 2.5 0.5t2.5 1.5q5 1 10 2.5t10 1.5q2 1 4.5 1h4.5q5 0 9.5 -1.5t6.5 -3.5v0z" />
    <glyph glyph-name="h" unicode="h" horiz-adv-x="772" 
d="M529 722l13 -5l42 -25q7 -4 12 -7t9 -5q2 -2 4 -3.5t3 -3.5q4 -2 7 -6t8 -9l1.5 -1.5l1.5 -1.5q7 -7 9 -15t2 -25l3 -29l-1 -35l-11 -95l-7 -27l-5 -43l162 -14l-38 -13l-81 -11l-41 -5q-4 -2 -6 -6t-3 -11q0 -3 -0.5 -6.5t-1.5 -7.5q-1 -3 -1.5 -6t-0.5 -5q-1 -5 -2 -9
t-3 -8q0 -2 -1 -4l-2 -4l-2 -11l-6 -23l-11 -37l-3 -40l-7 -16l-3 -27l-6 -26q-2 -3 -2.5 -9.5t-0.5 -15.5v-4v-4v-11q2 -1 2.5 -3t0.5 -4t-0.5 -4t-1.5 -3l-0.5 -0.5l-0.5 -0.5l1 -48l3 -21l-4 -4l-8 6v3l-2 -3q-1 4 -1 7.5v7.5q0 1 -0.5 2t-0.5 2q0 7 -1.5 13.5t-6.5 7.5
l-16 194l-5 28l2 23l-1 81l-85 4l-10 1l-49 2l-7 -2l-40 -1l-27 -4l-3 -88l1 -59l4 -34q0 -2 -0.5 -3.5t-0.5 -3.5q-2 -8 -4.5 -6l-7.5 6l-2 35l-12 -31l-1 -41q0 -1 -0.5 -2.5t-1.5 -2.5v0v-1q-2 -2 -2.5 -4.5t1.5 -2.5l-6 -18l-8 7l-3 -8l-2 -18l-8 -33l-2 -12
q0 -1 -0.5 -3.5t-1.5 -5.5q0 -2 -0.5 -3.5t-0.5 -3.5q-1 -1 -1 -3v-4v-0.5v-1.5v-1.5v-0.5l-7 -1q1 -7 1 -13.5v-11.5q0 -9 -1 -14t-3 -4v0v0l-13 3v22l-9 11v2.5v0.5q0 2 0.5 4t1.5 5q0 4 0.5 9t0.5 14h-2q-2 13 -3.5 20t-1.5 12v3v3l2 6l2 6v0v0q-4 2 -5.5 10t-1.5 43v21
q-1 2 -1.5 3.5t-1.5 3.5q-2 6 -2.5 14.5t-0.5 30.5l1 10l-4 38l1 15l-1 5h-2l-5 60l-27 2q-5 3 -9 5t-8 3q-4 2 -8 2t-10 1h-2.5h-2.5q-43 2 -57 11t-18 37q-1 0 -2 0.5l-1 0.5q-3 1 -3.5 2.5t-0.5 6.5q-3 38 -4.5 46.5t-1.5 10.5t0.5 4t1.5 4l7.5 -7.5t6.5 -5.5q5 -4 10 -6
t13 -4q2 -1 4.5 -1.5t4.5 -0.5q11 -7 16.5 -10t10.5 -3h1.5h0.5l70 -5l5 234l-2 22v16l10 -5v4l45 -28l33 -16l48 -30l4 -45l-4 -153l112 -8l92 -8l3 81l9 83l4 39l-2 8l3 93l-8 22v0zM481 303l7 -18l11 -99l-2 -24l2 -62l-11 -64q-1 16 -3 22.5t-7 11.5q-2 1 -4 2.5t-4 3.5
l3 110l8 117v0zM161 252l19 -88l4 -32v-2v-6q0 -2 -0.5 -3t-1.5 -1q0 -1 -0.5 -1h-1.5l-6 -48l-13 59l2 3h-2l-3 61q-1 11 -1.5 19.5t-0.5 15.5v4t1 4q0 3 1.5 6.5t2.5 8.5v0zM70 319l51 -10l35 -8l-14 -3l-3 -8l-43 10l-36 16l10 3v0zM144 695l1 -7h3l13 -48l3 -56l-1 -94
q0 -13 -2.5 -18.5t-10.5 -7.5l2 12q-1 0 -1.5 0.5t-1.5 0.5q-7 2 -8.5 6t-1.5 20l5 123l-2 64l2 5v0zM500 719l7 -11l8 -31l3 -53l-3 -75q-1 -6 -1.5 -10t-1.5 -7q0 -4 -1.5 -5.5t-3.5 -1.5v-2v-1q-1 -5 -2 -8.5t-3 -5.5q-2 -3 -4 -5t-6 -5l2 21l-0.5 0.5l-0.5 0.5
q-3 2 -4 5t-1 10l8 91h-2l6 93v0z" />
    <glyph glyph-name="i" unicode="i" horiz-adv-x="458" 
d="M66 -65l55 9l48 11l41 2l55 8l28 2l91 -4v-8l-46 -1l-41 -4l-100 -6l-45 -7l-38 -9l-14 -11l-23 -4l-11 22v0zM162 680l18 -7h17l9 -8l18 -4l16 -9l9 -11l15 -5l40 -4l37 -4l28 -11l15 -16l9 -13l17 -15l3 -13v-12l-3 -11l-6 6l-10 -4l-20 8l-60 12l-13 -16l-15 -14
l-4 -12l-8 -8l-2 -69l-4 -41v-23l-4 -43l-2 -40l-4 -38l-4 -19l-9 -17l-1 -50l-8 -14l1 -18l-8 -17l4 -8l-8 -15v-12l-5 -21l6 -13l-5 -23l56 7l32 1l25 4l10 7l25 -19l11 -12l8 -13l1 -15l-47 2l-28 1l-30 -4l-32 -8l-34 -3l-33 -7l-43 -2l-26 -4l-34 -3l-6 -5l-23 5
l-13 13l-11 48l7 15l20 -21l20 3l36 -1l29 2h16l7 29l-8 27l-4 24l-7 41l-4 65l5 51v64l4 37l2 47l4 44l2 49l6 38l4 18l-16 8l-24 -5l-10 -5h-21l-5 -6l-32 -18l-15 -4l-24 9l-16 27l-3 14l-9 10l4 22l-12 31l9 -4l11 -12l16 -3l23 3l21 -1l21 6l43 4l43 2l2 19l-9 18
l-3 12v0zM240 58l12 55l6 35l11 21l19 30l5 -6l-15 -37l-5 -16l-5 -23l-2 -21l-4 -15l-1 -17l5 -9l-14 -9l-12 12v0zM326 545l23 -10l1 -8l-9 -18l-21 -112l-2 -17l-9 -44l-5 -7l-3 28l-1 27l-3 31l5 33l6 57l6 19l12 21v0zM-2 691l60 -19l20 -1l26 1l36 -11l-24 -9l-22 8
l-9 -7l-49 -1l-22 -3l-17 8l1 34v0z" />
    <glyph glyph-name="j" unicode="j" horiz-adv-x="392" 
d="M174 216l-7 140l-34 299l-8 27l47 -3l28 -8q26 -7 41.5 -11t23.5 -7q7 -2 11 -5t7 -7q1 -2 2.5 -3.5t2.5 -3.5l13 -24l-11 -22l-9 -25l-4 -23v-75l10 -120l-1 -51l-3 -30l-2 -94l-6 -2l-6 -40q-1 -2 -2 -3t-1 -2q-3 -4 -4 -8.5t-1 -16.5q-2 2 -4.5 2.5t-5.5 -0.5
q-1 0 -2.5 -1t-2.5 -3l-11 -11l-5 -1l-6 -24l-10 -10q-2 -2 -8 -16.5t-17 -36.5l-12 -27q0 -1 -3 -7t-9 -14l-10 -19l-14 -18l-32 -28l-52 -26l-10 -2h-19q-7 -1 -11 -1.5t-6 -0.5h-2h-2q-4 1 -8.5 4t-15.5 9l-17 7l-33 27q-2 3 -3.5 5t-3.5 6q0 1 -0.5 2l-1.5 3l1 8l4 2
l-1 21q17 -1 25 -4.5t8 -7.5q0 -1 -1.5 -4t-3.5 -6l-0.5 -0.5l-0.5 -0.5q-1 -3 -2.5 -5.5t-1.5 -4.5q0 -1 1.5 -2.5t3.5 -2.5q2 -2 4 -3t5 -2q1 0 2.5 -0.5t2.5 -0.5l47 -11l42 13q7 3 17.5 11t21.5 18q4 3 7.5 6.5l7.5 7.5q1 2 2 3t2 3v0v0q4 7 10.5 17.5t22.5 40.5l7 23
l8 27l6 37l1 43l2 73v0zM134 29h2l-7 -22l-30 -37l-21 -24l-25 -18l-12 -4l-19 -10q-2 0 -4 -0.5t-4 -1.5q-3 -1 -6.5 -1.5t-9.5 -0.5q-2 0 -5.5 1.5t-6.5 3.5q-2 1 -3.5 2t-3.5 2q-4 3 -6.5 5.5t-2.5 3.5l4 5q2 1 2.5 0.5t0.5 -1.5l0.5 -0.5l0.5 -0.5q2 -1 4 -2.5t6 -1.5h5
t7 2l17 3v-4l19 8q20 11 24.5 16t6.5 8v0v0q1 2 2 3.5t3 3.5l36 33l26 29v0zM302 244h2l9 -74l1.5 -1.5l0.5 -0.5v-1.5v-1.5q0 -5 -0.5 -9.5t-1.5 -8.5q-2 -16 -9.5 -31.5t-20.5 -35.5l-5 -1l13 51l5 83l-2 23l7 11l1 -3v0zM88 671l8 -8l20 -56l11 -43l3 -93l2 -6l-4 -56
l-8 -45l-6 -22v64l-16 112l-14 144l4 9v0z" />
    <glyph glyph-name="k" unicode="k" horiz-adv-x="709" 
d="M534 698l16 1l31 -30q5 -5 11 -14.5t14 -25.5q3 -4 4 -8.5t1 -9.5v-0.5v-0.5v0v0q0 -1 -3 -6t-19 -31l-17 -26l-16 -14l-2 -5q-3 -4 -5.5 -7t-4.5 -6l-2 -2t-2 -3q-5 -4 -10 -9.5t-13 -12.5l-29 -27l-16 -8l-6 -8l-24 -21l-2 3q-1 -1 -1.5 -2t-1.5 -1l-2 -2t-2 -1
q-4 -4 -13 -8.5t-30 -15.5l-12 -10l-53 -11l-19 -14l-3 -3l-2 -2q-2 -2 -5 -1.5t-11 2.5l-15 -12l7 -18l62 -26l37 -11l50 -19l102 -37l109 -30l93 -21q3 0 3 -4t-5 -9l-65 5l-21 3l-7 2l-43 -1l-0.5 -0.5l-0.5 -0.5v0v-1q-1 -1 -3 -2t-5 -1t-7.5 1.5t-12.5 4.5
q-1 0 -1.5 0.5l-0.5 0.5q-2 1 -4.5 1.5t-7.5 0.5q-9 1 -29.5 2t-63.5 4l-34 5v-1l-40 12h-1.5h-1.5h-3t-6 -1q-4 0 -9.5 1.5t-12.5 3.5q-1 1 -2 1.5t-2 0.5q-2 0 -3.5 1t-2.5 1q-2 1 -3.5 1.5t-3.5 0.5q-5 2 -10.5 2h-16.5l-35 9h-1.5h-1.5q-2 -1 -3.5 -3t-1.5 -6q0 -2 1 -5
t2 -8l-8 -3q-2 -3 -3 -5.5t-2 -5.5q-2 -4 -2.5 -9t-0.5 -14l-16 -21l0.5 -0.5l0.5 -0.5q1 -1 1.5 -2t-0.5 -3l-0.5 -1t-1.5 -2q-1 -3 -2 -5t-2 -5q-1 -1 -1.5 -3.5t-0.5 -4.5q-1 -4 -2 -10t-3 -16l-5 -51l-3 -5h1q-4 -4 -5.5 -7t-1.5 -5q0 -1 0.5 -2l1.5 -3q1 -1 1.5 -2
t0.5 -3l-1 -13v-38q-4 -12 -5.5 -21.5t-1.5 -16.5q0 -6 1 -12t2 -13v-16v-5v0v0q0 -2 -1 -3.5t-3 -1.5q-1 0 -2 1.5t-3 3.5l-2 4t-2 5t-1 6t1 5l-4 27h-3v12.5t-1 7.5q0 3 -1 6.5t-3 9.5l-4 8l1 10h1l-3 4l-8 82l-6 65l-8 117v3.5v2.5q0 10 -4 14t-12 4l-26 -15l-26 -8
l32 31l-19 12l-32 13q-10 4 -17.5 14.5t-12.5 28.5l-5 26q0 7 0.5 11.5t2.5 8.5q0 1 0.5 2.5t1.5 3.5l-3 17h4q6 -7 10.5 -10.5t8.5 -5.5q1 0 2 -0.5t2 -0.5l83 -26l-5 64l-5 3l-6 90l-2 81l-3 50l13 8l2 5l38 7l38 -10l21 3l35 -19q11 -6 17.5 -17t6.5 -25v-7t-1 -7
q-1 -5 -3 -10.5t-7 -12.5h2l-3 -70l-4 -3l-11 22l-6 -22l8 -23l1 -21l7 5l-7 -27v-38q21 18 30.5 27t16.5 16l0.5 0.5l0.5 0.5q6 6 12.5 13t18.5 18l9 13q5 0 9 4.5t6 11.5l14 14l58 53l13 13l32 40l41 57l3 15v0zM125 224q5 0 7 -3t2 -8l5 -56l2 -31l21 -153l-24 77
l-20 105l4 55v8l3 6v0zM354 190l52 -11l52 -9l9 -5l115 -11l76 -2l-48 -16q-6 -3 -10.5 -5t-9.5 -4t-9.5 -3t-10.5 -1q-7 0 -16 1.5t-21 5.5l-69 22l-99 26l-11 12v0zM86 680l7 -10l13 -46l3 -46l-10 -108h-1l-10 143l-8 51q1 1 1.5 1h0.5q2 0 3 2.5t1 12.5v0zM520 725h2
l-4 -21l-25 -46l-2 -7l-40 -49l-35 -34l-40 -27l-6 -2q0 1 0.5 2t0.5 2q1 2 1.5 3.5t0.5 2.5q1 1 7.5 7l19.5 18l22 23l28 27l28 34l31 44l11 23v0z" />
    <glyph glyph-name="l" unicode="l" horiz-adv-x="582" 
d="M264 597q0 -1 -0.5 -2t-0.5 -2q-2 -4 -3 -8t-1 -6l2 -21l-8 -3q-2 -1 -2 -4t1 -7q0 -2 0.5 -4.5t0.5 -4.5q0 -3 -0.5 -6t-2.5 -6l-12 -33v-47l-8 -61l-11 -17l-3 -24l-5 -7l8 -75l2 -30l1 -32l5 -59l35 1l18 3l26 2l70 13l73 -1l44 -5l20 -4l12 2q1 -6 3.5 -8t5.5 -1
q2 0 3.5 0.5t3.5 1.5t3 2t0 0l13 6q3 -8 5.5 -16t4.5 -16q1 -5 2 -9.5t2 -9.5q1 -3 1.5 -6.5t1.5 -6.5q1 -4 2 -6.5t1 -5.5q1 -3 1 -6.5v-8.5l-5 -5l8 -3l5 -8q-14 0 -19.5 -1.5t-9.5 -3.5q-3 -2 -7 -4t-11 -4l-21 2l-7 -9l-1 -9v-1.5v-1.5q0 -4 -2 -7.5t-4 -4.5
q-2 -3 -4 -5t-2 -3v0v0h-2.5h-2.5t0 -2.5t3 -9.5q0 -2 -6 -3.5t-29 -3.5l-11 2l-34 18l-8 10l-27 16l-59 56l-47 9l-17 7l-36 -7l-1 -53q-1 0 -3 -1l-4 -2q-3 -2 -4.5 -5t-3.5 -9q0 -8 -1.5 -12.5t-6.5 -8.5q-3 -2 -8.5 -5t-13.5 -7l-16 9l-10 -7l-9 -11q0 1 -0.5 0.5
l-0.5 -0.5q-1 -1 -2.5 -2t-3.5 -2q-3 0 -5.5 0.5t-2.5 4.5l-8 44l2 13h-2l-4 57l1 10l-5 77l4 24l-2 80l-18 128l-11 137v34l-3 14l-14 56q-1 13 -2 20t-1 11v2.5t1 0.5l34 5l36 -2h39q5 0 15.5 -2t22.5 -6q6 -2 12 -5t11 -6l22 -18l3.5 -3.5l2.5 -2.5q2 -2 3 -4.5t1 -6.5
q0 -2 -0.5 -4.5t-1.5 -6.5v-21v0zM237 62l24 -9l19 -3l70 -20l-18 -9l-22 -2l-24 -6h-8q-1 0 -1.5 -0.5t-1.5 -0.5l-1.5 -1.5l-0.5 -0.5q-1 -1 -3 -0.5t-6 3.5q-2 -4 -4 -5.5t-4 -1.5q-1 0 -2.5 2t-3.5 5q0 1 -1 3t-2 3q-2 4 -3 8t-1 5q-2 8 -3.5 10.5t-2.5 3.5v16v0z
M24 677v0v0q1 0 1 -0.5v-0.5q2 -1 9 -13.5t33 -83.5q2 -3 3 -7.5t1 -12.5q0 -4 -1 -10.5t-3 -14.5l7 -36q0 -7 -1 -12.5t-2 -11.5q0 -1 -0.5 -2.5t-0.5 -2.5v-0.5v-0.5q-1 -2 -1.5 -4.5t-1.5 -5.5q-1 -7 -2 -20t-4 -40l-13 95h-2l-3 51v1.5v0.5q0 18 -3 42.5t-16 86.5v2v0z
" />
    <glyph glyph-name="m" unicode="m" horiz-adv-x="856" 
d="M200 638l46 -8q1 0 7 -2.5t13 -5.5q4 -2 7.5 -4.5t6.5 -4.5l16 -31l2 -19l4 -14l15 -26l3 -13l18 -43l14 -51l8 -13l6 -22v-3.5v-2.5v-5.5t1 -2.5l1 -1t2 -3l6 -14l14 -45l18 -45l24 45l37 67q3 0 5 2t4 6q1 2 2.5 5.5t2.5 7.5l23 35l14 24l27 34q23 33 29.5 41.5
t9.5 11.5v0v0q3 3 4.5 5.5t2.5 4.5l2 4t1 4q1 2 1 4t1 5v8.5t1 9.5q0 13 2 24t4 11h16l12 6l18 -3l4.5 3t2.5 2t0 3t-4 5l5 1l55 -8q2 1 2.5 1h1.5h1.5h0.5h1.5h1.5l1 -0.5t2 -0.5t3 -0.5t5 -0.5l7 -7t5 -6q1 -2 2.5 -4.5t2.5 -5.5q1 -2 1.5 -4t1.5 -5h-2l-10 -63v-9
l-11 -48l2 -16h-2l-1 -21h1l-3 -15l2 -46l-5 -50q2 -8 3 -14.5t1 -11.5t-0.5 -9t-1.5 -8v-0.5v-1.5q-1 -3 -1.5 -6.5t-0.5 -7.5l1 -21l4 -16l-4 -32l8 -41q1 -16 2 -24.5t2 -15.5q1 -3 1.5 -7t1.5 -9h-2l3 -39h-3q-1 -4 -2 -7t-1 -6v-3.5t1 -3.5t2 -4.5t2 -5.5
q-4 -1 -6 -3.5t-2 -7.5v-3t1 -4q-7 8 -11.5 3.5t-5.5 -15.5h-2l-8 -15l-32 -41q-1 1 -1.5 1t-1.5 1q-3 2 -6 8l-8 16l-11 47l-12 41l-14 92l-5 37l-18 126l-3 106v1.5v1.5q-1 3 -3 5t-6 -2q-1 -2 -1.5 -3.5t-0.5 -2.5l-0.5 -0.5l-0.5 -0.5q-1 -3 -3.5 -6t-9.5 -11l-60 -107
q-1 -3 -2.5 -5.5t-2.5 -4.5q0 -1 -0.5 -2t-1.5 -2q-2 -5 -4.5 -10.5t-4.5 -12.5l-17 -35l-11 -27l-10 -15l-8 -30l-16 -22h-2q0 -1 -0.5 -2l-0.5 -1q-2 -4 -4.5 -5.5t-10.5 -1.5l-6 -21q5 -2 2.5 -4t-16.5 -2q-1 3 -2.5 4.5l-3.5 3.5l-6 2t-8 3l-16 3v27q-2 4 -5 10.5
t-6 13.5q-1 3 -2.5 6t-2.5 6q-4 12 -8 23t-6 16q0 1 -1 2t-1 2q-1 2 -2 5l-2 6l-21 41l-47 90v-16l-8 -59l-1 -29l-10 -56l-8 -18l-5 -41l-1 -20l-5 -1l-5 -24l-6 -10l-2 -17l-11 -44l-21 -16l-3 -14l-13 -16q-3 -2 -5 -5.5t-4 -7.5q-9 -15 -10.5 -26.5t-1.5 -7.5l-14 -19
l-2 -8l-8 -9q-1 -2 -2 -3.5t-2 -2.5q-1 0 -1.5 -0.5t-2.5 -0.5q-7 0 -11.5 7t-4.5 22l2 15l8 64l9 47l13 82l-1 48l1 77l2 61l3 43l5 39l3 47v21l-5 55q6 1 8 2t3 3q1 1 1 2t1 2l35 2q-29 46 -44 64.5t-27 27.5q0 1 -0.5 1.5t-1.5 0.5l9 8l52 8l38 3v0zM574 355l5 2v1
l10 -41l4 -82l12 -69l-2 -16v-4.5v-4.5q0 -7 -1.5 -16t-3.5 -26l2 2v-23l-3 -51l-7 -1l-3 4l-1 -9q-3 5 -5 9t-3 7q-2 6 -3.5 12t-2.5 16q0 3 -0.5 5t-0.5 5l-8 63l3 100l8 117v0zM277 262l5 -3l30 -61q5 -8 7.5 -15t2.5 -13q0 -1 -1 -4.5t-7 -15.5l-2 -11l-16 32l-18 40
l-3 45l2 6v0zM94 514l4 -2q0 -3 -0.5 -5.5t-1.5 -4.5q0 -1 -0.5 -2t-0.5 -2q-1 -1 -1 -2.5v-2.5q0 -4 3 -11.5t10 -23.5l-3 1l-5 -25l6 -7l-2 -12l3 -26l-4 -8l-4 -55l-10 -64l-6 55l6 75l2 112l4 10v0zM779 608l5 -3l-2 -53v-10v-5v-2v-2q-1 -1 -1.5 -2t-2.5 -3l-7 -67
l-8 -48h-5l-6 -13l-3 29l6 23l-3 36l14 82l13 38v0zM104 587l3 -5l-1 -22l5 -23l-1 -1l-2 -2q-2 -2 -6 -2.5t-8 7.5q-1 2 -2.5 4t-2.5 3q-2 2 -3.5 3t-2.5 1l-37 26l-8 2q-1 8 -1.5 12.5t-0.5 6.5q0 3 1 4t3 2h1.5h0.5q1 0 4.5 0.5t7.5 1.5h6.5t5.5 -1q2 0 4 -0.5t4 -1.5
l14 -8l16 -7v0z" />
    <glyph glyph-name="n" unicode="n" horiz-adv-x="749" 
d="M254 260l-6 -19q0 -25 -0.5 -38t-2.5 -24q-1 -4 -2.5 -8.5t-2.5 -9.5h2l-10 -77q0 5 -2 7.5t-5 2.5q-2 -1 -4.5 -4.5t-2.5 -11.5l-18 -42l-6 -38h-10l-1 -5l-8 -2q-1 0 -1.5 -1t-1.5 -2q-3 -5 -7 -10.5t-11 -17.5l-19 -36l-15 -6l2 46l8 54l13 248l-1 29l2 131l-7 120
q0 12 -1.5 20.5t-5.5 16.5q-3 5 -7 10t-10 11l-65 77l9 27q17 13 31.5 19t21.5 6q3 -1 5 -1.5t2 -2.5q0 -1 5.5 -3t12.5 -6q4 -3 8 -7t7 -9l21 -32l26 -33q5 -4 11 -6.5t21 -4.5q7 0 11.5 -0.5t8.5 -2.5q3 -2 6 -4.5t7 -5.5q2 -1 3.5 -2.5t3.5 -2.5q4 -4 5 -9t1 -15l-2 -24
q-3 -3 -4.5 -5t-1.5 -4q-1 -2 1.5 -5t8.5 -8q2 -4 8.5 -14t23.5 -42l20 -31l26 -32l8 -5l48 -60l-2 -2l8 -8l12 -19l54 -74l8 -14l11 -11q10 -18 13.5 -24t4.5 -10v-2v-3l17 -24l-4 112l-5 5l-3 50l1 44h2l-16 197l-2 31q-1 6 -1.5 10.5t-0.5 8.5q-1 9 -2.5 14t-6.5 9
q-2 2 -4.5 3.5t-5.5 3.5l2 2l10 1l6 5l11 -3l40 -6l43 -7q16 0 28 -8t12 -19l2 -19l5 -13q-5 -3 -9 -4.5t-8 -2.5t-6.5 -3t-3.5 -8l-10 -8v-14l-5 -19v-8.5v-15.5q-1 -11 -1 -28v-43l1 -24l5 -123h-2l4 -8v-21l11 -44l3 -42v-32h2l3 -53q0 -3 1 -8.5t2 -12.5q1 -6 1.5 -12
t1.5 -13v-3.5v-3.5l-8 -16l5 -17q-2 4 -5 5t-8 1q0 -6 -1 -11.5t-2 -7.5l-1.5 -1.5l-0.5 -0.5q-2 0 -6.5 4t-10.5 12q0 5 -1.5 9.5t-9.5 4.5h-0.5h-1.5q-1 -1 -1.5 -1h-1.5v-3l-37 22l-8 28l-75 88l-130 169l-41 59l-37 44l3 -87l-5 -73v0zM317 301l11 -6l22 -31l53 -65
q6 -7 10 -12t6 -9q2 -3 3 -6l2 -6t2.5 -6.5t2.5 -8.5h1l24 -50l16 -40l-17 7l-4 6l-22 24l-24 43l-37 67l-45 71l-4 22v0zM10 671l16 -12l43 -59l29 -46l5 -48l2 -77l4 -109l2 -22l-8 -19l-2 -15l-29 -89l8 125l-8 38l2 34l-2 17l2 35v72l-1 32l-12 48l-51 95v0zM637 544
l3 -3l9 -54l-3 -104l2 -42l-8 -45l-2 -3l-13 56l-1 69l1 37l12 89v0z" />
    <glyph glyph-name="o" unicode="o" horiz-adv-x="705" 
d="M320 588l6 -10l8 4l13 -2l12 -15l16 -15l39 -30l6 -10l15 -20l6 -10l-13 -17l-18 -9l-12 1l-30 -1l-18 -3l-26 -20l-12 3l-17 -6l-28 -17l-13 -15l-19 -16l-5 -9l5 -7l-9 -13l-11 -6l-41 -70l-2 -9l-20 -44l1 -44l8 -9l50 -29l29 -6l37 -11h28l31 -5l39 1l38 4l60 25
l69 44l46 51l23 38l10 29l4 34l-12 25l-81 46l-26 2l-20 12l-56 6l20 9h30l3 7l-8 9l-18 7l16 3l10 -2l7 -5l12 -2l14 -3l11 7l25 -8l21 -5l20 -5l25 -14l19 -17l17 -14l11 -13l-1 -21l1 -27l-6 -16l-3 -19l7 -11l-10 -16l-3 -23l-12 -15l-14 -24l-12 -11l-5 -11l-8 -6
l-6 -15l-21 -25l-26 -28l-24 -22l-6 -10l-26 -9l-9 -9l-25 -6l-23 -9l-8 1l-38 -11l-13 -3l-51 -4l-51 9l-46 11l-30 10l-31 4l-20 17l-24 16l-15 21l-29 33l-12 30l-14 45l-2 29l-2 18l1 33l3 19l17 36l8 17l15 22l30 35l30 27l14 9l20 19l32 22l28 21l24 13l21 14l30 19v0
zM191 193l21 -10l27 -5l24 -10l7 3l24 -6l16 -2l51 7l19 2l23 4l21 2l-25 -10l-22 -6l-27 -4l-17 -2l-11 -4l1 -9l-6 -6l-15 -3l-17 4l-25 9l-44 13l-37 23l-10 9l8 3l14 -2v0zM270 595l25 10l6 -2l-39 -27l-32 -15l-13 -7l-36 -31l-11 2l-3 -9h-11l-11 -18l-9 -5l-18 -19
l-6 -11l-12 -10l-7 -11l-25 -27l-6 -19l-12 -7l-6 -17l-4 7l2 9v12l8 14l-2 18l18 23l7 3l-1 9l14 15l13 8v5l13 7l2 9l13 9l3 7l39 25l22 10l21 11l34 14l24 8v0z" />
    <glyph glyph-name="p" unicode="p" horiz-adv-x="682" 
d="M209 250l-1 30l4 28l-3 20l1 33l-7 26l-2 28l1 40l-4 23l3 35l-1 30q0 4 -9 2t-46 -19q-1 -3 -6 -4t-13 -1q-1 0 -4.5 -0.5l-10.5 -1.5q-4 0 -9 -0.5t-11 -0.5l-27 -4l-2 4l-37 -2l-4.5 7.5t-2.5 4.5q0 1 -0.5 1.5l-0.5 0.5q-1 3 -3.5 10t-5.5 18q-1 1 -1.5 2t-0.5 2
q-2 4 -4.5 10t-8.5 16q-1 0 -1.5 1.5t-0.5 2.5q0 2 0.5 3t2.5 1l30 -16l76 8l98 26l-12 84l-4 20q10 1 16.5 2t12.5 1h1h2q6 0 14 -0.5t21 -2.5l24 -7l35 -17l7 -3.5t6 -3.5q9 -6 14 -11.5t9 -13.5q5 -11 9 -17t7 -7l57 -2l13 -3l49 -10l34 -21l40 -20l24 -16l27 -28
q5 -4 9 -8t7 -8l6 -8t4 -8q1 -3 2 -6.5t2 -7.5t1.5 -7.5t0.5 -6.5l-4 -36l-5 -17l-18 -37l-8 -19l-11 -15l-22 -32l-1.5 -1.5l-1.5 -1.5l-2 -2t-2 -1q-3 -2 -5 -3t-3 -1h-0.5t-0.5 1v0v0q-4 -3 -6.5 -5t-4.5 -5q-2 -1 -3 -2.5t-2 -2.5q-2 -3 -3.5 -5.5t-3.5 -6.5l-50 -45
l-30 -9l-9 5l-15 -5l-15 -15l-10 12l-12 -4l-9 16l-15 21l7 32l21 9l8 8l25 15l39 35l12 17l7 8l17 26l23 30l22 53q2 6 3.5 12t1.5 11q0 13 -9 24t-23 16l-27 8l-40 16l-21 4q-10 1 -16.5 1.5t-11.5 0.5q-3 0 -6 -0.5t-6 -0.5q-2 -1 -3 -1t-3 -1l-44 -7q-9 -1 -13 -7
t-4 -23v-14.5t1 -12.5q1 -11 5.5 -25t14.5 -42q3 -13 5.5 -23t2.5 -17l1 -39l-6 -1v-50l-7 -6h-1l-2 -18v-18l-15 -32l-7 -25l1 -20l-2 -13l-1 -23q1 -1 1.5 -3t0.5 -3v-3.5v-3.5q0 -4 -1 -8t-1 -8l-2 -8t-1 -8q0 -2 0.5 -3.5t0.5 -2.5q1 -3 4 -6.5t8 -8.5q2 -2 4 -3.5
t3 -3.5q7 -7 9 -15t3 -24v-2.5v-2.5l8 -48q1 -1 1 -2.5t1 -1.5q0 -3 0.5 -5.5t0.5 -4.5q0 -3 -3 -6.5t-7 -6.5l-4 -4t-5 -3q-7 -6 -12.5 -9.5l-5.5 -3.5l-22 -1q-7 3 -13 4.5t-9 2.5q-19 4 -25.5 9.5t-8.5 21.5l-5 45v14l-17 98l-7 99v0zM182 217q2 -5 3.5 -9t2.5 -8t1.5 -9
t0.5 -13h2l6 -57v1l11 -85l8 -20l2 -16q0 -2 1 -4t2 -3l1.5 -1.5l0.5 -0.5l12 -4l-11 -8l-21 -3l-6 20l-6 42l-2 34l-10 107l2 37v0zM532 543l-9 -46v-15q0 -2 -0.5 -3t-0.5 -2q-1 -1 -1 -2t-1 -2q0 -1 -1 -3t-3 -4q-1 -4 -7 -15.5t-31 -38.5q-13 -16 -22.5 -26.5
t-15.5 -15.5l-25.5 -24t-15.5 -12q-4 -2 -8 -3.5t-10 -2.5q-1 0 -2 -0.5t-2 -0.5h-1l14 11q1 1 2.5 2t2.5 2v0v1q3 2 7 5.5t12 13.5l34 39l44 67l19 24l21 51v0zM38 506l3 -1q4 -5 7.5 -7.5t5.5 -2.5t6.5 0.5t11.5 1.5h1.5h1.5t4.5 0.5t12.5 2.5l37 2l31 3l-5 -8l-27 -15
l-5 -1l-26 -9l-21 -1l-11 -3l-19 2q-8 3 -10.5 6.5t-2.5 9.5l5 20v0zM164 692v-8l8 -18v-36v-5q0 -4 -1.5 -7l-2.5 -5q-2 -2 -3.5 -2t-1.5 3l-7 4l-4 5l-13 82l-3 3h9q1 0 1.5 0.5t1.5 0.5v0v0q1 1 2.5 1t5.5 -2q1 0 1.5 -0.5t1.5 -0.5q3 -2 4.5 -4.5t0.5 -10.5v0z" />
    <glyph glyph-name="q" unicode="q" horiz-adv-x="740" 
d="M512 565l-11 -3l-8 -10l-14 -6l-34 -21l-38 -9l-40 -18l-11 -3l-19 -14l-23 -10l-12 -6t-11 -7q-38 -22 -55.5 -40.5t-17.5 -20.5q0 3 -7.5 -3.5t-16.5 -16.5q-3 -4 -5.5 -8t-5.5 -8l-15 -18q-12 -36 -15.5 -55t-3.5 -35q0 -2 0.5 -4.5t1.5 -6.5l8 -53l30 -56l8 -13
l35 -35l23 -13l77 -12h44l34 11q-4 11 -12 17t-20 10q-10 4 -22.5 8.5t-27.5 12.5l-24 6l-9 2q-9 -3 -12.5 -4t-6.5 -1q-2 0 -4 1t-6 2q-10 6 -16 20t-6 30l19 59l5 11q11 14 17.5 24t11.5 19q1 2 2.5 4t2.5 4l2 4l2 4q3 7 6 12t6 8q4 7 9.5 10t13.5 6q1 0 1.5 0.5t1.5 0.5
l8 7q2 -21 4.5 -30.5t8.5 -14.5l72 -71l55 -44l20 -10l15 -14l11 9l8 10l11 11l34 51l19 37l11 37l2 51l-13 59l-27 43l-32 31l-42 24h5l48 -15l24 -14l35 -30l11 -20q8 -6 13.5 -15t9.5 -21l11 -34l-3 -66l-10 -40l-14 -35l-10 -14q-3 -10 -5 -15.5t-4 -9.5
q-1 -1 -1.5 -2.5t-1.5 -2.5q-1 -2 -2 -3.5t-2 -3.5q-2 -4 -4.5 -9.5t-5.5 -11.5l-2 -4l-2 -4l-6 -10t-5 -7q-5 -6 -7.5 -10t-2.5 -6q0 -4 3.5 -8t10.5 -10l40 -34l85 -62q8 -8 15 -12.5t13 -8.5q1 0 2 -0.5t2 -1.5q7 -4 14.5 -10.5t16.5 -18.5l36 -31l26 -23h-10l-12 8
l-45 24l-13 5l-35 24l-13 5l-10 -2v1v0q-1 1 -6 5.5t-32 12.5l-18 -7l-12 3q-1 1 -1.5 0.5t-1.5 -0.5q-5 -2 -6.5 -3.5t-1.5 -2.5q-1 0 -1.5 1t-3.5 4l-8 6l-21 8v-2l-42 14l-3 -8q0 -1 -2.5 0.5t-6.5 3.5q-3 3 -7 4.5t-8 1.5q-2 0 -5 -0.5t-6 -1.5q-1 0 -3 -0.5t-4 -0.5
q-4 0 -6 -0.5t-3 -2.5l-0.5 -1.5t-1.5 -2.5q-3 -1 -6 -3t-5 -4q-2 -1 -3.5 -2.5t-2.5 -3.5q-3 -2 -5 -5.5t-5 -7.5q-4 -2 -7 -3t-5 -2q-4 -1 -9 -1h-13q-2 -1 -4 -2.5t-4 -2.5q-4 -3 -7.5 -5.5t-3.5 -5.5l-37 -1l-38 1l-50 10q-36 7 -68.5 26t-55.5 48l-32 40l-20 22l-25 48
l-15 37l-14 75l-6 59l-2 48q0 11 1 17.5t4 11.5q1 2 2.5 4t3.5 4l13 37q4 1 7 4t4 10l10 19q-2 -3 0.5 1t6.5 9q3 4 5 7.5t2 2.5l13 9l35 35l22 19l31 26l24 15l22 12l28 12l8 6l35 10l16 9l16 5l6 3t3 2h2t2 1h1.5h1.5l24 8l11 13h13q0 2 0.5 3t2.5 2q1 2 4.5 3.5t9.5 4.5
q3 0 21 -16t39 -48q3 -4 5 -7t4 -7q1 -1 1.5 -2l1.5 -3q2 -2 3 -6t1 -11q0 -4 -1 -10.5t-3 -14.5v0zM676 288l2 -2t1 -2q2 -2 2.5 -4t0.5 -4v-2v-2t-0.5 -1.5t-1.5 -2.5l-11 -37q-2 -4 -6 -14.5t-10 -22.5q-2 -5 -4.5 -10l-4.5 -9l-10 -10l-11 -14l-16 -11l21 46l40 77l8 25
v0zM460 256l-50 40l-24 10l-18 39q0 1 1 3t3 4q1 1 2 2.5t2 2.5l3 1.5t2 0.5h1.5h0.5q3 -1 5 -4t0 -12l4 -7l23 -17l19 -23l26 -40v0zM372 680l-50 -22l-58 -29l-35 -16l-14 -9l-43 -32q-6 -2 -10 -4t-7 -3q-2 -1 -3 -2l-3 -3q-1 -1 -1.5 -2t-1.5 -2l-5 1l32 35l37 32l32 20
l91 43l39 16l22 13l11 -16v-13l-14 5l-19 -12v0z" />
    <glyph glyph-name="r" unicode="r" horiz-adv-x="697" 
d="M222 682l42 -5l13 -3l51 -35l16 -19l58 -8l49 -16l34 -20l57 -40l15 -17q4 -3 7 -6l6 -6l6 -8t5 -9q2 -3 4 -7.5t4 -10.5l6 -19q0 -7 -0.5 -9t-4.5 -4l2 -19l-18 -17l-20 -8l-20 -15l-27 -25l-41 -20l-44 -22l-24 -11l-56 -18l16 -17l29 -15l43 -40l10 -9q4 -5 11 -11
t18 -12l109 -56l11 -9l3 -1.5l7 -3.5q2 -1 3.5 -1.5t3.5 -1.5q4 -1 7.5 -1.5t5.5 -0.5v0h1v0v0l93 -40l57 -19l-48 7q-4 0 -6 -1.5t-3 -10.5l38 -9l-11 -3q-19 0 -24 -2t-5 -8l-4.5 -1.5t-9.5 -2.5q-1 -1 -1.5 -1t-1.5 -1q-4 -1 -6.5 -2t-3.5 -2q-1 -2 -1.5 -3.5t-1.5 -2.5
l-1.5 -1.5t-1.5 -0.5t-5 2t-9 4q-1 0 -2 0.5l-1 0.5q-5 2 -8.5 3.5t-6.5 1.5q-4 0 -6 -2.5t-1 -7.5q13 -16 7 -15t-19 6q-2 1 -3.5 1.5t-3.5 1.5q-4 1 -8 1.5t-8 0.5h-2.5h-3.5l34 -20l-11 -8l-138 88l-56 56l-5 8l-56 57l-14 23l-16 14l-21 53l-27 -32l1 -22l-1 -21
q1 -1 1.5 -4t0.5 -8q0 -4 -1 -8t-4 -9q-5 -8 -7 -14t-3 -11v-1v-2q0 -2 0.5 -4.5t0.5 -5.5t0.5 -6.5t0.5 -8.5v-11.5t-1 -11.5q-1 -9 -2.5 -18t-3.5 -20q-1 -6 -1 -10v-7q-1 -7 -2 -10t-1 -5q0 -1 -0.5 -1t-0.5 -1t-0.5 -2t-0.5 -2l-2 -25l-32 -12q-2 -2 -4 -5.5t-4 -8.5
q-1 -2 -2 -4.5t-2 -5.5q-3 -8 -7.5 -15t-12.5 -11h-6l13 68l1 9l-6 74l11 62v85l-8 101v16l-3 53v56q0 22 -6 39.5t-14 25.5q-4 4 -7.5 5t-6.5 -2q-3 1 -6.5 1h-7.5q-8 0 -15.5 -1t-12.5 -2q-4 0 -6.5 -1l-2.5 -1q-1 0 -2 -1t-1 -2q-2 -2 -3.5 -5.5t-2.5 -7.5h-2
q0 -19 -5.5 -23t-12.5 -1l-4 2t-4 3l-3 1.5t-2 1.5q-9 5 -16 9t-9 8l-10 8l-24 16l-34 44l-17 31l-3 16l39 -9l46 -3l26 -4l67 8l35 2l-4 29q-1 4 -2.5 8t-2.5 8q-1 1 -1.5 3t-1.5 3q-3 9 -6 15t-3 7l2.5 -0.5t6.5 -1.5q2 -1 4.5 -1.5t4.5 -0.5q2 -1 3.5 -1h3.5q3 0 5.5 1
t3.5 3h36v0zM418 543l-45 -2l-8 -17h-2l-13 -5l-1 -15l-8 -30l3 -35v-3q0 -6 -2 -12l-4 -12q-1 -3 -2.5 -4t-2.5 -1l-16 1q-2 0 -3.5 -2t-1.5 -6v-1.5v-1.5t0.5 -2l1.5 -3q3 -10 5.5 -15t2.5 -7l-4 -14l7 -37v-21l1 -2v-1l52 25l12 5l39 21l45 29l17 16l29 43q2 3 3 7.5
t2 9.5q1 3 1 5.5v4.5q0 18 -15.5 35.5t-43.5 31.5v2q-18 8 -27.5 10.5t-15.5 2.5h-3h-3v0zM395 521l38 -8q32 -5 48 -18.5t16 -36.5v-4.5t-1 -5.5q-1 -5 -2.5 -9.5t-4.5 -7.5l-24 -34q-9 -12 -16 -16t-12 -6q-1 -1 -2 -1.5t-2 -0.5q34 56 41 73.5t7 24.5q-2 3 -4.5 5.5
l-4.5 4.5q-6 9 -15.5 14.5t-31.5 5.5h-10l-8 -9l-22 17l10 12v0zM317 226l13 -13l16 -27l78 -88l38 -38l26 -28l83 -68l11 -16v-2.5t1 -2.5t1 -1.5v-1.5v-1.5t-2 -1.5l-78 44l-58 56l-9 15l-39 44l-72 95l-1.5 1.5l-0.5 0.5q-5 7 -6 14t-1 19v0zM144 488l-3 18q7 -3 11.5 -4
t6.5 -2t3.5 -1.5t2.5 -2.5t2.5 -6t3.5 -11q1 -2 1 -3.5v-3.5t0.5 -4t1.5 -5q0 -48 -0.5 -61.5t-2.5 -18.5q0 -2 0.5 -5t1.5 -14q1 -9 2 -25t1 -42v-14v-15l3 -56l-8 27l-14 69l1 59h-1l-13 121v0zM125 673q12 -6 19 -16t7 -21q0 -2 -1.5 -6t-6.5 -11l-18 54v0zM-35 657
l13 -11l49 -5l82 -1v-3l-1.5 -1.5l-1.5 -1.5l-1.5 -1.5t-0.5 -1.5q-2 -3 -5 -5.5t-8 -2.5h-27l-22 4l-40 -3q-17 0 -22 2t-8 11q0 1 -0.5 1.5t-0.5 1.5v1.5v1.5q-1 1 -1.5 2.5t-1.5 3.5q0 1 -1 3t-1 5h-1z" />
    <glyph glyph-name="s" unicode="s" horiz-adv-x="714" 
d="M621 266l1 -10q0 -1 -2 -3t-10 -9l-47 -42l-46 -38l-43 -40l-26 -21l-30 -26l-42 -32q-6 -4 -11.5 -8t-10.5 -9q-8 -6 -14.5 -12.5l-11.5 -11.5q-8 -9 -14 -14.5t-8 -5.5q-1 0 -2 1.5t-1 4.5q-1 2 -2 5.5t-2 6.5v3v2.5t1 2.5q2 9 11 18t30 24l65 46l90 69l40 32l21 14
l51 43l13 10v0zM600 658q0 -1 1 -2.5t2 -0.5h1.5t1.5 1l8 -28l20 -64v-5q0 -19 -7 -31t-19 -12q-2 0 -7 1t-17 8h-42l-81 -25l-39 -15l-9 -1l-45 -15l-10 -5l-52 -22l-21 -6l-29 -12l-16 -8q-9 -4 -15 -6.5t-12 -4.5l-1 -0.5t-2 -1.5q-3 -1 -6.5 -3t-8.5 -4l-25 -21h41
l111 8l32 1v2l99 10l85 -2q3 0 8.5 -2t12.5 -5q2 0 4 -1l4 -2q5 -2 9 -4.5t5 -3.5l17 -20l20 -16q0 -1 2 -3.5t3 -6.5q3 -4 4.5 -8.5t1.5 -9.5q0 -3 -1.5 -8t-3.5 -11h-2q-3 -3 -13 -14t-24 -24q-11 -9 -23.5 -18t-25.5 -14l-4 -4l-4 -4q-1 0 -2 -0.5t-2 -1.5t-3.5 -2.5
t-5.5 -3.5l-40 -19l-72 -47q-4 -2 -7.5 -3.5t-6.5 -3.5q-5 -3 -8 -6t-5 -8q-1 -2 -2.5 -4t-2.5 -5h3q0 -1 -0.5 -2t-1.5 -2q-1 -2 -2.5 -3t-4.5 -2q-1 0 -1.5 -0.5t-1.5 -0.5q-3 -4 -5 -6l-4 -4q-1 -2 -3 -3l-4 -2q-2 -2 -5 -3t-7 -3q-1 -13 -5.5 -19t-18.5 -11
q-2 0 -4.5 -0.5t-4.5 -1.5l-16 -9l-8 -7l-15 -16l-20 5l-13 8l-18 24l-22 95l-7 35l28 -32l0.5 -0.5l1.5 -1.5q1 -2 1.5 -3.5t0.5 -4.5q3 -4 6 -7.5t7 -3.5t8.5 3t14.5 13q5 4 13.5 10t22.5 16l149 96l53 33l47 34l-5 3l-66 -3l-11 -3h-23l-7 -3.5t-6 -2.5q-5 -1 -11 -1.5
t-16 -0.5v-2l-38 -8l-37 -5l-24 -3l-14 -3l-47 -3l-57 -5l-10 1v-1l-49 8q-6 3 -10 5.5t-8 5.5q-7 5 -11 10.5t-7 15.5q-1 2 -1.5 4t-1.5 5l-3 5h2l-4 36l8 28q3 6 12.5 20t23.5 30q10 11 22.5 21.5t26.5 18.5l2 3l11 5l6 6l63 34l73 35l66 24l46 14l128 26l42 3v0zM59 428
l2 -2l-5 -43l-2 -21q0 -4 1.5 -8t2.5 -6l16 -37l30 -23l14 -6l48 -8h15l13 -5l-37 -6q-2 -1 -5 -1.5t-6 -0.5h-4h-4q-28 2 -52.5 14t-34.5 29v2l-11 24l2 45l12 46l5 7v0zM666 514l-2 11l-3 16h-3l2 2v33l-22 56v2v1v1t0.5 2t1.5 2l5 12l17 -21q2 -2 3.5 -5.5t2.5 -10.5
q0 -2 0.5 -4.5t0.5 -5.5v-2v-2v-5.5t1 -4.5l7 -27q1 -2 1.5 -3.5t0.5 -3.5q1 -3 1 -6.5v-7.5q0 -17 -1.5 -24t-6.5 -7q-2 0 -3.5 0.5t-2.5 1.5v0z" />
    <glyph glyph-name="t" unicode="t" horiz-adv-x="641" 
d="M3 633q6 -14 15 -21t19 -9h3.5h2.5l37 5l29 1l27 3l42 2q5 1 8.5 1h7.5h7h8q4 -1 8.5 -1h10.5q8 0 16.5 0.5t19.5 1.5l32 -2v2l15 3l22 -7l20 7l44 -5l59 3h3h4q6 -1 16.5 -1.5t26.5 -3.5l43 -8l24 -6l29 -5l48 -11q4 0 6 -0.5t4 -2.5q1 -1 2.5 -3t3.5 -5h3
q-4 -4 -8 -5.5t-8 -1.5h-1h-2q-1 -1 -3 -1h-4q-4 0 -9.5 1t-13.5 2l-134 -6l-36 -11l-38 -2l-15 -3l-16 1l-29 -24v-1l17 -10l7 -14l1 -32l1.5 -1.5l0.5 -0.5q1 0 1 -1.5v-6.5v-3.5v-4.5q0 -1 -1.5 -6.5t-3.5 -14.5q-1 -3 -1.5 -6t-1.5 -7q-1 -5 -1.5 -10.5t-0.5 -9.5
q0 -3 0.5 -5.5t1.5 -4.5l-2 -34l-9 -20l-9 -5l-1 -17l5 -28q2 -2 4 -4.5t1 -6.5q0 -2 -0.5 -5t-2.5 -6l13 -24l5 -28q0 -1 -0.5 -1.5t-0.5 -1.5q-1 -2 -1 -3.5v-2.5q0 -2 0.5 -4t1.5 -3q0 -2 0.5 -2.5l0.5 -0.5q0 -7 -1 -10t-4 -5l-1 -0.5t-2 -1.5q0 -4 -0.5 -7t-0.5 -5
q0 -7 -0.5 -11.5t-0.5 -8.5v-3v-2q0 -4 0.5 -9t1.5 -12v-31l5 -17l-18 -2l-6 -6l-22 2l-18 -2l21 -8l32 -5q5 0 6.5 -1t1.5 -5t-3 -7t-6 -4q-2 -1 -3.5 -1.5t-2.5 -0.5l-22 6q-1 0 -3 0.5t-6 0.5q-3 0 -8 0.5t-13 0.5l-7 6l-13 5l8 8l15 7l-29 4l-26 8q0 1 1 2t1 3
q1 2 2 6.5t1 10.5v5t-1 7l-5 32l-2 26q1 3 1 5v5q1 1 1 3.5v4.5q0 3 0.5 7t0.5 10l0.5 0.5t0.5 2.5q0 1 0.5 3t0.5 5t-0.5 6.5t-1.5 7.5q1 2 1.5 4t0.5 4t-0.5 4t-0.5 4t-0.5 3.5t-0.5 2.5q-1 4 -2 7t-1 5l-1 53l3 30l1 56l2 16l-1 17l4 15l3 40l-1 15q0 6 -4.5 8t-11.5 2
h-4h-4q-3 -1 -5 -1h-4l-27 -4l-26 -9l5 -8l-34 -4l-18 -7h-16l-44 -11h-12v0h-1q0 1 -0.5 1.5l-1.5 1.5q0 1 -1.5 4t-3.5 9q0 2 -1.5 5t-4.5 6l-4 4l-4 4l-11 27q-4 5 -8.5 13.5t-9.5 23.5q-5 17 -7.5 27.5t-2.5 12.5q0 4 2 10t8 22v0zM238 454l-3 -24v-13l3 -14l-3 -38
l-6 -38h-7l-4 50l2 30v3.5v2.5q0 6 0.5 16.5t1.5 24.5v1v1l-1.5 3t-1.5 2q-1 0 -2.5 0.5t-3.5 1.5q1 6 3 7t6 1l4 8h6q0 2 0.5 3t1.5 2h0.5h0.5q2 0 3.5 -1t1.5 -4l-2 -12v-13v0zM433 647l18 2l17 -4l43 1l13 -5l88 -5l13 -8l16 -3l-9 -10l-47 5l-58 8l-12 2l-41 6
q-27 3 -35.5 4t-10.5 2v0v0l1 1l1 1l1 1l2 2v0z" />
    <glyph glyph-name="u" unicode="u" horiz-adv-x="652" 
d="M459 677q6 -2 10.5 -3t7.5 -2l4 -2l4 -2q3 -1 6.5 -3t8.5 -5q11 -15 16 -23t5 -14l-1 -19l1 -28l-3 -14l2 -13l1 -77v-38h-3l2 -24l6 -189l3 -45l-5 -1l2 -42l5 -16l-3 -25l3 -29l1 -34l-1 -24l6 -32l-1 -14l1 -24l-13 -2l-1 -5l-11 15l-18 6l-5 7l-10 28v23l-8 40l-1 70
v16h2l-1 39q0 7 -1 12t-3 9q0 2 -1 4t-1 4q-1 0 -1 1v2l-10 -29l-10 -39q-1 -4 -2 -7.5t-3 -7.5q-3 -7 -8 -15t-14 -21q0 -1 -0.5 -2t-1.5 -2q-7 -16 -19 -31t-25 -25q-6 -5 -12 -8t-11 -5q-7 -5 -12.5 -7.5t-10.5 -3.5t-9.5 -1h-10.5h-4.5h-4.5h-5.5h-4.5l-59 13l-37 26
l-11 13l-26 41l-8 26l-25 91l-31 138l-11 164l-5 66l-8 18q0 1 9 5t31 9h7l57 3l47 -11q4 -1 10 -3l12 -4q9 -4 17 -10t12 -15l5 -24l-10 -11l-6 -11v-2v-2q-2 -13 -4.5 -23.5t-13.5 -19.5l-3 -16l3 -14h-2v-45l2 -10l3 -70l-1 -16l-7 -19l-5 -32l-1 -53q0 -8 -0.5 -14
t-1.5 -9q0 -2 -0.5 -3l-0.5 -1l4 -43v-8l10 -37l8.5 -14.5t42.5 -33.5q6 -4 11.5 -5.5t9.5 -2.5l21 12q0 1 2.5 5t6.5 9l3.5 3.5l3.5 3.5t3.5 5t2.5 6q0 1 0.5 2.5t1.5 2.5q0 2 0.5 3t1.5 2l40 70l22 69l11 29l26 88l-2 47l-2 153l4 42l3 94v0zM542 175q3 -5 4 -9t1 -8v-3
v-4v-16h1l8 -37l5 -69v-3l5 -59l6 -10l-4 -3l-2 2v-4q-5 1 -9 2.5t-6 3.5q-1 1 -1 1.5v0.5v0v1l0.5 1l1.5 3l-5 39l-3 107l-2 64v0zM115 116l8 -4l21 -38l30 -54l24 -20h-13q-1 0 -6 3.5t-13 9.5q-5 4 -9.5 8.5t-8.5 9.5q-2 2 -3.5 4.5t-2.5 4.5l-18 42l-9 34v0zM272 508
q5 -6 7 -11t2 -7q0 -1 -3 -13t-13 -54l-1 -16l1 -42q-1 -2 -1.5 -3.5t-1.5 -3.5q0 -1 -0.5 -1.5l-1.5 -1.5q0 -1 -1 -1.5t-2 -1.5l-3 2v59v0h-1l-0.5 0.5l-1.5 1.5t-2 5t-1 12v7.5t1 10.5l8 6l15 44v8v0zM536 621h13q10 -9 12 -12.5t1 -6.5v-0.5v-1.5q-1 -1 -1 -2v-2l-2 -19
v-20l-3 -35l-1 -74l-8 -27l-5 79l-8 68l2 53v0zM43 616l19 -35v-9t1 -7v-6v-5v-4t-1 -4q2 -32 2.5 -46.5t0.5 -20.5v-3.5v-2.5q-1 0 -1 -0.5v-1.5v-0.5v-1.5q-3 -1 -2.5 -3.5t0.5 -5.5q1 -2 1.5 -5t-0.5 -7l-11 -13q-2 2 -2.5 5t-0.5 7v2v2q0 2 0.5 4t0.5 4q0 3 0.5 5.5
t0.5 3.5l-13 118l-8 24l13 6v0z" />
    <glyph glyph-name="v" unicode="v" horiz-adv-x="578" 
d="M500 665l14 -6l2 4q3 -1 6 -2.5l5 -2.5q10 -5 16 -11t6 -15q0 -3 -0.5 -6t-2.5 -6l-3 -17l2 -2l-7 -46l-19 -39h-3l-21 -42l-22 -48l-21 -49l-3 -4v-4t-1 -4q-1 -3 -4 -6.5t-8 -10.5l-10 -22q-4 -5 -7 -9t-5 -7q-3 -4 -4 -7.5t-2 -9.5q-1 -2 -1.5 -4t-0.5 -4q0 -4 -3 -7
l-6 -6t-6 -5t-3 -3v-5q-3 -10 -5.5 -18t-5.5 -16q-8 -20 -15 -33t-7 -23v-1.5t1 -1.5v-1.5v-1.5l-6 -4l-18 -49l6 -27l2 -18q-5 -2 -6.5 -5.5t-1.5 -7.5q0 -2 0.5 -3.5t1.5 -3.5l1 -17q-4 -2 -7.5 -4t-5.5 -3q-2 -2 -3.5 -4.5t-2.5 -5.5q-1 -1 -1 -2t-1 -3h-2t-2 -1
q-1 0 -1.5 -1t-2.5 -3l-9 -2l-3 -4l-20 -4l-33 27l-19 8l-2 19l-24 57l-19 66l-28 78l-21 49l-20 85l-20 52l-19 63l-42 122q0 3 -1 5.5t-3 4.5q-3 4 -7 8t-9 8l16 -1v1l35 -4l65 -14l42 -28l22 -19l18 -26l18 -52l38 -143h-2l21 -63l-2 -34l12 -46l28 -53q8 24 12 35t6 20
q0 1 0.5 2.5t0.5 2.5q1 3 1.5 6t1.5 6l14 52l24 80l20 59h1l91 215l7 24l5 -4l-2 6v0zM446 297l1 -7h2l-23 -56l-16 -70l-1 -14l-18 -76q0 -7 -2.5 -12.5t-6.5 -10.5q-1 -2 -3 -4.5t-4 -4.5q-2 -4 -4.5 -7.5t-4.5 -8.5l-5 17l5 22l-5 9l14 67l18 64l21 40l16 31l16 21v0z
M207 583q19 -4 30.5 -16t13.5 -30l13 -62l16 -48l8 -43l-8 -5l-29 82l-25 66l-18 48l-1 8v0zM440 559l-20 -49l-10 -25l-9 -10l19 80l40 118l3 -2l3 7v-2l5 2q2 0 4.5 -1.5t5.5 -5.5q1 -1 2.5 -3t2.5 -5l0.5 -0.5t0.5 -1.5l0.5 -0.5t0.5 -1.5q1 -1 1 -1.5v-1.5v-0.5v-0.5
q-1 -2 -4 -4.5t-11 -7.5q-3 -3 -8 -14t-13 -34l-13 -36v0zM-27 650q10 -4 17.5 -11.5t12.5 -15.5q7 -10 11 -18.5t4 -10.5l14 -41l7 -43l-2 -8l-61 131l-1 12h3l-5 5v0z" />
    <glyph glyph-name="w" unicode="w" horiz-adv-x="910" 
d="M27 683l59 -13l20 3l44 -6l52 -12q24 -7 35 -17.5t11 -25.5l-3 -21l1 -17v-11l23 -38l8 -37l5 -13l4 -22l8 -19l2 -23v-34l-5 -39l8 -68l13 -39l3 -32l5 -9l3 6l23 66l40 84l32 60l25 58l7 11l-2 20l-8 41q-1 4 -2.5 7t-2.5 6q-4 5 -6.5 7t-0.5 3h0.5h0.5q12 5 21.5 7
t16.5 2q10 0 17 -3t13 -7q1 -1 3 -2l4 -2l4 -2l4 -2q1 0 2.5 -0.5t2.5 -1.5q4 -1 5 -3t-7 -10q-4 -5 -6.5 -14t-2.5 -29q-3 -7 -4.5 -11.5t-2.5 -8.5v-2v-2q0 -4 1.5 -11t3.5 -21q6 -13 10 -19t8 -10l12 -11q8 -5 12.5 -18t5.5 -32l2 -36l19 -86l25 -61q4 -12 5.5 -21.5
t2.5 -17.5v-2v-2q1 -12 3 -25t9 -33l22 90l6 21l49 149l17 69l8 26l7 9l19 84l5 10l6 76l-5 14l13 36v28q22 -5 31.5 -8t14.5 -5l2 -2t3 -2v0v0q14 -7 22 -9t14 -3q2 -1 4.5 -2t4.5 -3q2 -1 4.5 -4.5t5.5 -9.5l9 -15l8 -8v-25l-17 -18q0 -4 -2 -10t-5 -12q-5 -8 -10.5 -15.5
t-11.5 -9.5q-1 0 -2.5 -0.5t-2.5 -0.5q-4 -5 -6.5 -9t-3.5 -7q-2 -3 -3 -6t-2 -7q0 -2 -0.5 -4t-1.5 -5h-2v-2t-1 -2q0 -6 -1.5 -9t-4.5 -5q-1 -1 -2.5 -2t-3.5 -2l-5 -4q0 -1 -2.5 -5t-7.5 -8q-3 -4 -8 -7t-12 -5q0 -4 -1.5 -9.5t-4.5 -10.5q-1 -3 -2.5 -6t-3.5 -6
q-4 -8 -8 -14t-4 -9q-1 -1 -1.5 -7.5t-0.5 -20.5q0 -11 -3.5 -20t-6.5 -16q-4 -8 -7.5 -13.5t-3.5 -8.5q1 -3 1 -6.5v-7.5q0 -13 -3 -28t-9 -31l-5 -30l-13 -53l-8 -16l-14 -51l-21 -40l-13 -42l-6 -6l-8 7l-10 -2l-20 12q-7 4 -11.5 15t-4.5 24v5.5t1 5.5q0 3 1 5.5t2 5.5
l-11 51l-43 121l-19 57l-3 7l-15 55l-16 63l-13 27q-4 -7 -7 -12t-5 -10q-1 -2 -2 -4.5t-2 -4.5l-2 -6t-2 -7v-1.5t-1 -0.5q-1 -5 -5 -14.5t-18 -38.5l-8 -13l-28 -56l-3 -13l-21 -43l-6 -20l-11 -18q-15 -35 -20 -47.5t-4 -10.5q-2 -9 -2.5 -14.5t-0.5 -10.5v-3v-3l9 -27
l-1 -20l4 -17l-11 -3l-3 -8l-14 -3l-7 -12l-40 20l-6 7l-15 34l-6 12l-10 41l-22 67v5l-26 92l-12 64l-26 86l-18 73l-28 71l-26 78q-1 2 -6 6.5t-11 9.5q-1 0 -1.5 1t-1.5 1q-6 4 -10.5 7.5t-7.5 5.5l7.5 4.5t2.5 3.5q1 1 0.5 2l-1.5 3v0zM571 338h5l16 -28l18 -116l-5 2
l-18 38l-13 66l-3 38v0zM382 376l-19 -36h-3l30 88l16 31l8 11l7 -14l-10 -22q0 -5 -7.5 -19.5t-21.5 -38.5v0zM727 615q4 -6 6.5 -11l4.5 -9q1 -4 1.5 -9t0.5 -11v-10l-7 -43l3 -3l-17 -40l-3 -7l-21 -79l-3 -2l-2 25l11 60l15 43l9 64l2 30v2v0zM-11 660q5 -4 8.5 -5
t7.5 -1q8 0 14.5 -1t6.5 -3v-16l20 -38l8 -29l16 -67l13 -58l13 -36v-5h-3l-39 81l-8 29l-33 98h-2l-27 48l6 1l-1 2v0z" />
    <glyph glyph-name="x" unicode="x" horiz-adv-x="650" 
d="M182 583l47 -34l31 -25l46 -61q10 -4 13 -9.5t5 -12.5q1 -9 6.5 -21t27.5 -27l32 56l34 41l18 31l52 84q11 17 14.5 24t3.5 11q0 2 2 6.5t12 10.5l20 -19l22 -15l13 -15q18 -19 24 -26.5t6 -13.5v-0.5v-0.5q0 -9 -8.5 -15t-19.5 -6q-2 0 -4 0.5t-3 1.5q-2 4 -4 6l-3 3
q-2 1 -4.5 0.5t-5.5 -2.5l-15 -16l-13 -5l-33 -48q-3 -4 -5 -7l-4 -6v0v0q-5 -7 -13 -19.5t-33 -48.5l-38 -40l-20 -17l2 -18l7 -12l6 -16l12 -19l15 -27l12 -12l35 -28l39 -35q5 -3 6.5 -9t1.5 -14v-4.5t-1 -4.5q0 -7 -2 -13.5t-5 -11.5q-13 0 -15.5 -3t0.5 -7l21 -32
l17 -20l5 -13q5 -21 8.5 -37l3.5 -16l3 -8q-3 -12 -4.5 -20t-2.5 -14v-7v-8q-8 3 -14 8.5t-11 11.5q-6 8 -10 15l-4 7l-24 31l-27 25l-16 18l-65 81l-13 15l-60 87l-30 -19l-34 -45l-42 -47l-20 -40l-4.5 -3t-2.5 -2q-2 -1 -5 -1.5t-10 -1.5h-4h-4l-20 -14l-24 -38l-22 -30
l-23 -24v5l-10 4q-1 1 -1 2v3t1 5t2 7l3 9q0 1 1 2l2 2l12 8l37 45l16 30l48 73l34 48l3 2l33 35l31 37l-26 35l-14 19l-58 76l-30 36l-46 50l-23 17l-72 53l-42 15l58 41q5 2 5.5 3.5t0.5 3.5l-0.5 0.5l-0.5 0.5q0 1 -0.5 1.5t-0.5 1.5l18 3l26 13l22 5q7 0 11 1t7 3
q2 0 3 0.5t2 1.5q2 0 3.5 0.5t3.5 0.5h0.5h1.5q1 -1 1.5 -1h0.5l19 -2q13 0 21 -6t8 -15l-6 -41l17 -23v0zM212 102h5q-2 -3 -3.5 -5t-2.5 -4q-1 -1 -1.5 -2t-1.5 -2l-3.5 -3.5l-3.5 -3.5q-16 -16 -20.5 -21.5t-5.5 -7.5v-1v0l-8 -17l-13 -29l-24 -34l2 -7q0 -4 -6.5 -7.5
t-15.5 -3.5q-6 0 -8 1.5t-2 6.5l4 3l34 60l28 33l46 44v0zM418 340l24 -30l3 -10l24 -32l15 -14l24 -28q-4 2 -7 2.5t-5 0.5t-3 -0.5t-2 -0.5t-1.5 -0.5t-1.5 -0.5q-3 -1 -6.5 2t-12.5 14l-37 38l-27 42q-7 16 -5.5 19t5.5 3h0.5h0.5h0.5h0.5h2l9 -5v0zM100 457h2l28 -25
l32 -28l9 -8l21 -29h-2v-2q1 -2 2 -3.5t2 -2.5q1 -2 1.5 -4t0.5 -5v-2v-2t-0.5 -2t-1.5 -2q1 -1 1.5 -2.5t1.5 -2.5q1 -3 2 -5.5t2 -4.5q0 -1 0.5 -2l0.5 -1v-2v-2q0 -2 -1 -4t-4 -2v1l-11 20l-27 32l-10 8l-8 10l-7 9l-17 28l-17 32v3v0zM234 618l66 -78q5 -7 7.5 -12.5
t3.5 -10.5q1 -2 1 -4v-4v-9l-41 43h-2l-27 21v-1l-40 39l-18 20l8 23l7 7q4 6 5 8t2 2v0v0q2 0 4 -1t2 -3v-1q-1 -4 -1.5 -6.5t-0.5 -4.5v-0.5v-1.5q1 -3 6 -8l18 -18v0z" />
    <glyph glyph-name="y" unicode="y" horiz-adv-x="632" 
d="M280 157l9 27q-10 11 -18 22.5t-15 24.5q-12 22 -26.5 48t-41.5 57l-24 34l-16 40l-51 81l-11 15l-5 16l-18 24l-22 43l-26 35l9 14l16 16l22 5q9 2 17 4t14 5q15 5 26.5 9.5t21.5 7.5l12 2t13 1l54 -3l14 -21v-24l15 -34q-2 -3 -3.5 -5t-3.5 -5q-4 -5 -6.5 -11.5
t-2.5 -16.5l8 -8v-13l17 -8l8 -13l-8 -19l4 -13l-7 -8q-2 -6 -2 -8.5t1 -4.5q0 -1 1 -2.5t1 -3.5q2 -3 3 -9t1 -18q10 -14 13 -20t4 -10q0 -1 0.5 -1.5t0.5 -1.5v-4t1 -5q1 0 2.5 -1t2.5 -2q6 -3 10 -10.5t4 -24.5q0 -1 1.5 -3.5t2.5 -5.5q2 -4 3 -8t1 -9t1 -11t3 -12
q4 -9 11 -17.5t19 -15.5l22 42v3l20 27l22 74q1 4 3.5 9.5t6.5 10.5q0 2 1 3t2 3q5 8 9 14l4 6l34 93l11 31l24 54v14l16 -1l51 -19l18 -8l2 -8l4 -5v-19q-3 -3 -5 -6t-3 -5q-2 -3 -2.5 -6t-0.5 -6l-3 -5l-11 -4l-11 1q-5 -6 -9.5 -12.5t-8.5 -13.5q-4 -5 -8 -11t-7 -12
q-9 -13 -18 -23.5t-21 -14.5q-1 -3 -4 -8.5t-7 -11.5q-1 -2 -3 -4.5t-3 -5.5q-4 -5 -7 -8t-6 -3l-3 2q-2 -7 -3.5 -13.5t-2.5 -12.5q-6 -22 -13.5 -38.5t-27.5 -28.5q-1 -6 -2.5 -10.5t-2.5 -9.5q-2 -7 -5 -14.5t-7 -18.5q-7 -8 -10.5 -23t-4.5 -36l-16 -30l-8 -10l-12 -5
l7 -33l-16 -30l-10 -27l2 -15q0 2 -1 -5t-2 -16q-1 -6 -2.5 -11t-2.5 -8l-8 -3l-5 -25q-2 -7 -3 -13t-1 -10q0 -14 5.5 -23t12.5 -8q4 0 7.5 2t6.5 7l26 -7l27 -11q2 -6 3.5 -11.5t1.5 -9.5v-2t-1 -2q-1 -3 -4.5 -7t-12.5 -10l-34 -3q-22 3 -28.5 4t-10.5 2q-1 1 -3 1h-6
q-10 3 -19 6l-18 6q-26 9 -43.5 19t-17.5 25q0 4 1 8t4 9l19 27q5 5 8 7.5t4 5.5q2 2 2.5 4t1.5 5v0.5v1.5q2 2 11.5 23t21.5 46q3 5 5 9t4 9q4 7 7.5 13t6.5 12v0zM401 184l-2 -22l-14 -47q-8 -21 -11.5 -41t-6.5 -35q-2 -10 -4.5 -17t-5.5 -10q-2 -2 -4.5 -3.5t-4.5 -1.5
q-4 0 -6.5 3.5t-4.5 10.5l13 80l19 49q6 19 10.5 25.5t8.5 7.5q1 1 2 1h2h4.5h4.5v0zM493 444l5 -10v-11t-2 -8q-1 -3 -3 -6t-5 -8q-1 -2 -2.5 -4t-2.5 -4q-4 -7 -6.5 -13t-4.5 -11l-16 -51l-9 -34q-2 -5 -5.5 -8.5t-6.5 -4.5q-1 -1 -2 -1h-2q-4 0 -6 2t-2 6l9 43l37 86
l7 15l17 22v0zM42 539l31 -46l6 -23l35 -107l-4 -3l-92 165q-14 19 -21 34.5t-7 26.5q0 6 2 10.5t7 7.5q2 -6 5.5 -10t7.5 -8q4 -5 8 -9.5t9 -11.5q3 -5 6.5 -11.5t6.5 -14.5v0z" />
    <glyph glyph-name="z" unicode="z" horiz-adv-x="683" 
d="M72 694q0 -1 0.5 -2.5t1.5 -2.5q3 -4 18 -9t54 -15l86 -21l54 -8l103 -7l45 5l14 -12l20 16l26 -5q5 -1 9 -1.5t7 -0.5q7 0 11.5 2.5t8.5 6.5q1 2 2.5 4t3.5 4l29 30l23 -30l10 -56v-2.5v-2.5v-14.5v-16.5q-1 -14 -3.5 -27t-7.5 -17q-2 -2 -3.5 -2.5t-3.5 -0.5h-1.5
t-1.5 -1q-4 0 -8.5 -2.5t-7.5 -15.5q-13 -9 -21 -15t-10 -8l-17 -20l-29 -28l-25 -30l-26 -20l-16 -17q-3 0 -10.5 -5.5t-15.5 -12.5q-1 -2 -3 -3.5t-3 -3.5q-10 -9 -16.5 -17t-4.5 -8l-58 -44q-4 3 -18 -6t-30 -24q-7 -6 -13.5 -13.5t-12.5 -14.5l-22 -20l-41 -50h-5
l-10.5 -10.5l-8.5 -8.5q-3 -2 -5 -4.5t-4 -5.5q-5 -7 -10.5 -17.5t-13.5 -29.5l9 2l107 4l58 4l46 -1l75 21l46 10l12 5l23 5l77 24l63 32l-3 -30l8 -7l-16 -9l-8 -8l-15 -19l2 -15l-3 -18q5 -13 6.5 -21t1.5 -13q0 -7 -3 -9t-7 -3q-1 0 -2 -0.5t-2 -0.5l-16 -8l-7 1l-2 -2
t-1 -2q-3 -3 -6 -3.5t-8 -0.5h-0.5h-0.5q-4 1 -8 1h-14v-2l-42 -6l-27 1v3l-30 2h-1l-50 -15l-74 4l-18 -1l-61 7v3l-9 -4l-49 2l-19 -11l-57 -14l-12 -11v5q-8 -1 -13 -2t-8 -1q-2 0 -3 0.5t-2 0.5q-2 1 -3.5 2.5t-4.5 3.5l-33 47l8 19l1 15q3 2 6 5.5t7 7.5q0 1 0.5 1.5
l0.5 0.5q4 5 8 9.5t7 6.5l37 66l11 17l29 39l41 58l71 83l26 34l17 17l101 116l26 33l-38 5l-4 -2t-4 -1q-2 -1 -4.5 -1.5t-5.5 -1.5t-8 -2t-11 -2l-15 3q-3 -1 -9 -5t-17 -8q-11 -5 -28.5 -9.5t-40.5 -4.5h-3.5h-3.5q-6 -1 -10.5 -2t-9.5 -1h-2.5h-2.5q-3 1 -5.5 1.5
t-5.5 0.5q-5 1 -11 1.5t-15 0.5q-4 0 -5.5 -1t-1.5 -5q-9 -3 -13 -5t-8 -2q-3 0 -6 1t-8 4q-9 5 -17.5 12.5t-13.5 16.5q-3 4 -5 8.5t-2 8.5l-7 39l2 48l-6 35l6 18l6 9v0zM589 -18l-39 -13h-51l-7 5l58 13q0 1 1 1.5t2 0.5t2 0.5l1 0.5q6 0 13.5 -2t19.5 -5v-1zM513 160
l-23 -7l-50 -13h-4l-50 -14l-8 -1l-84 -16l-58 -12q-6 -1 -11.5 -2t-9.5 -1q-1 0 -4 1l-6 2q0 5 0.5 5.5t4.5 0.5h5q14 6 23.5 8.5t18.5 3.5q3 0 6 0.5t7 0.5q1 1 2.5 1h2.5q3 0 5.5 0.5t4.5 0.5q4 1 7.5 1.5t4.5 0.5l31 12l45 16l24 7l46 16l28 7l85 24l38 16l13 4l-3 -10
l-5 -12l-38 -23l-48 -17v0zM267 412q-6 -13 -15 -27t-26 -30l-32 -33l-19 -23l-29 -38l-2 -2t-3 -2q-1 -1 -3 -2t-5 -2l-1 2l-1 -2l-2 2l40 54l33 37l19 23l19 12q3 2 5 4l4 4l2 2l3 3q3 3 6 7t7 11v0zM574 476l2.5 -2.5t2.5 -3.5q2 -2 4 -5t2 -7q0 -2 -1.5 -5.5t-5.5 -6.5
q-2 -1 -4.5 -2.5t-5.5 -3.5v-2l-12 -9l-37 -43q-1 -1 -5.5 -7.5t-9.5 -13.5q-2 -1 -3 -3t-3 -4q-4 -4 -7.5 -8t-6.5 -5q-22 -19 -33.5 -25t-12.5 -6h-1h-1l-1 0.5t-2 0.5l34 45l17 15l52 67l32 29l6 5v0zM83 721l12 -12l43 -1l83 -15q2 0 3.5 -1t2.5 -1q1 -1 1 -2t-2 -1
l-14 -5l-5 -7l-32 2q-55 12 -71 17t-20 7l-5 14l4 -2v7v0z" />
    <glyph glyph-name="braceleft" unicode="{" horiz-adv-x="400" 
d="M33 0v667h334v-667h-334v0zM40 7h320v653h-320v-653v0z" />
    <glyph glyph-name="bar" unicode="|" horiz-adv-x="400" 
d="M33 0v667h334v-667h-334v0zM40 7h320v653h-320v-653v0z" />
    <glyph glyph-name="braceright" unicode="}" horiz-adv-x="400" 
d="M33 0v667h334v-667h-334v0zM40 7h320v653h-320v-653v0z" />
    <glyph glyph-name="asciitilde" unicode="~" horiz-adv-x="400" 
d="M33 0v667h334v-667h-334v0zM40 7h320v653h-320v-653v0z" />
    <glyph glyph-name="exclamdown" unicode="&#xa1;" horiz-adv-x="295" 
d="M133 -5l-13 22l-3 18l-16 6l-14 18l4 25l2 33l9 19l5 23l12 32l-5 8l9 30l4 16v26l6 20l2 25l-3 21l8 26l-1 29l4 22l15 21h8l7 -42v-21l7 -19l1 -22l4 -23l-2 -24l5 -17l5 -36l2 -37l-2 -26l-2 -32l-1 -14l11 -6l-7 -24l-2 -17l-5 -14l-1 -14l7 -23l-13 -16l-9 -19
l-20 5l-18 1v0zM120 552l-7 13l2 12l7 8l7 7l9 16l4 20l15 20l16 -12l6 -23l1 -21l13 -19v-22l-2 -19l6 -19l-20 3l-16 -7l-22 10l-7 18l-12 15v0z" />
    <glyph glyph-name="cent" unicode="&#xa2;" horiz-adv-x="557" 
d="M259 585l10 -1q1 0 1.5 -0.5l1.5 -1.5l0.5 -0.5l0.5 -0.5q4 -3 8.5 -6.5t10.5 -10.5l-3 -20l-3 -10l-2 -2v-10q-1 -4 -1.5 -7t-0.5 -5v-2v-2t-0.5 -2t-0.5 -3v-4v-6v-11t-1 -7q0 -1 -0.5 -2t-0.5 -3l-4 -42q18 8 28 11t19 5v0h1l8 2t9 3l20 6h7v2l13 5l1 -15h15l8 -28
q0 -1 2 -2.5t5 -5.5q1 -1 1.5 -2l1.5 -3q2 -2 3.5 -4t2.5 -4q4 -5 5 -11.5t1 -17.5l-10 -8h-22q-5 0 -8 0.5t-5 1.5t-3.5 1.5t-3.5 1.5q-7 -3 -11 -4t-6 -1q-1 0 -2 0.5t-2 0.5v0v0q-1 1 -1.5 1h-1.5l-13 -6.5l-9 -4.5q-4 -1 -7.5 -1.5t-8.5 -1.5q-2 -3 -3.5 -4.5t-3.5 -2.5
q-1 0 -1.5 -0.5l-1.5 -1.5t-3 -1.5t-4 -1.5q-1 0 -2 -0.5t-2 -0.5q-13 -4 -18 -10t-7 -19l-1 -20l-9 -49l-1 -14l-2 -16v-23l-2 -22l-8 -1l6 -2l81 17q3 0 5.5 0.5t4.5 1.5q7 1 11 2t7 1q2 0 3.5 -1t3.5 -3v5l68 10l9 2l2 2l-8 6h4l-4 9l8 -1l4 4h4l-2 3q1 0 2 0.5t2 1.5
q1 0 2 0.5t2 0.5q2 -1 2.5 -1.5l1.5 -1.5h0.5h1.5q0 -1 0.5 -1h1.5l19 -12l32 -13q5 -3 9 -7t7 -8q2 -2 3 -5t1 -5t-0.5 -3t-1.5 -1q0 -1 -0.5 -1h-1.5v-3l-18 3l-4.5 -1.5t-2.5 -0.5h-2.5h-3.5h-20.5h-11.5q-5 -1 -6.5 -1h-1.5l-20 -4h-19l-9 -2l-33 -3l-16 -1l-10 1l-8 -1
q-13 0 -18.5 -0.5t-7.5 -3.5q-3 0 -4.5 -0.5t-2.5 -0.5t-2 -0.5l-1 -0.5h-12l-17 -3l-11 -1l-12 -6h-2h-3q-1 -1 -2 -1h-3v-6l-4 -22l-12 -80v-2.5v-2.5q-1 -5 -1 -11v-15q0 -1 0.5 -1.5t0.5 -1.5v-3.5v-7.5l2 -18l-10 -5q-2 3 -3.5 5t-2.5 3q-2 2 -3 4t-1 4v0.5v0.5
q-2 2 -2.5 4t-1.5 4q-2 5 -3.5 13.5t-5.5 25.5v0l1 1q0 1 0.5 3t-1.5 6l-4 24v4h-3l-3 54q-2 0 -4.5 -1t-6.5 -1q-7 -2 -16 -3t-20 -1q-10 0 -20.5 1t-21.5 5v4l-2 -2q-3 2 -5.5 3.5t-4.5 2.5q-1 1 -1.5 2t-1.5 1q-1 2 -2 3l-3 3l-12 11l-17 45q-1 2 -1.5 8.5t-0.5 13.5
q0 10 1 19.5t3 17.5q4 14 11.5 28.5t21.5 33.5l10 10v3l5 2v2h5l-1 3q49 40 62.5 50t17.5 12q4 4 6 5l4 2h3h2l12 7l1 12l6 53l4 30l7 27l3 16q0 4 2.5 12.5t5.5 17.5v1.5v1.5q2 4 3 7.5t2 6.5l10 -6v6v0zM154 242l-4 -6h-2l-5 -7l-9 -9l-3 -5h-4l-3 -6v-4l-3 -2
q-1 -2 -1.5 -3.5t-1.5 -3.5l-0.5 -0.5l-0.5 -0.5q-2 -4 -4 -8.5t-5 -13.5h-4l-1 -15l-2 -1q2 -2 4 -3.5t3 -2.5q2 0 4 -0.5t5 -0.5l7 -2h3t3 -1q6 0 10.5 -1t7.5 -3l18 4l26 1l10 136h-2l-1.5 -1.5t-1.5 -0.5q0 -1 -1 -1.5t-1 -1.5q-2 -2 -4 -3.5t-5 -1.5l-2.5 -2.5
t-2.5 -1.5q-1 -1 -1.5 -2l-1.5 -3l-8 -6l-7 -9l-9 -8v0z" />
    <glyph glyph-name="sterling" unicode="&#xa3;" horiz-adv-x="513" 
d="M354 118q1 0 10 -4t19 -9q2 0 3 -1t2 -1l8 -4t7 -4q25 -8 47.5 -12.5t42.5 -7.5h2.5h2.5q6 1 12.5 3.5t15.5 5.5l2 -12l-12 -16l-14 -9l-16 -3l-16 -3l-19 6l-23 6l-18 7l-44 12l-77 32l-6 -24q-2 -1 -3 -3t-2 -5q0 -2 -1 -4l-2 -4q-2 -5 -5.5 -9t-9.5 -6
q-3 -7 -6.5 -8.5t-10.5 -1.5h-3.5h-4.5l-7 -9h-8.5h-9.5l-10 -5l-9 -5l-11 3l-6 -3h-1.5h-1.5h-0.5t-0.5 1h-2h-3h-3.5t-4.5 -1q3 -2 1.5 -0.5t-5.5 3.5q-3 1 -6.5 2t-7.5 1t-7.5 -1.5t-7.5 -4.5l-8 -8l-14 -3l-8 2l-9 15l13 4l26 17l0.5 0.5t1.5 0.5l1 0.5t2 1.5l2.5 2.5
t2.5 3.5q2 0 3.5 0.5t2.5 1.5q4 1 6 2t4 3q1 1 2 3l2 4l20 28q1 2 2 3t1 3q1 1 2 3t2 3q2 5 4 10.5t5 13.5h-4t-4 1h-4h-5h-2.5h-3.5q-1 0 -1.5 -0.5t-1.5 -0.5h-20l-2 -3q-1 0 -1.5 -0.5t-1.5 -0.5q-11 -4 -19.5 -8.5t-15.5 -11.5q-7 -6 -13.5 -14.5t-15.5 -21.5
q0 -1 -0.5 -1.5l-1.5 -1.5q-2 -5 -5.5 -8.5t-8.5 -2.5l-10 2h-6q-1 2 -2 3.5t-2 2.5l-1.5 1.5l-1.5 1.5q-2 0 -3.5 1t-3.5 2l-6 5l-1 10q-3 3 -3 5t1 4t3 4t5 4q1 2 2 3t2 3q12 25 41.5 37t74.5 12h32t13 -2v32l-15 105l-26 -1l-40 -5l-31 2l-10 4l-2 6l-7 7l-4 6l1 4
l3.5 0.5t9.5 1.5q7 0 18 0.5t27 0.5l11 3q-1 0 6.5 1t17.5 2t17.5 2t6.5 1l-5 44q-9 -1 -16.5 -1h-15.5h-6h-6h-28q-4 0 -7 0.5t-6 0.5q-2 1 -4.5 2.5t-6.5 3.5q-7 1 -10 4.5t-3 15.5q2 -2 4 -3t3 -1q3 -2 7 -2h12q2 0 15 0.5t67 4.5v66q0 20 0.5 33.5t2.5 25.5q1 9 3.5 19
t6.5 23q5 16 8 25.5t4 12.5q2 3 7.5 9.5t13.5 13.5q4 4 9 7.5t11 6.5l20 4h6l18 7l22 -2l12 -4l13 -11q11 -9 17 -13.5t11 -7.5q0 -1 1 -1.5l1 -0.5q3 -2 6 -4.5t6 -6.5q-2 -3 -3.5 -4t-3.5 -2q-1 -1 -3 -1h-4h-14l-7 6l-17 6l-7 1q-2 0 -3.5 0.5t-2.5 0.5t-2 0.5t-2 0.5
q-15 0 -21.5 -14t-8.5 -31v-7v-7q0 -7 0.5 -13.5t1.5 -11.5l10 -26l4 -22l3 -8l1 -14l4 -19l-2 -33h40l49 -3h8t6 1h4h3h1.5t1.5 -1q1 0 2 -1l3 -3l3 -10l-19 3l-55 -10l-45 -5l-8 -10q1 -3 1.5 -5t0.5 -4q1 -3 1 -6.5v-10.5l42 1l36 -5h10l39 -10l20 -6q-2 -3 -5.5 -4.5
t-7.5 -1.5q-2 0 -4.5 0.5t-4.5 1.5q-30 0 -52.5 -1t-27.5 -3q-6 -1 -9.5 -1t-5.5 -1q-2 0 -3.5 -0.5t-2.5 -0.5q-1 -1 -2 -1t-2 -1q-10 -1 -14.5 -3t-4.5 -7l9 -41l-4 -12l4 -11l-4 -22l4 -6l-5 -8l-4 -16l1 -22l1 -19l6 -2t7 -2q7 -2 13 -3.5t9 -3.5q1 -1 3.5 -2t5.5 -2
q1 -1 2 -1.5t2 -0.5q5 -2 8.5 -3t5.5 -1v0z" />
    <glyph glyph-name="currency" unicode="&#xa4;" horiz-adv-x="691" 
d="M303 164l13 -17l8 -23l-3 -15l-2 -16l-6 -10l-6 -18l-15 -34l-15 -31l-5 17l-7 16v35l-2 36l6 31l12 20l22 9v0zM425 203l28 -15l15 -15l12 -10l-3 -15l14 -19l4 -34l6 -26l-8 -4l-9 11l-16 7l-27 29l-22 29l-14 20l-5 20l8 14l17 8v0zM191 259l14 -14l-4 -21l-14 -9
l-24 -20l-40 -18l-20 -10l-22 -3l-1 11l19 26l38 31l18 13l16 11l10 -1l10 4v0zM308 439h25l11 -8l19 -2l10 -6l10 -12l24 -12l26 -28l2 -19l4 -16l-6 -16l7 -11l-11 -12l-14 -37l-16 -17l-22 -19l-24 -7l-36 4l-30 11l-32 17l-23 16l9 15l-9 7l1 8l-2 18l1 36l11 34l9 17
l9 15h11l13 14l23 10v0zM504 301l11 10l13 -6l16 8l20 -2l21 -10l24 -12q1 0 5.5 -1t10.5 -2q1 0 3 -0.5t3 -0.5q3 0 5.5 -0.5t3.5 -1.5l16 -18l-16 -4l-16 4l-33 -4h-26l-25 7v7l-19 5l-17 9v12v0zM53 400h39l20 -8l17 -7h11l7 -16l-4 -14l-6 -7l-20 -7l-13 10l-13 -3
l-12 11l-26 13l-18 9l-2 12l20 7v0zM459 436l8 7l12 -4l-2 12l19 9l20 4l17 9l20 11l22 1l-16 -30l-23 -12l-15 -11l-16 -9l-12 -4h-12v-7h-18l-2 12l-2 12v0zM131 568l22 -3l20 -21l23 -12l20 -17l25 -16l3 -19l-9 -11l-23 -5l-20 9l-3 10l-17 6l-16 22l-12 10l3 14l-15 12
l-1 21v0zM307 533l10 11l7 11l-3 6l12 19l2 16l16 25l12 48l14 -16l7 -22l7 -7l-7 -37v-40l-1 -31l-8 -17l-10 -12l-33 8l-25 38v0z" />
    <glyph glyph-name="yen" unicode="&#xa5;" horiz-adv-x="321" 
d="M238 488q23 -4 33 -9.5t17 -20.5q0 -1 0.5 -1.5t0.5 -1.5l-10 -20q-2 -3 -3 -4t-1 -2q-1 0 -1 -0.5v-0.5q-1 -1 -2 -3.5t-3 -8.5l-7 -7l-3 -12l-7 -6q0 -1 -0.5 -2t-0.5 -2q-1 -2 -2 -3t-4 -2l-13 -22l-3 -18q-1 -7 -3.5 -8.5t-5.5 -1.5q0 -4 -0.5 -6.5t-1.5 -5.5
q-1 -1 -2 -3l-2 -4l-14 -30l-5 -12h20l34 -4q5 0 8.5 -1t4.5 -3q2 0 4.5 -1.5t4.5 -4.5l-1 -7l-9 2h-57q-7 0 -11 -0.5t-8 -3.5q-3 -2 -6 -6t-7 -11l89 -6h1.5h1.5q4 0 8 -0.5t8 -0.5q11 -2 19 -6.5t4 -15.5q-4 1 -7 2t-5 2q-6 1 -12 1h-17l-78 -2l-9 -1q0 -7 -0.5 -12
t-0.5 -9q0 -1 -0.5 -2t-0.5 -2q0 -3 -0.5 -6t-0.5 -7v-21l-4 -39v-16l2 -18l-2 -7l2 -17l-5 -6l-2 -5q-7 0 -9 -2t-3 -7l-13 -1q2 0 -0.5 0.5t-6.5 2.5q-1 1 -3 1.5t-3 1.5q0 1 -0.5 1.5l-0.5 0.5l3 48l1 41l-4 27l4 24l1 30l-25 -1l-17 -2h-25l-5 -3q-3 4 -4.5 6.5
t-1.5 3.5t0.5 2l1.5 3q0 2 0.5 3t0.5 3t0.5 2.5t2.5 0.5v2.5t1 1.5q0 4 1 5t3 1q1 0 1 -0.5t1 -0.5v0v0q1 0 1.5 -0.5t1.5 -0.5l57 1l-7 20h-13l-15 -2l-22 -1l-25 -6v-3q-8 1 -11.5 7t-3.5 15v3.5t1 6.5l3 3l2 -3l75 4l-36 80q-7 13 -11 22.5t-7 14.5q-9 25 -17 40.5
t-13 19.5l-12 11l-5 8h11l4 5q2 0 4 -0.5t4 -2.5l24 -3l10 -6l14 -3l5 -9l6 -9l4 -15q5 -8 6.5 -11.5t1.5 -5.5v-1.5v-1.5l9 -31l12 -24l7 -31l9 -20l5 -11q0 -3 0.5 -5t1.5 -4q2 -3 5 -7t9 -11l28 63q0 2 0.5 4t1.5 3q3 12 8.5 26.5t13.5 37.5l11 28l-1 11l3 15l10 16l4 19
v0z" />
    <glyph glyph-name="brokenbar" unicode="&#xa6;" horiz-adv-x="500" 
 />
    <glyph glyph-name="section" unicode="&#xa7;" horiz-adv-x="400" 
d="M33 0v667h334v-667h-334v0zM40 7h320v653h-320v-653v0z" />
    <glyph glyph-name="dieresis" unicode="&#xa8;" horiz-adv-x="363" 
d="M89 842q4 -1 6.5 -1.5t4.5 -0.5h1.5h0.5q1 0 2 0.5t1 -0.5q2 0 5 -1t10 -6l9 -14l20 -8l1 -18l-13 -6l2 -11l-9 -9l-4 -9l-12 -2l-15 -8l-23 -6l-11 -6l-4 -5l-11 8q0 17 2 26.5t4 14.5q1 4 2.5 6.5t2.5 4.5q2 2 3.5 4t2.5 4q1 1 1 2t1 2q0 1 0.5 2.5t1.5 3.5l6 9l-1 8
l1 4l12 12v0zM246 844l20 -3l19 -9q0 -1 2.5 -2.5t5.5 -3.5l0.5 -0.5t1.5 -0.5q4 -2 7 -4l3 -2q0 -3 1.5 -5.5t2.5 -5.5q2 -3 3 -6.5t1 -6.5t-1 -5.5t-3 -4.5q-6 -1 -10.5 -4t-7.5 -6q-2 -3 -4 -5.5t-3 -3.5l-13 -11h-14l-19 -10l-13 -9l-8 6l-1 22q2 7 3.5 11.5l2.5 7.5
q2 4 4.5 5.5t3.5 2.5q3 1 4.5 3.5t2.5 10.5q0 5 -1 11.5t-5 13.5l15 14v0z" />
    <glyph glyph-name="copyright" unicode="&#xa9;" horiz-adv-x="400" 
d="M33 0v667h334v-667h-334v0zM40 7h320v653h-320v-653v0z" />
    <glyph glyph-name="ordfeminine" unicode="&#xaa;" horiz-adv-x="400" 
d="M33 0v667h334v-667h-334v0zM40 7h320v653h-320v-653v0z" />
    <glyph glyph-name="guillemotleft" unicode="&#xab;" horiz-adv-x="296" 
d="M82 180l-25 33q-1 1 -1.5 2.5t-1.5 2.5q-1 3 -2.5 5.5t-1.5 6.5l-10 25l4 9q3 0 4 1t2 3t2 4.5t2 6.5l7 11l13 14q5 9 13.5 20t17.5 23l1.5 1.5t0.5 1.5l8 10l8 10l18 16l15 21q5 3 9.5 7t8.5 9q4 4 6.5 8t4.5 7h3v-2t1 -2q0 -2 0.5 -3.5t0.5 -2.5l1.5 -1.5l1.5 -1.5
q0 -10 -1 -16t-5 -12q0 -2 -1.5 -3t-2.5 -3l-10 -12l-21 -35q0 -1 -1 -4t-3 -6q0 -1 -1 -1.5t-1 -1.5q-1 -2 -2.5 -4t-2.5 -3q0 -1 -0.5 -2.5t-1.5 -3.5q-2 -3 -5.5 -6.5l-6.5 -6.5q-4 -4 -7.5 -8.5t-5.5 -10.5q-1 -3 -2 -5.5t-2 -4.5l-1.5 -3l-1.5 -3l-0.5 -0.5t-0.5 -1.5
q-9 -10 -13 -17.5t-4 -11.5l1 -3t3 -7q1 -3 2.5 -6t3.5 -4l2 -8l20 -29l0.5 -0.5l0.5 -0.5q1 -2 2.5 -6t3.5 -10l16 -34l8 -12l16 -19l5 -9l6 -9q1 -2 2 -3.5t2 -3.5l1.5 -1.5l1.5 -1.5q1 -2 2.5 -4.5t2.5 -5.5l1 -14q-10 0 -17.5 6t-12.5 19l-17 25h-0.5t-0.5 1t-1 3l-2 4
q-1 3 -2.5 5t-4.5 3q0 1 -0.5 1.5l-1.5 1.5q0 1 -0.5 1t-0.5 1l-2 2t-1 2l-16 22l-30 35v0zM244 83l5 -15l2 -12l-7 2l-49 89l-11 17l-23 37l-10 12l-8 15l-5 15l1 13l7 14l6 13l16 17l19 28l13 18l16 21l11 11l6 13q0 1 4.5 4.5t11.5 13.5l7 -21q0 -6 -0.5 -9t-3.5 -5
l-10 -13l-11 -17l-6 -14l-15 -24l-10 -15l-7 -21q-1 -2 -3 -5t-4 -7q-4 -5 -6.5 -9t-2.5 -5l22 -31l6 -13l18 -48l1 -9l6 -17l9 -12l-3 -11l8 -20v0z" />
    <glyph glyph-name="logicalnot" unicode="&#xac;" horiz-adv-x="302" 
d="M157 443l-4 -6l53 -42l27 -17q13 -9 24 -31.5t15 -46.5q2 -7 2.5 -14t0.5 -13v-1.5v-0.5q0 -5 -0.5 -10.5t-2.5 -14.5l-11 -40l-8 -15l-2 -8q0 -3 -4 -10t-12 -18l-12 -18h-1l-20 -22l-5 -3l-11 -17l-23 -16l-6 -12l-14 -11l-10 -1v-5h-6l-15 -11l-21 1l-20 10h-7v3
l-12 2l-3 10q-6 3 -9.5 5.5t-5.5 5.5q-2 2 -3 4.5t-1 5.5v13l-6 3l-4 14l7 32l3 23l-1 2q0 8 -0.5 11.5t-3.5 6.5q16 10 24.5 15t15.5 8q1 1 2 1.5t2 0.5q5 3 9.5 5.5t7.5 4.5q2 2 4 3.5t3 3.5l8 4l15 16l10 14l10 13q7 8 13 18t11 20q4 11 7 21t3 17q0 9 -4.5 16t-12.5 9
l-16 3l-6 3h-15l-2 4q0 -2 -2.5 -3t-5.5 -1q-2 0 -4 1t-3 3l-3.5 -3.5t-3.5 -1.5q-1 -1 -3 -1h-4l-7 10l-3 2h4l2 5h-13l-1.5 1.5t-1.5 0.5q-1 1 -1 3.5v9.5l-2 13v10l-3 3l3 7l-4 9l1 14h3.5h2.5l6 1.5t4 1.5q1 0 2 1l2 2l18 10q19 9 36 23.5t28 30.5q6 7 10 14t6 14
q-4 2 -6.5 3t-5.5 2q-1 0 -2.5 0.5t-2.5 0.5q-3 1 -7 2t-10 2h-1.5h-0.5h-1.5h-1.5h-1.5h-0.5h-2.5h-2.5h-2h-2t-2 0.5t-2 1.5l-7 -2v-2l-9 2v-4h-10l-6 -2h-6l-6 -7l-8 -3q-1 -2 -1.5 -3.5t-1.5 -2.5q-1 0 -1.5 -0.5t-1.5 -0.5t-2.5 0.5t-2.5 0.5q-6 3 -12 10t-10 16
q0 2 -0.5 4.5t-3.5 5.5l4 3l-4 5l1 10q4 -2 6.5 -2.5t3.5 -0.5q7 0 17 2t32 5l3 1h34h0.5h1.5q2 0 4.5 -0.5t5.5 -0.5q10 -1 22 -6.5t37 -23.5q4 -3 8 -6.5t8 -6.5q10 -10 17 -18.5t7 -13.5v-14l-4 -9q0 -1 -0.5 -4t-1.5 -6q0 -4 -1.5 -7t-2.5 -4l-7 -8l-22 -21l-10 -6
l-11 -10l-16 -10h-9v0z" />
    <glyph glyph-name="sfthyphen" unicode="&#xad;" horiz-adv-x="500" 
 />
    <glyph glyph-name="registered" unicode="&#xae;" horiz-adv-x="400" 
d="M33 0v667h334v-667h-334v0zM40 7h320v653h-320v-653v0z" />
    <glyph glyph-name="overstore" unicode="&#xaf;" 
 />
    <glyph glyph-name="glyph113" unicode="&#xb0;" horiz-adv-x="400" 
d="M33 0v667h334v-667h-334v0zM40 7h320v653h-320v-653v0z" />
    <glyph glyph-name="plusminus" unicode="&#xb1;" horiz-adv-x="292" 
d="M41 712l31 -1l28 -10l24 -4l16 -1l13 -8l21 -16l13 -18l13 -13l3 -22l-4 -18l1 -32l-4 -25l-5 -45l-8 -64l4 -32l-4 -35l5 -45l-9 -8l1 -46l-4 -48l3 -31l-2 -50l-2 -29l-12 -35l-19 -19l-20 -27l-11 -17l-9 -17l-20 -22l-5 58l-7 36l-4 45l-2 51l-6 23l2 22l-6 29l3 43
l-7 54l4 22l-4 42l-5 76l5 57l-4 72l-3 73l-4 35v0zM185 89l4 -12l4 -8l-13 -5l-9 -28l-39 -52l-11 -3l4 27l30 33l14 24l7 12l9 12v0zM212 465h7l4 -28v-38l-3 -44l-7 -50l-13 -59v48l5 86l3 50l4 35v0zM-2 697l13 -8l21 -84l-3 -26l-9 -22l-14 -31l-3 99l-3 53l-2 19v0z
" />
    <glyph glyph-name="twosuperior" unicode="&#xb2;" horiz-adv-x="500" 
 />
    <glyph glyph-name="threesuperior" unicode="&#xb3;" horiz-adv-x="500" 
 />
    <glyph glyph-name="acute" unicode="&#xb4;" horiz-adv-x="310" 
d="M204 883l17 -1l14 -5q2 -3 3.5 -5t3.5 -4v0v-1q2 -2 4 -4.5t6 -6.5l8 -5q0 -4 -0.5 -7t-1.5 -6l-1.5 -6l-0.5 -2l-12 -6l-12 -6l-17 -5q-2 -1 -3 -3l-2 -4v0v0q-2 -4 -4.5 -6.5t-8.5 -2.5h-1.5h-1.5l-4 -6q-6 -8 -16 -14t-23 -6h-1.5t-1.5 1h-1.5h-1.5l-12 -10l-13 -4
l-9 -6l-35 -30h-2l-3.5 -3.5t-3.5 -2.5q-3 -1 -5.5 -1.5t-6.5 -1.5h-2h-3v9l10 18l73 79q11 16 23.5 30t31.5 18q2 5 4.5 6t4.5 2t4 2.5t3 5.5v0z" />
    <glyph glyph-name="mu" unicode="&#xb5;" horiz-adv-x="742" 
d="M247 39l36 -30l36 -28l-11 -1l-24 9l-17 12l-31 32l11 6v0zM581 661l13 -2l53 -98l6 -22l2 -30l-8 -19l-22 6l-12 12l-13 20l-12 7h-27l-16 -7h-14l-10 -5l-22 -2l-26 -9l-52 -24l-48 -28l-61 -45l-15 -7l-28 -23l-13 -17l-13 -12l-55 -53l27 1l49 12l154 33l62 10l79 4
l54 -6l10 -6l37 -14l41 -32l14 -21l10 -35l-1 -12l-19 -37l-5 -15l-17 -25l-34 -33l-9 -16l-17 -8l-16 -22l-15 -4l-23 -20l-25 -8l-5 -9l-58 -27l-16 -2l-12 -8h-33l-23 -3l-8 -5l-33 9l-32 -4l-1 8l-16 4l-15 13l-12 16l-21 4l-28 10l5 8l41 4l26 -4l50 15l4 9l15 -2
l131 70l22 21l66 45l42 52l3 14h-53l-71 -10l-73 -9l-75 -18l-32 -13l-28 -8l-69 -20l-82 -11l-37 5l-15 14l-14 30l-4 17l-1 41l17 54l10 16l4 12l40 42l42 43l65 52l55 36l45 31l40 20l31 5l8 8l34 11l55 14l53 12v0zM587 275l6 -8l8 1l-1 -23l-12 3l-41 -33l-32 -27
l-18 -13l-38 -23l-50 -23l-17 -6l-12 -8l-11 5l15 11l59 29l41 21l43 31l25 33l35 30v0zM178 187l7 -9l-1 -13l-5 -6l-12 9l2 13l9 6v0zM119 192l6 -8l1 -11l-9 -6l-7 5l2 13l7 7v0zM232 197l5 -3l2 -15l-5 -11l-11 4l-4 12l5 11l8 2v0zM279 204l6 -5v-12l-3 -13l-8 5l-7 9
l5 12l7 4v0zM333 217l10 1l3 -11l-5 -10l-11 3l-1 8l4 9v0zM81 225l4 -12l2 -15l-11 8l-2 8l7 11v0zM392 241l11 4l2 -15l-5 -10l-11 3l-1 10l4 8v0zM67 272l4 -9l2 -15l-3 -11l-12 5l-2 9l2 13l9 8v0zM448 253l13 6l2 -9l-5 -8l-11 1l1 10v0zM491 256l14 12l2 -15l-5 -9
l-11 2v10v0zM535 271l10 2l1 -15l-4 -10l-8 3l-3 10l4 10v0zM63 334l4 -12l2 -15l-5 -10l-11 3l-1 10l2 13l9 11v0zM84 405l3 -10l-1 -11l-10 -10l-7 13l6 12l9 6v0zM292 375l8 16l24 20l44 32l71 36l61 25l21 10l46 13l14 -3l-1 -13l-16 -1l-85 -25l-78 -39l-38 -21
l-10 -13l-21 -13l-28 -23l-12 -1v0zM119 444l-5 -7l2 -10l-7 -7l-8 4l-1 14l15 12l4 -6v0zM156 495l8 -3l-4 -13l-5 -10l-11 3l-3 10l8 7l7 6v0zM635 639l19 -25l15 -34l8 -32l-2 -20v-20l-7 -7l-8 26l-8 50l-23 52l6 10v0zM206 531l6 -4l-4 -16l-7 -7l-11 3l-5 8l9 11l12 5
v0zM257 568l7 -5l-1 -13l-7 -7l-11 3l-5 9l17 13v0zM313 604h10l-1 -22l-6 -9l-11 3l-5 7l5 14l8 7v0zM354 615l17 14l10 -10l-9 -15l-11 4h-5l-2 7v0zM425 653l3 -19l-5 -9l-12 1l-6 12l6 9l14 6v0zM475 676l4 -10l-4 -19l-12 6l-5 7l6 9l11 7v0zM522 691l4 -9l-2 -11
l-5 -10l-11 3l-5 11l5 8l14 8v0zM559 704l10 -10l4 -13l-7 -7l-11 3l-5 11l4 10l5 6v0z" />
    <glyph glyph-name="paragraph" unicode="&#xb6;" horiz-adv-x="400" 
d="M33 0v667h334v-667h-334v0zM40 7h320v653h-320v-653v0z" />
    <glyph glyph-name="middot" unicode="&#xb7;" 
 />
    <glyph glyph-name="cedilla" unicode="&#xb8;" horiz-adv-x="400" 
d="M33 0v667h334v-667h-334v0zM40 7h320v653h-320v-653v0z" />
    <glyph glyph-name="onesuperior" unicode="&#xb9;" horiz-adv-x="500" 
 />
    <glyph glyph-name="ordmasculine" unicode="&#xba;" horiz-adv-x="400" 
d="M33 0v667h334v-667h-334v0zM40 7h320v653h-320v-653v0z" />
    <glyph glyph-name="guillemotright" unicode="&#xbb;" horiz-adv-x="296" 
d="M231 158l-21 -23l-10 -11l-7 -9l-12 -11l-2 -8l-12 -13q-5 -8 -8.5 -12t-5.5 -6q0 -1 -1 -2l-1 -1q-2 -3 -3.5 -6.5t-4.5 -9.5l-17 11v2v2q-1 1 -1 1.5v1.5q0 5 1.5 8.5t4.5 7.5q4 4 8.5 8t8.5 11q2 2 3 4l2 4l9 9l10 19l1 7l13 24l7 12l13 26l6 16l4 19q0 1 0.5 2.5
t1.5 2.5q0 1 0.5 2.5t1.5 2.5q0 2 0.5 3.5t0.5 3.5q0 5 -3 11.5t-11 19.5l-63 111q3 -1 6 -1.5t6 -1.5q7 -2 11 -4.5t6 -5.5l23 -29h1l22 -30l15 -19l15 -22l9 -18l2 -3t5 -6q0 -1 0.5 -1.5l0.5 -0.5q2 -3 3 -5l2 -4q0 -2 1.5 -4t3.5 -5l2 -2t2 -3l4 -11q-3 -7 -5 -11t-4 -7
q-1 -2 -3 -3t-6 -2h-0.5h-0.5l-23 -23l-11 -18v0zM137 158l-28 -30l-49 -65l-16 -15l-4 4l9 17l7 21l14 24l8 11l5 11l12 20l2 12l4 18l7 12l7 11l12 13l-10 26q-2 2 -3 3.5t-2 2.5q0 1 -0.5 2t-1.5 2q0 2 -0.5 4t-1.5 4l-8 18l-13 24l-5 9l-11 20l-8 11l-15 27
q-1 2 -2.5 3.5t-3.5 2.5q-4 6 -6.5 11t-2.5 7t3 4.5t7 5.5l4 -2t3 -2q5 -2 7.5 -5t5.5 -7l12 -15l10 -12l52 -58q3 -4 6.5 -8.5t6.5 -9.5q5 -8 9.5 -16t8.5 -16q1 -2 1.5 -4t1.5 -4h2l5 -19l-8 -22l-13 -15l-20 -36v0z" />
    <glyph glyph-name="onequarter" unicode="&#xbc;" horiz-adv-x="500" 
 />
    <glyph glyph-name="onehalf" unicode="&#xbd;" horiz-adv-x="500" 
 />
    <glyph glyph-name="threequarters" unicode="&#xbe;" horiz-adv-x="500" 
 />
    <glyph glyph-name="questiondown" unicode="&#xbf;" horiz-adv-x="470" 
d="M260 475l14 -3l7 -1l12 -10l17 -20l2.5 -2.5l2.5 -2.5q2 -4 3.5 -8t2.5 -11q1 -2 1.5 -4t0.5 -5q0 -1 0.5 -2.5t1.5 -2.5q0 -2 0.5 -3.5t0.5 -3.5q0 -1 0.5 -2t0.5 -3v-0.5t1 -0.5q0 -2 0.5 -3.5l0.5 -1.5l-7 -12q0 -2 0.5 -3.5t0.5 -2.5v-5v-7h-3v-1.5t-1 -1.5v-6v-9
q-2 -4 -3.5 -7.5t-2.5 -6.5q-1 -1 -1 -2t-1 -2q0 -1 -0.5 -2.5t-1.5 -3.5v-7q0 -1 -0.5 -2l-1.5 -3t-3.5 -3.5t-6.5 -1.5h-2h-2t-2 0.5t-2 0.5l-6 6l-4 -7l-5 1l-4 -3l-7 -7l-9 -1l-1 -1.5t-4 -3.5t-7 -3t-9 -2v-3h-2l-6 -9q-10 -4 -15.5 -15t-7.5 -28h-2v-6l-6 -1l-20 -34
v-5l-4.5 -3t-2.5 -2q-2 -2 -3 -3.5t-1 -4.5q-1 -1 -1 -1.5v-1.5q0 -2 -0.5 -4t-0.5 -4v-10.5v-13.5q-1 -1 -1.5 -2t-0.5 -2v-1.5v-2.5l3 -10v-8q2 -6 7 -13.5t13 -16.5q6 -5 12.5 -8t13.5 -6q3 -1 6.5 -2t6.5 -2l53 -3q4 0 7 0.5t6 1.5t6 3t7 5l9 10l7 5l6 32q11 0 15.5 1
t7.5 5q1 1 1.5 2.5t1.5 3.5h12l18 -4l19 2l20 -8q-1 -1 -1 -2.5t-1 -2.5q0 -1 -1 -2t-2 -1v-0.5v-0.5q0 -1 -1 -2.5t-3 -6.5l-6 -4l-4 -6l-1 2q-1 0 -4.5 -1.5t-7.5 -4.5q-4 -2 -7 -5.5t-5 -8.5l5 -6q-1 -4 -2.5 -7.5t-2.5 -5.5q-1 -3 -2.5 -5t-3.5 -4q-1 -2 -3 -3.5
t-4 -3.5q-1 -3 -2 -5l-2 -4q-1 -3 -2.5 -4.5t-1.5 -2.5l-59 -18l-22 -2h-28l-55 15v4l-19 9q-6 5 -11 7.5l-7 3.5l-20 20l-24 20q-18 14 -26.5 41.5t-8.5 66.5q0 5 0.5 12t2.5 17v6q0 7 6.5 16.5t18.5 19.5q10 9 22.5 17.5t26.5 15.5q7 6 12 9.5t10 6.5q2 1 3.5 2t2.5 2
q5 3 11 6l14 7l12 11l14 10l7 8q2 6 2.5 11t0.5 7q0 7 0.5 9.5t1.5 3.5l3 16l4 39v17l-3 26l10 -2l6 3v0zM231 653l12 -1l4 -3q10 -1 19.5 -8t16.5 -18l21 -27l12 -17l-2 -5l2 -1l3 -19l-13 -5v-5q-2 -2 -4 -3t-3 -2h-2h-3h-1.5h-1.5l-6 2t-4 2l-5 6l-15 10l-14 17l-16 23
v20l-1 9v10.5t-2 13.5l3 1v0z" />
    <glyph glyph-name="Agrave" unicode="&#xc0;" horiz-adv-x="787" 
d="M410 657l47 -14l44 -18l33 -9l28 -19l15 -16l5 -22l-12 -15l2 -12l-10 -37l7 -46l16 -41l-6 -12l23 -73l19 -78l8 -26l1 -30l9 -14l18 -52l4 -32l28 -99l30 -56l-1 -9l8 -7l-8 -7l5 -13l-8 -1l2 -23l4 -23l1 -16l-8 -9l-48 92l-2 11l-53 137l-34 123l-27 -4l-32 5l-8 -3
l-112 15l-5 -6l-20 5l-30 -28l-10 -12v-12l-20 -39l-24 -61l-10 -12l-20 -7l-9 -8l-15 -8l-10 -24l-15 -8l-5 -20l-10 -8l-20 -9l-32 -32l-5 -2l-13 -13h-10l-14 -5l-8 9l2 24l42 72l36 83l21 32l42 80l-50 1l-84 -15l-55 -3v14l-13 16l11 28l-2 24l8 1l7 -5l12 -1l8 5
l12 -9l13 4l18 -6l44 3l62 -3l35 2l40 89l12 13l3 15l17 37l29 52l35 80l21 60l11 24l-5 10l-8 8l-14 2l7 10v6v0zM498 423l-16 -28l-11 -11l-10 -23l-19 -36l-11 -4l-4 -14l-15 -31l-13 -6l-12 -26l179 -16l-27 88l-32 101l-9 6v0zM33 -3l50 12l26 11l-18 -32l-21 -21
l-11 -19l-16 5l-1 14l-16 8l-5 14l-2 14l14 -6v0zM657 191l14 -12l16 -40l14 -20l9 -46l19 -69l6 -35l-1 -9l-23 44l-22 75l-32 112v0zM45 101l53 16l57 3l8 -7l-25 -29l-39 -12l-33 -3l-21 32v0zM438 180l79 -4l16 -4l-38 -13l-26 2l-24 -4l-16 -8l-32 8l-23 -6l-12 12
l4 14l15 8l57 -5v0zM131 317l79 -10l16 -12l-5 -15v-11l-32 10l-43 5l-31 20l2 7l14 6v0zM194 413l36 -8l44 -22l8 -14l-7 -12l-13 -8h-21l-58 34l-24 8l-12 9l9 8l10 -4l28 9v0zM598 523l13 -11l6 -43l6 -36l7 -56l-1 -9l-23 59l-15 36l-2 41l-6 19h15v0zM210 532l37 -5
l24 -7l30 -13l22 -20l12 -22l-14 -13l-28 -1l-34 18l-69 55l20 8v0zM235 623l48 -11l30 -19l44 -24l5 -14l-16 -14l-20 2l-23 5l-33 20l-43 39l-4 8l12 8v0zM281 697l22 -1l32 -12l31 -17l28 -16l3 -8l-6 -11h-10l-19 -9l-27 18l-25 20l-33 30l4 6v0zM465 789q2 2 5.5 -3
t18.5 -16l17 -9v0v0q1 0 4 -2t11 -13l1 -9l15 -11l-0.5 -1t-0.5 -2v-2v-2q-1 -3 -3 -5t-7 -2q-4 0 -9.5 1.5t-14.5 5.5l-27 24l-37 20l-39 25l-37 18l-17 14l-20 12l-17 23l8 9l15 -1q4 8 11.5 11t15.5 3q3 0 6 -0.5t6 -1.5h2.5h2.5q4 0 11 -3t19 -15l23 -16l18 -26l12 -11
q0 -1 0.5 -3t1.5 -4q1 -3 2 -5.5t3 -2.5v0z" />
    <glyph glyph-name="Aacute" unicode="&#xc1;" horiz-adv-x="787" 
d="M410 657l47 -14l44 -18l33 -9l28 -19l15 -16l5 -22l-12 -15l2 -12l-10 -37l7 -46l16 -41l-6 -12l23 -73l19 -78l8 -26l1 -30l9 -14l18 -52l4 -32l28 -99l30 -56l-1 -9l8 -7l-8 -7l5 -13l-8 -1l2 -23l4 -23l1 -16l-8 -9l-48 92l-2 11l-53 137l-34 123l-27 -4l-32 5l-8 -3
l-112 15l-5 -6l-20 5l-30 -28l-10 -12v-12l-20 -39l-24 -61l-10 -12l-20 -7l-9 -8l-15 -8l-10 -24l-15 -8l-5 -20l-10 -8l-20 -9l-32 -32l-5 -2l-13 -13h-10l-14 -5l-8 9l2 24l42 72l36 83l21 32l42 80l-50 1l-84 -15l-55 -3v14l-13 16l11 28l-2 24l8 1l7 -5l12 -1l8 5
l12 -9l13 4l18 -6l44 3l62 -3l35 2l40 89l12 13l3 15l17 37l29 52l35 80l21 60l11 24l-5 10l-8 8l-14 2l7 10v6v0zM498 423l-16 -28l-11 -11l-10 -23l-19 -36l-11 -4l-4 -14l-15 -31l-13 -6l-12 -26l179 -16l-27 88l-32 101l-9 6v0zM33 -3l50 12l26 11l-18 -32l-21 -21
l-11 -19l-16 5l-1 14l-16 8l-5 14l-2 14l14 -6v0zM657 191l14 -12l16 -40l14 -20l9 -46l19 -69l6 -35l-1 -9l-23 44l-22 75l-32 112v0zM45 101l53 16l57 3l8 -7l-25 -29l-39 -12l-33 -3l-21 32v0zM438 180l79 -4l16 -4l-38 -13l-26 2l-24 -4l-16 -8l-32 8l-23 -6l-12 12
l4 14l15 8l57 -5v0zM131 317l79 -10l16 -12l-5 -15v-11l-32 10l-43 5l-31 20l2 7l14 6v0zM194 413l36 -8l44 -22l8 -14l-7 -12l-13 -8h-21l-58 34l-24 8l-12 9l9 8l10 -4l28 9v0zM598 523l13 -11l6 -43l6 -36l7 -56l-1 -9l-23 59l-15 36l-2 41l-6 19h15v0zM210 532l37 -5
l24 -7l30 -13l22 -20l12 -22l-14 -13l-28 -1l-34 18l-69 55l20 8v0zM235 623l48 -11l30 -19l44 -24l5 -14l-16 -14l-20 2l-23 5l-33 20l-43 39l-4 8l12 8v0zM281 697l22 -1l32 -12l31 -17l28 -16l3 -8l-6 -11h-10l-19 -9l-27 18l-25 20l-33 30l4 6v0zM600 883l17 -1l14 -5
q2 -3 3.5 -5t3.5 -4v0v-1q2 -2 4 -4.5t6 -6.5l8 -5q0 -4 -0.5 -7t-1.5 -6l-1.5 -6l-0.5 -2l-12 -6l-12 -6l-17 -5q-2 -1 -3 -3l-2 -4v0v0q-2 -4 -4.5 -6.5t-8.5 -2.5h-1.5h-1.5l-4 -6q-6 -8 -16 -14t-23 -6h-1.5t-1.5 1h-1.5h-1.5l-12 -10l-13 -4l-9 -6l-35 -30h-2
l-3.5 -3.5t-3.5 -2.5q-3 -1 -5.5 -1.5t-6.5 -1.5h-2h-3v9l10 18l73 79q11 16 23.5 30t31.5 18q2 5 4.5 6t4.5 2t4 2.5t3 5.5v0z" />
    <glyph glyph-name="Acircumflex" unicode="&#xc2;" horiz-adv-x="787" 
d="M410 657l47 -14l44 -18l33 -9l28 -19l15 -16l5 -22l-12 -15l2 -12l-10 -37l7 -46l16 -41l-6 -12l23 -73l19 -78l8 -26l1 -30l9 -14l18 -52l4 -32l28 -99l30 -56l-1 -9l8 -7l-8 -7l5 -13l-8 -1l2 -23l4 -23l1 -16l-8 -9l-48 92l-2 11l-53 137l-34 123l-27 -4l-32 5l-8 -3
l-112 15l-5 -6l-20 5l-30 -28l-10 -12v-12l-20 -39l-24 -61l-10 -12l-20 -7l-9 -8l-15 -8l-10 -24l-15 -8l-5 -20l-10 -8l-20 -9l-32 -32l-5 -2l-13 -13h-10l-14 -5l-8 9l2 24l42 72l36 83l21 32l42 80l-50 1l-84 -15l-55 -3v14l-13 16l11 28l-2 24l8 1l7 -5l12 -1l8 5
l12 -9l13 4l18 -6l44 3l62 -3l35 2l40 89l12 13l3 15l17 37l29 52l35 80l21 60l11 24l-5 10l-8 8l-14 2l7 10v6v0zM498 423l-16 -28l-11 -11l-10 -23l-19 -36l-11 -4l-4 -14l-15 -31l-13 -6l-12 -26l179 -16l-27 88l-32 101l-9 6v0zM33 -3l50 12l26 11l-18 -32l-21 -21
l-11 -19l-16 5l-1 14l-16 8l-5 14l-2 14l14 -6v0zM657 191l14 -12l16 -40l14 -20l9 -46l19 -69l6 -35l-1 -9l-23 44l-22 75l-32 112v0zM45 101l53 16l57 3l8 -7l-25 -29l-39 -12l-33 -3l-21 32v0zM438 180l79 -4l16 -4l-38 -13l-26 2l-24 -4l-16 -8l-32 8l-23 -6l-12 12
l4 14l15 8l57 -5v0zM131 317l79 -10l16 -12l-5 -15v-11l-32 10l-43 5l-31 20l2 7l14 6v0zM194 413l36 -8l44 -22l8 -14l-7 -12l-13 -8h-21l-58 34l-24 8l-12 9l9 8l10 -4l28 9v0zM598 523l13 -11l6 -43l6 -36l7 -56l-1 -9l-23 59l-15 36l-2 41l-6 19h15v0zM210 532l37 -5
l24 -7l30 -13l22 -20l12 -22l-14 -13l-28 -1l-34 18l-69 55l20 8v0zM235 623l48 -11l30 -19l44 -24l5 -14l-16 -14l-20 2l-23 5l-33 20l-43 39l-4 8l12 8v0zM281 697l22 -1l32 -12l31 -17l28 -16l3 -8l-6 -11h-10l-19 -9l-27 18l-25 20l-33 30l4 6v0zM484 896q5 -3 9 -3.5
t8 -0.5t7 -0.5t6 -2.5q7 -3 9.5 -4.5t3.5 -1.5q1 -1 1 -1.5v-1.5q1 -1 1 -3t2 -5l15 -13q1 -2 2.5 -4t2.5 -4q1 -1 2 -1.5t1 -1.5q2 -2 3 -4l2 -4q6 -5 11.5 -11.5t9.5 -16.5l17 -17l17 -16l10 -18l8 -19q-1 0 -1 -1.5v-3.5v-2.5v-3.5v-0.5v-0.5v-0.5v-0.5q-1 0 -1 -0.5
v-0.5q-1 0 -3.5 0.5t-4.5 0.5q-2 1 -4 1.5t-3 0.5q-1 1 -2 1.5l-1 0.5l-20 22l-21 16l-20 27l-17 14l-8 14l-19 19l-11 -10l-12 -19q-1 -2 -1 -3v-2v0v0q0 -1 0.5 -1h0.5q0 -1 -3.5 -3.5t-14.5 -16.5q-1 -2 -2.5 -3.5t-2.5 -3.5q-2 -4 -5 -7t-9 -5l-6 -8q-7 -1 -11.5 -3.5
t-7.5 -9.5h-3l-7 -4l-7 -7l-10 -10l-11 -5l-1 -8l-12 -3q-8 0 -11.5 2.5t-3.5 7.5q0 8 2.5 17.5t7.5 19.5q3 5 7.5 10t9.5 11v0h1q5 7 10 12.5t8 10.5q4 3 6 5t3 4v1.5v0.5l2.5 5t4.5 8q1 1 1.5 2t1.5 2q5 5 8.5 7.5t2.5 1.5l14 18l6 13l13 12l19 12v0z" />
    <glyph glyph-name="Atilde" unicode="&#xc3;" horiz-adv-x="787" 
d="M410 657l47 -14l44 -18l33 -9l28 -19l15 -16l5 -22l-12 -15l2 -12l-10 -37l7 -46l16 -41l-6 -12l23 -73l19 -78l8 -26l1 -30l9 -14l18 -52l4 -32l28 -99l30 -56l-1 -9l8 -7l-8 -7l5 -13l-8 -1l2 -23l4 -23l1 -16l-8 -9l-48 92l-2 11l-53 137l-34 123l-27 -4l-32 5l-8 -3
l-112 15l-5 -6l-20 5l-30 -28l-10 -12v-12l-20 -39l-24 -61l-10 -12l-20 -7l-9 -8l-15 -8l-10 -24l-15 -8l-5 -20l-10 -8l-20 -9l-32 -32l-5 -2l-13 -13h-10l-14 -5l-8 9l2 24l42 72l36 83l21 32l42 80l-50 1l-84 -15l-55 -3v14l-13 16l11 28l-2 24l8 1l7 -5l12 -1l8 5
l12 -9l13 4l18 -6l44 3l62 -3l35 2l40 89l12 13l3 15l17 37l29 52l35 80l21 60l11 24l-5 10l-8 8l-14 2l7 10v6v0zM498 423l-16 -28l-11 -11l-10 -23l-19 -36l-11 -4l-4 -14l-15 -31l-13 -6l-12 -26l179 -16l-27 88l-32 101l-9 6v0zM33 -3l50 12l26 11l-18 -32l-21 -21
l-11 -19l-16 5l-1 14l-16 8l-5 14l-2 14l14 -6v0zM657 191l14 -12l16 -40l14 -20l9 -46l19 -69l6 -35l-1 -9l-23 44l-22 75l-32 112v0zM45 101l53 16l57 3l8 -7l-25 -29l-39 -12l-33 -3l-21 32v0zM438 180l79 -4l16 -4l-38 -13l-26 2l-24 -4l-16 -8l-32 8l-23 -6l-12 12
l4 14l15 8l57 -5v0zM131 317l79 -10l16 -12l-5 -15v-11l-32 10l-43 5l-31 20l2 7l14 6v0zM194 413l36 -8l44 -22l8 -14l-7 -12l-13 -8h-21l-58 34l-24 8l-12 9l9 8l10 -4l28 9v0zM598 523l13 -11l6 -43l6 -36l7 -56l-1 -9l-23 59l-15 36l-2 41l-6 19h15v0zM210 532l37 -5
l24 -7l30 -13l22 -20l12 -22l-14 -13l-28 -1l-34 18l-69 55l20 8v0zM235 623l48 -11l30 -19l44 -24l5 -14l-16 -14l-20 2l-23 5l-33 20l-43 39l-4 8l12 8v0zM281 697l22 -1l32 -12l31 -17l28 -16l3 -8l-6 -11h-10l-19 -9l-27 18l-25 20l-33 30l4 6v0zM459 842h11
q8 0 13 -0.5t10 -2.5q2 -1 4.5 -2.5t5.5 -4.5l3 -7l8 -7l7 -10q11 -10 23 -15t25 -5q5 0 11.5 0.5t13.5 4.5l13 7l13 21q0 14 2 17.5t9 3.5q5 -7 7 -14t2 -10q0 -2 -2 -7t-7 -12l3 -5h-3q0 -6 -0.5 -9.5t-1.5 -6.5t-3.5 -6.5t-5.5 -9.5l-4 -8q-3 -3 -5 -4.5t-4 -2.5t-4.5 -1
h-6.5h-4q-7 -2 -12.5 -2.5t-9.5 -0.5q-7 0 -19 3.5t-24 9.5q-5 2 -10.5 4.5t-10.5 5.5t-9 4.5t-7 2.5h-2h-2l-21 3h-26q-2 0 -3.5 -0.5t-3.5 -0.5q-3 0 -6 -0.5t-5 -1.5q-4 -1 -8 -3t-13 -5h-2l-2 -3l-10 -7l-7 -9l-1.5 -1.5l-0.5 -0.5l-1.5 -1.5t-1.5 -0.5q-3 -2 -6.5 -4
t-9.5 -6q-1 1 -2 2.5t-2 3.5q0 2 -0.5 3.5t-0.5 2.5v2.5v2.5q0 2 0.5 3t1.5 2v5q1 4 1.5 8t1.5 7q4 13 8 18.5t14 9.5q2 1 4 1.5t4 1.5l4 5q1 0 3.5 0.5t5.5 0.5q3 1 5.5 2.5t3.5 3.5l14 4q2 2 4 3.5t5 2.5q1 1 2 1.5t2 1.5q3 2 5.5 4t3.5 4l13 4v0z" />
    <glyph glyph-name="Adieresis" unicode="&#xc4;" horiz-adv-x="787" 
d="M410 657l47 -14l44 -18l33 -9l28 -19l15 -16l5 -22l-12 -15l2 -12l-10 -37l7 -46l16 -41l-6 -12l23 -73l19 -78l8 -26l1 -30l9 -14l18 -52l4 -32l28 -99l30 -56l-1 -9l8 -7l-8 -7l5 -13l-8 -1l2 -23l4 -23l1 -16l-8 -9l-48 92l-2 11l-53 137l-34 123l-27 -4l-32 5l-8 -3
l-112 15l-5 -6l-20 5l-30 -28l-10 -12v-12l-20 -39l-24 -61l-10 -12l-20 -7l-9 -8l-15 -8l-10 -24l-15 -8l-5 -20l-10 -8l-20 -9l-32 -32l-5 -2l-13 -13h-10l-14 -5l-8 9l2 24l42 72l36 83l21 32l42 80l-50 1l-84 -15l-55 -3v14l-13 16l11 28l-2 24l8 1l7 -5l12 -1l8 5
l12 -9l13 4l18 -6l44 3l62 -3l35 2l40 89l12 13l3 15l17 37l29 52l35 80l21 60l11 24l-5 10l-8 8l-14 2l7 10v6v0zM498 423l-16 -28l-11 -11l-10 -23l-19 -36l-11 -4l-4 -14l-15 -31l-13 -6l-12 -26l179 -16l-27 88l-32 101l-9 6v0zM33 -3l50 12l26 11l-18 -32l-21 -21
l-11 -19l-16 5l-1 14l-16 8l-5 14l-2 14l14 -6v0zM657 191l14 -12l16 -40l14 -20l9 -46l19 -69l6 -35l-1 -9l-23 44l-22 75l-32 112v0zM45 101l53 16l57 3l8 -7l-25 -29l-39 -12l-33 -3l-21 32v0zM438 180l79 -4l16 -4l-38 -13l-26 2l-24 -4l-16 -8l-32 8l-23 -6l-12 12
l4 14l15 8l57 -5v0zM131 317l79 -10l16 -12l-5 -15v-11l-32 10l-43 5l-31 20l2 7l14 6v0zM194 413l36 -8l44 -22l8 -14l-7 -12l-13 -8h-21l-58 34l-24 8l-12 9l9 8l10 -4l28 9v0zM598 523l13 -11l6 -43l6 -36l7 -56l-1 -9l-23 59l-15 36l-2 41l-6 19h15v0zM210 532l37 -5
l24 -7l30 -13l22 -20l12 -22l-14 -13l-28 -1l-34 18l-69 55l20 8v0zM235 623l48 -11l30 -19l44 -24l5 -14l-16 -14l-20 2l-23 5l-33 20l-43 39l-4 8l12 8v0zM281 697l22 -1l32 -12l31 -17l28 -16l3 -8l-6 -11h-10l-19 -9l-27 18l-25 20l-33 30l4 6v0zM413 842q4 -1 6.5 -1.5
t4.5 -0.5h1.5h0.5q1 0 2 0.5t1 -0.5q2 0 5 -1t10 -6l9 -14l20 -8l1 -18l-13 -6l2 -11l-9 -9l-4 -9l-12 -2l-15 -8l-23 -6l-11 -6l-4 -5l-11 8q0 17 2 26.5t4 14.5q1 4 2.5 6.5t2.5 4.5q2 2 3.5 4t2.5 4q1 1 1 2t1 2q0 1 0.5 2.5t1.5 3.5l6 9l-1 8l1 4l12 12v0zM570 844
l20 -3l19 -9q0 -1 2.5 -2.5t5.5 -3.5l0.5 -0.5t1.5 -0.5q4 -2 7 -4l3 -2q0 -3 1.5 -5.5t2.5 -5.5q2 -3 3 -6.5t1 -6.5t-1 -5.5t-3 -4.5q-6 -1 -10.5 -4t-7.5 -6q-2 -3 -4 -5.5t-3 -3.5l-13 -11h-14l-19 -10l-13 -9l-8 6l-1 22q2 7 3.5 11.5l2.5 7.5q2 4 4.5 5.5t3.5 2.5
q3 1 4.5 3.5t2.5 10.5q0 5 -1 11.5t-5 13.5l15 14v0z" />
    <glyph glyph-name="Aring" unicode="&#xc5;" horiz-adv-x="787" 
d="M410 657l47 -14l44 -18l33 -9l28 -19l15 -16l5 -22l-12 -15l2 -12l-10 -37l7 -46l16 -41l-6 -12l23 -73l19 -78l8 -26l1 -30l9 -14l18 -52l4 -32l28 -99l30 -56l-1 -9l8 -7l-8 -7l5 -13l-8 -1l2 -23l4 -23l1 -16l-8 -9l-48 92l-2 11l-53 137l-34 123l-27 -4l-32 5l-8 -3
l-112 15l-5 -6l-20 5l-30 -28l-10 -12v-12l-20 -39l-24 -61l-10 -12l-20 -7l-9 -8l-15 -8l-10 -24l-15 -8l-5 -20l-10 -8l-20 -9l-32 -32l-5 -2l-13 -13h-10l-14 -5l-8 9l2 24l42 72l36 83l21 32l42 80l-50 1l-84 -15l-55 -3v14l-13 16l11 28l-2 24l8 1l7 -5l12 -1l8 5
l12 -9l13 4l18 -6l44 3l62 -3l35 2l40 89l12 13l3 15l17 37l29 52l35 80l21 60l11 24l-5 10l-8 8l-14 2l7 10v6v0zM498 423l-16 -28l-11 -11l-10 -23l-19 -36l-11 -4l-4 -14l-15 -31l-13 -6l-12 -26l179 -16l-27 88l-32 101l-9 6v0zM33 -3l50 12l26 11l-18 -32l-21 -21
l-11 -19l-16 5l-1 14l-16 8l-5 14l-2 14l14 -6v0zM657 191l14 -12l16 -40l14 -20l9 -46l19 -69l6 -35l-1 -9l-23 44l-22 75l-32 112v0zM45 101l53 16l57 3l8 -7l-25 -29l-39 -12l-33 -3l-21 32v0zM438 180l79 -4l16 -4l-38 -13l-26 2l-24 -4l-16 -8l-32 8l-23 -6l-12 12
l4 14l15 8l57 -5v0zM131 317l79 -10l16 -12l-5 -15v-11l-32 10l-43 5l-31 20l2 7l14 6v0zM194 413l36 -8l44 -22l8 -14l-7 -12l-13 -8h-21l-58 34l-24 8l-12 9l9 8l10 -4l28 9v0zM598 523l13 -11l6 -43l6 -36l7 -56l-1 -9l-23 59l-15 36l-2 41l-6 19h15v0zM210 532l37 -5
l24 -7l30 -13l22 -20l12 -22l-14 -13l-28 -1l-34 18l-69 55l20 8v0zM235 623l48 -11l30 -19l44 -24l5 -14l-16 -14l-20 2l-23 5l-33 20l-43 39l-4 8l12 8v0zM281 697l22 -1l32 -12l31 -17l28 -16l3 -8l-6 -11h-10l-19 -9l-27 18l-25 20l-33 30l4 6v0zM465 903q4 -3 7 -5.5
t6 -3.5q1 -1 2 -1.5t2 -1.5q2 -1 4.5 -2t6.5 -3h6l13 -10v-4l4 1q1 -1 1 -1.5t1 -1.5q0 -1 1 -2t2 -3l2 -2t3 -1q1 -1 3.5 -2t6.5 -2q18 -7 30 -22t13 -32l-2 -18v-12h-1l-1 -1v0v0q-1 0 -1.5 -0.5t-1.5 -0.5v-1.5v-1.5l-1.5 -4.5t-2.5 -3.5q-1 0 -1.5 -0.5t-1.5 -0.5
l-2 -10l-4 -1l-3 -7q-3 -5 -5.5 -7.5t-3.5 -4.5q-1 -1 -2.5 -1.5t-3.5 -1.5q-3 -3 -7.5 -5t-9.5 -3h-0.5h-1.5t-2 -0.5t-2 -0.5h-2t-2 -1q-4 0 -6.5 -1t-3.5 -3h-3t-1 -2q-1 0 -1 -0.5v-0.5l-23 3q-15 8 -19 10t-5 3v0.5v0.5q-2 0 -6 3t-9 8l-15 15q-10 12 -15.5 26t-5.5 35
q0 20 6.5 37t19.5 33l5.5 5.5l4.5 4.5q6 4 11 6.5t9 2.5h8v0zM511 861l-6 -3l-12 -4q-1 -6 -2.5 -9t-4.5 -6q-1 0 -2.5 -1t-3.5 -2l-3 -7l-9 -7l-12 -25q-2 -4 -2.5 -8.5t-0.5 -6.5q0 -21 10.5 -32t28.5 -11q23 0 38 20t15 48q0 2 -1.5 6.5l-3.5 10.5q-1 1 -1.5 2.5
t-0.5 3.5q-2 11 -5 16t-9 9q-3 1 -6 2.5l-7 3.5v0z" />
    <glyph glyph-name="AE" unicode="&#xc6;" horiz-adv-x="1021" 
d="M506 559l23 53l-4 10l-5 8l-13 2l8 10l2 6l44 -14l43 -6l76 2l46 -3l29 -3l23 5l20 -6l43 3l51 -15l24 -10l17 -11l15 -14l22 -17l-5 -18l-35 2h-28l-38 6h-44l-27 -5h-9l-31 -8l-13 -12l14 -28l4 -39l-4 -30l-9 -52l-7 -30l7 -4l21 -4l50 -3l17 -7l8 6l23 -2l26 -4
l26 -14l28 -41l-6 -15l-14 -16h-24l-58 -5l-17 -3l-15 -8l-20 -6h-17l-13 10l-17 35l-4 31l-8 -4l-5 -28l2 -31l5 -12l-3 -37l-9 -28l-1 -31l-5 -24l2 -17v-18l23 2l64 1l33 1h41l35 -2l27 -3l28 -23l29 -20l25 -44l-6 -25l-23 4l-21 15l-56 -7l-46 2l-29 -5h-20l-25 -10
l-20 -3l-14 8l-12 -1l-18 16l-27 9l-3 12l-10 1l-30 -46l-10 -8l-15 -1l-18 -13l-3 11v85l-6 52l-1 48l-4 92l-26 -4l-32 5l-8 -3l-108 15l-6 -6l-19 5l-38 -28l-11 -12l-4 -12l-28 -39l-38 -61l-13 -12l-21 -7l-10 -8l-18 -8l-15 -24l-18 -8l-10 -20l-11 -8l-23 -9l-14 -12
l-24 -20l-5 -2l-16 -13h-10l-15 -5l-7 9l7 24l59 72l56 83l27 32l60 80l-48 1l-88 -15l-55 -3l1 14l-9 16l19 28l3 24l8 1l6 -5l12 -1l9 5l9 -9l15 4l15 -6l45 3l61 -3l36 2l61 89l15 13l7 15l24 37l41 52l53 80v0zM606 508l-36 -52l-26 -50l-15 -23l-27 -36l-12 -4l-7 -14
l-21 -31l-16 -6l-17 -26l102 -9l73 9l2 36l-2 40l6 60l6 48l6 36l-16 22v0zM595 456l-2 -40l-4 -36l-2 -67v-18l-5 -8l-5 2l-7 16l2 35v42l8 26l15 48v0zM576 149l8 -12l2 -19l1 -36v-31l4 -65v-20l-8 -26l-11 -13l-3 28l-1 45l2 43l-1 32l4 33l-4 34l7 7v0zM18 19l54 12
l27 11l-24 -32l-25 -21l-16 -19l-15 5l3 14l-15 8l-2 14v14l13 -6v0zM55 123l55 16l60 3l5 -7l-12 -13l-19 -16l-42 -12l-34 -3l-13 32v0zM429 206l113 -8l16 -4l-40 -13l-25 2l-27 -4l-17 -8l-31 8l-24 -6l-8 12l8 14l16 8l19 -1v0zM190 339l76 -10l14 -12l-9 -15l-3 -11
l-29 10l-42 5l-27 20l5 7l15 6v0zM275 435l33 -8l27 -14l12 -8l6 -14l-10 -12l-14 -8h-21l-52 34l-21 8l-11 9l1 1.5t3 2.5q0 1 1 1.5t2 1.5q1 0 2 0.5t2 0.5v0h1v0v0l7 -4l32 9v0zM317 554l37 -5l23 -7l26 -13l18 -20l7 -22l-18 -13l-28 -1l-30 18l-56 55l21 8v0zM363 645
l27 -6l18 -5l26 -19l39 -24l1 -14l-18 -14l-19 2l-23 5l-28 20l-35 39l-3 8l15 8v0zM536 710l44 -18h35l28 -3l25 -1l20 -8l23 1l25 -4l25 6l31 1l20 -7l36 -2l48 -11l22 -11l21 -7l14 -8l7 -11l-8 -9l-18 9l-20 14l-49 9l-53 5l-62 -1l-42 1l-31 2l-41 -2l-24 6l-47 -1
l-24 5l-21 3l-18 6l-9 8l24 24l19 4v0z" />
    <glyph glyph-name="Ccedilla" unicode="&#xc7;" horiz-adv-x="737" 
d="M319 -45l-28 -1l-20 5l-8 -2l-19 7l-31 6l-24 3l-13 7l-16 5l-37 46l-11 26l-5 30l-1 65l13 53l16 42l25 44l9 9l15 29l20 26l33 39l26 27h8l26 30l18 10l28 23l29 17l11 11l33 20l32 21l89 39l43 14l15 6l18 5l7 9v16l16 -10l3 -11l19 -13l18 -40l15 -14l2 -21l-5 -20
l-9 -11l-28 -6l-56 -17l-43 -17l-47 -30l-32 -18l-70 -49l-65 -52l-54 -55l-21 -24l-24 -21l-17 -20l-36 -79l-10 -30l-13 -41l12 -7l41 -8l51 -10l30 -3h68l44 1l35 -3l49 2l99 -4l48 2l19 -2l8 -10l-2 -9h-20l-44 -8l-120 -14l-57 -5l-49 -7l-17 -1l-3 -9l-10 -10l-5 -22
l24 2l23 2l16 -1l26 -11l8 -17l10 -7l-1 -12l7 -10l-5 -24l-5 -10l-2 -11l-18 -19l-27 -12l-17 -11l-24 -12l-13 -1l-10 -6l-23 1l-12 -3l-9 4l-8 11l8 6h10l16 3l26 9l21 17l13 4l17 21l6 21l-3 17l-4 13l-12 9l-17 2l-7 -5l-14 -4l-9 2l-11 -4l-14 9l-6 2l-5 17l9 22
l15 25v0zM235 103l4 -8v-8l28 -11l50 -7l39 2l33 -3l106 -1l25 4l32 -4l40 -3l20 -3l20 2l7 -8l-28 -7l-44 -4l-28 -1l-70 4l-33 -6l-31 3l-28 -4l-29 3h-33l-14 -4l-25 2l-21 6l-26 2l-16 10l-10 10l13 22l19 12v0zM33 99l22 -7l28 -4l4 -11l-3 -12l-17 -1l-18 3l-20 13
l-10 13l-2 14l16 -8v0zM0 217l19 -4l44 7h28l9 -10l3 -8l-8 -9l-14 -5h-14l12 -7l4 -13l-23 2l-12 15l-20 9l-19 10l-9 13v0zM311 232v18l44 34l28 30l16 10l26 22l46 31l36 25l29 16l21 12l24 10l19 10l20 6l25 6l40 15l15 -11l12 -18l4 -11v-12l-7 1l-9 7l-23 12l-18 -5
l-47 -16l-27 -4l-9 -11l-40 -17l-35 -23l-21 -9l-35 -30l-22 -10l-26 -23l-21 -15l-13 -13l-19 -9l-33 -28v0zM68 288l28 -14l5 -10l12 -6l-10 -6l-27 2l-11 14l-18 9l-16 15l20 -4h17v0zM107 373l28 -1l14 -3l18 -3l16 -8l-11 -9l-12 -3l-24 4l9 -13l8 -19l-1 -13l-8 -7
l-13 -4h-19l-8 19l-3 20l-6 13l-2 14l-10 12l2 9l8 -1l14 -7v0zM141 427l31 -11l24 -14l13 -1l6 -12l-6 -8l-9 -5l-19 10q-13 14 -19 17l-6 3l-15 21v0zM205 517l15 -4l19 -8l14 -4l26 -11l5 -10l-20 -6l-15 6l-20 12l11 -24v-31l-9 -9l-13 -4l-6 16l-8 16l-5 56l6 5v0z
M243 572l14 -12l22 -10l10 -13l14 -9l8 -7l2 -13l-8 -4h-9l-15 12l-36 41l-2 15v0zM323 625l10 -15l26 -16l21 -17l16 -11l3 -8l-2 -6l-20 10l-17 10l-4 -16l-3 -23l-4 -12l-9 -4l-12 5l-11 27v53l6 23v0zM380 654l28 -16l15 -18l10 -5l6 -12l7 -26l-3 -8l-6 -3l-17 8
l-15 22l-12 28l-1 10l-12 20v0zM516 682l25 -17l10 -16l-10 -1l-29 18l-3 -32l-12 -34l-8 -2l-12 14l-5 13v29l3 24l-4 23l6 8l12 -5l27 -22v0zM431 669l10 -17l19 -16v-15l-11 3l-14 13l-8 15l4 17v0zM567 736l15 -18l8 -14l1 -16l-4 -15l-2 -21l-4 -16l-8 -3l-10 15l1 30
l-1 27l-2 25l6 6v0z" />
    <glyph glyph-name="Egrave" unicode="&#xc8;" horiz-adv-x="590" 
d="M140 497l15 -6l-7 -14l-13 -5l-11 -12l-5 -9l-8 -7l34 -23l10 -12l-3 -24l-16 -4l-12 -12l-15 -1l15 -13l11 -14l6 -13l4 -16l-4 -16l-16 -13l-9 2l-13 -8l12 -12l14 -22l7 -24l-1 -15l-11 -15l-16 -14l-12 -15l9 -15l15 -13l9 -9l2 -10l6 -10l4 -12l-4 -15l-10 -12
l-43 -23l-5 -6l10 -10l20 -12v-8l14 -9l12 -37l-7 -27l-5 -5l-15 -7l8 -16l-9 -5l-11 8l-7 20l10 24l17 20l-40 38l-8 19l-8 11l8 21l12 17l15 7l18 15l4 12l-18 9l-14 17l-8 20l8 30l7 15l7 8l16 9l5 8l-34 37l-3 17l8 14l21 12l13 2l-5 11l-4 15h-7l-6 13l-14 11l6 28
l12 4l10 9l15 4l-12 11l-20 12v8l-8 4l4 25l13 19l12 10l19 4v0zM299 524l14 -28l4 -39l-4 -30l-9 -52l-7 -30l28 -8l50 -3l17 -7l8 6l49 -6l26 -14l28 -41l-6 -15l-14 -16h-24l-58 -5l-52 -17h-17l-13 10l-17 35l-4 31l-8 -4l-5 -28l2 -31l5 -12l-3 -37l-9 -28l-1 -31
l-5 -24l2 -35l120 4h41l62 -5l28 -23l29 -20l25 -44l-6 -25l-23 4l-21 15l-56 -7l-46 2l-29 -5h-20l-25 -10l-20 -3l-14 8l-12 -1l-18 16l-27 9l-3 12l-10 1l-30 -46l-10 -8l-15 -1l-18 -13l-3 11v85l-6 52l-1 48l-5 84l1 90l12 112l-5 8l9 96l-5 6l-26 -5l-28 1l-29 15
l-17 27l-4 32l-8 37l17 -11l20 -4l24 6l29 -3l28 7l26 2l38 -4l22 11l47 -4l23 5l20 -6l43 3l75 -25l54 -42l-5 -18l-63 2l-38 6h-44l-36 -5l-31 -8l-13 -12v0zM79 669l40 -10l70 9l29 3l21 -2l14 3l33 -4l13 8l34 2l22 -3l36 -2l48 -11l22 -11l21 -7l14 -8l7 -11l-8 -9
l-18 9l-20 14l-49 9l-53 5l-62 -1l-77 -5l-33 -4l-32 -6l-19 -6h-24l-24 5l-21 3l-18 6l-9 8l24 12l19 4v0zM270 789q2 2 5.5 -3t18.5 -16l17 -9v0v0q1 0 4 -2t11 -13l1 -9l15 -11l-0.5 -1t-0.5 -2v-2v-2q-1 -3 -3 -5t-7 -2q-4 0 -9.5 1.5t-14.5 5.5l-27 24l-37 20l-39 25
l-37 18l-17 14l-20 12l-17 23l8 9l15 -1q4 8 11.5 11t15.5 3q3 0 6 -0.5t6 -1.5h2.5h2.5q4 0 11 -3t19 -15l23 -16l18 -26l12 -11q0 -1 0.5 -3t1.5 -4q1 -3 2 -5.5t3 -2.5v0z" />
    <glyph glyph-name="Eacute" unicode="&#xc9;" horiz-adv-x="590" 
d="M140 497l15 -6l-7 -14l-13 -5l-11 -12l-5 -9l-8 -7l34 -23l10 -12l-3 -24l-16 -4l-12 -12l-15 -1l15 -13l11 -14l6 -13l4 -16l-4 -16l-16 -13l-9 2l-13 -8l12 -12l14 -22l7 -24l-1 -15l-11 -15l-16 -14l-12 -15l9 -15l15 -13l9 -9l2 -10l6 -10l4 -12l-4 -15l-10 -12
l-43 -23l-5 -6l10 -10l20 -12v-8l14 -9l12 -37l-7 -27l-5 -5l-15 -7l8 -16l-9 -5l-11 8l-7 20l10 24l17 20l-40 38l-8 19l-8 11l8 21l12 17l15 7l18 15l4 12l-18 9l-14 17l-8 20l8 30l7 15l7 8l16 9l5 8l-34 37l-3 17l8 14l21 12l13 2l-5 11l-4 15h-7l-6 13l-14 11l6 28
l12 4l10 9l15 4l-12 11l-20 12v8l-8 4l4 25l13 19l12 10l19 4v0zM299 524l14 -28l4 -39l-4 -30l-9 -52l-7 -30l28 -8l50 -3l17 -7l8 6l49 -6l26 -14l28 -41l-6 -15l-14 -16h-24l-58 -5l-52 -17h-17l-13 10l-17 35l-4 31l-8 -4l-5 -28l2 -31l5 -12l-3 -37l-9 -28l-1 -31
l-5 -24l2 -35l120 4h41l62 -5l28 -23l29 -20l25 -44l-6 -25l-23 4l-21 15l-56 -7l-46 2l-29 -5h-20l-25 -10l-20 -3l-14 8l-12 -1l-18 16l-27 9l-3 12l-10 1l-30 -46l-10 -8l-15 -1l-18 -13l-3 11v85l-6 52l-1 48l-5 84l1 90l12 112l-5 8l9 96l-5 6l-26 -5l-28 1l-29 15
l-17 27l-4 32l-8 37l17 -11l20 -4l24 6l29 -3l28 7l26 2l38 -4l22 11l47 -4l23 5l20 -6l43 3l75 -25l54 -42l-5 -18l-63 2l-38 6h-44l-36 -5l-31 -8l-13 -12v0zM79 669l40 -10l70 9l29 3l21 -2l14 3l33 -4l13 8l34 2l22 -3l36 -2l48 -11l22 -11l21 -7l14 -8l7 -11l-8 -9
l-18 9l-20 14l-49 9l-53 5l-62 -1l-77 -5l-33 -4l-32 -6l-19 -6h-24l-24 5l-21 3l-18 6l-9 8l24 12l19 4v0zM387 883l17 -1l14 -5q2 -3 3.5 -5t3.5 -4v0v-1q2 -2 4 -4.5t6 -6.5l8 -5q0 -4 -0.5 -7t-1.5 -6l-1.5 -6l-0.5 -2l-12 -6l-12 -6l-17 -5q-2 -1 -3 -3l-2 -4v0v0
q-2 -4 -4.5 -6.5t-8.5 -2.5h-1.5h-1.5l-4 -6q-6 -8 -16 -14t-23 -6h-1.5t-1.5 1h-1.5h-1.5l-12 -10l-13 -4l-9 -6l-35 -30h-2l-3.5 -3.5t-3.5 -2.5q-3 -1 -5.5 -1.5t-6.5 -1.5h-2h-3v9l10 18l73 79q11 16 23.5 30t31.5 18q2 5 4.5 6t4.5 2t4 2.5t3 5.5v0z" />
    <glyph glyph-name="Ecircumflex" unicode="&#xca;" horiz-adv-x="590" 
d="M140 497l15 -6l-7 -14l-13 -5l-11 -12l-5 -9l-8 -7l34 -23l10 -12l-3 -24l-16 -4l-12 -12l-15 -1l15 -13l11 -14l6 -13l4 -16l-4 -16l-16 -13l-9 2l-13 -8l12 -12l14 -22l7 -24l-1 -15l-11 -15l-16 -14l-12 -15l9 -15l15 -13l9 -9l2 -10l6 -10l4 -12l-4 -15l-10 -12
l-43 -23l-5 -6l10 -10l20 -12v-8l14 -9l12 -37l-7 -27l-5 -5l-15 -7l8 -16l-9 -5l-11 8l-7 20l10 24l17 20l-40 38l-8 19l-8 11l8 21l12 17l15 7l18 15l4 12l-18 9l-14 17l-8 20l8 30l7 15l7 8l16 9l5 8l-34 37l-3 17l8 14l21 12l13 2l-5 11l-4 15h-7l-6 13l-14 11l6 28
l12 4l10 9l15 4l-12 11l-20 12v8l-8 4l4 25l13 19l12 10l19 4v0zM299 524l14 -28l4 -39l-4 -30l-9 -52l-7 -30l28 -8l50 -3l17 -7l8 6l49 -6l26 -14l28 -41l-6 -15l-14 -16h-24l-58 -5l-52 -17h-17l-13 10l-17 35l-4 31l-8 -4l-5 -28l2 -31l5 -12l-3 -37l-9 -28l-1 -31
l-5 -24l2 -35l120 4h41l62 -5l28 -23l29 -20l25 -44l-6 -25l-23 4l-21 15l-56 -7l-46 2l-29 -5h-20l-25 -10l-20 -3l-14 8l-12 -1l-18 16l-27 9l-3 12l-10 1l-30 -46l-10 -8l-15 -1l-18 -13l-3 11v85l-6 52l-1 48l-5 84l1 90l12 112l-5 8l9 96l-5 6l-26 -5l-28 1l-29 15
l-17 27l-4 32l-8 37l17 -11l20 -4l24 6l29 -3l28 7l26 2l38 -4l22 11l47 -4l23 5l20 -6l43 3l75 -25l54 -42l-5 -18l-63 2l-38 6h-44l-36 -5l-31 -8l-13 -12v0zM79 669l40 -10l70 9l29 3l21 -2l14 3l33 -4l13 8l34 2l22 -3l36 -2l48 -11l22 -11l21 -7l14 -8l7 -11l-8 -9
l-18 9l-20 14l-49 9l-53 5l-62 -1l-77 -5l-33 -4l-32 -6l-19 -6h-24l-24 5l-21 3l-18 6l-9 8l24 12l19 4v0zM268 896q5 -3 9 -3.5t8 -0.5t7 -0.5t6 -2.5q7 -3 9.5 -4.5t3.5 -1.5q1 -1 1 -1.5v-1.5q1 -1 1 -3t2 -5l15 -13q1 -2 2.5 -4t2.5 -4q1 -1 2 -1.5t1 -1.5q2 -2 3 -4
l2 -4q6 -5 11.5 -11.5t9.5 -16.5l17 -17l17 -16l10 -18l8 -19q-1 0 -1 -1.5v-3.5v-2.5v-3.5v-0.5v-0.5v-0.5v-0.5q-1 0 -1 -0.5v-0.5q-1 0 -3.5 0.5t-4.5 0.5q-2 1 -4 1.5t-3 0.5q-1 1 -2 1.5l-1 0.5l-20 22l-21 16l-20 27l-17 14l-8 14l-19 19l-11 -10l-12 -19q-1 -2 -1 -3
v-2v0v0q0 -1 0.5 -1h0.5q0 -1 -3.5 -3.5t-14.5 -16.5q-1 -2 -2.5 -3.5t-2.5 -3.5q-2 -4 -5 -7t-9 -5l-6 -8q-7 -1 -11.5 -3.5t-7.5 -9.5h-3l-7 -4l-7 -7l-10 -10l-11 -5l-1 -8l-12 -3q-8 0 -11.5 2.5t-3.5 7.5q0 8 2.5 17.5t7.5 19.5q3 5 7.5 10t9.5 11v0h1q5 7 10 12.5
t8 10.5q4 3 6 5t3 4v1.5v0.5l2.5 5t4.5 8q1 1 1.5 2t1.5 2q5 5 8.5 7.5t2.5 1.5l14 18l6 13l13 12l19 12v0z" />
    <glyph glyph-name="Edieresis" unicode="&#xcb;" horiz-adv-x="590" 
d="M140 497l15 -6l-7 -14l-13 -5l-11 -12l-5 -9l-8 -7l34 -23l10 -12l-3 -24l-16 -4l-12 -12l-15 -1l15 -13l11 -14l6 -13l4 -16l-4 -16l-16 -13l-9 2l-13 -8l12 -12l14 -22l7 -24l-1 -15l-11 -15l-16 -14l-12 -15l9 -15l15 -13l9 -9l2 -10l6 -10l4 -12l-4 -15l-10 -12
l-43 -23l-5 -6l10 -10l20 -12v-8l14 -9l12 -37l-7 -27l-5 -5l-15 -7l8 -16l-9 -5l-11 8l-7 20l10 24l17 20l-40 38l-8 19l-8 11l8 21l12 17l15 7l18 15l4 12l-18 9l-14 17l-8 20l8 30l7 15l7 8l16 9l5 8l-34 37l-3 17l8 14l21 12l13 2l-5 11l-4 15h-7l-6 13l-14 11l6 28
l12 4l10 9l15 4l-12 11l-20 12v8l-8 4l4 25l13 19l12 10l19 4v0zM299 524l14 -28l4 -39l-4 -30l-9 -52l-7 -30l28 -8l50 -3l17 -7l8 6l49 -6l26 -14l28 -41l-6 -15l-14 -16h-24l-58 -5l-52 -17h-17l-13 10l-17 35l-4 31l-8 -4l-5 -28l2 -31l5 -12l-3 -37l-9 -28l-1 -31
l-5 -24l2 -35l120 4h41l62 -5l28 -23l29 -20l25 -44l-6 -25l-23 4l-21 15l-56 -7l-46 2l-29 -5h-20l-25 -10l-20 -3l-14 8l-12 -1l-18 16l-27 9l-3 12l-10 1l-30 -46l-10 -8l-15 -1l-18 -13l-3 11v85l-6 52l-1 48l-5 84l1 90l12 112l-5 8l9 96l-5 6l-26 -5l-28 1l-29 15
l-17 27l-4 32l-8 37l17 -11l20 -4l24 6l29 -3l28 7l26 2l38 -4l22 11l47 -4l23 5l20 -6l43 3l75 -25l54 -42l-5 -18l-63 2l-38 6h-44l-36 -5l-31 -8l-13 -12v0zM79 669l40 -10l70 9l29 3l21 -2l14 3l33 -4l13 8l34 2l22 -3l36 -2l48 -11l22 -11l21 -7l14 -8l7 -11l-8 -9
l-18 9l-20 14l-49 9l-53 5l-62 -1l-77 -5l-33 -4l-32 -6l-19 -6h-24l-24 5l-21 3l-18 6l-9 8l24 12l19 4v0zM209 842q4 -1 6.5 -1.5t4.5 -0.5h1.5h0.5q1 0 2 0.5t1 -0.5q2 0 5 -1t10 -6l9 -14l20 -8l1 -18l-13 -6l2 -11l-9 -9l-4 -9l-12 -2l-15 -8l-23 -6l-11 -6l-4 -5
l-11 8q0 17 2 26.5t4 14.5q1 4 2.5 6.5t2.5 4.5q2 2 3.5 4t2.5 4q1 1 1 2t1 2q0 1 0.5 2.5t1.5 3.5l6 9l-1 8l1 4l12 12v0zM366 844l20 -3l19 -9q0 -1 2.5 -2.5t5.5 -3.5l0.5 -0.5t1.5 -0.5q4 -2 7 -4l3 -2q0 -3 1.5 -5.5t2.5 -5.5q2 -3 3 -6.5t1 -6.5t-1 -5.5t-3 -4.5
q-6 -1 -10.5 -4t-7.5 -6q-2 -3 -4 -5.5t-3 -3.5l-13 -11h-14l-19 -10l-13 -9l-8 6l-1 22q2 7 3.5 11.5l2.5 7.5q2 4 4.5 5.5t3.5 2.5q3 1 4.5 3.5t2.5 10.5q0 5 -1 11.5t-5 13.5l15 14v0z" />
    <glyph glyph-name="Igrave" unicode="&#xcc;" horiz-adv-x="512" 
d="M253 -124q0 -3 -1.5 -7t-4.5 -8q-4 -5 -11.5 -10t-19.5 -11l-5.5 -5.5l-4.5 -4.5q-1 -1 -3 -2t-3 -2q-2 -1 -4.5 -2.5t-5.5 -2.5q1 1 -0.5 -0.5t-4.5 -3.5q-4 -1 -9 -2.5t-11 -1.5q-4 0 -9 1t-10 3v1l-31 3l-11 7l14 11q1 1 1.5 1h0.5q5 1 9 2t7 3q6 2 13.5 8t20.5 17
q22 14 33.5 20.5t21.5 9.5q2 1 4.5 1.5t4.5 0.5q0 1 1 1.5t3 0.5q1 0 3 -1.5t4 -4.5t4 -7t3 -8q1 -1 1 -3v-3v-1zM211 695h47l44 -7l52 -14l11 -5q29 -12 43 -23.5t14 -22.5q0 -2 -0.5 -6.5t-1.5 -8.5q-1 -2 -1 -3.5t-1 -2.5l-13 -38l-7 -56l-4 -20v-30l-7 -32l5 -22l-2 -45
l15 -146v-48l-7 -48l-8 -24v-22l-12 -37l-5 -22q0 -7 -0.5 -10t-2.5 -6q-2 -2 -5 -4t-7 -5q-5 -7 -7 -13.5t-3 -12.5q-1 -5 -2.5 -9.5t-6.5 -7.5l-13 31l2 -23l-35 -92l-2 22l-9 168l2 111l-1 70l-16 173l-25 228q-1 6 -1.5 10.5t-1.5 7.5q-1 7 -2.5 10t-5.5 5q-1 1 -2 1.5
t-2 0.5l-14 8l-19 18l17 2v0zM258 -27v-5t1 -6v-4v-4q0 -3 -0.5 -5t-1.5 -4q-3 -4 -9 -8.5t-19 -11.5l-61 -32l-24 -9l-45 8q-4 2 -6.5 3.5t-2.5 3.5l1 1t3 2t5.5 2t6.5 1l32 27q2 3 9 7.5t35 18.5l26 14l26 8l24 -7v0zM194 4l-56 -18q-11 -1 -17.5 -3.5t-8.5 -3.5t-4 -1.5
t-3 -0.5q-1 -1 -2.5 -1.5t-2.5 -0.5q-2 -1 -4 -1.5t-4 -0.5q-4 1 -9.5 2.5t-13.5 5.5l8 -1l78 49q2 2 8.5 4.5t18.5 6.5q14 8 25 11.5t18 3.5t11.5 -2t8.5 -5l0.5 -0.5t1.5 -0.5l1.5 -1.5t1.5 -0.5q7 -5 6 -9t-4 -7l-1 -0.5l-1 -0.5l-56 -24v0zM238 124q3 -6 4 -10t1 -6
q0 -1 -0.5 -2l-1.5 -3q-2 -2 -6.5 -4t-12.5 -6l-59 -19l-38 -18q-2 0 -6.5 -1t-9.5 -4q-5 -2 -9.5 -5t-6.5 -6l-16 -4l-8 12l14 15l23 11l46 32q17 12 36 18t39 6h3.5t3.5 -1l2 -2t2 -3v0zM253 200l-15 -12l-4 -12l-26 -17l-40 -7l-67 -6l-52 -21l-9 8q1 2 4 7.5t8 11.5
q2 4 4.5 7t4.5 6q2 2 3.5 3t2.5 2l39 18l60 17l48 8l12 -3q1 2 2.5 2.5t5.5 0.5q7 0 11 -2.5t8 -10.5v0zM174 314l12 -2q18 -3 24 -8.5t6 -15.5q0 -3 -0.5 -6t-2.5 -8l-13 -6l-19 -13q-1 -1 -2.5 -1h-3.5q-3 0 -8 1t-12 3q-2 0 -16 1t-70 4l-26 -8l-14 1l48 48l49 8l48 2v0z
M189 407l30 1h2.5h2.5q2 0 4 -1t2 -5q0 -3 -1 -7t-3 -9q-1 -3 -4 -6l-6 -6q-4 -3 -7.5 -6t-2.5 -4l-19 -12l-21 5l-86 11l-61 4l-19 -2l3.5 3t7.5 7l2 2t1 2q3 3 4.5 5.5t2.5 4.5l20 9l17 4l16 1q-1 0 2.5 1l10.5 3q5 1 12.5 2t14.5 1h1.5h1.5h9t8 -2l55 -6v0zM122 517
q18 -3 31 -5t22 -4q12 -2 19 -5t13 -9q4 -3 8 -7.5t9 -10.5l-10 -13l-30 -23q-4 -1 -7.5 -1h-7.5q-9 0 -15.5 1.5t-11.5 2.5q-3 1 -5 2t-3 2q-32 18 -54.5 24.5t-43.5 7.5h-6h-6q24 22 40.5 31t26.5 9l31 -2v0zM74 615l59 -11l77 -26q6 -2 8 -5.5t2 -6.5q0 -5 -4.5 -9.5
t-10.5 -6.5q0 -1 -0.5 -1h-1.5l-32 -3l-28 7l-33 17l-16 10l-54 17h0.5h1.5q3 1 8.5 6t23.5 12v0zM93 717l72 -27l14 -10l29 -32q2 -2 3.5 -5t2.5 -6t1.5 -6t0.5 -5q0 -8 -3 -13t-7 -6h-2h-2t-2.5 1t-2.5 2l-43 32l-66 62l-13 7l18 6v0zM282 809q2 2 5.5 -3t18.5 -16l17 -9
v0v0q1 0 4 -2t11 -13l1 -9l15 -11l-0.5 -1t-0.5 -2v-2v-2q-1 -3 -3 -5t-7 -2q-4 0 -9.5 1.5t-14.5 5.5l-27 24l-37 20l-39 25l-37 18l-17 14l-20 12l-17 23l8 9l15 -1q4 8 11.5 11t15.5 3q3 0 6 -0.5t6 -1.5h2.5h2.5q4 0 11 -3t19 -15l23 -16l18 -26l12 -11q0 -1 0.5 -3
t1.5 -4q1 -3 2 -5.5t3 -2.5v0z" />
    <glyph glyph-name="Iacute" unicode="&#xcd;" horiz-adv-x="512" 
d="M253 -124q0 -3 -1.5 -7t-4.5 -8q-4 -5 -11.5 -10t-19.5 -11l-5.5 -5.5l-4.5 -4.5q-1 -1 -3 -2t-3 -2q-2 -1 -4.5 -2.5t-5.5 -2.5q1 1 -0.5 -0.5t-4.5 -3.5q-4 -1 -9 -2.5t-11 -1.5q-4 0 -9 1t-10 3v1l-31 3l-11 7l14 11q1 1 1.5 1h0.5q5 1 9 2t7 3q6 2 13.5 8t20.5 17
q22 14 33.5 20.5t21.5 9.5q2 1 4.5 1.5t4.5 0.5q0 1 1 1.5t3 0.5q1 0 3 -1.5t4 -4.5t4 -7t3 -8q1 -1 1 -3v-3v-1zM211 695h47l44 -7l52 -14l11 -5q29 -12 43 -23.5t14 -22.5q0 -2 -0.5 -6.5t-1.5 -8.5q-1 -2 -1 -3.5t-1 -2.5l-13 -38l-7 -56l-4 -20v-30l-7 -32l5 -22l-2 -45
l15 -146v-48l-7 -48l-8 -24v-22l-12 -37l-5 -22q0 -7 -0.5 -10t-2.5 -6q-2 -2 -5 -4t-7 -5q-5 -7 -7 -13.5t-3 -12.5q-1 -5 -2.5 -9.5t-6.5 -7.5l-13 31l2 -23l-35 -92l-2 22l-9 168l2 111l-1 70l-16 173l-25 228q-1 6 -1.5 10.5t-1.5 7.5q-1 7 -2.5 10t-5.5 5q-1 1 -2 1.5
t-2 0.5l-14 8l-19 18l17 2v0zM258 -27v-5t1 -6v-4v-4q0 -3 -0.5 -5t-1.5 -4q-3 -4 -9 -8.5t-19 -11.5l-61 -32l-24 -9l-45 8q-4 2 -6.5 3.5t-2.5 3.5l1 1t3 2t5.5 2t6.5 1l32 27q2 3 9 7.5t35 18.5l26 14l26 8l24 -7v0zM194 4l-56 -18q-11 -1 -17.5 -3.5t-8.5 -3.5t-4 -1.5
t-3 -0.5q-1 -1 -2.5 -1.5t-2.5 -0.5q-2 -1 -4 -1.5t-4 -0.5q-4 1 -9.5 2.5t-13.5 5.5l8 -1l78 49q2 2 8.5 4.5t18.5 6.5q14 8 25 11.5t18 3.5t11.5 -2t8.5 -5l0.5 -0.5t1.5 -0.5l1.5 -1.5t1.5 -0.5q7 -5 6 -9t-4 -7l-1 -0.5l-1 -0.5l-56 -24v0zM238 124q3 -6 4 -10t1 -6
q0 -1 -0.5 -2l-1.5 -3q-2 -2 -6.5 -4t-12.5 -6l-59 -19l-38 -18q-2 0 -6.5 -1t-9.5 -4q-5 -2 -9.5 -5t-6.5 -6l-16 -4l-8 12l14 15l23 11l46 32q17 12 36 18t39 6h3.5t3.5 -1l2 -2t2 -3v0zM253 200l-15 -12l-4 -12l-26 -17l-40 -7l-67 -6l-52 -21l-9 8q1 2 4 7.5t8 11.5
q2 4 4.5 7t4.5 6q2 2 3.5 3t2.5 2l39 18l60 17l48 8l12 -3q1 2 2.5 2.5t5.5 0.5q7 0 11 -2.5t8 -10.5v0zM174 314l12 -2q18 -3 24 -8.5t6 -15.5q0 -3 -0.5 -6t-2.5 -8l-13 -6l-19 -13q-1 -1 -2.5 -1h-3.5q-3 0 -8 1t-12 3q-2 0 -16 1t-70 4l-26 -8l-14 1l48 48l49 8l48 2v0z
M189 407l30 1h2.5h2.5q2 0 4 -1t2 -5q0 -3 -1 -7t-3 -9q-1 -3 -4 -6l-6 -6q-4 -3 -7.5 -6t-2.5 -4l-19 -12l-21 5l-86 11l-61 4l-19 -2l3.5 3t7.5 7l2 2t1 2q3 3 4.5 5.5t2.5 4.5l20 9l17 4l16 1q-1 0 2.5 1l10.5 3q5 1 12.5 2t14.5 1h1.5h1.5h9t8 -2l55 -6v0zM122 517
q18 -3 31 -5t22 -4q12 -2 19 -5t13 -9q4 -3 8 -7.5t9 -10.5l-10 -13l-30 -23q-4 -1 -7.5 -1h-7.5q-9 0 -15.5 1.5t-11.5 2.5q-3 1 -5 2t-3 2q-32 18 -54.5 24.5t-43.5 7.5h-6h-6q24 22 40.5 31t26.5 9l31 -2v0zM74 615l59 -11l77 -26q6 -2 8 -5.5t2 -6.5q0 -5 -4.5 -9.5
t-10.5 -6.5q0 -1 -0.5 -1h-1.5l-32 -3l-28 7l-33 17l-16 10l-54 17h0.5h1.5q3 1 8.5 6t23.5 12v0zM93 717l72 -27l14 -10l29 -32q2 -2 3.5 -5t2.5 -6t1.5 -6t0.5 -5q0 -8 -3 -13t-7 -6h-2h-2t-2.5 1t-2.5 2l-43 32l-66 62l-13 7l18 6v0zM384 903l17 -1l14 -5q2 -3 3.5 -5
t3.5 -4v0v-1q2 -2 4 -4.5t6 -6.5l8 -5q0 -4 -0.5 -7t-1.5 -6l-1.5 -6l-0.5 -2l-12 -6l-12 -6l-17 -5q-2 -1 -3 -3l-2 -4v0v0q-2 -4 -4.5 -6.5t-8.5 -2.5h-1.5h-1.5l-4 -6q-6 -8 -16 -14t-23 -6h-1.5t-1.5 1h-1.5h-1.5l-12 -10l-13 -4l-9 -6l-35 -30h-2l-3.5 -3.5t-3.5 -2.5
q-3 -1 -5.5 -1.5t-6.5 -1.5h-2h-3v9l10 18l73 79q11 16 23.5 30t31.5 18q2 5 4.5 6t4.5 2t4 2.5t3 5.5v0z" />
    <glyph glyph-name="Icircumflex" unicode="&#xce;" horiz-adv-x="512" 
d="M253 -124q0 -3 -1.5 -7t-4.5 -8q-4 -5 -11.5 -10t-19.5 -11l-5.5 -5.5l-4.5 -4.5q-1 -1 -3 -2t-3 -2q-2 -1 -4.5 -2.5t-5.5 -2.5q1 1 -0.5 -0.5t-4.5 -3.5q-4 -1 -9 -2.5t-11 -1.5q-4 0 -9 1t-10 3v1l-31 3l-11 7l14 11q1 1 1.5 1h0.5q5 1 9 2t7 3q6 2 13.5 8t20.5 17
q22 14 33.5 20.5t21.5 9.5q2 1 4.5 1.5t4.5 0.5q0 1 1 1.5t3 0.5q1 0 3 -1.5t4 -4.5t4 -7t3 -8q1 -1 1 -3v-3v-1zM211 695h47l44 -7l52 -14l11 -5q29 -12 43 -23.5t14 -22.5q0 -2 -0.5 -6.5t-1.5 -8.5q-1 -2 -1 -3.5t-1 -2.5l-13 -38l-7 -56l-4 -20v-30l-7 -32l5 -22l-2 -45
l15 -146v-48l-7 -48l-8 -24v-22l-12 -37l-5 -22q0 -7 -0.5 -10t-2.5 -6q-2 -2 -5 -4t-7 -5q-5 -7 -7 -13.5t-3 -12.5q-1 -5 -2.5 -9.5t-6.5 -7.5l-13 31l2 -23l-35 -92l-2 22l-9 168l2 111l-1 70l-16 173l-25 228q-1 6 -1.5 10.5t-1.5 7.5q-1 7 -2.5 10t-5.5 5q-1 1 -2 1.5
t-2 0.5l-14 8l-19 18l17 2v0zM258 -27v-5t1 -6v-4v-4q0 -3 -0.5 -5t-1.5 -4q-3 -4 -9 -8.5t-19 -11.5l-61 -32l-24 -9l-45 8q-4 2 -6.5 3.5t-2.5 3.5l1 1t3 2t5.5 2t6.5 1l32 27q2 3 9 7.5t35 18.5l26 14l26 8l24 -7v0zM194 4l-56 -18q-11 -1 -17.5 -3.5t-8.5 -3.5t-4 -1.5
t-3 -0.5q-1 -1 -2.5 -1.5t-2.5 -0.5q-2 -1 -4 -1.5t-4 -0.5q-4 1 -9.5 2.5t-13.5 5.5l8 -1l78 49q2 2 8.5 4.5t18.5 6.5q14 8 25 11.5t18 3.5t11.5 -2t8.5 -5l0.5 -0.5t1.5 -0.5l1.5 -1.5t1.5 -0.5q7 -5 6 -9t-4 -7l-1 -0.5l-1 -0.5l-56 -24v0zM238 124q3 -6 4 -10t1 -6
q0 -1 -0.5 -2l-1.5 -3q-2 -2 -6.5 -4t-12.5 -6l-59 -19l-38 -18q-2 0 -6.5 -1t-9.5 -4q-5 -2 -9.5 -5t-6.5 -6l-16 -4l-8 12l14 15l23 11l46 32q17 12 36 18t39 6h3.5t3.5 -1l2 -2t2 -3v0zM253 200l-15 -12l-4 -12l-26 -17l-40 -7l-67 -6l-52 -21l-9 8q1 2 4 7.5t8 11.5
q2 4 4.5 7t4.5 6q2 2 3.5 3t2.5 2l39 18l60 17l48 8l12 -3q1 2 2.5 2.5t5.5 0.5q7 0 11 -2.5t8 -10.5v0zM174 314l12 -2q18 -3 24 -8.5t6 -15.5q0 -3 -0.5 -6t-2.5 -8l-13 -6l-19 -13q-1 -1 -2.5 -1h-3.5q-3 0 -8 1t-12 3q-2 0 -16 1t-70 4l-26 -8l-14 1l48 48l49 8l48 2v0z
M189 407l30 1h2.5h2.5q2 0 4 -1t2 -5q0 -3 -1 -7t-3 -9q-1 -3 -4 -6l-6 -6q-4 -3 -7.5 -6t-2.5 -4l-19 -12l-21 5l-86 11l-61 4l-19 -2l3.5 3t7.5 7l2 2t1 2q3 3 4.5 5.5t2.5 4.5l20 9l17 4l16 1q-1 0 2.5 1l10.5 3q5 1 12.5 2t14.5 1h1.5h1.5h9t8 -2l55 -6v0zM122 517
q18 -3 31 -5t22 -4q12 -2 19 -5t13 -9q4 -3 8 -7.5t9 -10.5l-10 -13l-30 -23q-4 -1 -7.5 -1h-7.5q-9 0 -15.5 1.5t-11.5 2.5q-3 1 -5 2t-3 2q-32 18 -54.5 24.5t-43.5 7.5h-6h-6q24 22 40.5 31t26.5 9l31 -2v0zM74 615l59 -11l77 -26q6 -2 8 -5.5t2 -6.5q0 -5 -4.5 -9.5
t-10.5 -6.5q0 -1 -0.5 -1h-1.5l-32 -3l-28 7l-33 17l-16 10l-54 17h0.5h1.5q3 1 8.5 6t23.5 12v0zM93 717l72 -27l14 -10l29 -32q2 -2 3.5 -5t2.5 -6t1.5 -6t0.5 -5q0 -8 -3 -13t-7 -6h-2h-2t-2.5 1t-2.5 2l-43 32l-66 62l-13 7l18 6v0zM277 916q5 -3 9 -3.5t8 -0.5t7 -0.5
t6 -2.5q7 -3 9.5 -4.5t3.5 -1.5q1 -1 1 -1.5v-1.5q1 -1 1 -3t2 -5l15 -13q1 -2 2.5 -4t2.5 -4q1 -1 2 -1.5t1 -1.5q2 -2 3 -4l2 -4q6 -5 11.5 -11.5t9.5 -16.5l17 -17l17 -16l10 -18l8 -19q-1 0 -1 -1.5v-3.5v-2.5v-3.5v-0.5v-0.5v-0.5v-0.5q-1 0 -1 -0.5v-0.5
q-1 0 -3.5 0.5t-4.5 0.5q-2 1 -4 1.5t-3 0.5q-1 1 -2 1.5l-1 0.5l-20 22l-21 16l-20 27l-17 14l-8 14l-19 19l-11 -10l-12 -19q-1 -2 -1 -3v-2v0v0q0 -1 0.5 -1h0.5q0 -1 -3.5 -3.5t-14.5 -16.5q-1 -2 -2.5 -3.5t-2.5 -3.5q-2 -4 -5 -7t-9 -5l-6 -8q-7 -1 -11.5 -3.5
t-7.5 -9.5h-3l-7 -4l-7 -7l-10 -10l-11 -5l-1 -8l-12 -3q-8 0 -11.5 2.5t-3.5 7.5q0 8 2.5 17.5t7.5 19.5q3 5 7.5 10t9.5 11v0h1q5 7 10 12.5t8 10.5q4 3 6 5t3 4v1.5v0.5l2.5 5t4.5 8q1 1 1.5 2t1.5 2q5 5 8.5 7.5t2.5 1.5l14 18l6 13l13 12l19 12v0z" />
    </font>
</defs>
</svg>
