<?xml version="1.0" standalone="no"?>
<!DOCTYPE svg PUBLIC "-//W3C//DTD SVG 1.1//EN" "http://www.w3.org/Graphics/SVG/1.1/DTD/svg11.dtd" >
<svg xmlns="http://www.w3.org/2000/svg" xmlns:xlink="http://www.w3.org/1999/xlink" version="1.1">
<metadata>
Created by FontForge 20170731 at Fri May  9 18:49:12 1997
 By Aleksey,,,
(c) Copyright 1997 International Typeface Corporation. All rights reserved.
</metadata>
<defs>
<font id="DigitalWoodcutsBlackITCTT" horiz-adv-x="744" >
  <font-face 
    font-family="Digital Woodcuts Black ITC TT"
    font-weight="400"
    font-stretch="normal"
    units-per-em="1000"
    panose-1="0 0 4 0 0 0 0 0 0 0"
    ascent="800"
    descent="-200"
    x-height="741"
    cap-height="748"
    bbox="-90 -421 913 948"
    underline-thickness="88"
    underline-position="-224"
    unicode-range="U+0020-F002"
  />
<missing-glyph horiz-adv-x="500" 
d="M63 0v692h375v-692h-375zM125 63h250v567h-250v-567z" />
    <glyph glyph-name=".notdef" horiz-adv-x="500" 
d="M63 0v692h375v-692h-375zM125 63h250v567h-250v-567z" />
    <glyph glyph-name=".null" horiz-adv-x="0" 
 />
    <glyph glyph-name="glyph2" horiz-adv-x="250" 
 />
    <glyph glyph-name="space" unicode=" " horiz-adv-x="250" 
 />
    <glyph glyph-name="exclam" unicode="!" 
d="M688 534l-22 -25l17 -33l-17 -26l19 -121l-5 -24v-187l-8 -63l5 -22l8 -174l-171 -9l-296 3l-14 6l-136 6l7 35l-11 -15l-24 709l25 -313l7 19l-12 82l-3 318h-7v38l12 2l-10 8l92 4h150v-2l-129 -3l160 -10l266 7l-243 8q4 4 9 4h11q4 0 6 5q8 -8 22 -8h281q2 -6 2 -9
q0 -5 -4 -8q2 -1 10 -1v-28q0 -6 -6 -9q4 -20 4 -31q0 -12 -3 -27v-94zM433 638l-48 -375l-2 16l27 333l-96 -21l13 -473h56zM421 12l-72 95l50 -95l-52 52l-53 -72l78 -54zM384 243h-4v8h4v-8z" />
    <glyph glyph-name="quotedbl" unicode="&#x22;" horiz-adv-x="480" 
d="M427 858q-25 -55 -25 -140q0 -32 -19 -181q-14 1 -35 1h-16q-17 0 -17 15q0 4 1.5 14t1.5 16q0 31 -9 76q-12 64 -13 71v10q0 43 -23 142q6 0 22.5 -3t23.5 -3h2q13 0 36.5 2.5t34.5 2.5h10q6 -2 25 -23zM216 858q-25 -55 -25 -140q0 -32 -19 -181q-14 1 -34 1h-16
q-18 0 -18 18q0 3 1.5 12t1.5 15q0 32 -9 78q-12 58 -13 69v10q0 45 -23 142q6 0 22.5 -3t23.5 -3h2q13 0 36.5 2.5t34.5 2.5h10q7 -4 25 -23z" />
    <glyph glyph-name="numbersign" unicode="#" horiz-adv-x="650" 
d="M617 491q-9 -32 -17 -65q-7 -23 -21 -23q-5 0 -16.5 6t-17.5 6t-23 -9t-24 -9q-6 0 -16.5 6t-15.5 6q-30 0 -41 -153q6 -15 15 -15q5 0 19.5 9t23.5 9h53v-61q-18 -14 -53 -14h-8q-11 0 -19 -1q-29 -3 -40 -23q-5 -9 -33 -105q-26 -89 -26 -93t1.5 -20.5t1.5 -28.5
q0 -13 -16 -30q-19 -19 -44 -25q41 129 60 303q-5 0 -14 1h-12.5h-14.5q-9 -1 -13 -1q-44 0 -66 29q-16 -18 -32 -106q-21 -120 -49 -203q-12 3 -27 18l-2 15q24 75 40 157q11 55 21 109q-92 3 -144 16l-14 21h7q33 0 152 26q26 54 34 167q-66 -24 -84 -24q-16 0 -69 25
q-5 20 -19 54q79 19 88 19h105q42 204 78 247q14 -31 19 -68q-16 -5 -24 -51q-14 -82 -27 -124q17 -6 27 -6q8 0 31 5q27 6 45 8q8 29 16 79q8 47 14 65q17 51 69 56q3 -12 3 -28q0 -23 -30 -179q29 -10 53 -10q14 0 40.5 8t38.5 8q8 0 17 -3zM382 425q-27 6 -92 6
q0 -31 -15 -82q-27 -98 -28 -100h8q6 0 106 -6q4 76 21 182z" />
    <glyph glyph-name="dollar" unicode="$" 
d="M729 452l-21 6v4l21 -6v-4zM721 -88l-7 -22q-3 18 -8 18h-2q-2 -4 -2 -6q0 -5 3 -11l-12 -23h-291l-79 -8l81 -5l-357 -9l-7 7l-4 216l8 -52l-1 86l3 174v132l-5 26l14 15l-14 32l7 17v243l316 10l-319 2v3l639 -4v-3h-74l75 -17l-3 -11q13 -7 14 -22l9 -209l11 -12
l-20 -14q4 -11 17 -19l-14 -26l-11 -105l14 -148l-14 -50l3 -64q1 -12 4.5 -29t3.5 -24q0 -11 -5 -21l8 -34q2 -6 2 -9v-5q0 -13 17 -19zM35 505l-4 -13l-10 7zM22 108h-4l-3 6l4 2zM520 478v33h-4v-33h4zM518 226q-6 43 -53 77q-30 22 -61 43q-47 35 -90 75v34
q0 11 22.5 28.5t58.5 27.5l103 -41l14 60l-71 21h-43l25 91h-81l17 -93q-62 -20 -87 -39q-29 -22 -30 -57l5 -44l198 -198v-32l-71 -69l-120 75l-26 -85l54 -20l39 -3l35 -11l-11 -111l89 11l-27 77v-39l-15 52q8 10 33 21q31 14 44 23q13 23 23 34q7 23 20 44zM297 -140v5
h-77v-5h77zM53 -31v32h-5v-32h5zM191 -139l-34 10l-35 -10h69zM50 -79v36h-5v-36h5z" />
    <glyph glyph-name="percent" unicode="%" 
d="M709 718l-14 -588v-264h-127l-48 5h-198l-16 -9h334l-562 -18q5 8 5 11q0 7 -12 7q-5 0 -8 -1v241l-5 22v29h-28l39 33l-20 3l14 18l-14 32l12 28l-9 38l1 228q11 16 11 26q0 8 -6 23q-7 6 -14 20l19 46v60l102 7h-102l28 20l73 -4h62l22 6l334 4l123 -3q-4 -7 -4 -11
q0 -5 8 -9zM700 392v36h-6v-36h6zM700 276v42h-6v-42h6zM226 716l-5 5h-45l5 -5h45zM363 485v4q0 26 -17 56q-21 37 -60 53l-35 -3q-28 -15 -62 -41q-7 -25 -21 -79l8 -54l44 -80h73q13 0 38 38q32 47 32 106zM561 600l-70 26l-164 -350l100 191l-225 -469l72 -39
q103 268 145 367q75 174 142 274zM601 99v71q0 31 -39 63q-36 29 -58 29q-29 0 -66 -36q-16 -16 -28 -53q-10 -29 -10 -43v-1l5 -53q2 -26 38 -51.5t64 -25.5q29 0 61.5 32.5t32.5 67.5zM306 444q0 -26 -11 -43.5t-27 -17.5q-17 0 -33 17t-16 34q0 1 21 106q9 4 25 16
l41 -24v-88zM547 116l-13 -66q-13 -9 -23 -9q-20 0 -34.5 18t-14.5 40v4l7 93l30 12q8 -2 29 -10q8 -28 19 -82z" />
    <glyph glyph-name="ampersand" unicode="&#x26;" 
d="M109 745h-24v5h24v-5zM715 156l-31 3l-8 -55v-250h-28l17 -12l-553 16l325 2l-28 6l-347 -2v269l-6 36l-5 -127l-8 491l-8 181l32 -4l-24 26h221l-25 -7l166 13h-177l36 8h420q-5 -7 -5 -11q0 -6 8 -11v-417l-8 -38l11 -29l-14 -33l14 -18l-20 -3zM46 -4l-5 -5l-6 11l9 3
zM680 397v36h-5v-36h5zM587 75l-77 56l32 -36l-73 65l77 158l-68 32l-28 -92l21 39l-29 -91l-76 101q83 123 83 216q0 16 -31 41q-37 31 -85 31q-42 0 -75 -32t-38 -76l-8 -78l63 -75q-71 -74 -96 -161l8 -61q10 -76 130 -93l84 18q12 23 36 68l88 -106zM58 282v42h-5v-42h5
zM389 481l-18 -72q-11 -31 -37 -44l-55 78v27l30 63h60zM400 139l-51 -62h-56l-29 44v102l49 64l86 -132l-43 44z" />
    <glyph glyph-name="quotesingle" unicode="'" horiz-adv-x="300" 
d="M216 858q-25 -55 -25 -140q0 -32 -19 -181q-14 1 -34 1h-16q-18 0 -18 18q0 3 1.5 12t1.5 15q0 32 -9 78q-12 58 -13 69v10q0 45 -23 142q6 0 22.5 -3t23.5 -3h2q13 0 36.5 2.5t34.5 2.5h10q7 -4 25 -23z" />
    <glyph glyph-name="parenleft" unicode="(" horiz-adv-x="420" 
d="M400 -231q0 -15 -50 -69q-20 4 -57 52q-28 30 -77 88q-15 19 -21 49q-12 22 -46 108q-49 142 -49 302q0 398 198 616q54 -31 69 -42q-4 -23 -15 -32q-7 -6 -15 -11q-18 -15 -36 -55q-5 -11 -39 -100q-36 -93 -36 -157q0 -6 -4 -18t-4 -19v-142q0 -10 4.5 -29t4.5 -28
v-105q0 -28 33 -137q8 -28 24.5 -59.5t35.5 -81.5q13 -35 21 -42q8 -21 35 -52q24 -26 24 -36z" />
    <glyph glyph-name="parenright" unicode=")" horiz-adv-x="420" 
d="M320 317q0 -404 -198 -616q-30 18 -68 42q2 12 10 29q47 12 108 209q19 60 22 116q0 8 4 20t4 17v143q0 8 -4.5 27t-4.5 30v105q0 21 -33 138q-7 23 -24 59q-14 29 -36 84q-13 34 -21 39q-7 21 -35 52q-24 26 -24 36q0 13 50 69q21 -7 57 -52q29 -31 75 -86
q17 -22 23 -50q12 -23 47 -112q48 -138 48 -299z" />
    <glyph glyph-name="asterisk" unicode="*" horiz-adv-x="386" 
d="M336 639l-42 -70l-50 49l42 -55l-98 109l-65 -93l-64 50l115 73l-63 23q5 -7 45 -24l-106 35l30 72l84 -59l-30 130l102 6l-26 -123l66 72q20 -28 31 -36q-1 3 -24 44l48 -68l-103 -70z" />
    <glyph glyph-name="comma" unicode="," horiz-adv-x="300" 
d="M247 -36q-37 -51 -60 -99q-10 -21 -20 -43q-12 -17 -33 -51q-22 -39 -41 -86q-9 -24 -17 -24q7 0 -56 21q13 63 48 176q27 86 27 122q0 12 -1 17q33 11 32 11q6 0 45 -19.5t76 -24.5z" />
    <glyph glyph-name="hyphen" unicode="-" horiz-adv-x="376" 
d="M342 359l-3 -146q-18 -7 -34 -8q-123 25 -136 25q-32 0 -127 -18q-8 14 -8 25q0 10 5.5 40t5.5 50q0 15 -1 23q12 9 26 9q11 0 33.5 -5t32.5 -5q7 0 24.5 5t26.5 5q7 0 36 -3.5t51 -3.5q40 0 68 7z" />
    <glyph glyph-name="hyphen" unicode="&#x2010;" horiz-adv-x="376" 
d="M342 359l-3 -146q-18 -7 -34 -8q-123 25 -136 25q-32 0 -127 -18q-8 14 -8 25q0 10 5.5 40t5.5 50q0 15 -1 23q12 9 26 9q11 0 33.5 -5t32.5 -5q7 0 24.5 5t26.5 5q7 0 36 -3.5t51 -3.5q40 0 68 7z" />
    <glyph glyph-name="period" unicode="." horiz-adv-x="300" 
d="M230 -32q-11 -86 -11 -110q0 -12 4 -30q-13 -1 -30.5 -2.5t-22.5 -1.5q-6 0 -21 3.5t-23 3.5q-12 0 -43 -10l-4 4q4 28 4 58q0 45 -13 87q20 2 39 5q16 2 17 2q6 0 23.5 -4.5t28.5 -4.5q8 0 46 5z" />
    <glyph glyph-name="slash" unicode="/" horiz-adv-x="550" 
d="M592 874l-570 -1188q-40 13 -97 53q44 -23 57 -23h3q-9 7 -21 18l513 1096l-165 -387l224 458z" />
    <glyph glyph-name="zero" unicode="0" 
d="M711 -122q0 -6 -7 -16q1 -2 1 -5q0 -8 -26 -15l-40 6h-236q-11 0 -23 -9q-2 11 -30 17h259v5l-404 5l-45 -13h136l-146 -11l-109 17l1 42l11 79l16 25l-17 35v74l5 23v196l-6 49l-18 -164l26 498q1 3 1 9q0 8 -2 12l150 9l24 3l296 3l180 -12l-14 -123l6 -19v-29l6 -238
l-7 -75q1 -3 1 -9q0 -14 -11 -25l17 -26l-17 -33l17 -32l-9 -38l9 -165l-4 -26q9 -12 9 -24zM544 281l-9 141q-14 65 -38 100.5t-74 56.5l-63 6q-56 -27 -83.5 -63t-45.5 -100l-12 -162q-1 -20 21 -96q12 -41 37 -69q57 -65 123 -65q13 0 91 27q34 81 38 112zM474 188
l-14 129l1 -160l-38 -45q-70 6 -104 63l-8 107v-64l-9 128l46 151h57q22 0 33 -17q4 -6 23 -52z" />
    <glyph glyph-name="one" unicode="1" 
d="M706 246l-6 119l6 28v-147zM709 -144l-4 -7l-3 276l3 -10zM46 706l-3 -118l-1 118h4zM718 663q-9 -6 -9 -20l-5 -207l-9 -36l-17 -558h-51l-111 6q-15 0 -20 -20l-21 29h-25l-24 -17l-19 14l-39 -7h-90l-43 -13h-191v444l-15 31l6 24l1 63l-8 44l7 25l7 121v-158h6l2 317
l108 -8l124 2l25 2l101 6l27 -6h37l21 6l11 -15l14 15l17 -12l24 3l26 -10h115zM470 -168q-10 -4 -13 -4q-9 0 -9 8q0 3 2 9zM39 -163l-11 102l11 164v-266zM473 2l-21 467v-305l-22 419l-257 -218l117 -101l-59 72l58 -51l79 131v-57l-23 -357h128zM47 308v64h-5v-64h5z
M458 109h-5v26h5v-26z" />
    <glyph glyph-name="two" unicode="2" 
d="M699 753h-258l146 11zM727 445l-11 -49l-17 -213l11 -26l-11 -49l11 -55l-20 -37l20 -32l-14 -38l11 -40l-19 -16q0 -1 5 -8l6 -18l-307 -3l294 -7l-617 -5v109l-8 64q-3 10 -12 17l14 11l-14 14l6 21v291l-17 72v199l-4 98q0 16 28 16h31l40 8l181 -11l40 8l46 -23h302
v-298h25zM718 -154l-4 -11l-7 17l7 3zM31 26h-12l-6 20l8 2zM570 28l-13 118l-203 -25q146 137 171 238l-3 112q-39 57 -66 78q-34 27 -88 31l-184 -75h43l-19 -10l63 -111l87 108h26q10 0 51 -27q12 -62 12 -56q0 -126 -238 -332l172 -13h-116zM279 -144v7h-53v-7h53z" />
    <glyph glyph-name="three" unicode="3" 
d="M53 761l-16 -6v8l12 6zM706 494l-12 -56l-6 69l-4 -24v-178l9 -19v124l12 -101l-7 -147l-8 -43l-7 -131v92h-5l-1 -220l-65 -4l-40 9l-118 -1l-24 -2l-96 -6l-26 6h-36l-20 -5l-10 14l-14 -15l-9 14l-29 -5l-25 10h-110l-17 64l9 9v223l7 -188l1 182l5 31v255l-8 20
l-3 238l3 33l4 -218l6 36l4 197q8 -10 15 -18l150 -2l13 6l5 9h5l22 5l70 -26l26 6h48l24 10q2 -11 11 -11q1 0 2 1h1l41 14l207 -9v-248zM683 -103h-4l4 81v-81zM52 204h-4v142h4v-142zM694 192v71h-5v-71h5zM554 141q0 15 -15 80q-23 21 -59 63q68 79 68 151q0 21 -38 75
q-13 19 -47 39q-27 16 -33 16l-101 -9l-74 -49l40 48l-82 -50l45 -122l112 110q23 -7 57 -20q35 -56 35 -63q0 -12 -21 -71q-17 -9 -68 -35v-81h60l38 -93l-57 -61h-59q-58 16 -97 72l-58 -87l117 -48l104 9q15 1 46 19t45 36q42 54 42 71z" />
    <glyph glyph-name="four" unicode="4" 
d="M708 -128l-28 -11l-25 5l-497 -12l534 -1v-4l-629 -2l-10 21l9 197l-3 39l17 36l-14 25l14 15l-14 11l-9 378l6 36v141l54 13l203 -20l379 13l10 -19l-9 -80v-47l8 58zM50 56l-10 8l-4 16l11 -11zM700 512v90h-5v-90h5zM697 475v30h-5v-30h5zM588 188v124l-143 -36
l-44 345l-237 -396l192 -16l-17 -217l127 13l-27 152v-95l-17 144zM359 276h-85l17 35l-19 -22l87 149v-162z" />
    <glyph glyph-name="five" unicode="5" 
d="M717 439l-11 -27v-129l9 -71l-3 -112l-11 -138l8 -42l-2 -65l-62 -19l-61 12h-42l-52 12l-117 -3l-62 -15l-86 -6l-24 6l-34 -9l-51 6l-47 -4l-23 2l-17 441l26 -308l7 21l-8 38v21l-11 323l14 370l151 9l24 3l298 3l179 -11v-69l6 -24v-92l-17 -29l17 -26l-12 -26z
M588 599l-33 -95l11 71l-309 -14l-25 -365l35 324l-18 -330l110 50l70 -18q20 -39 20 -64v-3l-3 -52q-14 -29 -44 -40q-14 -6 -71 -17l-76 55l-58 -102l142 -27q160 36 187 146l9 68l-67 106h-131l8 190l212 -44z" />
    <glyph glyph-name="six" unicode="6" 
d="M718 753l-20 -69l-9 -168l10 -43l15 128l-32 -722q-3 -6 -3 -10q0 -3 4 -11l-176 -12l-299 -3l-182 12l11 201l-2 27v30l-6 236l7 75l7 33l-13 23l5 21l-6 35l3 19l-3 124l12 68l228 7l10 -21l18 7l46 -1l27 15l164 -6h158zM701 406l-4 48h-5l4 -48h5zM264 749l-54 -6
l22 -10zM566 462l-30 113q-146 -53 -224 -123q-82 -72 -114 -181l-8 -115l69 -105q102 -36 106 -36q-1 0 104 30q29 33 54 73l8 94q-21 52 -54 77t-95 41l-78 -21q85 123 213 148l-83 -35zM448 150q0 -1 -27 -50q-47 -21 -49 -21q-40 0 -88 64l18 102l91 21l55 -77v-39z" />
    <glyph glyph-name="seven" unicode="7" 
d="M707 470l-9 -111v-295l-5 -19l11 -193l-177 -9l-313 6l-144 16l-4 19l-7 254v329l-22 -268l14 526l94 15l109 -10l28 14h95l56 -11l261 -10l12 -23l-11 -21l6 -31l-3 -38l4 -87l-9 -20zM606 718v5h-169v-5h169zM222 723v5h-55v-5h55zM573 524l-359 -20l43 -100l249 68
l-208 -440l102 -56l136 407l-79 -209z" />
    <glyph glyph-name="eight" unicode="8" 
d="M712 132l-8 -28l-9 -105v-45l11 -34l-17 -65h-272l97 -5h-482l11 219l-3 26v29l-6 230l7 71q-3 5 -3 8q0 7 13 26l-17 25l17 31l-16 31v180l71 18h229l-65 -11l44 -9l42 7l277 2l56 7zM675 654l-6 10l-17 -9l5 -10zM545 172q-27 58 -114 130l100 149q-6 32 -16 72
q-36 43 -66 60q-34 19 -86 21q-66 -32 -100 -70.5t-47 -100.5l8 -66l68 -76l-82 -143q15 -66 50 -108q32 -37 62 -37h3l63 -5q19 0 90 20q58 69 58 88v1zM388 -142v5h-13v-5h13zM346 -140v5h-11v-5h11zM448 410q-5 -8 -43 -74l-37 -12q-8 1 -55 31l-18 72l32 95l95 14
l26 -67v-59zM473 137l-61 52l56 -71q-21 -66 -55 -69l-17 -3l-40 -2l-54 37v106l51 68q50 -3 120 -118z" />
    <glyph glyph-name="nine" unicode="9" 
d="M718 326l-12 -47l-1 -168q1 -3 1 -9q0 -15 -11 -26l17 -26l-17 -32l17 -32l-12 -65l12 -60l-186 -12l-320 6l-168 20l6 27l8 84l14 35l-17 28l-6 87q12 8 12 15v2l-8 85q-8 -4 -11 -28l-10 34l31 488q1 3 1 9t-3 12l80 9h75l50 -8l51 9l30 -18q35 6 36 18q10 -8 29 -9
l290 -10q10 -17 10 -26t-8 -19l5 -32q-7 -24 -7 -59q0 -11 2 -39l10 109zM547 321l-20 129q0 27 -32 48l-82 48l57 -48l-115 59h-37q-45 0 -104 -136l-3 -107q34 -51 59 -82q5 -2 89 -25l86 45l14 -62q-12 -72 -37 -109q-26 -41 -86 -72l90 -75l104 230zM51 326v143
l-12 -173zM453 402l-20 13l12 -30v-56q0 -11 -19.5 -25t-33.5 -14q-1 0 -91 18q-16 29 -27 65l12 81l98 33z" />
    <glyph glyph-name="colon" unicode=":" horiz-adv-x="300" 
d="M234 230q-17 -2 -37 -5q-16 -2 -18 -2q-5 0 -24 5t-32 5q-2 0 -42 -5l-6 6q10 92 10 109t-3 30q62 4 52 4q5 0 20.5 -3.5t24.5 -3.5q16 0 42 10l5 -4q-4 -25 -4 -58q0 -47 12 -88zM226 -33q-11 -105 -11 -109q0 -12 4 -30q-13 -1 -30.5 -2.5t-22.5 -1.5q-6 0 -21 3.5
t-23 3.5q-12 0 -43 -10l-4 4q4 25 4 58q0 45 -13 87q20 2 39 5q16 2 17 2q6 0 23.5 -4.5t28.5 -4.5q4 0 46 5z" />
    <glyph glyph-name="semicolon" unicode=";" horiz-adv-x="300" 
d="M227 230q-17 -2 -37 -5q-16 -2 -18 -2q-5 0 -24 5t-32 5q-2 0 -42 -5l-6 6q10 92 10 109t-3 30q62 4 52 4q5 0 20.5 -3.5t24.5 -3.5q16 0 42 10l5 -4q-4 -25 -4 -58q0 -47 12 -88zM247 -36q-37 -51 -60 -99q-10 -21 -20 -43q-12 -17 -33 -51q-22 -39 -41 -86
q-9 -24 -17 -24q-3 0 -18 6q-20 9 -38 14q13 64 48 176q27 87 27 123q0 12 -1 17q33 11 32 11q6 0 45 -19.5t76 -24.5z" />
    <glyph glyph-name="question" unicode="?" 
d="M709 531l-23 -25l18 -34l-18 -25l21 -122l-7 -24v-187l-8 -63l6 -22l8 -175l-183 -9l-318 3l-14 6l-146 7l6 6v28l-11 -15l-26 711l27 -312l7 20l-12 79l-3 313l-8 6v37h2q8 0 8 4q0 6 -8 7l99 4h161l-138 -5l172 -11l284 8l-238 7l5 10q13 -8 24 -8h301q3 -6 3 -9
q0 -5 -5 -8q3 -3 7 -3q1 0 2 1h2v-27q0 -7 -6 -9q4 -11 4 -27t-4 -31v-94zM530 490q-29 73 -62 97t-106 24q-79 0 -147 -89l54 -72l70 103h62q62 -55 71 -135l-16 -45h-29q-1 -23 -20 -31q-6 -3 -55 -14l-24 -206h89l-17 116l106 133l-50 -88l65 71zM423 8l-77 95l54 -99
l-56 55l-56 -72l82 -54z" />
    <glyph glyph-name="at" unicode="@" 
d="M723 755l-15 -10l-7 6l17 9zM708 -87l-7 -1l-3 -42q1 -1 1 -4q0 -7 -26 -16l-40 6h-238l-14 -9l-26 17l302 -2l2 2l-619 7l8 49v172l17 36l-15 22l15 14l-16 12v572l79 12l27 -7l527 -4l-508 -2l523 -19v-448l-9 -43l9 -52v-261zM39 47l-10 8l-3 15l10 -9zM239 -140
l-58 -10h-31l-111 10h200zM692 378v28h-5v-28h5zM692 285v86h-6v-86h6zM567 372v123l-57 59l-97 26l-77 -11q-33 0 -118 -71q-18 -15 -30 -46q-5 -16 -20 -73l-5 -131q0 -75 41.5 -133t102.5 -62l89 -15l60 15h7q23 0 44 20q9 9 43 54l-15 24l-113 -72l-148 42l54 -8
q-2 1 -50 16q-26 8 -37 18q-19 17 -23 54.5t-7 73.5l-9 59l62 157q33 16 81 29l-56 -29l146 46q30 -17 59 -35q22 -15 23 -30l14 -100l-17 -109l-19 -28h-41v214q-5 -4 -11 -4q-4 0 -9.5 2.5t-8.5 2.5q-49 0 -91 -50q-45 -54 -45 -126v-76h53l69 139v-92l30 -59h29
q26 0 55 33q33 38 37 90zM426 420l-98 -189l9 73q22 97 47 108h21z" />
    <glyph glyph-name="A" unicode="A" 
d="M728 554h-9l-4 13l8 1zM37 743l-8 -2l-5 14h8zM713 -131l-14 -4l11 -8l-6 -8q-31 -2 -77 -2h-112q-66 1 -86 1q-26 0 -45 -4l-27 12l293 4l-608 3q-1 43 -5 94q-4 46 -4 53q0 -3 10 131q10 150 15 312l-14 15l17 18v30q-13 6 -28 20l12 4q2 9 8 17v155l-11 3q0 6 -7 13
l542 13l-524 -3l3 10l610 -2q6 -4 10 -7q-1 -33 -3 -68.5t-2 -39.5v-12l14 -14l-3 -34l11 -12l-14 -14l14 -11l-5 -14v-300l17 -59v-132q0 -49 4 -94t4 -42v-24zM48 486l-20 22l16 7zM33 155l-19 21l13 5zM238 -147l-97 -13l-98 13h195zM625 23l-278 577l-174 -569l81 242
l2 -5l-95 -308l67 -14l75 225h163l75 -194zM173 23v7h-5v-7h5zM169 12v8h-5v-8h5zM167 3v7h-6v-7h6zM163 -8v8h-5v-8h5zM466 233l-34 61l-2 -8l32 -64l-144 14l43 211zM267 309l-9 -33h-4l9 33h4z" />
    <glyph glyph-name="B" unicode="B" 
d="M711 4q0 -5 -3 -11l-8 7l10 13q1 -3 1 -9zM708 730l-9 -686q0 50 -3 125l-7 -36v-265h-138l-42 5q-4 2 -7 2q-4 0 -33 -5t-55 -5q-3 0 -26 2q-28 2 -52 3l-29 -4q145 -7 247 -7h41q28 1 41 1l-555 -14l22 18l-36 -2q5 43 5 97q0 53 -5 146l-5 23v29q-1 3 -5 3
q-1 0 -7.5 -1.5t-12.5 -1.5h-3l39 33l-20 3l14 18l-14 32l11 29l-8 38l-6 125l7 135l2 -31q6 12 6 24v9q-1 8 -1 14q-10 8 -16 23l19 46v60l101 7h-100v16h25l3 9l70 -8h61l23 5l450 2q-5 -7 -5 -12t5 -13q1 1 3.5 4t4.5 5zM696 397v36h-5v-36h5zM696 281v41h-5v-41h5z
M264 724v7h-15v-7h15zM217 721v7h-46v-7h46zM553 175v10h-7v-10h7zM552 442q0 45 -37 101q-18 28 -33 35q-25 13 -190 45l-82 -37q0 -3 -1 -8v-6l2 -491l8 404l16 -521l18 -4h27q115 0 179 40.5t85 130.5l2 38l-12 -57q0 48 5 73l3 15q-15 31 -46 52q-30 16 -61 33
q63 42 86 70q31 37 31 87zM469 425q0 -64 -97 -153l12 25l-25 -28h-46l-8 281q8 1 23 1q111 0 138 -78l3 -40v-8zM463 153q0 -28 -15 -66l-62 -68l-17 -3h-48l-13 153l-5 -176l-12 236h12q18 0 43 4.5t32 4.5q14 0 47 -29q38 -31 38 -56z" />
    <glyph glyph-name="C" unicode="C" 
d="M716 762l-3 -16l-15 16h18zM743 644l-17 2l6 18zM740 138l-8 -191l-3 75l-9 -91l13 -57v-10l-90 -9l-57 3l2 -3l125 -13l-663 -3l20 11l-34 -4q-3 3 -3 18v14q0 16 1 84q1 82 2 145q-12 27 -12 41q0 1 2 21t2 40q0 34 -5 67l-3 -35l-10 174q-1 13 10 41q0 -13 3 -28
q4 33 4 55v9l-8 108v106l-3 32l30 -1l7 4l-23 6l663 14l-271 -20q12 -4 27 -4q41 0 97 5.5t71 5.5q99 0 99 -12v-5q-1 -4 -1 -7l-1 -218q0 -51 6 -107l8 193l5 -32zM20 100l-5 -9l-8 3l-2 23q10 -8 15 -17zM726 264l-3 83h-8l3 -83h8zM726 185v22h-8v-22h8zM729 120v51h-8
v-51h8zM600 484q-1 10 -29 58q-119 51 -190 51q-97 0 -159 -87.5t-62 -225.5q0 -121 75 -201.5t185 -80.5q69 0 135 28l-35 90q-84 -44 -127 -44q-67 0 -111 53t-44 134q0 129 78 233l91 30l168 -96l-129 84l135 -68zM576 38l-41 68l28 -78zM35 390l-12 21v-43zM36 340v12
l-14 13v-84l8 10q-2 23 -4 29q10 15 10 20z" />
    <glyph glyph-name="D" unicode="D" 
d="M121 740h-10v7h10v-7zM97 741h-27v7h27v-7zM723 156h-29v-31l-5 -23q-6 -111 -6 -155q0 -45 5 -91h-23l-5 -5l14 -12l-573 15q15 0 43 -1h42q106 0 255 7l-31 4l-112 -3q-39 6 -59 6h-7l-84 -6h-99v269l-10 29l-5 -101l-5 473l-8 181q10 -2 15 -2q6 0 16 2l-23 20h230
l-26 -3q5 -5 16 -5q13 0 62 6q54 6 95 8l-184 3l37 7h438q-5 -7 -5 -13q0 -5 5 -13l8 9l-5 -422l-8 -39l11 -29l-14 -32l14 -18l-20 -3zM36 0q-3 -10 -12 -14q-1 3 -1 10q0 8 1 12zM693 395v36h-7v-36h7zM596 335q0 103 -63 192q-26 36 -49 51q-31 20 -97 30h-90l-88 -24
l35 -610l-6 273l16 -288l17 -4q11 -1 31 -1q64 0 130 34q44 23 57 34q21 19 26 52l-20 -34v3l74 159q27 58 27 133zM46 279v43h-7v-43h7zM519 300q0 -4 -9 -64q-9 -63 -24 -97q-9 -20 -89 -128q-10 0 -34 -2q-20 -2 -30 -2q-19 0 -32 4v544l61 9l87 -16l58 -106zM235 334h-6
v19h6v-19zM238 254h-6v45h6v-45z" />
    <glyph glyph-name="E" unicode="E" 
d="M734 748l-18 1l10 10zM725 504l-20 -17q1 13 12 25zM738 164l-18 -16l8 21zM724 535l-32 -21v-31l18 -18l-15 -15v-20l8 -126l18 -314q0 1 -3 -42q-4 -50 -6 -104q-272 0 -646 -5l6 -2h316q-20 0 -27 -16l-7 5q-160 0 -322 3l-8 8l10 8l-11 6l5 255q3 32 11 156l8 -53
q4 114 4 155q0 94 -8 169l15 14l-15 12l12 12l-3 35l15 15q-7 35 -7 82q0 27 1 41l6 6l627 3l6 -11l-328 -1l346 -9q-6 -6 -6 -13l-11 -3v-160q5 -6 6 -14zM16 552l-10 6l9 7zM713 -166l-103 -14q-90 10 -162 14h265zM592 577l-355 3q3 -39 3 -77q0 -36 -3 -71l9 32
q-7 -274 -17 -462l-3 100h-2v-132l316 56l-18 95l-202 -79q-1 31 -1 92q0 79 1 117h114v78l-120 -21q3 112 12 215l211 -26l-146 -3l184 -12zM231 143v45h-6v-45h6z" />
    <glyph glyph-name="F" unicode="F" 
d="M715 -141l-31 -7l-26 6l-505 -14l544 4l-7 -12l-630 3q-11 0 -13 14v242l23 38l-15 23l15 15l-15 12l-9 378l6 35v145h28l27 10q28 -7 93 -9q73 -3 114 -10l379 12q12 -3 16 -19l-9 -80v-47l8 42zM43 46l-10 11l-5 17l12 -12zM704 503v91l-8 1v-91zM701 467v29h-6v-29h6z
M701 406v8h-5v-8h5zM590 579l-313 -10l127 -1l12 -2h-175l-9 26l7 -636l136 35l-98 -9l65 20l-39 232l234 -15l15 109l-255 -40l9 209l266 -40z" />
    <glyph glyph-name="G" unicode="G" 
d="M724 578l-15 20l15 3v-23zM730 -105l-21 -19l9 -4h-233l27 7q-76 -1 -175 -11l186 -3l-37 -7h-443q6 6 6 14q0 5 -5 12l-9 -9l2 151l9 38l-11 28l14 32l-14 18l20 2l-41 34q10 0 16 -2l16 86l-3 158l9 55q0 6 -14 12l8 13v205l13 26h17l5 5l-14 12l556 -14l27 20v-30h49
q2 -42 2 -128q0 -88 -2 -133l3 -10l8 98q-5 -107 -5 -178q0 -39 1 -57h4v-41h-3q7 -175 23 -380zM674 -143h-25v6h25v-6zM633 -141h-7v5h7v-5zM625 731l-320 -4l313 -4zM599 553l-64 20l47 -31h-4l-99 46l-95 11q-58 -8 -92 -31q-25 -17 -54.5 -56t-36.5 -65l-4 -32
l-30 -196l24 84l-5 -38q-1 -8 -1 -21q0 -36 35 -137l10 -29q30 -44 54 -61q28 -19 75 -24l52 -5q39 7 88 23l4 17l46 298h-113l58 -8h-45v-222l-18 -54h-63l-78 111l-14 164l14 71l-35 -85v3l56 170q32 36 74 70l172 -79z" />
    <glyph glyph-name="H" unicode="H" 
d="M717 359l-3 -14h-5l1 17zM714 393l-7 -3l-8 3q-4 -35 -4 -72q0 -38 5 -90t5 -67l8 -47v-256q-77 -2 -153 -3q-61 -2 -76 -8l203 -3q-172 -7 -352 -7q-162 0 -268 5l4 2l-24 8l-9 180l8 319l-19 -18l20 75l-5 9l5 12v309l28 8l-17 6l549 9l-340 -18l71 -3l-128 -14h88
l25 7l21 -15l59 21l237 8l27 -4h24v-316l7 -23l14 11zM266 740v6h-59v-6h59zM575 612l-96 9l14 -297l-210 15v261l-119 -14l26 -2q-6 -30 -3 -85l30 -530l-9 352l25 -375h55v332h194v-257h66v95q4 -16 4 -28zM59 71l-3 174h-5l3 -174h5zM551 299l-3 -175h-5l3 175h5z" />
    <glyph glyph-name="I" unicode="I" 
d="M714 736l-13 -4l8 16zM707 -85h-11v-37l-11 -6l8 -4q-8 -12 -25 -17l-39 6h-229q-9 0 -19 -8q-13 11 -30 15l250 1l54 3h-610v49l20 -1q-4 4 -11 4h-4v124l6 6l-3 6v34l16 35l-13 22l13 14l-13 11l-9 353l6 33v60l5 45v72l74 12l22 -7l530 3l1 -12l-508 4l522 -14
q-4 -12 -14 -16l6 -96l3 -341l-7 6l-4 -42l8 -51v-256zM44 46l-10 6l-4 18l14 -13v-11zM241 -139l-57 -10h-31l-109 10h197zM686 448v8h-7v-8h7zM686 371v28h-7v-28h7zM689 280v85h-7v-85h7zM414 587l-72 6l-40 -6l6 -179l6 111l8 -354l3 397l10 -576h60z" />
    <glyph glyph-name="J" unicode="J" 
d="M717 -54q0 -4 -5 -33q-6 -33 -8 -63v261zM717 320l-6 -6q-8 -18 -11 -36l-6 -139v-292l-113 -9h-72l-43 18h-90l-40 8q-6 0 -18 -14l-24 17h-25l-20 -29q-3 4 -5 12q-6 2 -16 8h-156q-5 -11 -16 -14q-1 119 -9 551q2 5 8 23l-13 20v185l-2 -195q0 89 -5 226q-1 6 -8 14
l17 61h116l25 11h29l12 11l11 -14l17 14l18 -6h37l124 6q2 -7 8 -11l14 5l13 -2q23 2 21 2l96 -2l42 8h61l5 -8l5 8q16 -7 16 -41q0 -4 -1 -14t-1 -16v-29l-3 -180l4 -25l4 3l-10 -47l2 -63q0 -11 8 -19zM42 254h-5v145h5v-145zM294 -145q-9 -14 -17 -14q-1 0 -4 1
q7 8 21 13zM45 -141q-10 0 -10 7q0 2 1.5 6.5t1.5 7.5v254h7v-275zM41 -160l-4 -11l-7 5zM701 435v275h-5v-275h5zM701 315v63h-5v-63h5zM485 129v19l-20 469h-44l-67 -9l44 -447l-15 370q-1 -22 3 -56q25 -230 25 -321q0 -12 -5 -42q-2 -13 -5.5 -31t-4.5 -23l-50 -14
l-86 29l-27 -118h93q43 0 73 21q18 11 53 50q33 36 33 103zM386 487h-5v14h5v-14z" />
    <glyph glyph-name="K" unicode="K" 
d="M726 268l-20 -72l4 -9l-4 -11v-299l-29 -8l17 -6l-563 -8l276 19l132 14h-91l-26 -6l-22 14l-59 -20l-244 -9l-28 4h-25v306l-6 23l-15 -11q0 8 -2 24l6 3l4 344l9 174q8 6 19 6h5l-4 4l17 3l49 4l571 -9l-208 -3q38 -9 80 -9h52q60 0 102 -1v-249l-8 -45v-29l-9 -62v-93
zM25 260l-4 -14h-6l3 14h7zM612 55l-52 -33l23 26l-230 235q143 -133 237 -226l7 2l-261 259l264 237l-72 49l-217 -259q-24 3 -25 13l29 280h-84v-278l-14 244l16 -553l-11 -58h81l-18 313l243 -325zM55 435q0 22 -2 51l-3 43q-7 -86 -7 -111q0 -6 1 -20l3 -41q8 31 8 78z
M544 -128v5h-61v-5h61zM237 306h-5v39h5v-39z" />
    <glyph glyph-name="L" unicode="L" 
d="M712 58l-6 -8v-129q0 -6 -1.5 -21.5t-1.5 -25.5v-12l-60 -19l-60 12h-42l-51 12l-116 -3l-65 -12l-255 -8v371l11 68l-5 22h-4l-24 -307l24 724l10 -12q3 5 3 11q0 8 -7 20l143 7l14 6l311 3l179 -12l-8 -194l-6 -16l6 -19v-345l-12 -30l17 -25l-17 -33zM578 48l-28 151
l-220 -128l-2 13l41 408l-9 -263l32 381l-115 12l-34 -650l322 73q-13 57 -18 114zM89 508l-17 13l2 -21zM374 506h-7v17h7v-17z" />
    <glyph glyph-name="M" unicode="M" 
d="M724 -84q0 -1 -2 -9.5t-2 -15.5q0 -8 3 -18h-279l-33 -7l307 -9h-695l3 464l-6 22v369l30 20l536 15l-303 -19q66 0 123 4l43 -8q118 18 179 18h51q15 0 19 -3.5t4 -18.5v-18q-1 -16 -1 -31q0 -13 5.5 -70.5t5.5 -102.5q0 -24 -3.5 -90t-3.5 -108q0 -36 1 -56l13 -256
l-9 86l-4 -42zM702 37v44h-7v-44h7zM614 -16l-63 413l-24 259l-151 -386l13 75l-26 -62l-138 384l-46 -300l32 153l1 -21l-51 -544h91v174l-3 289l129 -345l100 359l48 -469zM37 229v19h-7v-19h7zM37 176v24h-7v-24h7zM40 158h-7l-3 -19h7zM43 -55l-3 104l-4 46v-217z
M248 91h-6v21h6v-21z" />
    <glyph glyph-name="N" unicode="N" 
d="M727 490q-4 -5 -11 -5h-4l-4 10l11 7zM735 98l-10 -7l-5 6l10 7zM48 733l-15 -3v6l15 3v-6zM714 -171q-176 7 -374 13l79 3q-108 6 -192 6q-21 0 -64.5 -1t-65.5 -1h-50l-15 21q3 6 6 10v13l-9 5v-19l-11 -6v22l14 8q6 51 15 60q-3 9 -9 9q-3 0 -5 -10v26q0 -5 9 306
l8 -20l2 21l-11 35l14 26l-17 8v55l-15 16q15 8 21 19q-6 3 -24 15l15 12q-2 16 -2 22q0 24 10 44q-8 41 -8 95q0 26 12 65l8 8l-3 12q9 6 33.5 8.5t50.5 5.5q-24 2 -43 2h-18q-12 -1 -19 -1l6 14l297 -10q132 -11 278 -11q10 0 32 1h33l3 -16l-20 -6l20 -16v-273l-6 -6
q0 -31 -5 -88q5 -12 5 -17q0 -3 -1.5 -12t-1.5 -14q0 -9 9 -18v-18l-8 -9l5 -8l-11 -145l16 -93l6 72zM32 450l-7 -8h-16l7 8h16zM279 742v7h-21v-7h21zM706 -49v36h-6v-36h6zM569 228v113l-3 70v181h-24l-62 -12v-36q0 -7 4 -104q5 -116 8 -230l-245 330l-67 -560
q14 1 39 1q26 0 38 -1l-28 9l40 2q8 194 11 256q5 106 11 148q5 -38 5 -75l9 67l240 -388l10 582zM703 -95v36h-6v-36h6zM523 -158v5h-77v-5h77zM53 52v13h-5v-13h5zM50 32v13h-5v-13h5zM48 5v11h-5v-11h5zM44 -17v11h-7v-11h7z" />
    <glyph glyph-name="O" unicode="O" 
d="M715 6l-26 304q-7 -4 -7 -13v-3l12 -78q-4 -33 -4 -78q0 -4 1 -42l5 -192l9 -3v-36q-10 0 -10 -6q0 -2 7 -5l-97 -13l-111 13l88 3l-169 9l-281 -6l256 -3q-23 -1 -26 -16q-11 9 -29 9l-231 -2q-2 0 -15 -2t-25 -2l-21 6q-5 7 -5 9l7 7l-11 1v27l6 9q-3 19 -3 32
q0 5 1.5 14t1.5 13v91l-9 12l23 25l-17 33l17 25q-14 22 -14 29q0 1 1 3l5 5l-12 83l6 23v185l8 63l-6 21l-8 172l181 9l314 -3l14 -5l144 -7l-6 -9v-20l2 -2l9 11zM575 272l-10 156q-38 83 -96 133q-42 35 -60 35h-62q-34 0 -70 -38q-9 -9 -68 -84q-10 -27 -26 -148
l-3 -134q34 -125 115 -203l81 -6q13 -1 22 -1q75 0 112 51q31 41 61 159zM508 243l-33 -170v43q-2 -18 -4.5 -34.5t-15.5 -25.5q-44 -33 -71 -33q-53 0 -74 50q-8 12 -16 23.5t-8 20.5v3l-13 138v-113l-22 174l38 182l135 12q22 0 47 -43q26 -47 26 -97v-15zM481 123v13h-7
v-13h7z" />
    <glyph glyph-name="P" unicode="P" 
d="M717 141l-10 -11l3 -10l-8 -14q-3 -16 -3 -33t4.5 -50t4.5 -49q0 -1 1 -12t1 -20q0 -21 -3 -35l7 -9v-25l-12 -5l9 -5q-11 -14 -27 -17l-41 6h-240q-9 0 -20 -8q-9 11 -30 16l260 3l-411 2l-46 -5l136 -3l-97 -5l-12 -6h-37l-114 11q9 0 9 5t-9 5v38l10 2v68q6 0 13 5
l-9 15l18 15l-18 34v74l6 24v329l9 43l-6 17h-4l-24 -309q6 227 20 499l9 -11q2 3 2 11q0 10 -6 20l146 7l15 6l317 3l184 -12l-15 -123l6 -19v-347l-11 -31l17 -25l-17 -33zM587 465q0 29 -37 89q-16 26 -46.5 49t-48.5 25l-60 8q-4 1 -17 1q-8 0 -118 -10l-22 -569l31 332
v-78l-23 -365l126 12l-46 280l3 4h85q83 0 123 80q50 100 50 142zM500 487l-9 -114q-26 -52 -60 -72t-100 -26v296l60 15l53 -5l21 -5zM279 446h-6v9h6v-9zM277 399h-7v25h7v-25z" />
    <glyph glyph-name="Q" unicode="Q" 
d="M714 532l-23 -25l17 -33l-17 -25q13 -20 13 -29q0 -4 -5 -8l12 -83l-5 -23v-186l-9 -62l6 -21l8 -173h-28q-18 1 -26 1q-86 0 -126 -10l-313 3l-14 6l-144 7l6 9v20l-2 2l-9 -12l-25 701l26 -304q7 6 7 16l-12 78q4 94 4 111q0 54 -6 202l-9 2v37h3q8 0 8 3q0 4 -8 7h4
q8 0 93 13l58 -8l99 -5l-135 -2l170 -9l280 6l-253 2q16 0 23 16l29 -8l231 2l38 5q10 -5 22 -7l4 -10l-6 -6l11 -2v-28l-7 -8l4 -29l-3 -28v-93zM552 448q-24 110 -104 184l-72 4l-50 -4q-89 -7 -124 -184l-4 -70l10 -142q36 -87 101 -129q21 -13 24 -16q11 -8 14.5 -16
t4.5 -24q0 -22 1 -26l18 -112l98 36l-21 42l11 -40l-58 133q63 21 106 82q21 29 27 60q4 24 7 48l8 55zM489 336l-22 -114l-13 -50l-23 -4l-100 -6q-48 31 -49 63l-14 69l-12 108l30 154v-37q2 5 4 27q2 16 9 22q17 16 42 26q20 9 27 9q47 0 89 -76l1 -12l7 -63q3 23 3 41z
M470 387v57h-7v-57h7z" />
    <glyph glyph-name="R" unicode="R" 
d="M28 736l-8 -4l-8 13l11 2zM747 -167h-716q129 4 276 15q-25 0 -67 -1h-58q-142 0 -159 15v200q0 8 -3 22t-3 21q0 9 12 58l-21 12q13 10 21 26l-9 6l6 20l-15 15q5 11 15 26l-15 38l12 12l-9 37q6 162 12 372l20 20l-3 9l678 -4l-324 -12q23 -8 41 -8t73 7l52 -9l41 6
h114l-17 -16l29 -23q-6 -12 -6 -23q0 -9 3 -29.5t3 -31.5v-131q0 -15 3 -34t3 -23v-102l-12 -56l20 -411q-76 -8 -130 -11zM8 203q0 -4 -1 -6l-11 13l4 8q8 -6 8 -15zM623 71l-200 191q111 31 162 110l3 70q0 64 -88 108q-92 45 -257 56q-17 -212 -54 -551l20 131
q-2 -88 -12 -200l86 -9q2 30 2 40v20q-1 11 -1 13v107q0 258 14 385l85 3q57 -7 89 -41t32 -87q0 -54 -38 -85.5t-105 -31.5q-17 0 -25 1l78 -113l-66 68l177 -236q54 25 98 51z" />
    <glyph glyph-name="S" unicode="S" 
d="M714 745q0 -2 -4 -8l-9 12l8 4q5 -5 5 -8zM739 452h-3q-2 -1 -3 -1q-9 0 -17 8h16zM730 -104l-4 -23l-7 7q1 3 1 8q0 7 -5 12l-5 -5q0 -11 6 -20l-16 -25l-273 3l-104 -8l80 -2l-364 -13q1 5 1 4q0 2 -2 6l-8 -4l-5 237l3 -7l3 -67q16 94 16 104q0 22 -4.5 65t-4.5 64v12
q-3 5 -3 9t4 10l-6 8q6 18 8 61q1 52 6 79l-14 24l14 12q-5 16 -14 35l11 12v20q0 9 -5.5 61t-5.5 95v80h48q176 0 303 10l-306 3l611 4l3 -11q-6 0 -16 1h-16q-26 0 -50 -3q25 -2 49 -5t36 -9l-3 -12l11 -8q11 -99 12 -229l12 -12q-7 -7 -23 -15q3 -10 20 -20l-14 -16
q-6 -85 -15 -135l15 -134q-14 -42 -14 -76q0 -38 14 -103l-9 -14q13 -30 14 -61q6 -2 15 -9zM32 502l-10 -12l-10 9l10 11zM492 754v6h-25v-6h25zM571 564l-5 9l-120 50q40 -22 59 -35q-130 33 -143 33q-17 0 -95 -45l-28 -49l-12 6l5 -19l-24 -38q0 -18 -2.5 -40t-2.5 -27
q0 -46 47 -82q44 -32 89 -63q68 -49 122 -102q-6 -30 -6 -49q-49 -61 -104 -61q-12 0 -127 53q-6 -16 -15 -81q78 -25 135 -25q88 0 149 39q58 37 58 87q0 4 -2.5 24t-3.5 37q-14 14 -20 35q-170 126 -172 127q-61 53 -61 105q0 34 22 57q12 13 66 49q27 -11 74 -45
q51 -37 79 -51zM216 125l-22 -81v-15l8 3zM296 -157v5h-78v-5h78zM40 -46v37h-5v-37h5zM188 -155q-30 8 -35 8q-8 0 -38 -8h73zM41 -94v37h-7v-37h7zM62 -154l-22 14q2 -4 2 -19q6 3 20 5z" />
    <glyph glyph-name="T" unicode="T" 
d="M712 543l-23 -25l17 -34l-17 -24q13 -20 13 -29q0 -3 -6 -8l13 -84l-6 -24v-187l-8 -62l6 -22l8 -191h-28q-18 1 -26 1q-86 0 -125 -10l-311 3l-14 6l-143 7q7 6 7 17q0 8 -1 12l-2 2l-9 -12l-25 724l26 -307q7 6 7 16l-12 79l-5 336q0 1 2 6t2 9q0 7 -4 14l292 -6l20 -4
l25 3l15 -9l31 6l17 -9l36 -3l44 10l-18 5h-23l-24 4l222 4l5 -5v-2l11 -11v-11l5 -54l-8 -96l7 -14q-1 -6 -7 -10zM610 579l-446 -15l20 -89h12l163 20l-28 -545h95v449l22 -435l-11 534l158 -47zM88 87l-14 14l-2 -19z" />
    <glyph glyph-name="U" unicode="U" 
d="M708 562l-9 -11l2 -10l-7 -14l-3 -170l12 -90l-14 -242l2 -74q0 -5 1.5 -14.5t1.5 -14.5q0 -17 -4 -37l7 -8v-25l-11 -6l8 -5q-10 -13 -26 -17l-39 6h-231q-8 0 -19 -9q-11 13 -30 17l65 -1l186 4l-396 3l-44 -6q45 -3 96 -3h35l-94 -5l-11 -6h-36l-90 7l5 10l-1 22
l-12 -12l-16 507l26 -313q6 6 6 13v3l-11 81l3 298l-6 24v75l17 35l-17 15l8 15l-12 5v69l-9 3v38h2q6 0 6 4q0 3 -6 7l157 10l12 6l308 3l137 -14l42 5q1 -9 1 -16q0 -8 -3 -19t-3 -14q0 -4 6 -12l-14 -31l17 -26l-17 -34zM535 171v378h-85l16 -359v-110l-67 -35
q-45 4 -62 21.5t-32 72.5l1 228l9 -158v328l-116 -24l34 -393q29 -67 41 -84q24 -33 68 -51h92q62 42 78 68q23 37 23 118z" />
    <glyph glyph-name="V" unicode="V" 
d="M707 158l-26 298q-6 -6 -6 -15l11 -77v-216l14 -14l-7 -30l7 -24v-51l-5 -26v-45l11 -34q-3 -19 -13 -29q1 -2 1 -7q0 -9 -5 -34q-35 0 -107.5 4.5t-109.5 4.5q-18 0 -52 -2l95 -8h-121q-57 0 -137 1.5t-102 1.5q-56 0 -115 -4l8 214l5 15l-5 19v335l11 29l-17 25l17 32
l-22 25q9 8 9 11t-3 3v171l40 12h32v7l224 -3l-64 -8l43 -10l37 3l10 8h164l6 -6h99v11h55zM666 646v18l-12 -6zM583 501l-128 51l-73 -405l-97 454l-131 -46l136 -406l-92 324l176 -477zM394 -138v6h-15v-6h15zM352 -136v7h-12v-7h12z" />
    <glyph glyph-name="W" unicode="W" 
d="M713 532l-23 -25l17 -32l-17 -24q13 -20 13 -28q0 -5 -5 -9l12 -82l-6 -23v-183l-8 -61l6 -21l8 -187q-10 1 -29 1q-25 0 -69 -4h-15q-35 0 -62 -6h-119l-17 5l-7 -8l-32 3l-20 -5l-287 -6v372l11 57l-5 22h-4l-24 -300l24 708l10 -11l2 16l-6 15l143 6l8 6l219 3l17 -9
l37 -3l44 10l-19 4h-23l-24 5l223 4q4 0 7 -7.5t9 -10.5v-10l5 -53l-8 -95l7 -13q-1 -4 -7 -10zM628 601l-104 15l-19 -443l-108 432l-119 -366q4 176 15 366l-118 -32l74 -611l125 426l145 -435l72 500l2 -1l-40 -393zM84 488l-11 8v-17zM597 462h-7v13h7v-13z" />
    <glyph glyph-name="X" unicode="X" 
d="M716 752l-9 -12l-7 5l8 12zM705 452l-8 272h8v-272zM471 741q-8 -11 -21 -14q4 8 10 14h11zM706 192l-6 133l6 9v-142zM717 -73l-18 -60h-115l-26 -11h-28l-12 -11l-12 14l-16 -14l-18 6h-42l-15 -5l-61 -1h-43q0 8 -8 11l-14 -5l-13 3l-21 -3l-96 3l-42 -9h-61l-5 9
l-5 -9q-16 12 -16 40q0 13 3 31l2 205l-4 25l-4 -3l10 46q0 71 -10 81q16 17 17 41l6 137v287l113 8h72l43 -17h90l38 -8l20 15l24 -18h24l21 29l5 -12q6 -2 16 -8h156q5 11 16 14l8 -544l-7 -21l13 -20l4 -181q1 -30 11 -45zM40 478l-6 99l-4 14v32l10 113v-258zM597 67
l-112 111l2 2l75 -65l-140 154l126 251l-88 32l-82 -252l-93 215l65 -126l-84 221l-87 -62l140 -262l-172 -308l138 -37l-82 29l69 -13l92 266h19l120 -252zM48 212v62h-5v-62h5zM48 -114v271h-5v-271h5z" />
    <glyph glyph-name="Y" unicode="Y" 
d="M715 -1l-9 -11l3 -9q-11 -9 -11 -48l11 -58q-104 -3 -185 -12l-313 3l-15 6h-82q-56 10 -80 10q8 0 8 5q0 3 -9 5v22h14v82l17 33l-17 15l9 14l-13 5v66l-10 2v13h2q8 0 18 8v324l8 37l-5 22h-4l-23 -299l1 56l18 427l9 -11q2 6 2 10q0 10 -6 20l79 10l99 -11l53 -2
l-129 -3l169 -8l281 5l-249 3q18 4 19 16q9 -10 66 -10h42q27 0 72 1.5t64 1.5h15q5 0 16.5 2t18.5 2h5q15 -6 21 -6q4 -3 4 -7q0 -3 -6 -8l11 -2v-27q0 -5 -7 -9q3 -18 3 -35q0 -11 -2 -27l-7 -55l19 -246l-12 -80v-114l9 -17l-14 -30l17 -24l-17 -32zM579 500l-93 55
l-133 -281l-91 287l-107 -44l139 -269l-83 188l115 -234l-8 -207l113 9l-43 227z" />
    <glyph glyph-name="Z" unicode="Z" 
d="M670 748q-14 3 -14 10v2q12 -1 14 -12zM710 498q-12 6 -18 18l12 1zM695 714l-6 -23v-218l-20 -36l14 -22l-14 -15l14 -11l9 -363l-6 -34v-139h-27l-27 -9q-33 6 -101.5 8t-103.5 9l-376 -11q-12 1 -17 19l10 76v46q-5 -6 -8 -56l-1 809q8 -2 12 -2q5 0 13 2l35 -19
l11 12l29 -6l2 1l-8 11h566v-29zM625 730v6h-19v-6h19zM589 731v7h-43v-7h43zM583 15l-24 116l-278 -68l261 513h-366l28 -151l-4 62l8 -38l254 60l-304 -521l408 10l-261 6zM48 166v8h-5v-8h5zM48 88v28h-5v-28h5zM47 -3v84h-5v-84h5zM206 495l-7 1v11l7 -1v-11z" />
    <glyph glyph-name="bracketleft" unicode="[" horiz-adv-x="420" 
d="M373 -335h-12q-35 0 -62 -6t-23 -6q-7 0 -19.5 4.5t-17.5 4.5q2 0 -26 -8.5t-63 -9.5v1152q0 7 2.5 23t2.5 25v90q0 14 32 14q17 0 54 -7.5t58 -7.5q-1 0 16 0q16 -1 34 -1h24v-22q0 3 -7 -109q-72 9 -82 9h-28q-1 -17 -3 -40t-2 -30q0 -19 6 -40l5 -918h38q16 0 60 12
q13 -61 13 -57v-72z" />
    <glyph glyph-name="backslash" unicode="\" horiz-adv-x="550" 
d="M580 -291l-55 -27l-225 458l166 -387l-514 1096q12 12 21 18h-2q-17 0 -58 -23q69 45 97 54z" />
    <glyph glyph-name="bracketright" unicode="]" horiz-adv-x="420" 
d="M265 -348q0 -13 -37 -13q-23 0 -61.5 7t-54.5 7q1 0 -14 0q-14 1 -30 1h-21v22q0 -3 7 109q64 -8 82 -8h28q1 16 3 39t2 31q0 19 -6 40l-5 918h-22q-12 -1 -16 -1q-13 0 -60 -11q-13 59 -13 56v72h7q37 0 65.5 6t23.5 6q4 0 16.5 -4t21.5 -4q2 0 19 6t27 7t43 4z" />
    <glyph glyph-name="a" unicode="a" 
d="M728 554h-9l-4 13l8 1zM37 743l-8 -2l-5 14h8zM713 -131l-14 -4l11 -8l-6 -8q-31 -2 -77 -2h-112q-66 1 -86 1q-26 0 -45 -4l-27 12l293 4l-608 3q-1 43 -5 94q-4 46 -4 53q0 -3 10 131q10 150 15 312l-14 15l17 18v30q-13 6 -28 20l12 4q2 9 8 17v155l-11 3q0 6 -7 13
l542 13l-524 -3l3 10l610 -2q6 -4 10 -7q-1 -33 -3 -68.5t-2 -39.5v-12l14 -14l-3 -34l11 -12l-14 -14l14 -11l-5 -14v-300l17 -59v-132q0 -49 4 -94t4 -42v-24zM48 486l-20 22l16 7zM33 155l-19 21l13 5zM238 -147l-97 -13l-98 13h195zM625 23l-278 577l-174 -569l81 242
l2 -5l-95 -308l67 -14l75 225h163l75 -194zM173 23v7h-5v-7h5zM169 12v8h-5v-8h5zM167 3v7h-6v-7h6zM163 -8v8h-5v-8h5zM466 233l-34 61l-2 -8l32 -64l-144 14l43 211zM267 309l-9 -33h-4l9 33h4z" />
    <glyph glyph-name="b" unicode="b" 
d="M711 4q0 -5 -3 -11l-8 7l10 13q1 -3 1 -9zM708 730l-9 -686q0 50 -3 125l-7 -36v-265h-138l-42 5q-4 2 -7 2q-4 0 -33 -5t-55 -5q-3 0 -26 2q-28 2 -52 3l-29 -4q145 -7 247 -7h41q28 1 41 1l-555 -14l22 18l-36 -2q5 43 5 97q0 53 -5 146l-5 23v29q-1 3 -5 3
q-1 0 -7.5 -1.5t-12.5 -1.5h-3l39 33l-20 3l14 18l-14 32l11 29l-8 38l-6 125l7 135l2 -31q6 12 6 24v9q-1 8 -1 14q-10 8 -16 23l19 46v60l101 7h-100v16h25l3 9l70 -8h61l23 5l450 2q-5 -7 -5 -12t5 -13q1 1 3.5 4t4.5 5zM696 397v36h-5v-36h5zM696 281v41h-5v-41h5z
M264 724v7h-15v-7h15zM217 721v7h-46v-7h46zM553 175v10h-7v-10h7zM552 442q0 45 -37 101q-18 28 -33 35q-25 13 -190 45l-82 -37q0 -3 -1 -8v-6l2 -491l8 404l16 -521l18 -4h27q115 0 179 40.5t85 130.5l2 38l-12 -57q0 48 5 73l3 15q-15 31 -46 52q-30 16 -61 33
q63 42 86 70q31 37 31 87zM469 425q0 -64 -97 -153l12 25l-25 -28h-46l-8 281q8 1 23 1q111 0 138 -78l3 -40v-8zM463 153q0 -28 -15 -66l-62 -68l-17 -3h-48l-13 153l-5 -176l-12 236h12q18 0 43 4.5t32 4.5q14 0 47 -29q38 -31 38 -56z" />
    <glyph glyph-name="c" unicode="c" 
d="M716 762l-3 -16l-15 16h18zM743 644l-17 2l6 18zM740 138l-8 -191l-3 75l-9 -91l13 -57v-10l-90 -9l-57 3l2 -3l125 -13l-663 -3l20 11l-34 -4q-3 3 -3 18v14q0 16 1 84q1 82 2 145q-12 27 -12 41q0 1 2 21t2 40q0 34 -5 67l-3 -35l-10 174q-1 13 10 41q0 -13 3 -28
q4 33 4 55v9l-8 108v106l-3 32l30 -1l7 4l-23 6l663 14l-271 -20q12 -4 27 -4q41 0 97 5.5t71 5.5q99 0 99 -12v-5q-1 -4 -1 -7l-1 -218q0 -51 6 -107l8 193l5 -32zM20 100l-5 -9l-8 3l-2 23q10 -8 15 -17zM726 264l-3 83h-8l3 -83h8zM726 185v22h-8v-22h8zM729 120v51h-8
v-51h8zM600 484q-1 10 -29 58q-119 51 -190 51q-97 0 -159 -87.5t-62 -225.5q0 -121 75 -201.5t185 -80.5q69 0 135 28l-35 90q-84 -44 -127 -44q-67 0 -111 53t-44 134q0 129 78 233l91 30l168 -96l-129 84l135 -68zM576 38l-41 68l28 -78zM35 390l-12 21v-43zM36 340v12
l-14 13v-84l8 10q-2 23 -4 29q10 15 10 20z" />
    <glyph glyph-name="d" unicode="d" 
d="M121 740h-10v7h10v-7zM97 741h-27v7h27v-7zM723 156h-29v-31l-5 -23q-6 -111 -6 -155q0 -45 5 -91h-23l-5 -5l14 -12l-573 15q15 0 43 -1h42q106 0 255 7l-31 4l-112 -3q-39 6 -59 6h-7l-84 -6h-99v269l-10 29l-5 -101l-5 473l-8 181q10 -2 15 -2q6 0 16 2l-23 20h230
l-26 -3q5 -5 16 -5q13 0 62 6q54 6 95 8l-184 3l37 7h438q-5 -7 -5 -13q0 -5 5 -13l8 9l-5 -422l-8 -39l11 -29l-14 -32l14 -18l-20 -3zM36 0q-3 -10 -12 -14q-1 3 -1 10q0 8 1 12zM693 395v36h-7v-36h7zM596 335q0 103 -63 192q-26 36 -49 51q-31 20 -97 30h-90l-88 -24
l35 -610l-6 273l16 -288l17 -4q11 -1 31 -1q64 0 130 34q44 23 57 34q21 19 26 52l-20 -34v3l74 159q27 58 27 133zM46 279v43h-7v-43h7zM519 300q0 -4 -9 -64q-9 -63 -24 -97q-9 -20 -89 -128q-10 0 -34 -2q-20 -2 -30 -2q-19 0 -32 4v544l61 9l87 -16l58 -106zM235 334h-6
v19h6v-19zM238 254h-6v45h6v-45z" />
    <glyph glyph-name="e" unicode="e" 
d="M734 748l-18 1l10 10zM725 504l-20 -17q1 13 12 25zM738 164l-18 -16l8 21zM724 535l-32 -21v-31l18 -18l-15 -15v-20l8 -126l18 -314q0 1 -3 -42q-4 -50 -6 -104q-272 0 -646 -5l6 -2h316q-20 0 -27 -16l-7 5q-160 0 -322 3l-8 8l10 8l-11 6l5 255q3 32 11 156l8 -53
q4 114 4 155q0 94 -8 169l15 14l-15 12l12 12l-3 35l15 15q-7 35 -7 82q0 27 1 41l6 6l627 3l6 -11l-328 -1l346 -9q-6 -6 -6 -13l-11 -3v-160q5 -6 6 -14zM16 552l-10 6l9 7zM713 -166l-103 -14q-90 10 -162 14h265zM592 577l-355 3q3 -39 3 -77q0 -36 -3 -71l9 32
q-7 -274 -17 -462l-3 100h-2v-132l316 56l-18 95l-202 -79q-1 31 -1 92q0 79 1 117h114v78l-120 -21q3 112 12 215l211 -26l-146 -3l184 -12zM231 143v45h-6v-45h6z" />
    <glyph glyph-name="f" unicode="f" 
d="M715 -141l-31 -7l-26 6l-505 -14l544 4l-7 -12l-630 3q-11 0 -13 14v242l23 38l-15 23l15 15l-15 12l-9 378l6 35v145h28l27 10q28 -7 93 -9q73 -3 114 -10l379 12q12 -3 16 -19l-9 -80v-47l8 42zM43 46l-10 11l-5 17l12 -12zM704 503v91l-8 1v-91zM701 467v29h-6v-29h6z
M701 406v8h-5v-8h5zM590 579l-313 -10l127 -1l12 -2h-175l-9 26l7 -636l136 35l-98 -9l65 20l-39 232l234 -15l15 109l-255 -40l9 209l266 -40z" />
    <glyph glyph-name="g" unicode="g" 
d="M724 578l-15 20l15 3v-23zM730 -105l-21 -19l9 -4h-233l27 7q-76 -1 -175 -11l186 -3l-37 -7h-443q6 6 6 14q0 5 -5 12l-9 -9l2 151l9 38l-11 28l14 32l-14 18l20 2l-41 34q10 0 16 -2l16 86l-3 158l9 55q0 6 -14 12l8 13v205l13 26h17l5 5l-14 12l556 -14l27 20v-30h49
q2 -42 2 -128q0 -88 -2 -133l3 -10l8 98q-5 -107 -5 -178q0 -39 1 -57h4v-41h-3q7 -175 23 -380zM674 -143h-25v6h25v-6zM633 -141h-7v5h7v-5zM625 731l-320 -4l313 -4zM599 553l-64 20l47 -31h-4l-99 46l-95 11q-58 -8 -92 -31q-25 -17 -54.5 -56t-36.5 -65l-4 -32
l-30 -196l24 84l-5 -38q-1 -8 -1 -21q0 -36 35 -137l10 -29q30 -44 54 -61q28 -19 75 -24l52 -5q39 7 88 23l4 17l46 298h-113l58 -8h-45v-222l-18 -54h-63l-78 111l-14 164l14 71l-35 -85v3l56 170q32 36 74 70l172 -79z" />
    <glyph glyph-name="h" unicode="h" 
d="M717 359l-3 -14h-5l1 17zM714 393l-7 -3l-8 3q-4 -35 -4 -72q0 -38 5 -90t5 -67l8 -47v-256q-77 -2 -153 -3q-61 -2 -76 -8l203 -3q-172 -7 -352 -7q-162 0 -268 5l4 2l-24 8l-9 180l8 319l-19 -18l20 75l-5 9l5 12v309l28 8l-17 6l549 9l-340 -18l71 -3l-128 -14h88
l25 7l21 -15l59 21l237 8l27 -4h24v-316l7 -23l14 11zM266 740v6h-59v-6h59zM575 612l-96 9l14 -297l-210 15v261l-119 -14l26 -2q-6 -30 -3 -85l30 -530l-9 352l25 -375h55v332h194v-257h66v95q4 -16 4 -28zM59 71l-3 174h-5l3 -174h5zM551 299l-3 -175h-5l3 175h5z" />
    <glyph glyph-name="i" unicode="i" 
d="M714 736l-13 -4l8 16zM707 -85h-11v-37l-11 -6l8 -4q-8 -12 -25 -17l-39 6h-229q-9 0 -19 -8q-13 11 -30 15l250 1l54 3h-610v49l20 -1q-4 4 -11 4h-4v124l6 6l-3 6v34l16 35l-13 22l13 14l-13 11l-9 353l6 33v60l5 45v72l74 12l22 -7l530 3l1 -12l-508 4l522 -14
q-4 -12 -14 -16l6 -96l3 -341l-7 6l-4 -42l8 -51v-256zM44 46l-10 6l-4 18l14 -13v-11zM241 -139l-57 -10h-31l-109 10h197zM686 448v8h-7v-8h7zM686 371v28h-7v-28h7zM689 280v85h-7v-85h7zM414 587l-72 6l-40 -6l6 -179l6 111l8 -354l3 397l10 -576h60z" />
    <glyph glyph-name="j" unicode="j" 
d="M717 -54q0 -4 -5 -33q-6 -33 -8 -63v261zM717 320l-6 -6q-8 -18 -11 -36l-6 -139v-292l-113 -9h-72l-43 18h-90l-40 8q-6 0 -18 -14l-24 17h-25l-20 -29q-3 4 -5 12q-6 2 -16 8h-156q-5 -11 -16 -14q-1 119 -9 551q2 5 8 23l-13 20v185l-2 -195q0 89 -5 226q-1 6 -8 14
l17 61h116l25 11h29l12 11l11 -14l17 14l18 -6h37l124 6q2 -7 8 -11l14 5l13 -2q23 2 21 2l96 -2l42 8h61l5 -8l5 8q16 -7 16 -41q0 -4 -1 -14t-1 -16v-29l-3 -180l4 -25l4 3l-10 -47l2 -63q0 -11 8 -19zM42 254h-5v145h5v-145zM294 -145q-9 -14 -17 -14q-1 0 -4 1
q7 8 21 13zM45 -141q-10 0 -10 7q0 2 1.5 6.5t1.5 7.5v254h7v-275zM41 -160l-4 -11l-7 5zM701 435v275h-5v-275h5zM701 315v63h-5v-63h5zM485 129v19l-20 469h-44l-67 -9l44 -447l-15 370q-1 -22 3 -56q25 -230 25 -321q0 -12 -5 -42q-2 -13 -5.5 -31t-4.5 -23l-50 -14
l-86 29l-27 -118h93q43 0 73 21q18 11 53 50q33 36 33 103zM386 487h-5v14h5v-14z" />
    <glyph glyph-name="k" unicode="k" 
d="M726 268l-20 -72l4 -9l-4 -11v-299l-29 -8l17 -6l-563 -8l276 19l132 14h-91l-26 -6l-22 14l-59 -20l-244 -9l-28 4h-25v306l-6 23l-15 -11q0 8 -2 24l6 3l4 344l9 174q8 6 19 6h5l-4 4l17 3l49 4l571 -9l-208 -3q38 -9 80 -9h52q60 0 102 -1v-249l-8 -45v-29l-9 -62v-93
zM25 260l-4 -14h-6l3 14h7zM612 55l-52 -33l23 26l-230 235q143 -133 237 -226l7 2l-261 259l264 237l-72 49l-217 -259q-24 3 -25 13l29 280h-84v-278l-14 244l16 -553l-11 -58h81l-18 313l243 -325zM55 435q0 22 -2 51l-3 43q-7 -86 -7 -111q0 -6 1 -20l3 -41q8 31 8 78z
M544 -128v5h-61v-5h61zM237 306h-5v39h5v-39z" />
    <glyph glyph-name="l" unicode="l" 
d="M712 58l-6 -8v-129q0 -6 -1.5 -21.5t-1.5 -25.5v-12l-60 -19l-60 12h-42l-51 12l-116 -3l-65 -12l-255 -8v371l11 68l-5 22h-4l-24 -307l24 724l10 -12q3 5 3 11q0 8 -7 20l143 7l14 6l311 3l179 -12l-8 -194l-6 -16l6 -19v-345l-12 -30l17 -25l-17 -33zM578 48l-28 151
l-220 -128l-2 13l41 408l-9 -263l32 381l-115 12l-34 -650l322 73q-13 57 -18 114zM89 508l-17 13l2 -21zM374 506h-7v17h7v-17z" />
    <glyph glyph-name="m" unicode="m" 
d="M724 -84q0 -1 -2 -9.5t-2 -15.5q0 -8 3 -18h-279l-33 -7l307 -9h-695l3 464l-6 22v369l30 20l536 15l-303 -19q66 0 123 4l43 -8q118 18 179 18h51q15 0 19 -3.5t4 -18.5v-18q-1 -16 -1 -31q0 -13 5.5 -70.5t5.5 -102.5q0 -24 -3.5 -90t-3.5 -108q0 -36 1 -56l13 -256
l-9 86l-4 -42zM702 37v44h-7v-44h7zM614 -16l-63 413l-24 259l-151 -386l13 75l-26 -62l-138 384l-46 -300l32 153l1 -21l-51 -544h91v174l-3 289l129 -345l100 359l48 -469zM37 229v19h-7v-19h7zM37 176v24h-7v-24h7zM40 158h-7l-3 -19h7zM43 -55l-3 104l-4 46v-217z
M248 91h-6v21h6v-21z" />
    <glyph glyph-name="n" unicode="n" 
d="M727 490q-4 -5 -11 -5h-4l-4 10l11 7zM735 98l-10 -7l-5 6l10 7zM48 733l-15 -3v6l15 3v-6zM714 -171q-176 7 -374 13l79 3q-108 6 -192 6q-21 0 -64.5 -1t-65.5 -1h-50l-15 21q3 6 6 10v13l-9 5v-19l-11 -6v22l14 8q6 51 15 60q-3 9 -9 9q-3 0 -5 -10v26q0 -5 9 306
l8 -20l2 21l-11 35l14 26l-17 8v55l-15 16q15 8 21 19q-6 3 -24 15l15 12q-2 16 -2 22q0 24 10 44q-8 41 -8 95q0 26 12 65l8 8l-3 12q9 6 33.5 8.5t50.5 5.5q-24 2 -43 2h-18q-12 -1 -19 -1l6 14l297 -10q132 -11 278 -11q10 0 32 1h33l3 -16l-20 -6l20 -16v-273l-6 -6
q0 -31 -5 -88q5 -12 5 -17q0 -3 -1.5 -12t-1.5 -14q0 -9 9 -18v-18l-8 -9l5 -8l-11 -145l16 -93l6 72zM32 450l-7 -8h-16l7 8h16zM279 742v7h-21v-7h21zM706 -49v36h-6v-36h6zM569 228v113l-3 70v181h-24l-62 -12v-36q0 -7 4 -104q5 -116 8 -230l-245 330l-67 -560
q14 1 39 1q26 0 38 -1l-28 9l40 2q8 194 11 256q5 106 11 148q5 -38 5 -75l9 67l240 -388l10 582zM703 -95v36h-6v-36h6zM523 -158v5h-77v-5h77zM53 52v13h-5v-13h5zM50 32v13h-5v-13h5zM48 5v11h-5v-11h5zM44 -17v11h-7v-11h7z" />
    <glyph glyph-name="o" unicode="o" 
d="M715 6l-26 304q-7 -4 -7 -13v-3l12 -78q-4 -33 -4 -78q0 -4 1 -42l5 -192l9 -3v-36q-10 0 -10 -6q0 -2 7 -5l-97 -13l-111 13l88 3l-169 9l-281 -6l256 -3q-23 -1 -26 -16q-11 9 -29 9l-231 -2q-2 0 -15 -2t-25 -2l-21 6q-5 7 -5 9l7 7l-11 1v27l6 9q-3 19 -3 32
q0 5 1.5 14t1.5 13v91l-9 12l23 25l-17 33l17 25q-14 22 -14 29q0 1 1 3l5 5l-12 83l6 23v185l8 63l-6 21l-8 172l181 9l314 -3l14 -5l144 -7l-6 -9v-20l2 -2l9 11zM575 272l-10 156q-38 83 -96 133q-42 35 -60 35h-62q-34 0 -70 -38q-9 -9 -68 -84q-10 -27 -26 -148
l-3 -134q34 -125 115 -203l81 -6q13 -1 22 -1q75 0 112 51q31 41 61 159zM508 243l-33 -170v43q-2 -18 -4.5 -34.5t-15.5 -25.5q-44 -33 -71 -33q-53 0 -74 50q-8 12 -16 23.5t-8 20.5v3l-13 138v-113l-22 174l38 182l135 12q22 0 47 -43q26 -47 26 -97v-15zM481 123v13h-7
v-13h7z" />
    <glyph glyph-name="p" unicode="p" 
d="M717 141l-10 -11l3 -10l-8 -14q-3 -16 -3 -33t4.5 -50t4.5 -49q0 -1 1 -12t1 -20q0 -21 -3 -35l7 -9v-25l-12 -5l9 -5q-11 -14 -27 -17l-41 6h-240q-9 0 -20 -8q-9 11 -30 16l260 3l-411 2l-46 -5l136 -3l-97 -5l-12 -6h-37l-114 11q9 0 9 5t-9 5v38l10 2v68q6 0 13 5
l-9 15l18 15l-18 34v74l6 24v329l9 43l-6 17h-4l-24 -309q6 227 20 499l9 -11q2 3 2 11q0 10 -6 20l146 7l15 6l317 3l184 -12l-15 -123l6 -19v-347l-11 -31l17 -25l-17 -33zM587 465q0 29 -37 89q-16 26 -46.5 49t-48.5 25l-60 8q-4 1 -17 1q-8 0 -118 -10l-22 -569l31 332
v-78l-23 -365l126 12l-46 280l3 4h85q83 0 123 80q50 100 50 142zM500 487l-9 -114q-26 -52 -60 -72t-100 -26v296l60 15l53 -5l21 -5zM279 446h-6v9h6v-9zM277 399h-7v25h7v-25z" />
    <glyph glyph-name="q" unicode="q" 
d="M714 532l-23 -25l17 -33l-17 -25q13 -20 13 -29q0 -4 -5 -8l12 -83l-5 -23v-186l-9 -62l6 -21l8 -173h-28q-18 1 -26 1q-86 0 -126 -10l-313 3l-14 6l-144 7l6 9v20l-2 2l-9 -12l-25 701l26 -304q7 6 7 16l-12 78q4 94 4 111q0 54 -6 202l-9 2v37h3q8 0 8 3q0 4 -8 7h4
q8 0 93 13l58 -8l99 -5l-135 -2l170 -9l280 6l-253 2q16 0 23 16l29 -8l231 2l38 5q10 -5 22 -7l4 -10l-6 -6l11 -2v-28l-7 -8l4 -29l-3 -28v-93zM552 448q-24 110 -104 184l-72 4l-50 -4q-89 -7 -124 -184l-4 -70l10 -142q36 -87 101 -129q21 -13 24 -16q11 -8 14.5 -16
t4.5 -24q0 -22 1 -26l18 -112l98 36l-21 42l11 -40l-58 133q63 21 106 82q21 29 27 60q4 24 7 48l8 55zM489 336l-22 -114l-13 -50l-23 -4l-100 -6q-48 31 -49 63l-14 69l-12 108l30 154v-37q2 5 4 27q2 16 9 22q17 16 42 26q20 9 27 9q47 0 89 -76l1 -12l7 -63q3 23 3 41z
M470 387v57h-7v-57h7z" />
    <glyph glyph-name="r" unicode="r" 
d="M28 736l-8 -4l-8 13l11 2zM747 -167h-716q129 4 276 15q-25 0 -67 -1h-58q-142 0 -159 15v200q0 8 -3 22t-3 21q0 9 12 58l-21 12q13 10 21 26l-9 6l6 20l-15 15q5 11 15 26l-15 38l12 12l-9 37q6 162 12 372l20 20l-3 9l678 -4l-324 -12q23 -8 41 -8t73 7l52 -9l41 6
h114l-17 -16l29 -23q-6 -12 -6 -23q0 -9 3 -29.5t3 -31.5v-131q0 -15 3 -34t3 -23v-102l-12 -56l20 -411q-76 -8 -130 -11zM8 203q0 -4 -1 -6l-11 13l4 8q8 -6 8 -15zM623 71l-200 191q111 31 162 110l3 70q0 64 -88 108q-92 45 -257 56q-17 -212 -54 -551l20 131
q-2 -88 -12 -200l86 -9q2 30 2 40v20q-1 11 -1 13v107q0 258 14 385l85 3q57 -7 89 -41t32 -87q0 -54 -38 -85.5t-105 -31.5q-17 0 -25 1l78 -113l-66 68l177 -236q54 25 98 51z" />
    <glyph glyph-name="s" unicode="s" 
d="M714 745q0 -2 -4 -8l-9 12l8 4q5 -5 5 -8zM739 452h-3q-2 -1 -3 -1q-9 0 -17 8h16zM730 -104l-4 -23l-7 7q1 3 1 8q0 7 -5 12l-5 -5q0 -11 6 -20l-16 -25l-273 3l-104 -8l80 -2l-364 -13q1 5 1 4q0 2 -2 6l-8 -4l-5 237l3 -7l3 -67q16 94 16 104q0 22 -4.5 65t-4.5 64v12
q-3 5 -3 9t4 10l-6 8q6 18 8 61q1 52 6 79l-14 24l14 12q-5 16 -14 35l11 12v20q0 9 -5.5 61t-5.5 95v80h48q176 0 303 10l-306 3l611 4l3 -11q-6 0 -16 1h-16q-26 0 -50 -3q25 -2 49 -5t36 -9l-3 -12l11 -8q11 -99 12 -229l12 -12q-7 -7 -23 -15q3 -10 20 -20l-14 -16
q-6 -85 -15 -135l15 -134q-14 -42 -14 -76q0 -38 14 -103l-9 -14q13 -30 14 -61q6 -2 15 -9zM32 502l-10 -12l-10 9l10 11zM492 754v6h-25v-6h25zM571 564l-5 9l-120 50q40 -22 59 -35q-130 33 -143 33q-17 0 -95 -45l-28 -49l-12 6l5 -19l-24 -38q0 -18 -2.5 -40t-2.5 -27
q0 -46 47 -82q44 -32 89 -63q68 -49 122 -102q-6 -30 -6 -49q-49 -61 -104 -61q-12 0 -127 53q-6 -16 -15 -81q78 -25 135 -25q88 0 149 39q58 37 58 87q0 4 -2.5 24t-3.5 37q-14 14 -20 35q-170 126 -172 127q-61 53 -61 105q0 34 22 57q12 13 66 49q27 -11 74 -45
q51 -37 79 -51zM216 125l-22 -81v-15l8 3zM296 -157v5h-78v-5h78zM40 -46v37h-5v-37h5zM188 -155q-30 8 -35 8q-8 0 -38 -8h73zM41 -94v37h-7v-37h7zM62 -154l-22 14q2 -4 2 -19q6 3 20 5z" />
    <glyph glyph-name="t" unicode="t" 
d="M712 543l-23 -25l17 -34l-17 -24q13 -20 13 -29q0 -3 -6 -8l13 -84l-6 -24v-187l-8 -62l6 -22l8 -191h-28q-18 1 -26 1q-86 0 -125 -10l-311 3l-14 6l-143 7q7 6 7 17q0 8 -1 12l-2 2l-9 -12l-25 724l26 -307q7 6 7 16l-12 79l-5 336q0 1 2 6t2 9q0 7 -4 14l292 -6l20 -4
l25 3l15 -9l31 6l17 -9l36 -3l44 10l-18 5h-23l-24 4l222 4l5 -5v-2l11 -11v-11l5 -54l-8 -96l7 -14q-1 -6 -7 -10zM610 579l-446 -15l20 -89h12l163 20l-28 -545h95v449l22 -435l-11 534l158 -47zM88 87l-14 14l-2 -19z" />
    <glyph glyph-name="u" unicode="u" 
d="M708 562l-9 -11l2 -10l-7 -14l-3 -170l12 -90l-14 -242l2 -74q0 -5 1.5 -14.5t1.5 -14.5q0 -17 -4 -37l7 -8v-25l-11 -6l8 -5q-10 -13 -26 -17l-39 6h-231q-8 0 -19 -9q-11 13 -30 17l65 -1l186 4l-396 3l-44 -6q45 -3 96 -3h35l-94 -5l-11 -6h-36l-90 7l5 10l-1 22
l-12 -12l-16 507l26 -313q6 6 6 13v3l-11 81l3 298l-6 24v75l17 35l-17 15l8 15l-12 5v69l-9 3v38h2q6 0 6 4q0 3 -6 7l157 10l12 6l308 3l137 -14l42 5q1 -9 1 -16q0 -8 -3 -19t-3 -14q0 -4 6 -12l-14 -31l17 -26l-17 -34zM535 171v378h-85l16 -359v-110l-67 -35
q-45 4 -62 21.5t-32 72.5l1 228l9 -158v328l-116 -24l34 -393q29 -67 41 -84q24 -33 68 -51h92q62 42 78 68q23 37 23 118z" />
    <glyph glyph-name="v" unicode="v" 
d="M707 158l-26 298q-6 -6 -6 -15l11 -77v-216l14 -14l-7 -30l7 -24v-51l-5 -26v-45l11 -34q-3 -19 -13 -29q1 -2 1 -7q0 -9 -5 -34q-35 0 -107.5 4.5t-109.5 4.5q-18 0 -52 -2l95 -8h-121q-57 0 -137 1.5t-102 1.5q-56 0 -115 -4l8 214l5 15l-5 19v335l11 29l-17 25l17 32
l-22 25q9 8 9 11t-3 3v171l40 12h32v7l224 -3l-64 -8l43 -10l37 3l10 8h164l6 -6h99v11h55zM666 646v18l-12 -6zM583 501l-128 51l-73 -405l-97 454l-131 -46l136 -406l-92 324l176 -477zM394 -138v6h-15v-6h15zM352 -136v7h-12v-7h12z" />
    <glyph glyph-name="w" unicode="w" 
d="M713 532l-23 -25l17 -32l-17 -24q13 -20 13 -28q0 -5 -5 -9l12 -82l-6 -23v-183l-8 -61l6 -21l8 -187q-10 1 -29 1q-25 0 -69 -4h-15q-35 0 -62 -6h-119l-17 5l-7 -8l-32 3l-20 -5l-287 -6v372l11 57l-5 22h-4l-24 -300l24 708l10 -11l2 16l-6 15l143 6l8 6l219 3l17 -9
l37 -3l44 10l-19 4h-23l-24 5l223 4q4 0 7 -7.5t9 -10.5v-10l5 -53l-8 -95l7 -13q-1 -4 -7 -10zM628 601l-104 15l-19 -443l-108 432l-119 -366q4 176 15 366l-118 -32l74 -611l125 426l145 -435l72 500l2 -1l-40 -393zM84 488l-11 8v-17zM597 462h-7v13h7v-13z" />
    <glyph glyph-name="x" unicode="x" 
d="M716 752l-9 -12l-7 5l8 12zM705 452l-8 272h8v-272zM471 741q-8 -11 -21 -14q4 8 10 14h11zM706 192l-6 133l6 9v-142zM717 -73l-18 -60h-115l-26 -11h-28l-12 -11l-12 14l-16 -14l-18 6h-42l-15 -5l-61 -1h-43q0 8 -8 11l-14 -5l-13 3l-21 -3l-96 3l-42 -9h-61l-5 9
l-5 -9q-16 12 -16 40q0 13 3 31l2 205l-4 25l-4 -3l10 46q0 71 -10 81q16 17 17 41l6 137v287l113 8h72l43 -17h90l38 -8l20 15l24 -18h24l21 29l5 -12q6 -2 16 -8h156q5 11 16 14l8 -544l-7 -21l13 -20l4 -181q1 -30 11 -45zM40 478l-6 99l-4 14v32l10 113v-258zM597 67
l-112 111l2 2l75 -65l-140 154l126 251l-88 32l-82 -252l-93 215l65 -126l-84 221l-87 -62l140 -262l-172 -308l138 -37l-82 29l69 -13l92 266h19l120 -252zM48 212v62h-5v-62h5zM48 -114v271h-5v-271h5z" />
    <glyph glyph-name="y" unicode="y" 
d="M715 -1l-9 -11l3 -9q-11 -9 -11 -48l11 -58q-104 -3 -185 -12l-313 3l-15 6h-82q-56 10 -80 10q8 0 8 5q0 3 -9 5v22h14v82l17 33l-17 15l9 14l-13 5v66l-10 2v13h2q8 0 18 8v324l8 37l-5 22h-4l-23 -299l1 56l18 427l9 -11q2 6 2 10q0 10 -6 20l79 10l99 -11l53 -2
l-129 -3l169 -8l281 5l-249 3q18 4 19 16q9 -10 66 -10h42q27 0 72 1.5t64 1.5h15q5 0 16.5 2t18.5 2h5q15 -6 21 -6q4 -3 4 -7q0 -3 -6 -8l11 -2v-27q0 -5 -7 -9q3 -18 3 -35q0 -11 -2 -27l-7 -55l19 -246l-12 -80v-114l9 -17l-14 -30l17 -24l-17 -32zM579 500l-93 55
l-133 -281l-91 287l-107 -44l139 -269l-83 188l115 -234l-8 -207l113 9l-43 227z" />
    <glyph glyph-name="z" unicode="z" 
d="M670 748q-14 3 -14 10v2q12 -1 14 -12zM710 498q-12 6 -18 18l12 1zM695 714l-6 -23v-218l-20 -36l14 -22l-14 -15l14 -11l9 -363l-6 -34v-139h-27l-27 -9q-33 6 -101.5 8t-103.5 9l-376 -11q-12 1 -17 19l10 76v46q-5 -6 -8 -56l-1 809q8 -2 12 -2q5 0 13 2l35 -19
l11 12l29 -6l2 1l-8 11h566v-29zM625 730v6h-19v-6h19zM589 731v7h-43v-7h43zM583 15l-24 116l-278 -68l261 513h-366l28 -151l-4 62l8 -38l254 60l-304 -521l408 10l-261 6zM48 166v8h-5v-8h5zM48 88v28h-5v-28h5zM47 -3v84h-5v-84h5zM206 495l-7 1v11l7 -1v-11z" />
    <glyph glyph-name="braceleft" unicode="{" horiz-adv-x="450" 
d="M430 -233q-69 -59 -84 -59q1 0 -26 7q-27 4 -58 10q-123 38 -123 233q0 52 22.5 133t22.5 111q0 17 -9.5 28.5t-22.5 11.5q-5 0 -29 -19.5t-49 -19.5l-6 1h-13q-26 41 -26 80q0 8 4 31q38 36 59 36q4 0 20 -11.5t25 -11.5q16 0 33 12t17 25q0 2 -24 85t-24 155
q0 108 44 184q41 71 91 71h5q5 21 62 21q7 0 49 -17q-6 -21 -36 -116l5 -9q-63 -30 -90.5 -73t-27.5 -112q0 -54 40 -134q11 -22 11 -44q0 -69 -57 -107q45 -34 45 -48q0 -3 -7.5 -16.5t-10.5 -26.5q-27 -125 -27 -152q0 -18 23 -107q1 -8 9 -23q40 -44 80 -44q7 0 45 22
q13 -35 38 -107z" />
    <glyph glyph-name="bar" unicode="|" horiz-adv-x="552" 
d="M333 574l-15 -995l-99 11q11 -1 31 -1q25 0 34 4q-5 1 -27 5l2 914l14 -317l10 384z" />
    <glyph glyph-name="braceright" unicode="}" horiz-adv-x="450" 
d="M421 311q0 -1 -1 -11l-2 -20q-39 -36 -60 -36q-5 0 -21.5 11.5t-23.5 11.5q-15 0 -32.5 -12.5t-17.5 -24.5q0 -2 24 -85t24 -155q0 -108 -44 -184q-41 -71 -91 -71h-4q-6 -21 -63 -21q-7 0 -49 17l36 116q-1 3 -5 9q118 53 118 185q0 13 -9 50q-13 47 -31 85
q-10 21 -10 43q0 69 56 107q-45 33 -45 48q0 3 8 16.5t10 26.5q9 40 18 82.5t9 69.5q0 39 -30 128q-43 46 -82 46q-7 0 -45 -23q-16 43 -38 108q69 59 83 59q-3 0 27.5 -5.5t83.5 -20.5q44 -21 70.5 -80t26.5 -144q0 -51 -22.5 -132t-22.5 -112q0 -40 33 -40q4 0 28.5 19.5
t53.5 19.5q9 0 14 -1q26 -39 26 -80z" />
    <glyph glyph-name="nonbreakingspace" unicode="&#xa0;" horiz-adv-x="250" 
 />
    <glyph glyph-name="exclamdown" unicode="&#xa1;" 
d="M692 7l-25 313l-7 -19l12 -82l3 -318h7v-38l-12 -2l10 -8l-92 -4h-150v2l129 3l-160 10l-266 -7l243 -8q-5 -4 -10 -4h-10q-3 0 -6 -5q-10 8 -22 8h-281q-2 8 -2 10q0 4 4 7h-4q-4 1 -6 1v28q0 6 6 9q-4 20 -4 31q0 12 3 27v94l-8 12l22 25l-17 33l17 26l-19 121l5 24
v187l8 63l-5 22l-8 174l171 9l296 -3l14 -6l136 -6l-7 -35l11 15zM438 609l-78 54l-49 -74l72 -95l-50 95l52 -52zM418 10l-13 473h-56l-50 -520l48 375l2 -16l-27 -333zM352 350h-4v8h4v-8z" />
    <glyph glyph-name="cent" unicode="&#xa2;" 
d="M711 -112q0 -5 -7 -15q1 -2 1 -5q0 -8 -26 -15l-40 6h-236q-11 0 -20 -9q-7 8 -30 17l240 2l-388 3l-45 -7h136l-146 -12l-109 16l1 41l11 77l16 24l-17 34v71l5 23v319l9 42l-7 16l-26 -299l25 503l150 13h320l180 -10l-14 -119l6 -18v-333l-11 -33l17 -24l-17 -34
l17 -28l-9 -38l9 -159l-4 -25q9 -12 9 -24zM504 456h-27l-73 45l17 94h-79l14 -93l-17 -5q-59 -42 -82 -81q-26 -43 -26 -111q0 -154 103 -178l13 -3l-13 -142l93 11l-16 96l-8 -65l-7 95l105 71l-50 53q-1 -1 -28 -38q-12 -16 -26 -16h-43l-42 53v138l60 62l85 -68z" />
    <glyph glyph-name="sterling" unicode="&#xa3;" 
d="M707 -147l-183 -13l-315 7l-165 18l11 27v85l17 35l-17 28l-12 88q7 1 18 11v334l8 38l-7 22l-25 -308l26 498q1 3 1 8q0 6 -3 13h78l157 1l-134 -6l166 -10l237 6l-195 9l8 10q11 -8 29 -9l289 -14l5 -26v-3q0 -7 -6 -12q3 -16 3 -24t-2 -20.5t-2 -16.5v-3l3 -57v-454
q0 -7 7 -14l-14 -34l17 -25l-17 -36l17 -29l-11 -65zM556 46l-18 108l-173 -91l-5 20l-20 207h104l11 84l-72 -14l29 -3l-75 -2l-10 127l38 46l115 -21l17 70l-102 9q-36 0 -73 -28q-15 -12 -30.5 -45t-15.5 -52v-107l-91 15v-88l91 9v-288z" />
    <glyph glyph-name="yen" unicode="&#xa5;" 
d="M718 -145l-189 -13l-325 7l-171 18l12 27v85l17 35l-17 28l-12 88q8 3 18 11l3 324l8 38l-7 22l-29 -298l27 499q0 2 1 4v4q0 7 -3 13l242 1l-138 -11l172 -10l227 9l-203 9l27 12q9 -8 30 -9l299 -14q5 -15 5 -24q0 -12 -7 -17q4 -16 4 -30q0 -6 -2 -16.5t-2 -14.5v-3
l5 -58l-3 -454q2 -7 8 -14l-14 -34l17 -25l-17 -36l17 -29l-11 -65zM591 511l-94 57l-136 -291l-92 297l-109 -45l141 -278l-82 196l114 -229l-103 6l9 -67l90 12v-35h-93v-59l93 12v-97l111 9l-14 99h82v67l-86 -17q-13 0 -13 19q0 1 1 5v5l82 4l21 58l-116 -9z" />
    <glyph glyph-name="section" unicode="&#xa7;" horiz-adv-x="500" 
d="M433 258q0 -26 -22 -53q-13 -15 -61 -60q32 -40 35 -59q2 -15 2 -24q0 -103 -142 -135q-15 0 -36.5 -1t-29.5 -1q-37 0 -56 13q-10 8 -57 37q19 16 76 65q19 -13 38 -25.5t36 -12.5q22 0 39 9.5t17 20.5t-12.5 33t-23.5 44q-15 26 -35 42q-71 57 -74 60q-32 32 -32 66
q0 29 30 58q41 39 45 46q-48 48 -59 62q-22 27 -22 49q0 40 28.5 77.5t65.5 46.5q23 10 45 20q40 16 73 16q30 0 124 -39q-7 -9 -50 -91q-35 41 -67 41q-35 0 -57 -15.5t-22 -40.5q0 -29 26 -47q10 -6 75 -34q17 -7 40 -41q2 -3 52 -53q10 -10 10 -34v-17q0 -3 1 -10v-13z
M312 252q0 38 -76 91q-23 -26 -23 -47q0 -17 19 -41q23 -26 47 -53q33 24 33 50z" />
    <glyph glyph-name="copyright" unicode="&#xa9;" horiz-adv-x="271" 
d="M253 605q0 -46 -32.5 -78t-79.5 -32q-43 0 -75.5 33t-32.5 79q0 42 32.5 75t77.5 33t77.5 -32.5t32.5 -77.5zM237 605q0 39 -27.5 66t-66.5 27t-66 -27.5t-27 -65.5t27.5 -65.5t65.5 -27.5t66 27t28 66zM195 586q0 -48 -53 -48q-55 0 -55 68q0 29 16 47t42 18
q47 0 49 -42h-27q-2 22 -23 22q-28 0 -28 -45q0 -44 28 -44q22 0 24 24h27z" />
    <glyph glyph-name="guillemotleft" unicode="&#xab;" horiz-adv-x="450" 
d="M404 483q-42 -49 -50 -59q-31 -40 -54 -83q-1 -1 -5 -1h-3q-2 1 -5 1q-6 0 -9 -12q39 -94 120 -166q-24 -54 -55 -139q-7 36 -29 78l-38 70q-9 19 -23 59q-11 36 -21 51q-3 -1 -5 -1q-6 0 -29 42q24 43 79 146q15 18 29 37q23 29 31 65q1 3 10 22q40 -99 57 -110z
M272 516q-6 -16 -40 -53q-39 -42 -59 -75q-4 -2 -14 -2q-1 1 -3 1q-9 0 -29 -59l38 -54q24 -38 38 -83q19 -61 66 -86q-16 -30 -48 -112q-8 17 -42 70q-24 39 -32 68q-9 34 -30 67q-47 75 -71 138q62 89 115 206q36 79 52 79z" />
    <glyph glyph-name="registered" unicode="&#xae;" horiz-adv-x="271" 
d="M253 605q0 -46 -32.5 -78t-79.5 -32q-43 0 -75.5 33t-32.5 79q0 42 32.5 75t77.5 33t77.5 -32.5t32.5 -77.5zM237 605q0 39 -27.5 66t-66.5 27t-66 -27.5t-27 -65.5t27.5 -65.5t65.5 -27.5t66 27t28 66zM193 546h-28l-23 48h-17v-48h-26v118h43q50 0 50 -34
q0 -25 -25 -32zM166 628q0 18 -25 18h-16v-34h17q24 0 24 16z" />
    <glyph glyph-name="paragraph" unicode="&#xb6;" horiz-adv-x="600" 
d="M513 -171q-10 6 -21 6q-6 0 -19.5 -3.5t-20.5 -3.5t-22.5 5t-21.5 5q-4 0 -29 -9q-1 11 -2.5 27t-1.5 21q0 11 5.5 36.5t5.5 38.5q0 15 -1.5 46.5t-1.5 48.5q0 12 3.5 32t3.5 24v238q0 12 -3.5 90t-3.5 144v58q0 10 -7 18h-23q-6 -13 -6 -35q0 5 2 -53q6 -15 6 -18v-192
v-18q-1 -11 -1 -14q0 -47 6 -126t6 -110q0 -108 -30 -183q-27 -68 -60 -68h-19q-11 0 -32 -7.5t-29 -7.5q-70 0 -107 49q25 39 75 94q12 -11 24.5 -21.5t29.5 -10.5q16 0 16 15q0 9 21 36.5t21 64.5v6q-1 4 -1 7v224q-136 15 -182 66q-3 3 -40 55q-23 32 -23 99q0 76 66 156
q36 43 65 43q-2 0 38 25t67 25h96q3 0 11 -3t12 -3q11 0 38 8t40 8q10 0 21 -4v-1q0 9 6 -41t6 -114v-40l3 -294q0 -15 -6 -46.5t-6 -46.5q0 -4 4 -16t5 -22q-3 -4 -3 -7q0 -2 1.5 -4t1.5 -6q0 -6 -4.5 -12t-4.5 -8q0 11 11 -53.5t11 -143.5v-31l4 -2v-41z" />
    <glyph glyph-name="periodcentered" unicode="&#xb7;" horiz-adv-x="224" 
d="M197 367q-11 -103 -11 -109q0 -12 4 -30q-13 -1 -30 -2.5t-22 -1.5q-7 0 -22 3.5t-23 3.5q-10 0 -43 -9l-4 3q4 22 4 58q0 45 -13 87q20 2 39 5q16 2 17 2q6 0 24 -4.5t29 -4.5q5 0 43 5q5 0 8 -6z" />
    <glyph glyph-name="periodcentered" unicode="&#x2219;" horiz-adv-x="224" 
d="M197 367q-11 -103 -11 -109q0 -12 4 -30q-13 -1 -30 -2.5t-22 -1.5q-7 0 -22 3.5t-23 3.5q-10 0 -43 -9l-4 3q4 22 4 58q0 45 -13 87q20 2 39 5q16 2 17 2q6 0 24 -4.5t29 -4.5q5 0 43 5q5 0 8 -6z" />
    <glyph glyph-name="guillemotright" unicode="&#xbb;" horiz-adv-x="450" 
d="M403 281q-61 -89 -115 -207q-37 -78 -51 -78q-1 0 -60 105q6 16 39 52q40 42 60 76q5 2 15 2q1 -1 3 -1q8 0 28 59q-19 29 -39 57q-24 39 -36 81q-17 57 -66 85q17 32 47 112q10 -20 51 -85q24 -39 25 -60q5 -22 77 -134v-5q0 -16 8 -32q13 -25 14 -27zM252 294
q-38 -71 -81 -150q-16 -18 -32 -37q-23 -27 -26 -61q-2 -1 -10 -21q-26 59 -31 72q-15 29 -26 38l46 54q34 42 57 88h9l4 -2q6 0 9 13q-39 94 -120 166q44 96 55 140q9 -41 47 -112q26 -48 45 -103q15 -40 20 -44q1 0 2 1h2q2 0 6 -2q5 -5 24 -40z" />
    <glyph glyph-name="onehalf" unicode="&#xbd;" horiz-adv-x="383" 
d="M282 607l-56 -72l-56 56l54 -100l-77 95l53 75zM355 72q-68 -89 -146 -89q-73 0 -106.5 24.5t-62.5 96.5l9 137l65 70l-50 -88l106 133l-17 116h89l-24 -206q-50 -11 -55 -13q-19 -8 -20 -31h-29l-16 -46q9 -80 71 -135h62l70 103z" />
    <glyph glyph-name="threequarters" unicode="&#xbe;" horiz-adv-x="270" 
d="M210 609l-53 -72l-52 52l50 -95l-72 95l49 74zM190 10l-96 -21l25 349l-48 -375l50 520h56z" />
    <glyph glyph-name="questiondown" unicode="&#xbf;" 
d="M724 6l-27 312l-7 -20l12 -79l3 -313l8 -6v-37h-3q-8 0 -8 -5t9 -6l-99 -4h-161l138 5l-172 11l-284 -8l238 -7l-5 -10q-14 8 -24 8h-301q-3 6 -3 9q0 5 5 8q-4 2 -8 2h-3v27q0 7 6 9q-4 18 -4 27t4 31v94l-9 12l23 25l-18 34l18 25l-21 122l7 24v187l8 63l-6 22l-8 175
l183 9l318 -3l14 -6l146 -7l-6 -6v-28l11 15zM450 610l-82 54l-53 -75l77 -95l-54 99l56 -55zM523 75l-54 72l-70 -103h-62q-61 53 -71 135l16 45h29q1 23 20 31q2 1 55 14l24 206h-89l17 -116l-106 -133l50 88l-65 -71l-9 -136q27 -71 60.5 -96t104.5 -25q48 0 83 22
q31 20 67 67z" />
    <glyph glyph-name="Agrave" unicode="&#xc0;" 
d="M728 554h-9l-4 13l8 1zM37 743l-8 -2l-5 14h8zM713 -131l-14 -4l11 -8l-6 -8q-31 -2 -77 -2h-112q-66 1 -86 1q-26 0 -45 -4l-27 12l293 4l-608 3q-1 43 -5 94q-4 46 -4 53q0 -3 10 131q10 150 15 312l-14 15l17 18v30q-13 6 -28 20l12 4q2 9 8 17v155l-11 3q0 6 -7 13
l542 13l-524 -3l3 10l610 -2q6 -4 10 -7q-1 -33 -3 -68.5t-2 -39.5v-12l14 -14l-3 -34l11 -12l-14 -14l14 -11l-5 -14v-300l17 -59v-132q0 -49 4 -94t4 -42v-24zM48 486l-20 22l16 7zM33 155l-19 21l13 5zM238 -147l-97 -13l-98 13h195zM452 590l-160 107l-42 -59l163 -76
l-49 28l74 -33zM625 13l-278 547l-91 -299l2 -5l-97 -306l67 -14l75 225h163l75 -194zM173 13v7h-5v-7h5zM169 2v8h-5v-8h5zM167 -7v7h-6v-7h6zM163 -18v8h-5v-8h5zM468 223l-36 61l-2 -8l32 -64l-144 14l43 181l74 -122zM273 298l-9 -33h-4l9 33h4z" />
    <glyph glyph-name="Aacute" unicode="&#xc1;" 
d="M728 554h-9l-4 13l8 1zM37 743l-8 -2l-5 14h8zM713 -131l-14 -4l11 -8l-6 -8q-31 -2 -77 -2h-112q-66 1 -86 1q-26 0 -45 -4l-27 12l293 4l-608 3q-1 43 -5 94q-4 46 -4 53q0 -3 10 131q10 150 15 312l-14 15l17 18v30q-13 6 -28 20l12 4q2 9 8 17v155l-11 3q0 6 -7 13
l542 13l-524 -3l3 10l610 -2q6 -4 10 -7q-1 -33 -3 -68.5t-2 -39.5v-12l14 -14l-3 -34l11 -12l-14 -14l14 -11l-5 -14v-300l17 -59v-132q0 -49 4 -94t4 -42v-24zM48 486l-20 22l16 7zM33 155l-19 21l13 5zM238 -147l-97 -13l-98 13h195zM457 638l-24 53l-79 -50h-2l54 40
l-146 -91l14 -24zM625 13l-278 547l-91 -299l2 -5l-97 -306l67 -14l75 225h163l75 -194zM173 13v7h-5v-7h5zM169 2v8h-5v-8h5zM167 -7v7h-6v-7h6zM163 -18v8h-5v-8h5zM468 223l-36 61l-2 -8l32 -64l-144 14l43 181l74 -122zM273 298l-9 -33h-4l9 33h4z" />
    <glyph glyph-name="Acircumflex" unicode="&#xc2;" 
d="M728 554h-9l-4 13l8 1zM37 743l-8 -2l-5 14h8zM713 -131l-14 -4l11 -8l-6 -8q-31 -2 -77 -2h-112q-66 1 -86 1q-26 0 -45 -4l-27 12l293 4l-608 3q-1 43 -5 94q-4 46 -4 53q0 -3 10 131q10 150 15 312l-14 15l17 18v30q-13 6 -28 20l12 4q2 9 8 17v155l-11 3q0 6 -7 13
l542 13l-524 -3l3 10l610 -2q6 -4 10 -7q-1 -33 -3 -68.5t-2 -39.5v-12l14 -14l-3 -34l11 -12l-14 -14l14 -11l-5 -14v-300l17 -59v-132q0 -49 4 -94t4 -42v-24zM48 486l-20 22l16 7zM33 155l-19 21l13 5zM238 -147l-97 -13l-98 13h195zM441 577l-88 134l-96 -141l46 -21
l43 96l21 -49l-2 27l4 1l29 -78zM625 13l-278 547l-91 -299l2 -5l-97 -306l67 -14l75 225h163l75 -194zM173 13v7h-5v-7h5zM169 2v8h-5v-8h5zM167 -7v7h-6v-7h6zM163 -18v8h-5v-8h5zM468 223l-36 61l-2 -8l32 -64l-144 14l43 181l74 -122zM273 298l-9 -33h-4l9 33h4z" />
    <glyph glyph-name="Atilde" unicode="&#xc3;" 
d="M728 554h-9l-4 13l8 1zM37 743l-8 -2l-5 14h8zM713 -131l-14 -4l11 -8l-6 -8q-31 -2 -77 -2h-112q-66 1 -86 1q-26 0 -45 -4l-27 12l293 4l-608 3q-1 43 -5 94q-4 46 -4 53q0 -3 10 131q10 150 15 312l-14 15l17 18v30q-13 6 -28 20l12 4q2 9 8 17v155l-11 3q0 6 -7 13
l542 13l-524 -3l3 10l610 -2q6 -4 10 -7q-1 -33 -3 -68.5t-2 -39.5v-12l14 -14l-3 -34l11 -12l-14 -14l14 -11l-5 -14v-300l17 -59v-132q0 -49 4 -94t4 -42v-24zM48 486l-20 22l16 7zM33 155l-19 21l13 5zM238 -147l-97 -13l-98 13h195zM475 637v61h-38v-27q0 -8 -16 -43
l-20 -3l-68 58h-48q-30 -45 -36 -93l10 -26q12 2 16 2q6 0 16 -2v33q0 19 19 39q9 6 20 8q23 -49 35 -64q18 -22 47 -22q19 0 40.5 20t21.5 39q0 1 -1 12t-1 22zM625 13l-278 547l-91 -299l2 -5l-97 -306l67 -14l75 225h163l75 -194zM173 13v7h-5v-7h5zM169 2v8h-5v-8h5z
M167 -7v7h-6v-7h6zM163 -18v8h-5v-8h5zM468 223l-36 61l-2 -8l32 -64l-144 14l43 181l74 -122zM273 298l-9 -33h-4l9 33h4z" />
    <glyph glyph-name="Adieresis" unicode="&#xc4;" 
d="M728 554h-9l-4 13l8 1zM37 743l-8 -2l-5 14h8zM713 -131l-14 -4l11 -8l-6 -8q-31 -2 -77 -2h-112q-66 1 -86 1q-26 0 -45 -4l-27 12l293 4l-608 3q-1 43 -5 94q-4 46 -4 53q0 -3 10 131q10 150 15 312l-14 15l17 18v30l-28 20l12 4q2 9 8 17v155l-11 3q0 6 -7 13l542 13
l-524 -3l3 10l610 -2q6 -4 10 -7q-1 -33 -3 -68.5t-2 -39.5v-12l14 -14l-3 -34l11 -12l-14 -14l14 -11l-5 -14v-300l17 -59v-132q0 -49 4 -94t4 -42v-24zM48 486l-20 22l16 7zM33 155l-19 21l13 5zM238 -147l-97 -13l-98 13h195zM436 577v76l-64 -13v-63h64zM341 577v78
l-67 8v-97zM625 13l-278 547l-91 -299l2 -5l-97 -306l67 -14l75 225h163l75 -194zM173 13v7h-5v-7h5zM169 2v8h-5v-8h5zM167 -7v7h-6v-7h6zM163 -18v8h-5v-8h5zM468 223l-36 61l-2 -8l32 -64l-144 14l43 181l74 -122zM273 298l-9 -33h-4l9 33h4z" />
    <glyph glyph-name="Aring" unicode="&#xc5;" 
d="M728 554h-9l-4 13l8 1zM37 743l-8 -2l-5 14h8zM713 -131l-14 -4l11 -8l-6 -8q-31 -2 -77 -2h-112q-66 1 -86 1q-26 0 -45 -4l-27 12l293 4l-608 3q-1 43 -5 94q-4 46 -4 53q0 -3 10 131q10 150 15 312l-14 15l17 18v30l-28 20l12 4q2 9 8 17v155l-11 3q0 6 -7 13l542 13
l-524 -3l3 10l610 -2q6 -4 10 -7q-1 -33 -3 -68.5t-2 -39.5v-12l14 -14l-3 -34l11 -12l-14 -14l14 -11l-5 -14v-300l17 -59v-132q0 -49 4 -94t4 -42v-24zM48 486l-20 22l16 7zM33 155l-19 21l13 5zM238 -147l-97 -13l-98 13h195zM625 13l-263 516l14 -1h2q24 0 45 28
q22 32 31 88l-74 56q-46 -1 -76 -27t-30 -54q0 -34 18 -58.5t47 -28.5l-83 -271l2 -5l-97 -306l67 -14l75 225h163l75 -194zM173 13v7h-5v-7h5zM169 2v8h-5v-8h5zM167 -7v7h-6v-7h6zM163 -18v8h-5v-8h5zM408 627q0 -15 -7 -44q-24 -22 -33 -24l-41 19q-4 24 -4 34
q0 21 18 38t38 17q5 0 17 -16.5t12 -23.5zM468 223l-36 61l-2 -8l32 -64l-144 14l43 181l74 -122zM273 298l-9 -33h-4l9 33h4z" />
    <glyph glyph-name="AE" unicode="&#xc6;" horiz-adv-x="854" 
d="M38 744l-8 2l-6 6v6l13 -4zM826 -138q-12 -13 -31 -15l-41 5h-243q-10 0 -21 -8q-12 12 -36 17l-126 -3l-38 9h-254l13 180v353l12 37v19l-16 15l16 23v25l-28 20l13 5q3 8 3 16v156l-10 15l323 8l-19 3h-289l3 9l727 -8v-101l9 -63q5 -11 12 -17l-14 -11l13 -14l-5 -14
v-294l18 -71v-196l9 -89l-12 -5zM50 494q-7 4 -17 18l11 2q1 0 6 -20zM34 163q-12 5 -18 15l10 4zM250 -143l-60 -10h-32l-116 10h208zM624 734v6l-220 1v-6zM305 499v9h-7v-9h7zM691 81l-37 110l-152 -120l-17 185h122v83l-122 -26v220l91 -12h-58l155 -17v89l-328 -24
l-150 -371l104 297l-183 -463l104 -26l30 190q0 8 5 15l154 12l18 -228zM781 -140v6h-308l1 -6h307zM605 517h-22v5h22v-5zM403 265h-123l113 265z" />
    <glyph glyph-name="Ccedilla" unicode="&#xc7;" 
d="M718 606l-2 -22l-13 18zM723 -102l-20 -19l8 -4h-229l26 7l-172 -11l183 -3l-37 -7h-435q5 5 5 12q0 8 -5 13l-8 -8l2 151l9 37l-12 29l15 32l-15 18l20 2l-40 34l16 1l16 83v199l5 18l-17 10l13 11v205l11 26h17l5 5l-14 12l548 -14l26 20v-30h48v-261l11 -36v124l3 -8
l5 -472zM668 -140h-25v6h25v-6zM628 -138l-8 -5v10h8v-5zM620 732h-318l311 -6zM701 278v42h-7v-42h7zM577 573l-49 14l31 -23l-6 -3l-83 44l-77 8q-38 -3 -76 -24l-21 -4l-69 -97l-33 -216l20 76l2 -9q-5 -27 -5 -49q0 -111 84 -197q28 -16 73 -23l-35 -138l90 -12v113
l-11 -68l-5 5v97h17l109 31l-20 84l-101 -68h-42l-68 101l-12 143l11 61l-29 -71q0 18 5 27q14 76 39 120.5t72 69.5l150 -70z" />
    <glyph glyph-name="Egrave" unicode="&#xc8;" 
d="M734 748l-18 1l10 10zM725 504l-20 -17q1 13 12 25zM738 164l-18 -16l8 21zM724 535l-32 -21v-31l18 -18l-15 -15v-20l8 -126l18 -314q0 1 -3 -42q-4 -50 -6 -104q-272 0 -646 -5l6 -2h316q-20 0 -27 -16l-7 5q-160 0 -322 3l-8 8l10 8l-11 6l5 255q3 32 11 156l8 -53
q4 114 4 155q0 94 -8 169l15 14l-15 12l12 12l-3 35l15 15q-7 35 -7 82q0 27 1 41l6 6l627 3l6 -11l-328 -1l346 -9q-6 -6 -6 -13l-11 -3v-160q5 -6 6 -14zM16 552l-10 6l9 7zM713 -166l-103 -14q-90 10 -162 14h265zM486 610l-176 78l-32 -66l174 -46l-56 19h6l75 -20z
M591 518l-355 3q4 -29 4 -66q0 -29 -3 -58l9 32q-7 -247 -17 -427l-3 100h-2v-132l316 50l-17 87l-203 -71q-1 33 -1 91q0 69 1 96h114v71l-120 -21q3 105 10 194l211 -20l-146 -3l184 -12zM231 143v45h-6v-45h6z" />
    <glyph glyph-name="Eacute" unicode="&#xc9;" 
d="M734 748l-18 1l10 10zM725 504l-20 -17q1 13 12 25zM738 164l-18 -16l8 21zM724 535l-32 -21v-31l18 -18l-15 -15v-20l8 -126l18 -314q0 1 -3 -42q-4 -50 -6 -104l-324 -7q-20 0 -27 -16l-329 8l-8 8l10 8l-11 6l5 255q3 32 11 156l8 -53q4 114 4 155q0 94 -8 169l15 14
l-15 12l12 12l-3 35l15 15q-7 35 -7 82q0 27 1 41l6 6l627 3l6 -11l-328 -1l346 -9q-6 -6 -6 -13l-11 -3v-160q5 -6 6 -14zM16 552l-10 6l9 7zM713 -166l-103 -14q-90 10 -162 14h265zM510 638l-23 53l-80 -50h-2l54 40l-146 -90l14 -25zM591 518l-355 3q4 -29 4 -66
q0 -29 -3 -58l9 32q-7 -247 -17 -427l-3 100h-2v-132l316 50l-17 87l-203 -71q-1 33 -1 91q0 69 1 96h114v71l-120 -21q3 105 10 194l211 -20l-146 -3l184 -12zM231 143v45h-6v-45h6z" />
    <glyph glyph-name="Ecircumflex" unicode="&#xca;" 
d="M734 748l-18 1l10 10zM725 504l-20 -17q1 13 12 25zM738 164l-18 -16l8 21zM724 535l-32 -21v-31l18 -18l-15 -15v-20l8 -126l18 -314q0 1 -3 -42q-4 -50 -6 -104q-272 0 -646 -5l6 -2h316q-20 0 -27 -16l-7 5q-160 0 -322 3l-8 8l10 8l-11 6l5 255q3 32 11 156l8 -53
q4 114 4 155q0 94 -8 169l15 14l-15 12l12 12l-3 35l15 15q-7 35 -7 82q0 27 1 41l6 6l627 3l6 -11l-328 -1l346 -9q-6 -6 -6 -13l-11 -3v-160q5 -6 6 -14zM16 552l-10 6l9 7zM713 -166l-103 -14q-90 10 -162 14h265zM477 579l-88 134l-96 -141l46 -21l43 96l21 -49l-2 26
l4 2l29 -78zM591 518l-355 3q4 -29 4 -66q0 -29 -3 -58l9 32q-7 -247 -17 -427l-3 100h-2v-132l316 50l-17 87l-203 -71q-1 33 -1 91q0 69 1 96h114v71l-120 -21q3 105 10 194l211 -20l-146 -3l184 -12zM231 143v45h-6v-45h6z" />
    <glyph glyph-name="Edieresis" unicode="&#xcb;" 
d="M734 748l-18 1l10 10zM725 504l-20 -17q1 13 12 25zM738 164l-18 -16l8 21zM724 535l-32 -21v-31l18 -18l-15 -15v-20l8 -126l18 -314q0 1 -3 -42q-4 -50 -6 -104q-272 0 -646 -5l6 -2h316q-20 0 -27 -16l-7 5q-160 0 -322 3l-8 8l10 8l-11 6l5 255q3 32 11 156l8 -53
q4 114 4 155q0 94 -8 169l15 14l-15 12l12 12l-3 35l15 15q-7 35 -7 82q0 27 1 41l6 6l627 3l6 -11l-328 -1l346 -9q-6 -6 -6 -13l-11 -3v-160q5 -6 6 -14zM16 552l-10 6l9 7zM713 -166l-103 -14q-90 10 -162 14h265zM480 587v77l-64 -13v-64h64zM385 588v78l-67 8v-97z
M591 518l-355 3q4 -29 4 -66q0 -29 -3 -58l9 32q-7 -247 -17 -427l-3 100h-2v-132l316 50l-17 87l-203 -71q-1 33 -1 91q0 69 1 96h114v71l-120 -21q3 105 10 194l211 -20l-146 -3l184 -12zM231 143v45h-6v-45h6z" />
    <glyph glyph-name="Igrave" unicode="&#xcc;" 
d="M714 736l-13 -4l8 16zM707 -85h-11v-37l-11 -6l8 -4q-8 -12 -25 -17l-39 6h-229q-9 0 -19 -8q-13 11 -30 15l250 1l54 3h-610v49l20 -1q-4 4 -11 4h-4v124l6 6l-3 6v34l16 35l-13 22l13 14l-13 11l-9 353l6 33v60l5 45v72l74 12l22 -7l530 3l1 -12l-508 4l522 -14
q-4 -12 -14 -16l6 -96l3 -341l-7 6l-4 -42l8 -51v-256zM45 46l-5 1l-6 9l-2 12l13 -12v-10zM241 -139l-57 -10h-31l-109 10h197zM686 448v8h-7v-8h7zM686 371v28h-7v-28h7zM689 280v85h-7v-85h7zM475 601l-176 78l-31 -66l174 -46l-56 19l2 1l79 -21zM414 509l-72 6l-40 -6
l6 -179l6 111l8 -354l3 397l10 -498h60z" />
    <glyph glyph-name="Iacute" unicode="&#xcd;" 
d="M714 736l-13 -4l8 16zM707 -85h-11v-37l-11 -6l8 -4q-8 -12 -25 -17l-39 6h-229q-9 0 -19 -8q-13 11 -30 15l250 1l54 3h-610v49l20 -1q-4 4 -11 4h-4v124l6 6l-3 6v34l16 35l-13 22l13 14l-13 11l-9 353l6 33v60l5 45v72l74 12l22 -7l530 3l1 -12l-508 4l522 -14
q-4 -12 -14 -16l6 -96l3 -341l-7 6l-4 -42l8 -51v-256zM46 46l-6 2l-6 8l-2 12l12 -10zM241 -139l-57 -10h-31l-109 10h197zM686 448v8h-7v-8h7zM686 371v28h-7v-28h7zM689 280v85h-7v-85h7zM466 637l-24 53l-79 -51l-2 1l54 39l-146 -90l14 -25zM414 509l-72 6l-40 -6
l6 -179l6 111l8 -354l3 397l10 -498h60z" />
    <glyph glyph-name="Icircumflex" unicode="&#xce;" 
d="M714 736l-13 -4l8 16zM707 -85h-11v-37l-11 -6l8 -4q-8 -12 -25 -17l-39 6h-229q-9 0 -19 -8q-13 11 -30 15l250 1l54 3h-610v49l20 -1q-4 4 -11 4h-4v124l6 6l-3 6v34l16 35l-13 22l13 14l-13 11l-9 353l6 33v60l5 45v72l74 12l22 -7l530 3l1 -12l-508 4l522 -14
q-4 -12 -14 -16l6 -96l3 -341l-7 6l-4 -42l8 -51v-256zM45 46l-5 1l-6 9l-2 12l13 -12v-10zM241 -139l-57 -10h-31l-109 10h197zM686 448v8h-7v-8h7zM686 371v28h-7v-28h7zM689 280v85h-7v-85h7zM445 566l-90 133q-40 -61 -93 -143l46 -20l42 96l21 -48l-2 26l4 2l29 -77z
M414 509l-72 6l-40 -6l6 -179l6 111l8 -354l3 397l10 -498h60z" />
    <glyph glyph-name="Idieresis" unicode="&#xcf;" 
d="M714 736l-13 -4l8 16zM707 -85h-11v-37l-11 -6l8 -4q-8 -12 -25 -17l-39 6h-229q-9 0 -19 -8q-13 11 -30 15l250 1l54 3h-610v49l20 -1q-4 4 -11 4h-4v124l6 6l-3 6v34l16 35l-13 22l13 14l-13 11l-9 353l6 33v60l5 45v72l74 12l22 -7l530 3l1 -12l-508 4l522 -14
q-4 -12 -14 -16l6 -96l3 -341l-7 6l-4 -42l8 -51v-256zM45 46l-5 1l-6 9l-2 12l13 -12v-10zM241 -139l-57 -10h-31l-109 10h197zM686 448v8h-7v-8h7zM686 371v28h-7v-28h7zM439 578v76l-64 -13v-63h64zM689 280v85h-7v-85h7zM344 578v79l-67 8v-97zM414 509l-72 6l-40 -6
l6 -179l6 111l8 -354l3 397l10 -498h60z" />
    <glyph glyph-name="Ntilde" unicode="&#xd1;" 
d="M727 490q-4 -5 -11 -5h-4l-4 10l11 7zM735 98l-10 -7l-5 6l10 7zM48 733l-15 -3v6l15 3v-6zM714 -171q-176 7 -374 13l79 3q-108 6 -192 6q-21 0 -64.5 -1t-65.5 -1h-50l-15 21q3 6 6 10v13l-9 5v-19l-11 -6v22l14 8q6 51 15 60q-3 9 -9 9q-3 0 -5 -10v26q0 -5 9 306
l8 -20l2 21l-11 35l14 26l-17 8v55l-15 16q15 8 21 19q-6 3 -24 15l15 12q-2 16 -2 22q0 24 10 44q-8 41 -8 95q0 26 12 65l8 8l-3 12q9 6 33.5 8.5t50.5 5.5q-24 2 -43 2h-18q-12 -1 -19 -1l6 14l297 -10q132 -11 278 -11q10 0 32 1h33l3 -16l-20 -6l20 -16v-273l-6 -6
q0 -31 -5 -88q5 -12 5 -17q0 -3 -1.5 -12t-1.5 -14q0 -9 9 -18v-18l-8 -9l5 -8l-11 -145l16 -93l6 72zM32 450l-7 -8h-16l7 8h16zM279 742v7h-21v-7h21zM496 635q0 11 -2 45h-36v-28q0 -7 -15 -45l-19 -3l-65 60h-46q-19 -21 -34 -97l9 -26h31v34q0 17 10.5 32t26.5 17
q8 -15 25 -31l25 -25l28 -33q36 10 49 34q13 21 13 66zM706 -49v36h-6v-36h6zM703 -95v36h-6v-36h6zM569 218v113l-3 70l-1 121h-24l-62 -12v-36q0 -4 5 -90q5 -101 8 -204l-247 293l-65 -503h77l-28 9l40 2q11 313 22 364q5 -38 5 -75l9 67l240 -348l9 522zM523 -158v5h-77
v-5h77zM53 52v13h-5v-13h5zM50 32v13h-5v-13h5zM48 5v11h-5v-11h5zM44 -17v11h-7v-11h7z" />
    <glyph glyph-name="Ograve" unicode="&#xd2;" 
d="M715 6l-26 304q-7 -4 -7 -13v-3l12 -78q-4 -33 -4 -78q0 -4 1 -42l5 -192l9 -3v-36q-10 0 -10 -6q0 -2 7 -5l-97 -13l-111 13l88 3l-169 9l-281 -6l256 -3q-23 -1 -26 -16q-11 9 -29 9l-231 -2q-2 0 -15 -2t-25 -2l-21 6q-5 7 -5 9l7 7l-11 1v27l6 9q-3 19 -3 32
q0 5 1.5 14t1.5 13v91l-9 12l23 25l-17 33l17 25q-14 22 -14 29q0 1 1 3l5 5l-12 83l6 23v185l8 63l-6 21l-8 172l181 9l314 -3l14 -5l144 -7l-6 -9v-20l2 -2l9 11zM459 606l-176 78l-32 -66l174 -46l-56 19h2l79 -20zM575 234l-10 140q-38 75 -97 121q-42 32 -59 32h-62
q-34 0 -71 -35q-7 -7 -67 -76q-9 -24 -26 -134l-3 -120q30 -104 115 -184l81 -5q16 -1 22 -1q75 0 112 45q30 37 61 145zM508 208l-33 -154v39q-3 -31 -7.5 -40.5t-20.5 -18.5q-43 -25 -65 -25q-12 0 -50 17l-22 28q-24 31 -24 40v3l-13 124v-102l-22 157l38 164l135 11
q23 0 48 -41.5t25 -85.5v-13zM480 100v10h-7v-10h7z" />
    <glyph glyph-name="Oacute" unicode="&#xd3;" 
d="M715 6l-26 304q-7 -4 -7 -13v-3l12 -78q-4 -33 -4 -78q0 -4 1 -42l5 -192l9 -3v-36q-10 0 -10 -6q0 -2 7 -5l-97 -13l-111 13l88 3l-169 9l-281 -6l256 -3q-23 -1 -26 -16q-11 9 -29 9l-231 -2q-2 0 -15 -2t-25 -2l-21 6q-5 7 -5 9l7 7l-11 1v27l6 9q-3 19 -3 32
q0 5 1.5 14t1.5 13v91l-9 12l23 25l-17 33l17 25q-14 22 -14 29q0 1 1 3l5 5l-12 83l6 23v185l8 63l-6 21l-8 172l181 9l314 -3l14 -5l144 -7l-6 -9v-20l2 -2l9 11zM455 635l-23 53l-80 -51h-2l54 40l-146 -90l14 -25zM575 234l-10 140q-38 75 -97 121q-42 32 -59 32h-62
q-34 0 -71 -35q-7 -7 -67 -76q-9 -24 -26 -134l-3 -120q30 -104 115 -184l81 -5q16 -1 22 -1q75 0 112 45q30 37 61 145zM508 208l-33 -154v39q-3 -31 -7.5 -40.5t-20.5 -18.5q-43 -25 -65 -25q-12 0 -50 17l-22 28q-24 31 -24 40v3l-13 124v-102l-22 157l38 164l135 11
q23 0 48 -41.5t25 -85.5v-13zM480 100v10h-7v-10h7z" />
    <glyph glyph-name="Ocircumflex" unicode="&#xd4;" 
d="M715 6l-26 304q-7 -4 -7 -13v-3l12 -78q-4 -33 -4 -78q0 -4 1 -42l5 -192l9 -3v-36q-10 0 -10 -6q0 -2 7 -5l-97 -13l-111 13l88 3l-169 9l-281 -6l256 -3q-23 -1 -26 -16q-11 9 -29 9l-231 -2q-2 0 -15 -2t-25 -2l-21 6q-5 7 -5 9l7 7l-11 1v27l6 9q-3 19 -3 32
q0 5 1.5 14t1.5 13v91l-9 12l23 25l-17 33l17 25q-14 22 -14 29q0 1 1 3l5 5l-12 83l6 23v185l8 63l-6 21l-8 172l181 9l314 -3l14 -5l144 -7l-6 -9v-20l2 -2l9 11zM455 578l-93 131l-91 -144l47 -20l40 98l22 -48l-3 26l4 2l31 -77zM575 234l-10 140q-38 75 -97 121
q-42 32 -59 32h-62q-34 0 -71 -35q-7 -7 -67 -76q-9 -24 -26 -134l-3 -120q30 -104 115 -184l81 -5q16 -1 22 -1q75 0 112 45q30 37 61 145zM508 208l-33 -154v39q-3 -31 -7.5 -40.5t-20.5 -18.5q-43 -25 -65 -25q-12 0 -50 17l-22 28q-24 31 -24 40v3l-13 124v-102l-22 157
l38 164l135 11q23 0 48 -41.5t25 -85.5v-13zM480 100v10h-7v-10h7z" />
    <glyph glyph-name="Otilde" unicode="&#xd5;" 
d="M715 6l-26 304q-7 -4 -7 -13v-3l12 -78q-4 -33 -4 -78q0 -4 1 -42l5 -192l9 -3v-36q-10 0 -10 -6q0 -2 7 -5l-97 -13l-111 13l88 3l-169 9l-281 -6l256 -3q-23 -1 -26 -16q-11 9 -29 9l-231 -2q-2 0 -15 -2t-25 -2l-21 6q-5 7 -5 9l7 7l-11 1v27l6 9q-3 19 -3 32
q0 5 1.5 14t1.5 13v91l-9 12l23 25l-17 33l17 25q-14 22 -14 29q0 1 1 3l5 5l-12 83l6 23v185l8 63l-6 21l-8 172l181 9l314 -3l14 -5l144 -7l-6 -9v-20l2 -2l9 11zM466 632v58h-35v-26l-15 -41l-19 -2l-64 55h-45q-16 -20 -24 -46q-5 -22 -10 -43l9 -24q6 1 18 1q7 0 13 -1
v31q0 18 17 37q7 5 19 7q53 -73 77 -81q58 16 58 55q0 3 -1 14t-1 19zM575 234l-10 140q-38 75 -97 121q-42 32 -59 32h-62q-34 0 -71 -35q-7 -7 -67 -76q-9 -24 -26 -134l-3 -120q30 -104 115 -184l81 -5q16 -1 22 -1q75 0 112 45q30 37 61 145zM508 208l-33 -154v39
q-3 -31 -7.5 -40.5t-20.5 -18.5q-43 -25 -65 -25q-12 0 -50 17l-22 28q-24 31 -24 40v3l-13 124v-102l-22 157l38 164l135 11q23 0 48 -41.5t25 -85.5v-13zM480 100v10h-7v-10h7z" />
    <glyph glyph-name="Odieresis" unicode="&#xd6;" 
d="M715 6l-26 304q-7 -4 -7 -13v-3l12 -78q-4 -33 -4 -78q0 -4 1 -42l5 -192l9 -3v-36q-10 0 -10 -6q0 -2 7 -5l-97 -13l-111 13l88 3l-169 9l-281 -6l256 -3q-23 -1 -26 -16q-11 9 -29 9l-231 -2q-2 0 -15 -2t-25 -2l-21 6q-5 7 -5 9l7 7l-11 1v27l6 9q-3 19 -3 32
q0 5 1.5 14t1.5 13v91l-9 12l23 25l-17 33l17 25q-14 22 -14 29q0 1 1 3l5 5l-12 83l6 23v185l8 63l-6 21l-8 172l181 9l314 -3l14 -5l144 -7l-6 -9v-20l2 -2l9 11zM451 583v76l-64 -13v-63h64zM356 583v79l-67 8v-97zM575 234l-10 140q-38 75 -97 121q-42 32 -59 32h-62
q-34 0 -71 -35q-7 -7 -67 -76q-9 -24 -26 -134l-3 -120q30 -104 115 -184l81 -5q16 -1 22 -1q75 0 112 45q30 37 61 145zM508 208l-33 -154v39q-3 -31 -7.5 -40.5t-20.5 -18.5q-43 -25 -65 -25q-12 0 -50 17l-22 28q-24 31 -24 40v3l-13 124v-102l-22 157l38 164l135 11
q23 0 48 -41.5t25 -85.5v-13zM480 100v10h-7v-10h7z" />
    <glyph glyph-name="Oslash" unicode="&#xd8;" 
d="M715 6l-26 304q-7 -4 -7 -13v-3l12 -78q-4 -33 -4 -78q0 -4 1 -42l5 -192l9 -3v-36q-10 0 -10 -6q0 -2 7 -5l-97 -13l-111 13l88 3l-169 9l-281 -6l256 -3q-23 -1 -26 -16q-11 9 -29 9l-231 -2q-2 0 -15 -2t-25 -2l-21 6q-5 7 -5 9l7 7l-11 1v27l6 9q-3 19 -3 32
q0 5 1.5 14t1.5 13v91l-9 12l23 25l-17 33l17 25q-14 22 -14 29q0 4 6 8l-12 83l6 23v185l8 63l-6 21l-8 172l181 9l314 -3l14 -5l144 -7l-6 -9v-20l2 -2l9 11zM584 611l-59 31l-49 -87q-57 41 -67 41h-62q-34 0 -70 -38q-9 -9 -68 -84q-10 -27 -26 -148l-3 -134
q21 -65 36 -99l-64 -114l59 -31l49 82q19 -18 35 -41l81 -6q13 -1 22 -1q75 0 112 51q31 41 61 159l4 80l-10 156q-22 42 -43 75zM446 501l-168 -298l-5 55v-64l-5 -9l-17 134l38 182l134 12q7 0 23 -12zM508 243l-33 -170v43q-2 -18 -4.5 -34.5t-15.5 -25.5
q-44 -33 -71 -33q-18 0 -38 11q-26 14 -35 37l-6 10l-8 10l173 285l-156 -235l169 295q14 -53 14 -63v-15zM481 123v13h-7v-13h7z" />
    <glyph glyph-name="Ugrave" unicode="&#xd9;" 
d="M708 562l-9 -11l2 -10l-7 -14l-3 -170l12 -90l-14 -242l2 -74q0 -5 1.5 -14.5t1.5 -14.5q0 -17 -4 -37l7 -8v-25l-11 -6l8 -5q-10 -13 -26 -17l-39 6h-231q-8 0 -19 -9q-11 13 -30 17l65 -1l186 4l-396 3l-44 -6q45 -3 96 -3h35l-94 -5l-11 -6h-36l-90 7l5 10l-1 22
l-12 -12l-16 507l26 -313q6 6 6 13v3l-11 81l3 298l-6 24v75l17 35l-17 15l8 15l-12 5v69l-9 3v38h2q6 0 6 4q0 3 -6 7l157 10l12 6l308 3l137 -14l42 5q1 -9 1 -16q0 -8 -3 -19t-3 -14q0 -4 6 -12l-14 -31l17 -26l-17 -34zM487 614l-175 77l-32 -66l174 -46l-56 19h2
l79 -19zM545 162v349h-85l16 -322v-118l-67 -35q-46 4 -62 21t-32 73l1 236l9 -158v292l-116 -22l34 -367q34 -78 48 -95q49 -32 61 -32h92q39 26 49 34q21 15 29 28q23 50 23 116z" />
    <glyph glyph-name="Uacute" unicode="&#xda;" 
d="M708 562l-9 -11l2 -10l-7 -14l-3 -170l12 -90l-14 -242l2 -74q0 -5 1.5 -14.5t1.5 -14.5q0 -17 -4 -37l7 -8v-25l-11 -6l8 -6q-10 -12 -26 -16l-39 6h-231q-8 0 -19 -9q-11 13 -30 17l65 -1l186 5l-396 2l-44 -6q45 -3 96 -3h35l-94 -5l-11 -6h-36l-90 7l5 9l-1 23
l-12 -12l-16 507l26 -313q6 6 6 13v3l-11 81l3 298l-6 24v75l17 35l-17 15l8 15l-12 5v69l-9 3v38h2q6 0 6 4q0 3 -6 7l157 10l12 6l308 3l137 -14l42 5q1 -9 1 -16q0 -8 -3 -19t-3 -14q0 -4 6 -12l-14 -31l17 -26l-17 -34zM483 631l-24 53l-76 -50h-5l53 39l-145 -90
l13 -24zM545 162v349h-85l16 -322v-118l-67 -35q-46 4 -62 21t-32 73l1 236l9 -158v292l-116 -22l34 -367q34 -78 48 -95q49 -32 61 -32h92q39 26 49 34q21 15 29 28q23 50 23 116z" />
    <glyph glyph-name="Ucircumflex" unicode="&#xdb;" 
d="M708 562l-9 -11l2 -10l-7 -14l-3 -170l12 -90l-14 -242l2 -74q0 -5 1.5 -14.5t1.5 -14.5q0 -17 -4 -37l7 -8v-25l-11 -6l8 -5q-10 -13 -26 -17l-39 6h-231q-8 0 -19 -9q-11 13 -30 17l65 -1l186 4l-396 3l-44 -6q45 -3 96 -3h35l-94 -5l-11 -6h-36l-90 7l5 10l-1 22
l-12 -12l-16 507l26 -313q6 6 6 13v3l-11 81l3 298l-6 24v75l17 35l-17 15l8 15l-12 5v69l-9 3v38h2q6 0 6 4q0 3 -6 7l157 10l12 6l308 3l137 -14l42 5q1 -9 1 -16q0 -8 -3 -19t-3 -14q0 -4 6 -12l-14 -31l17 -26l-17 -34zM474 594l-101 125l-81 -151l48 -16l33 100l26 -46
l-5 26l4 2l36 -74zM545 162v349h-85l16 -322v-118l-67 -35q-46 4 -62 21t-32 73l1 236l9 -158v292l-116 -22l34 -367q34 -78 48 -95q49 -32 61 -32h92q39 26 49 34q21 15 29 28q23 50 23 116z" />
    <glyph glyph-name="Udieresis" unicode="&#xdc;" 
d="M708 562l-9 -11l2 -10l-7 -14l-3 -170l12 -90l-14 -242l2 -74q0 -5 1.5 -14.5t1.5 -14.5q0 -17 -4 -37l7 -8v-25l-11 -6l8 -5q-10 -13 -26 -17l-39 6h-231q-8 0 -19 -9q-11 13 -30 17l65 -1l186 4l-396 3l-44 -6q45 -3 96 -3h35l-94 -5l-11 -6h-36l-90 7l5 10l-1 22
l-12 -12l-16 507l26 -313q6 6 6 13v3l-11 81l3 298l-6 24v75l17 35l-17 15l8 15l-12 5v69l-9 3v38h2q6 0 6 4q0 3 -6 7l157 10l12 6l308 3l137 -14l42 5q1 -9 1 -16q0 -8 -3 -19t-3 -14q0 -4 6 -12l-14 -31l17 -26l-17 -34zM461 577v76l-64 -13v-63h64zM367 577v78l-68 8
v-97zM545 162v349h-85l16 -322v-118l-67 -35q-46 4 -62 21t-32 73l1 236l9 -158v292l-116 -22l34 -367q34 -78 48 -95q49 -32 61 -32h92q39 26 49 34q21 15 29 28q23 50 23 116z" />
    <glyph glyph-name="agrave" unicode="&#xe0;" 
d="M728 554h-9l-4 13l8 1zM37 743l-8 -2l-5 14h8zM713 -131l-14 -4l11 -8l-6 -8q-31 -2 -77 -2h-112q-66 1 -86 1q-26 0 -45 -4l-27 12l293 4l-608 3q-1 43 -5 94q-4 46 -4 53q0 -3 10 131q10 150 15 312l-14 15l17 18v30q-13 6 -28 20l12 4q2 9 8 17v155l-11 3q0 6 -7 13
l542 13l-524 -3l3 10l610 -2q6 -4 10 -7q-1 -33 -3 -68.5t-2 -39.5v-12l14 -14l-3 -34l11 -12l-14 -14l14 -11l-5 -14v-300l17 -59v-132q0 -49 4 -94t4 -42v-24zM48 486l-20 22l16 7zM33 155l-19 21l13 5zM238 -147l-97 -13l-98 13h195zM452 590l-160 107l-42 -59l163 -76
l-49 28l74 -33zM625 13l-278 547l-91 -299l2 -5l-97 -306l67 -14l75 225h163l75 -194zM173 13v7h-5v-7h5zM169 2v8h-5v-8h5zM167 -7v7h-6v-7h6zM163 -18v8h-5v-8h5zM468 223l-36 61l-2 -8l32 -64l-144 14l43 181l74 -122zM273 298l-9 -33h-4l9 33h4z" />
    <glyph glyph-name="aacute" unicode="&#xe1;" 
d="M728 554h-9l-4 13l8 1zM37 743l-8 -2l-5 14h8zM713 -131l-14 -4l11 -8l-6 -8q-31 -2 -77 -2h-112q-66 1 -86 1q-26 0 -45 -4l-27 12l293 4l-608 3q-1 43 -5 94q-4 46 -4 53q0 -3 10 131q10 150 15 312l-14 15l17 18v30q-13 6 -28 20l12 4q2 9 8 17v155l-11 3q0 6 -7 13
l542 13l-524 -3l3 10l610 -2q6 -4 10 -7q-1 -33 -3 -68.5t-2 -39.5v-12l14 -14l-3 -34l11 -12l-14 -14l14 -11l-5 -14v-300l17 -59v-132q0 -49 4 -94t4 -42v-24zM48 486l-20 22l16 7zM33 155l-19 21l13 5zM238 -147l-97 -13l-98 13h195zM457 638l-24 53l-79 -50h-2l54 40
l-146 -91l14 -24zM625 13l-278 547l-91 -299l2 -5l-97 -306l67 -14l75 225h163l75 -194zM173 13v7h-5v-7h5zM169 2v8h-5v-8h5zM167 -7v7h-6v-7h6zM163 -18v8h-5v-8h5zM468 223l-36 61l-2 -8l32 -64l-144 14l43 181l74 -122zM273 298l-9 -33h-4l9 33h4z" />
    <glyph glyph-name="acircumflex" unicode="&#xe2;" 
d="M728 554h-9l-4 13l8 1zM37 743l-8 -2l-5 14h8zM713 -131l-14 -4l11 -8l-6 -8q-31 -2 -77 -2h-112q-66 1 -86 1q-26 0 -45 -4l-27 12l293 4l-608 3q-1 43 -5 94q-4 46 -4 53q0 -3 10 131q10 150 15 312l-14 15l17 18v30q-13 6 -28 20l12 4q2 9 8 17v155l-11 3q0 6 -7 13
l542 13l-524 -3l3 10l610 -2q6 -4 10 -7q-1 -33 -3 -68.5t-2 -39.5v-12l14 -14l-3 -34l11 -12l-14 -14l14 -11l-5 -14v-300l17 -59v-132q0 -49 4 -94t4 -42v-24zM48 486l-20 22l16 7zM33 155l-19 21l13 5zM238 -147l-97 -13l-98 13h195zM441 577l-88 134l-96 -141l46 -21
l43 96l21 -49l-2 27l4 1l29 -78zM625 13l-278 547l-91 -299l2 -5l-97 -306l67 -14l75 225h163l75 -194zM173 13v7h-5v-7h5zM169 2v8h-5v-8h5zM167 -7v7h-6v-7h6zM163 -18v8h-5v-8h5zM468 223l-36 61l-2 -8l32 -64l-144 14l43 181l74 -122zM273 298l-9 -33h-4l9 33h4z" />
    <glyph glyph-name="atilde" unicode="&#xe3;" 
d="M728 554h-9l-4 13l8 1zM37 743l-8 -2l-5 14h8zM713 -131l-14 -4l11 -8l-6 -8q-31 -2 -77 -2h-112q-66 1 -86 1q-26 0 -45 -4l-27 12l293 4l-608 3q-1 43 -5 94q-4 46 -4 53q0 -3 10 131q10 150 15 312l-14 15l17 18v30q-13 6 -28 20l12 4q2 9 8 17v155l-11 3q0 6 -7 13
l542 13l-524 -3l3 10l610 -2q6 -4 10 -7q-1 -33 -3 -68.5t-2 -39.5v-12l14 -14l-3 -34l11 -12l-14 -14l14 -11l-5 -14v-300l17 -59v-132q0 -49 4 -94t4 -42v-24zM48 486l-20 22l16 7zM33 155l-19 21l13 5zM238 -147l-97 -13l-98 13h195zM475 637v61h-38v-27q0 -8 -16 -43
l-20 -3l-68 58h-48q-30 -45 -36 -93l10 -26q12 2 16 2q6 0 16 -2v33q0 19 19 39q9 6 20 8q23 -49 35 -64q18 -22 47 -22q19 0 40.5 20t21.5 39q0 1 -1 12t-1 22zM625 13l-278 547l-91 -299l2 -5l-97 -306l67 -14l75 225h163l75 -194zM173 13v7h-5v-7h5zM169 2v8h-5v-8h5z
M167 -7v7h-6v-7h6zM163 -18v8h-5v-8h5zM468 223l-36 61l-2 -8l32 -64l-144 14l43 181l74 -122zM273 298l-9 -33h-4l9 33h4z" />
    <glyph glyph-name="adieresis" unicode="&#xe4;" 
d="M728 554h-9l-4 13l8 1zM37 743l-8 -2l-5 14h8zM713 -131l-14 -4l11 -8l-6 -8q-31 -2 -77 -2h-112q-66 1 -86 1q-26 0 -45 -4l-27 12l293 4l-608 3q-1 43 -5 94q-4 46 -4 53q0 -3 10 131q10 150 15 312l-14 15l17 18v30l-28 20l12 4q2 9 8 17v155l-11 3q0 6 -7 13l542 13
l-524 -3l3 10l610 -2q6 -4 10 -7q-1 -33 -3 -68.5t-2 -39.5v-12l14 -14l-3 -34l11 -12l-14 -14l14 -11l-5 -14v-300l17 -59v-132q0 -49 4 -94t4 -42v-24zM48 486l-20 22l16 7zM33 155l-19 21l13 5zM238 -147l-97 -13l-98 13h195zM436 577v76l-64 -13v-63h64zM341 577v78
l-67 8v-97zM625 13l-278 547l-91 -299l2 -5l-97 -306l67 -14l75 225h163l75 -194zM173 13v7h-5v-7h5zM169 2v8h-5v-8h5zM167 -7v7h-6v-7h6zM163 -18v8h-5v-8h5zM468 223l-36 61l-2 -8l32 -64l-144 14l43 181l74 -122zM273 298l-9 -33h-4l9 33h4z" />
    <glyph glyph-name="aring" unicode="&#xe5;" 
d="M728 554h-9l-4 13l8 1zM37 743l-8 -2l-5 14h8zM713 -131l-14 -4l11 -8l-6 -8q-31 -2 -77 -2h-112q-66 1 -86 1q-26 0 -45 -4l-27 12l293 4l-608 3q-1 43 -5 94q-4 46 -4 53q0 -3 10 131q10 150 15 312l-14 15l17 18v30l-28 20l12 4q2 9 8 17v155l-11 3q0 6 -7 13l542 13
l-524 -3l3 10l610 -2q6 -4 10 -7q-1 -33 -3 -68.5t-2 -39.5v-12l14 -14l-3 -34l11 -12l-14 -14l14 -11l-5 -14v-300l17 -59v-132q0 -49 4 -94t4 -42v-24zM48 486l-20 22l16 7zM33 155l-19 21l13 5zM238 -147l-97 -13l-98 13h195zM625 13l-263 516l14 -1h2q24 0 45 28
q22 32 31 88l-74 56q-46 -1 -76 -27t-30 -54q0 -34 18 -58.5t47 -28.5l-83 -271l2 -5l-97 -306l67 -14l75 225h163l75 -194zM173 13v7h-5v-7h5zM169 2v8h-5v-8h5zM167 -7v7h-6v-7h6zM163 -18v8h-5v-8h5zM408 627q0 -15 -7 -44q-24 -22 -33 -24l-41 19q-4 24 -4 34
q0 21 18 38t38 17q5 0 17 -16.5t12 -23.5zM468 223l-36 61l-2 -8l32 -64l-144 14l43 181l74 -122zM273 298l-9 -33h-4l9 33h4z" />
    <glyph glyph-name="ae" unicode="&#xe6;" horiz-adv-x="383" 
d="M343 490l-9 -136l-65 -71l50 88l-106 -133l17 -116h-89l24 206q49 11 55 14q19 8 20 31h29l16 45q-9 80 -71 135h-62l-70 -103l-54 72q68 89 147 89q73 0 106 -24t62 -97zM236 8l-53 -75l-82 54l56 72l56 -55l-54 99z" />
    <glyph glyph-name="ccedilla" unicode="&#xe7;" 
d="M718 606l-2 -22l-13 18zM723 -102l-20 -19l8 -4h-229l26 7l-172 -11l183 -3l-37 -7h-435q5 5 5 12q0 8 -5 13l-8 -8l2 151l9 37l-12 29l15 32l-15 18l20 2l-40 34l16 1l16 83v199l5 18l-17 10l13 11v205l11 26h17l5 5l-14 12l548 -14l26 20v-30h48v-261l11 -36v124l3 -8
l5 -472zM668 -140h-25v6h25v-6zM628 -138l-8 -5v10h8v-5zM620 732h-318l311 -6zM701 278v42h-7v-42h7zM577 573l-49 14l31 -23l-6 -3l-83 44l-77 8q-38 -3 -76 -24l-21 -4l-69 -97l-33 -216l20 76l2 -9q-5 -27 -5 -49q0 -111 84 -197q28 -16 73 -23l-35 -138l90 -12v113
l-11 -68l-5 5v97h17l109 31l-20 84l-101 -68h-42l-68 101l-12 143l11 61l-29 -71q0 18 5 27q14 76 39 120.5t72 69.5l150 -70z" />
    <glyph glyph-name="egrave" unicode="&#xe8;" 
d="M734 748l-18 1l10 10zM725 504l-20 -17q1 13 12 25zM738 164l-18 -16l8 21zM724 535l-32 -21v-31l18 -18l-15 -15v-20l8 -126l18 -314q0 1 -3 -42q-4 -50 -6 -104q-272 0 -646 -5l6 -2h316q-20 0 -27 -16l-7 5q-160 0 -322 3l-8 8l10 8l-11 6l5 255q3 32 11 156l8 -53
q4 114 4 155q0 94 -8 169l15 14l-15 12l12 12l-3 35l15 15q-7 35 -7 82q0 27 1 41l6 6l627 3l6 -11l-328 -1l346 -9q-6 -6 -6 -13l-11 -3v-160q5 -6 6 -14zM16 552l-10 6l9 7zM713 -166l-103 -14q-90 10 -162 14h265zM486 610l-176 78l-32 -66l174 -46l-56 19h6l75 -20z
M591 518l-355 3q4 -29 4 -66q0 -29 -3 -58l9 32q-7 -247 -17 -427l-3 100h-2v-132l316 50l-17 87l-203 -71q-1 33 -1 91q0 69 1 96h114v71l-120 -21q3 105 10 194l211 -20l-146 -3l184 -12zM231 143v45h-6v-45h6z" />
    <glyph glyph-name="eacute" unicode="&#xe9;" 
d="M734 748l-18 1l10 10zM725 504l-20 -17q1 13 12 25zM738 164l-18 -16l8 21zM724 535l-32 -21v-31l18 -18l-15 -15v-20l8 -126l18 -314q0 1 -3 -42q-4 -50 -6 -104l-324 -7q-20 0 -27 -16l-329 8l-8 8l10 8l-11 6l5 255q3 32 11 156l8 -53q4 114 4 155q0 94 -8 169l15 14
l-15 12l12 12l-3 35l15 15q-7 35 -7 82q0 27 1 41l6 6l627 3l6 -11l-328 -1l346 -9q-6 -6 -6 -13l-11 -3v-160q5 -6 6 -14zM16 552l-10 6l9 7zM713 -166l-103 -14q-90 10 -162 14h265zM510 638l-23 53l-80 -50h-2l54 40l-146 -90l14 -25zM591 518l-355 3q4 -29 4 -66
q0 -29 -3 -58l9 32q-7 -247 -17 -427l-3 100h-2v-132l316 50l-17 87l-203 -71q-1 33 -1 91q0 69 1 96h114v71l-120 -21q3 105 10 194l211 -20l-146 -3l184 -12zM231 143v45h-6v-45h6z" />
    <glyph glyph-name="ecircumflex" unicode="&#xea;" 
d="M734 748l-18 1l10 10zM725 504l-20 -17q1 13 12 25zM738 164l-18 -16l8 21zM724 535l-32 -21v-31l18 -18l-15 -15v-20l8 -126l18 -314q0 1 -3 -42q-4 -50 -6 -104q-272 0 -646 -5l6 -2h316q-20 0 -27 -16l-7 5q-160 0 -322 3l-8 8l10 8l-11 6l5 255q3 32 11 156l8 -53
q4 114 4 155q0 94 -8 169l15 14l-15 12l12 12l-3 35l15 15q-7 35 -7 82q0 27 1 41l6 6l627 3l6 -11l-328 -1l346 -9q-6 -6 -6 -13l-11 -3v-160q5 -6 6 -14zM16 552l-10 6l9 7zM713 -166l-103 -14q-90 10 -162 14h265zM477 579l-88 134l-96 -141l46 -21l43 96l21 -49l-2 26
l4 2l29 -78zM591 518l-355 3q4 -29 4 -66q0 -29 -3 -58l9 32q-7 -247 -17 -427l-3 100h-2v-132l316 50l-17 87l-203 -71q-1 33 -1 91q0 69 1 96h114v71l-120 -21q3 105 10 194l211 -20l-146 -3l184 -12zM231 143v45h-6v-45h6z" />
    <glyph glyph-name="edieresis" unicode="&#xeb;" 
d="M734 748l-18 1l10 10zM725 504l-20 -17q1 13 12 25zM738 164l-18 -16l8 21zM724 535l-32 -21v-31l18 -18l-15 -15v-20l8 -126l18 -314q0 1 -3 -42q-4 -50 -6 -104q-272 0 -646 -5l6 -2h316q-20 0 -27 -16l-7 5q-160 0 -322 3l-8 8l10 8l-11 6l5 255q3 32 11 156l8 -53
q4 114 4 155q0 94 -8 169l15 14l-15 12l12 12l-3 35l15 15q-7 35 -7 82q0 27 1 41l6 6l627 3l6 -11l-328 -1l346 -9q-6 -6 -6 -13l-11 -3v-160q5 -6 6 -14zM16 552l-10 6l9 7zM713 -166l-103 -14q-90 10 -162 14h265zM480 587v77l-64 -13v-64h64zM385 588v78l-67 8v-97z
M591 518l-355 3q4 -29 4 -66q0 -29 -3 -58l9 32q-7 -247 -17 -427l-3 100h-2v-132l316 50l-17 87l-203 -71q-1 33 -1 91q0 69 1 96h114v71l-120 -21q3 105 10 194l211 -20l-146 -3l184 -12zM231 143v45h-6v-45h6z" />
    <glyph glyph-name="igrave" unicode="&#xec;" 
d="M714 736l-13 -4l8 16zM707 -85h-11v-37l-11 -6l8 -4q-8 -12 -25 -17l-39 6h-229q-9 0 -19 -8q-13 11 -30 15l250 1l54 3h-610v49l20 -1q-4 4 -11 4h-4v124l6 6l-3 6v34l16 35l-13 22l13 14l-13 11l-9 353l6 33v60l5 45v72l74 12l22 -7l530 3l1 -12l-508 4l522 -14
q-4 -12 -14 -16l6 -96l3 -341l-7 6l-4 -42l8 -51v-256zM45 46l-5 1l-6 9l-2 12l13 -12v-10zM241 -139l-57 -10h-31l-109 10h197zM686 448v8h-7v-8h7zM686 371v28h-7v-28h7zM689 280v85h-7v-85h7zM475 601l-176 78l-31 -66l174 -46l-56 19l2 1l79 -21zM414 509l-72 6l-40 -6
l6 -179l6 111l8 -354l3 397l10 -498h60z" />
    <glyph glyph-name="iacute" unicode="&#xed;" 
d="M714 736l-13 -4l8 16zM707 -85h-11v-37l-11 -6l8 -4q-8 -12 -25 -17l-39 6h-229q-9 0 -19 -8q-13 11 -30 15l250 1l54 3h-610v49l20 -1q-4 4 -11 4h-4v124l6 6l-3 6v34l16 35l-13 22l13 14l-13 11l-9 353l6 33v60l5 45v72l74 12l22 -7l530 3l1 -12l-508 4l522 -14
q-4 -12 -14 -16l6 -96l3 -341l-7 6l-4 -42l8 -51v-256zM46 46l-6 2l-6 8l-2 12l12 -10zM241 -139l-57 -10h-31l-109 10h197zM686 448v8h-7v-8h7zM686 371v28h-7v-28h7zM689 280v85h-7v-85h7zM466 637l-24 53l-79 -51l-2 1l54 39l-146 -90l14 -25zM414 509l-72 6l-40 -6
l6 -179l6 111l8 -354l3 397l10 -498h60z" />
    <glyph glyph-name="icircumflex" unicode="&#xee;" 
d="M714 736l-13 -4l8 16zM707 -85h-11v-37l-11 -6l8 -4q-8 -12 -25 -17l-39 6h-229q-9 0 -19 -8q-13 11 -30 15l250 1l54 3h-610v49l20 -1q-4 4 -11 4h-4v124l6 6l-3 6v34l16 35l-13 22l13 14l-13 11l-9 353l6 33v60l5 45v72l74 12l22 -7l530 3l1 -12l-508 4l522 -14
q-4 -12 -14 -16l6 -96l3 -341l-7 6l-4 -42l8 -51v-256zM45 46l-5 1l-6 9l-2 12l13 -12v-10zM241 -139l-57 -10h-31l-109 10h197zM686 448v8h-7v-8h7zM686 371v28h-7v-28h7zM689 280v85h-7v-85h7zM445 566l-90 133q-40 -61 -93 -143l46 -20l42 96l21 -48l-2 26l4 2l29 -77z
M414 509l-72 6l-40 -6l6 -179l6 111l8 -354l3 397l10 -498h60z" />
    <glyph glyph-name="idieresis" unicode="&#xef;" 
d="M714 736l-13 -4l8 16zM707 -85h-11v-37l-11 -6l8 -4q-8 -12 -25 -17l-39 6h-229q-9 0 -19 -8q-13 11 -30 15l250 1l54 3h-610v49l20 -1q-4 4 -11 4h-4v124l6 6l-3 6v34l16 35l-13 22l13 14l-13 11l-9 353l6 33v60l5 45v72l74 12l22 -7l530 3l1 -12l-508 4l522 -14
q-4 -12 -14 -16l6 -96l3 -341l-7 6l-4 -42l8 -51v-256zM45 46l-5 1l-6 9l-2 12l13 -12v-10zM241 -139l-57 -10h-31l-109 10h197zM686 448v8h-7v-8h7zM686 371v28h-7v-28h7zM439 578v76l-64 -13v-63h64zM689 280v85h-7v-85h7zM344 578v79l-67 8v-97zM414 509l-72 6l-40 -6
l6 -179l6 111l8 -354l3 397l10 -498h60z" />
    <glyph glyph-name="ntilde" unicode="&#xf1;" 
d="M727 490q-4 -5 -11 -5h-4l-4 10l11 7zM735 98l-10 -7l-5 6l10 7zM48 733l-15 -3v6l15 3v-6zM714 -171q-176 7 -374 13l79 3q-108 6 -192 6q-21 0 -64.5 -1t-65.5 -1h-50l-15 21q3 6 6 10v13l-9 5v-19l-11 -6v22l14 8q6 51 15 60q-3 9 -9 9q-3 0 -5 -10v26q0 -5 9 306
l8 -20l2 21l-11 35l14 26l-17 8v55l-15 16q15 8 21 19q-6 3 -24 15l15 12q-2 16 -2 22q0 24 10 44q-8 41 -8 95q0 26 12 65l8 8l-3 12q9 6 33.5 8.5t50.5 5.5q-24 2 -43 2h-18q-12 -1 -19 -1l6 14l297 -10q132 -11 278 -11q10 0 32 1h33l3 -16l-20 -6l20 -16v-273l-6 -6
q0 -31 -5 -88q5 -12 5 -17q0 -3 -1.5 -12t-1.5 -14q0 -9 9 -18v-18l-8 -9l5 -8l-11 -145l16 -93l6 72zM32 450l-7 -8h-16l7 8h16zM279 742v7h-21v-7h21zM496 635q0 11 -2 45h-36v-28q0 -7 -15 -45l-19 -3l-65 60h-46q-19 -21 -34 -97l9 -26h31v34q0 17 10.5 32t26.5 17
q8 -15 25 -31l25 -25l28 -33q36 10 49 34q13 21 13 66zM706 -49v36h-6v-36h6zM703 -95v36h-6v-36h6zM569 218v113l-3 70l-1 121h-24l-62 -12v-36q0 -4 5 -90q5 -101 8 -204l-247 293l-65 -503h77l-28 9l40 2q11 313 22 364q5 -38 5 -75l9 67l240 -348l9 522zM523 -158v5h-77
v-5h77zM53 52v13h-5v-13h5zM50 32v13h-5v-13h5zM48 5v11h-5v-11h5zM44 -17v11h-7v-11h7z" />
    <glyph glyph-name="ograve" unicode="&#xf2;" 
d="M715 6l-26 304q-7 -4 -7 -13v-3l12 -78q-4 -33 -4 -78q0 -4 1 -42l5 -192l9 -3v-36q-10 0 -10 -6q0 -2 7 -5l-97 -13l-111 13l88 3l-169 9l-281 -6l256 -3q-23 -1 -26 -16q-11 9 -29 9l-231 -2q-2 0 -15 -2t-25 -2l-21 6q-5 7 -5 9l7 7l-11 1v27l6 9q-3 19 -3 32
q0 5 1.5 14t1.5 13v91l-9 12l23 25l-17 33l17 25q-14 22 -14 29q0 1 1 3l5 5l-12 83l6 23v185l8 63l-6 21l-8 172l181 9l314 -3l14 -5l144 -7l-6 -9v-20l2 -2l9 11zM459 606l-176 78l-32 -66l174 -46l-56 19h2l79 -20zM575 234l-10 140q-38 75 -97 121q-42 32 -59 32h-62
q-34 0 -71 -35q-7 -7 -67 -76q-9 -24 -26 -134l-3 -120q30 -104 115 -184l81 -5q16 -1 22 -1q75 0 112 45q30 37 61 145zM508 208l-33 -154v39q-3 -31 -7.5 -40.5t-20.5 -18.5q-43 -25 -65 -25q-12 0 -50 17l-22 28q-24 31 -24 40v3l-13 124v-102l-22 157l38 164l135 11
q23 0 48 -41.5t25 -85.5v-13zM480 100v10h-7v-10h7z" />
    <glyph glyph-name="oacute" unicode="&#xf3;" 
d="M715 6l-26 304q-7 -4 -7 -13v-3l12 -78q-4 -33 -4 -78q0 -4 1 -42l5 -192l9 -3v-36q-10 0 -10 -6q0 -2 7 -5l-97 -13l-111 13l88 3l-169 9l-281 -6l256 -3q-23 -1 -26 -16q-11 9 -29 9l-231 -2q-2 0 -15 -2t-25 -2l-21 6q-5 7 -5 9l7 7l-11 1v27l6 9q-3 19 -3 32
q0 5 1.5 14t1.5 13v91l-9 12l23 25l-17 33l17 25q-14 22 -14 29q0 1 1 3l5 5l-12 83l6 23v185l8 63l-6 21l-8 172l181 9l314 -3l14 -5l144 -7l-6 -9v-20l2 -2l9 11zM455 635l-23 53l-80 -51h-2l54 40l-146 -90l14 -25zM575 234l-10 140q-38 75 -97 121q-42 32 -59 32h-62
q-34 0 -71 -35q-7 -7 -67 -76q-9 -24 -26 -134l-3 -120q30 -104 115 -184l81 -5q16 -1 22 -1q75 0 112 45q30 37 61 145zM508 208l-33 -154v39q-3 -31 -7.5 -40.5t-20.5 -18.5q-43 -25 -65 -25q-12 0 -50 17l-22 28q-24 31 -24 40v3l-13 124v-102l-22 157l38 164l135 11
q23 0 48 -41.5t25 -85.5v-13zM480 100v10h-7v-10h7z" />
    <glyph glyph-name="ocircumflex" unicode="&#xf4;" 
d="M715 6l-26 304q-7 -4 -7 -13v-3l12 -78q-4 -33 -4 -78q0 -4 1 -42l5 -192l9 -3v-36q-10 0 -10 -6q0 -2 7 -5l-97 -13l-111 13l88 3l-169 9l-281 -6l256 -3q-23 -1 -26 -16q-11 9 -29 9l-231 -2q-2 0 -15 -2t-25 -2l-21 6q-5 7 -5 9l7 7l-11 1v27l6 9q-3 19 -3 32
q0 5 1.5 14t1.5 13v91l-9 12l23 25l-17 33l17 25q-14 22 -14 29q0 1 1 3l5 5l-12 83l6 23v185l8 63l-6 21l-8 172l181 9l314 -3l14 -5l144 -7l-6 -9v-20l2 -2l9 11zM455 578l-93 131l-91 -144l47 -20l40 98l22 -48l-3 26l4 2l31 -77zM575 234l-10 140q-38 75 -97 121
q-42 32 -59 32h-62q-34 0 -71 -35q-7 -7 -67 -76q-9 -24 -26 -134l-3 -120q30 -104 115 -184l81 -5q16 -1 22 -1q75 0 112 45q30 37 61 145zM508 208l-33 -154v39q-3 -31 -7.5 -40.5t-20.5 -18.5q-43 -25 -65 -25q-12 0 -50 17l-22 28q-24 31 -24 40v3l-13 124v-102l-22 157
l38 164l135 11q23 0 48 -41.5t25 -85.5v-13zM480 100v10h-7v-10h7z" />
    <glyph glyph-name="otilde" unicode="&#xf5;" 
d="M715 6l-26 304q-7 -4 -7 -13v-3l12 -78q-4 -33 -4 -78q0 -4 1 -42l5 -192l9 -3v-36q-10 0 -10 -6q0 -2 7 -5l-97 -13l-111 13l88 3l-169 9l-281 -6l256 -3q-23 -1 -26 -16q-11 9 -29 9l-231 -2q-2 0 -15 -2t-25 -2l-21 6q-5 7 -5 9l7 7l-11 1v27l6 9q-3 19 -3 32
q0 5 1.5 14t1.5 13v91l-9 12l23 25l-17 33l17 25q-14 22 -14 29q0 1 1 3l5 5l-12 83l6 23v185l8 63l-6 21l-8 172l181 9l314 -3l14 -5l144 -7l-6 -9v-20l2 -2l9 11zM466 632v58h-35v-26l-15 -41l-19 -2l-64 55h-45q-16 -20 -24 -46q-5 -22 -10 -43l9 -24q6 1 18 1q7 0 13 -1
v31q0 18 17 37q7 5 19 7q53 -73 77 -81q58 16 58 55q0 3 -1 14t-1 19zM575 234l-10 140q-38 75 -97 121q-42 32 -59 32h-62q-34 0 -71 -35q-7 -7 -67 -76q-9 -24 -26 -134l-3 -120q30 -104 115 -184l81 -5q16 -1 22 -1q75 0 112 45q30 37 61 145zM508 208l-33 -154v39
q-3 -31 -7.5 -40.5t-20.5 -18.5q-43 -25 -65 -25q-12 0 -50 17l-22 28q-24 31 -24 40v3l-13 124v-102l-22 157l38 164l135 11q23 0 48 -41.5t25 -85.5v-13zM480 100v10h-7v-10h7z" />
    <glyph glyph-name="odieresis" unicode="&#xf6;" 
d="M715 6l-26 304q-7 -4 -7 -13v-3l12 -78q-4 -33 -4 -78q0 -4 1 -42l5 -192l9 -3v-36q-10 0 -10 -6q0 -2 7 -5l-97 -13l-111 13l88 3l-169 9l-281 -6l256 -3q-23 -1 -26 -16q-11 9 -29 9l-231 -2q-2 0 -15 -2t-25 -2l-21 6q-5 7 -5 9l7 7l-11 1v27l6 9q-3 19 -3 32
q0 5 1.5 14t1.5 13v91l-9 12l23 25l-17 33l17 25q-14 22 -14 29q0 1 1 3l5 5l-12 83l6 23v185l8 63l-6 21l-8 172l181 9l314 -3l14 -5l144 -7l-6 -9v-20l2 -2l9 11zM451 583v76l-64 -13v-63h64zM356 583v79l-67 8v-97zM575 234l-10 140q-38 75 -97 121q-42 32 -59 32h-62
q-34 0 -71 -35q-7 -7 -67 -76q-9 -24 -26 -134l-3 -120q30 -104 115 -184l81 -5q16 -1 22 -1q75 0 112 45q30 37 61 145zM508 208l-33 -154v39q-3 -31 -7.5 -40.5t-20.5 -18.5q-43 -25 -65 -25q-12 0 -50 17l-22 28q-24 31 -24 40v3l-13 124v-102l-22 157l38 164l135 11
q23 0 48 -41.5t25 -85.5v-13zM480 100v10h-7v-10h7z" />
    <glyph glyph-name="oslash" unicode="&#xf8;" 
d="M715 6l-26 304q-7 -4 -7 -13v-3l12 -78q-4 -33 -4 -78q0 -4 1 -42l5 -192l9 -3v-36q-10 0 -10 -6q0 -2 7 -5l-97 -13l-111 13l88 3l-169 9l-281 -6l256 -3q-23 -1 -26 -16q-11 9 -29 9l-231 -2q-2 0 -15 -2t-25 -2l-21 6q-5 7 -5 9l7 7l-11 1v27l6 9q-3 19 -3 32
q0 5 1.5 14t1.5 13v91l-9 12l23 25l-17 33l17 25q-14 22 -14 29q0 4 6 8l-12 83l6 23v185l8 63l-6 21l-8 172l181 9l314 -3l14 -5l144 -7l-6 -9v-20l2 -2l9 11zM584 611l-59 31l-49 -87q-57 41 -67 41h-62q-34 0 -70 -38q-9 -9 -68 -84q-10 -27 -26 -148l-3 -134
q21 -65 36 -99l-64 -114l59 -31l49 82q19 -18 35 -41l81 -6q13 -1 22 -1q75 0 112 51q31 41 61 159l4 80l-10 156q-22 42 -43 75zM446 501l-168 -298l-5 55v-64l-5 -9l-17 134l38 182l134 12q7 0 23 -12zM508 243l-33 -170v43q-2 -18 -4.5 -34.5t-15.5 -25.5
q-44 -33 -71 -33q-18 0 -38 11q-26 14 -35 37l-6 10l-8 10l173 285l-156 -235l169 295q14 -53 14 -63v-15zM481 123v13h-7v-13h7z" />
    <glyph glyph-name="ugrave" unicode="&#xf9;" 
d="M708 562l-9 -11l2 -10l-7 -14l-3 -170l12 -90l-14 -242l2 -74q0 -5 1.5 -14.5t1.5 -14.5q0 -17 -4 -37l7 -8v-25l-11 -6l8 -5q-10 -13 -26 -17l-39 6h-231q-8 0 -19 -9q-11 13 -30 17l65 -1l186 4l-396 3l-44 -6q45 -3 96 -3h35l-94 -5l-11 -6h-36l-90 7l5 10l-1 22
l-12 -12l-16 507l26 -313q6 6 6 13v3l-11 81l3 298l-6 24v75l17 35l-17 15l8 15l-12 5v69l-9 3v38h2q6 0 6 4q0 3 -6 7l157 10l12 6l308 3l137 -14l42 5q1 -9 1 -16q0 -8 -3 -19t-3 -14q0 -4 6 -12l-14 -31l17 -26l-17 -34zM487 614l-175 77l-32 -66l174 -46l-56 19h2
l79 -19zM545 162v349h-85l16 -322v-118l-67 -35q-46 4 -62 21t-32 73l1 236l9 -158v292l-116 -22l34 -367q34 -78 48 -95q49 -32 61 -32h92q39 26 49 34q21 15 29 28q23 50 23 116z" />
    <glyph glyph-name="uacute" unicode="&#xfa;" 
d="M708 562l-9 -11l2 -10l-7 -14l-3 -170l12 -90l-14 -242l2 -74q0 -5 1.5 -14.5t1.5 -14.5q0 -17 -4 -37l7 -8v-25l-11 -6l8 -6q-10 -12 -26 -16l-39 6h-231q-8 0 -19 -9q-11 13 -30 17l65 -1l186 5l-396 2l-44 -6q45 -3 96 -3h35l-94 -5l-11 -6h-36l-90 7l5 9l-1 23
l-12 -12l-16 507l26 -313q6 6 6 13v3l-11 81l3 298l-6 24v75l17 35l-17 15l8 15l-12 5v69l-9 3v38h2q6 0 6 4q0 3 -6 7l157 10l12 6l308 3l137 -14l42 5q1 -9 1 -16q0 -8 -3 -19t-3 -14q0 -4 6 -12l-14 -31l17 -26l-17 -34zM483 631l-24 53l-76 -50h-5l53 39l-145 -90
l13 -24zM545 162v349h-85l16 -322v-118l-67 -35q-46 4 -62 21t-32 73l1 236l9 -158v292l-116 -22l34 -367q34 -78 48 -95q49 -32 61 -32h92q39 26 49 34q21 15 29 28q23 50 23 116z" />
    <glyph glyph-name="ucircumflex" unicode="&#xfb;" 
d="M708 562l-9 -11l2 -10l-7 -14l-3 -170l12 -90l-14 -242l2 -74q0 -5 1.5 -14.5t1.5 -14.5q0 -17 -4 -37l7 -8v-25l-11 -6l8 -5q-10 -13 -26 -17l-39 6h-231q-8 0 -19 -9q-11 13 -30 17l65 -1l186 4l-396 3l-44 -6q45 -3 96 -3h35l-94 -5l-11 -6h-36l-90 7l5 10l-1 22
l-12 -12l-16 507l26 -313q6 6 6 13v3l-11 81l3 298l-6 24v75l17 35l-17 15l8 15l-12 5v69l-9 3v38h2q6 0 6 4q0 3 -6 7l157 10l12 6l308 3l137 -14l42 5q1 -9 1 -16q0 -8 -3 -19t-3 -14q0 -4 6 -12l-14 -31l17 -26l-17 -34zM474 594l-101 125l-81 -151l48 -16l33 100l26 -46
l-5 26l4 2l36 -74zM545 162v349h-85l16 -322v-118l-67 -35q-46 4 -62 21t-32 73l1 236l9 -158v292l-116 -22l34 -367q34 -78 48 -95q49 -32 61 -32h92q39 26 49 34q21 15 29 28q23 50 23 116z" />
    <glyph glyph-name="udieresis" unicode="&#xfc;" 
d="M708 562l-9 -11l2 -10l-7 -14l-3 -170l12 -90l-14 -242l2 -74q0 -5 1.5 -14.5t1.5 -14.5q0 -17 -4 -37l7 -8v-25l-11 -6l8 -5q-10 -13 -26 -17l-39 6h-231q-8 0 -19 -9q-11 13 -30 17l65 -1l186 4l-396 3l-44 -6q45 -3 96 -3h35l-94 -5l-11 -6h-36l-90 7l5 10l-1 22
l-12 -12l-16 507l26 -313q6 6 6 13v3l-11 81l3 298l-6 24v75l17 35l-17 15l8 15l-12 5v69l-9 3v38h2q6 0 6 4q0 3 -6 7l157 10l12 6l308 3l137 -14l42 5q1 -9 1 -16q0 -8 -3 -19t-3 -14q0 -4 6 -12l-14 -31l17 -26l-17 -34zM461 577v76l-64 -13v-63h64zM367 577v78l-68 8
v-97zM545 162v349h-85l16 -322v-118l-67 -35q-46 4 -62 21t-32 73l1 236l9 -158v292l-116 -22l34 -367q34 -78 48 -95q49 -32 61 -32h92q39 26 49 34q21 15 29 28q23 50 23 116z" />
    <glyph glyph-name="ydieresis" unicode="&#xff;" 
d="M715 -1l-9 -11l3 -9q-11 -10 -11 -48l11 -58q-107 -3 -185 -12l-313 3l-15 6h-82q-63 10 -72 10h-8q8 0 8 5q0 3 -9 5v22h14v82l17 33l-17 15l9 14l-13 5v66l-10 2v13h3q7 0 17 8v324l8 37l-5 22h-4l-23 -299l1 56l18 427l9 -11q2 5 2 11q0 7 -6 19l79 10l99 -11l53 -2
l-129 -3l169 -8l281 5l-249 3l6 2q12 4 13 14q9 -9 31 -9h8q77 0 145 1t60 1h15q5 0 17 2t18 2h5q15 -6 21 -6q4 -3 4 -7q0 -3 -6 -8l11 -2v-27q0 -6 -7 -9q3 -22 3 -36q0 -10 -2 -26l-7 -55l19 -246l-12 -80v-114l9 -17l-14 -30l17 -24l-17 -32zM458 566v76l-64 -13v-63h64
zM364 566v78l-68 8v-97zM591 468l-93 55l-135 -271l-91 273l-105 -40l139 -269l-83 188l113 -219l-8 -196l113 9l-43 216z" />
    <glyph glyph-name="OE" unicode="&#x152;" horiz-adv-x="843" 
d="M801 743h-263l149 10zM824 420q-1 0 -7 -4l-7 17q8 -4 14 -13zM807 87q0 -1 -1 -4q-7 4 -13 23q14 -9 14 -19zM810 59q-4 -3 -12 -5l-8 -16v-155q11 -5 14 -16l-299 -10h284l-6 -10l-717 3l3 106l-9 63q-1 9 -11 17l14 12q-3 5 -13 13q5 10 5 15v293l-18 72v196l-8 89
l11 6l-9 4q9 9 28 17l40 -5h260v7l7 -8q20 -9 29 -9l124 3l38 -9h249l-18 -180v-405q-1 -1 -2 -4q0 -4 12 -15l-10 -24v-25zM819 -151q-1 -5 -5 -8q-4 6 -6 11zM390 731v5h-318v-5h318zM691 499l-9 98h-262l-14 -30l-58 18q-47 -8 -63 -13q-26 -8 -40 -24q-49 -56 -60 -127
l-12 -77l6 -154q49 -175 151 -175h8l45 3q4 0 23 3l26 34l6 -5v-29l236 34l-18 105l-127 -49l70 40l-103 -42v188l122 -8v99l-122 -34v171zM445 -143v5l-216 -6v-5zM417 300v-193l-72 -27q-41 5 -59 36q-11 19 -29 96l-6 63l12 143l51 95l96 -9zM414 326v19h-5v-19h5z" />
    <glyph glyph-name="oe" unicode="&#x153;" horiz-adv-x="270" 
d="M200 638l-50 -520h-56l-13 473l96 21l-25 -349zM188 12l-49 -74l-78 54l53 72l52 -52l-50 95z" />
    <glyph glyph-name="Ydieresis" unicode="&#x178;" 
d="M715 -1l-9 -11l3 -9q-11 -10 -11 -48l11 -58q-107 -3 -185 -12l-313 3l-15 6h-82q-63 10 -72 10h-8q8 0 8 5q0 3 -9 5v22h14v82l17 33l-17 15l9 14l-13 5v66l-10 2v13h3q7 0 17 8v324l8 37l-5 22h-4l-23 -299l1 56l18 427l9 -11q2 5 2 11q0 7 -6 19l79 10l99 -11l53 -2
l-129 -3l169 -8l281 5l-249 3l6 2q12 4 13 14q9 -9 31 -9h8q77 0 145 1t60 1h15q5 0 17 2t18 2h5q15 -6 21 -6q4 -3 4 -7q0 -3 -6 -8l11 -2v-27q0 -6 -7 -9q3 -22 3 -36q0 -10 -2 -26l-7 -55l19 -246l-12 -80v-114l9 -17l-14 -30l17 -24l-17 -32zM458 566v76l-64 -13v-63h64
zM364 566v78l-68 8v-97zM591 468l-93 55l-135 -271l-91 273l-105 -40l139 -269l-83 188l113 -219l-8 -196l113 9l-43 216z" />
    <glyph glyph-name="Delta" unicode="&#x394;" horiz-adv-x="612" 
d="M595 0h-574l276 672h22zM471 32l-198 491l-201 -491h399z" />
    <glyph glyph-name="Delta" unicode="&#x2206;" horiz-adv-x="612" 
d="M595 0h-574l276 672h22zM471 32l-198 491l-201 -491h399z" />
    <glyph glyph-name="Omega" unicode="&#x3a9;" horiz-adv-x="768" 
d="M718 408q0 -108 -72 -177q-65 -61 -176 -82v-59h123q50 0 67 17.5t21 68.5h23l-10 -176h-252v170q80 16 122 88q36 63 36 150q0 103 -56 170q-59 71 -160 71q-102 0 -161 -71q-55 -66 -55 -170q0 -88 36 -150q41 -72 122 -88v-170h-252l-10 176h23q3 -50 21 -68t67 -18
h123v59q-112 21 -176 82q-72 69 -72 177q0 131 105 204q91 63 229 63t229 -63q105 -73 105 -204z" />
    <glyph glyph-name="Omega" unicode="&#x2126;" horiz-adv-x="768" 
d="M718 408q0 -108 -72 -177q-65 -61 -176 -82v-59h123q50 0 67 17.5t21 68.5h23l-10 -176h-252v170q80 16 122 88q36 63 36 150q0 103 -56 170q-59 71 -160 71q-102 0 -161 -71q-55 -66 -55 -170q0 -88 36 -150q41 -72 122 -88v-170h-252l-10 176h23q3 -50 21 -68t67 -18
h123v59q-112 21 -176 82q-72 69 -72 177q0 131 105 204q91 63 229 63t229 -63q105 -73 105 -204z" />
    <glyph glyph-name="pi" unicode="&#x3c0;" horiz-adv-x="549" 
d="M526 469q0 -51 -23 -70.5t-75 -20.5h-24q-4 -132 -4 -196v-86q6 -63 39 -63q39 0 51 43q7 24 7 75h25q0 -161 -106 -161q-66 0 -87 53q-16 40 -16 151q0 -6 4 184h-137q0 -227 -13 -294q-18 -94 -80 -94q-46 0 -61 48q-9 28 -9 86h24q1 -52 37 -52q45 0 62 75
q14 62 16 231h-22q-77 0 -87 -52h-23q4 74 46 101q34 22 113 22h254q66 0 66 22v1h23v-3z" />
    <glyph glyph-name="endash" unicode="&#x2013;" horiz-adv-x="504" 
d="M469 355q0 -15 -2 -75l-342 -3q-12 0 -33.5 4t-30.5 4t-27 -5q4 30 4 43q0 6 -1 20t-1 21v14q47 5 74 5q46 0 91.5 -5t42.5 -5q3 0 5 2.5t3 2.5q2 0 4 -2.5t5 -2.5q1 0 19.5 2.5t35.5 2.5q6 0 14 -1t9 -1q4 0 22 3t33 3q4 0 5 -4q0 3 7 3h9q7 -1 14 -1q20 0 37 1
q3 -15 3 -26z" />
    <glyph glyph-name="emdash" unicode="&#x2014;" horiz-adv-x="868" 
d="M834 345q-9 -27 -9 -52v-14q0 -2 -1 -8q-17 5 -27 7q1 0 7 -2l-296 8l-182 -11l-209 12q-42 2 -77 -14q1 12 1 23t-3.5 28t-3.5 20v13q8 -4 12 -4q-2 0 28 4l48 -11h142q6 0 16.5 2t15.5 2h66q7 0 31.5 -4t41.5 -4q34 0 49 1l281 18q3 0 17.5 -1.5t25.5 -1.5q6 0 26 2
v-13z" />
    <glyph glyph-name="quoteleft" unicode="&#x2018;" horiz-adv-x="300" 
d="M255 884q-12 -62 -48 -174q-27 -86 -27 -124q0 -13 1 -19q-31 -11 -32 -11q-13 0 -74 35q-25 4 -50 9h2q36 49 58 94q9 21 18 41q12 16 34 51q25 46 45 94q9 23 16 23q-9 0 57 -19z" />
    <glyph glyph-name="quoteright" unicode="&#x2019;" horiz-adv-x="300" 
d="M272 851q-37 -50 -61 -98q-9 -22 -19 -44q-8 -11 -32 -52t-42 -86q-10 -23 -17 -23q6 0 -56 20q12 63 47 175q27 86 27 123q0 12 -1 18q27 11 32 11q6 0 74 -34q11 -2 48 -10z" />
    <glyph glyph-name="quotesinglbase" unicode="&#x201a;" horiz-adv-x="300" 
d="M272 -36q-36 -51 -60 -99l-20 -44q-10 -13 -33 -50q-18 -34 -41 -87q-9 -22 -17 -22q7 0 -56 19q13 64 48 176q27 87 27 123q0 12 -1 17q27 11 32 11q6 0 45 -19.5t76 -24.5z" />
    <glyph glyph-name="quotedblleft" unicode="&#x201c;" horiz-adv-x="480" 
d="M435 888q-11 -48 -49 -184q-25 -87 -25 -125v-7q-27 -12 -32 -12q-6 0 -44.5 21t-77.5 23q37 51 76 136q12 16 34 49q17 29 43 92q7 26 18 26q-8 0 57 -19zM255 888q-10 -45 -49 -183q-25 -87 -25 -126v-7q-27 -12 -32 -12q-6 0 -44.5 21t-77.5 23q37 51 76 136
q12 16 34 49q18 30 41 82q7 25 7 26q4 10 13 10q-9 0 57 -19z" />
    <glyph glyph-name="quotedblright" unicode="&#x201d;" horiz-adv-x="480" 
d="M452 851q-37 -50 -61 -98q-9 -22 -19 -44q-8 -12 -31.5 -52.5t-42.5 -85.5q-10 -23 -17 -23q4 0 -56 21q12 62 47 174q27 86 27 124q0 11 -1 17q27 11 32 11q6 0 45 -19.5t77 -24.5zM272 851q-37 -50 -61 -98q-9 -22 -19 -44q-8 -11 -32 -52t-42 -86q-10 -23 -17 -23
q4 0 -56 21q12 62 47 174q27 86 27 123q0 12 -1 18q27 11 32 11q6 0 74 -34q11 -2 48 -10z" />
    <glyph glyph-name="quotedblbase" unicode="&#x201e;" horiz-adv-x="480" 
d="M452 -36q-36 -49 -58 -94q-9 -21 -18 -41q-12 -17 -33 -50q-21 -40 -44 -93q-10 -24 -18 -24q7 0 -56 19q13 64 48 176q27 87 27 123q0 12 -1 17q27 11 32 11q9 0 74 -34q11 -2 47 -10zM272 -36q-36 -51 -60 -99l-20 -44q-10 -13 -33 -50q-18 -34 -41 -87q-9 -22 -17 -22
q7 0 -56 19q13 64 48 176q27 87 27 123q0 12 -1 17q27 11 32 11q6 0 45 -19.5t76 -24.5z" />
    <glyph glyph-name="dagger" unicode="&#x2020;" horiz-adv-x="500" 
d="M462 473l-3 -130h-56q-5 0 -17 17q-59 2 -79 4q-8 -54 -8 -105q0 -13 6 -58q6 -48 7 -81q1 -48 3.5 -97.5t12.5 -82.5q-23 0 -45 -2.5t-21 -2.5q-5 0 -16.5 4.5t-18.5 4.5l-6 -1h-10v353q0 2 2 21q2 23 3 44q-28 -2 -57.5 -8.5t-33.5 -6.5t-9.5 3t-8.5 3q-2 0 -7 -5
t-10 -7q-19 -2 -52 -15q0 74 7 133q58 -6 174 -15q0 3 -9 55q-7 45 -7 85q0 31 -5 48q75 6 91 6h33q-15 -144 -21 -185q28 -2 24 -2h7q5 0 130 23zM221 -62l-19 -2q12 4 16 5z" />
    <glyph glyph-name="daggerdbl" unicode="&#x2021;" horiz-adv-x="500" 
d="M479 148q-63 4 -111 15q-44 9 -39 9h-23q5 -30 5 -64q0 -18 -2 -40.5t-2 -26.5q0 -49 18 -113q-23 -2 -47 -5q-20 -2 -23 -2q-5 0 -17 5t-18 5q-5 0 -40 -9l21 249h-11q-26 0 -56.5 -10.5t-37.5 -10.5q-5 0 -14 2t-13 2q-9 0 -34 -13v3q0 7 2.5 20.5t2.5 20.5q0 18 -9 55
q57 -1 165 -21q14 14 14 63q0 22 -5 85q-90 -18 -92 -18q-4 0 -10 3t-9 3q-2 0 -7.5 -6t-9.5 -7q-19 -2 -55 -15q0 70 8 139q63 -7 181 -16q-13 70 -17 140q-3 52 -5 55q71 7 94 7h35q-15 -148 -21 -192q24 -3 31 -3q15 0 136 24l-3 -135h-59q-6 0 -17 17q-49 1 -82 5
q-10 -53 -10 -91q0 -22 7 -47q41 2 170 32v-24q0 -66 9 -90z" />
    <glyph glyph-name="bullet" unicode="&#x2022;" horiz-adv-x="400" 
d="M314 410q0 -48 -33.5 -81.5t-81.5 -33.5t-81.5 33t-33.5 82t33.5 82t81.5 33t81.5 -33.5t33.5 -81.5z" />
    <glyph glyph-name="ellipsis" unicode="&#x2026;" horiz-adv-x="1000" 
d="M913 -32q-11 -105 -11 -110q0 -12 4 -30q-13 -1 -30.5 -2.5t-22.5 -1.5q-6 0 -21 3.5t-23 3.5q-12 0 -43 -10l-4 4q4 25 4 58q0 45 -13 87q20 2 39 5q16 2 17 2q6 0 23.5 -4.5t28.5 -4.5q15 0 46 5zM580 -32q-11 -86 -11 -110q0 -12 4 -30q-13 -1 -30.5 -2.5t-22.5 -1.5
q-6 0 -21 3.5t-23 3.5q-12 0 -43 -10l-4 4q4 28 4 58q0 45 -13 87q20 2 39 5q16 2 17 2q6 0 23.5 -4.5t28.5 -4.5q8 0 46 5zM247 -32q-11 -105 -11 -110q0 -12 4 -30q-13 -1 -30.5 -2.5t-22.5 -1.5q-6 0 -21 3.5t-23 3.5q-12 0 -43 -10l-4 4q4 25 4 58q0 45 -13 87
q20 2 39 5q16 2 17 2q6 0 23.5 -4.5t28.5 -4.5q8 0 46 5z" />
    <glyph glyph-name="perthousand" unicode="&#x2030;" horiz-adv-x="912" 
d="M886 718l-14 -588v-264h-316l-48 5h-198l-16 -9h334l-562 -18q5 5 5 10q0 8 -13 8q-1 0 -3 -1h-4v241l-5 22v29h-28l39 33l-20 3l14 18l-14 32l12 28l-9 38l1 228q11 16 11 26t-6 23q-7 6 -14 20l19 46v60l102 7h-102l28 20l73 -4h62l22 6l334 4l312 -3q-5 -7 -5 -11
q0 -6 9 -9zM877 392v36h-6v-36h6zM877 276v42h-6v-42h6zM214 716l-5 5h-45l5 -5h45zM819 99v71q0 7 -10.5 28.5t-16.5 26.5q-18 16 -43 28q-20 9 -27 9q-30 0 -66 -36q-16 -16 -28 -50q-10 -29 -10 -45v-2l5 -53q2 -26 37.5 -51.5t64.5 -25.5t61.5 33t32.5 67zM351 486
q0 33 -20 64.5t-57 47.5l-35 -3q-36 -19 -62 -41q-17 -53 -21 -79l8 -54l44 -80h73q14 0 39 38q31 48 31 107zM549 600l-70 26l-164 -350l100 191l-225 -469l72 -39q192 508 287 641zM590 99v71q0 7 -10.5 28.5t-16.5 26.5q-18 16 -43 28q-20 9 -27 9q-30 0 -66 -36
q-16 -16 -28 -50q-10 -30 -10 -46v-1l5 -53q2 -26 37 -51.5t65 -25.5q29 0 61.5 33t32.5 67zM765 116l-13 -66q-13 -9 -23 -9q-19 0 -34 17.5t-15 40.5v4l7 93l30 12q8 -2 29 -10q13 -45 19 -82zM294 444q0 -26 -11.5 -43.5t-26.5 -17.5q-17 0 -33 17t-16 34q0 3 21 106
q15 8 25 16l41 -24v-88zM536 116l-13 -66q-13 -9 -23 -9q-19 0 -34 17.5t-15 40.5v4l7 93l30 12q20 -5 29 -10q11 -36 19 -82z" />
    <glyph glyph-name="guilsinglleft" unicode="&#x2039;" horiz-adv-x="318" 
d="M272 516q-6 -16 -40 -53q-39 -42 -59 -75q-4 -2 -14 -2q-1 1 -3 1q-9 0 -29 -59l38 -54q24 -38 38 -83q19 -61 66 -86q-16 -30 -48 -112q-8 17 -42 70q-24 39 -32 68q-9 34 -30 67q-47 75 -71 138q62 89 115 206q36 79 52 79q2 0 59 -105z" />
    <glyph glyph-name="guilsinglright" unicode="&#x203a;" horiz-adv-x="318" 
d="M272 281q-62 -89 -116 -207q-36 -78 -51 -78q-2 0 -59 105q6 16 39 52q40 42 60 76q3 2 14 2q1 -1 3 -1q9 0 29 59q-19 28 -38 55q-25 38 -38 81q-18 61 -66 87q17 32 48 112q4 -10 38 -63q27 -43 39 -86q7 -27 30 -62t45 -68v-3q0 -17 8 -32t15 -29z" />
    <glyph glyph-name="fraction" unicode="&#x2044;" horiz-adv-x="552" 
d="M586 809l-377 -1013q-55 18 -122 23q19 -1 35 -1q28 0 40 4q-6 1 -29 7l333 917l-97 -371l150 450z" />
    <glyph glyph-name="trademark" unicode="&#x2122;" horiz-adv-x="292" 
d="M269 587h-28v89l-33 -89h-13l-34 89v-89h-28v119h41l28 -72l26 72h41v-119zM109 682h-36v-95h-29v95h-37v24h102v-24z" />
    <glyph glyph-name="partialdiff" unicode="&#x2202;" horiz-adv-x="494" 
d="M436 367q0 -130 -47 -238q-61 -142 -175 -142q-74 0 -116 59q-36 51 -36 129q0 79 49 140q52 65 129 65q87 0 118 -93q12 45 12 148q0 167 -63 167q-17 0 -50 -35t-56 -35q-37 0 -37 32q0 34 36 54q30 17 66 17q93 0 137 -93q33 -71 33 -175zM341 224q0 125 -85 125
q-65 0 -97 -84q-23 -60 -23 -137q0 -119 84 -119q63 0 96 81q25 61 25 134z" />
    <glyph glyph-name="product" unicode="&#x220f;" horiz-adv-x="823" 
d="M797 -216h-264v32h84v896h-407v-896h84v-32h-264v32h88v896h-88v32h767v-32h-88v-896h88v-32z" />
    <glyph glyph-name="summation" unicode="&#x2211;" horiz-adv-x="713" 
d="M661 20q-10 -43 -53 -236h-572l398 436l-384 524h550l33 -230h-34q-33 108 -92.5 153t-171.5 45h-142l325 -446l-359 -394h212q109 0 158 25q61 30 97 123h35z" />
    <glyph glyph-name="radical" unicode="&#x221a;" horiz-adv-x="549" 
d="M594 764h-57l-290 -784h-32l-156 431l-61 -22l-12 39l138 48l125 -346l252 681h93v-47z" />
    <glyph glyph-name="infinity" unicode="&#x221e;" horiz-adv-x="713" 
d="M659 300q0 -75 -34 -127q-40 -59 -111 -59q-93 0 -148 124q-65 -124 -157 -124q-71 0 -115 58q-41 53 -41 126q0 75 35 127q39 59 111 59q91 0 148 -124q63 124 157 124q71 0 115 -58q40 -53 40 -126zM635 303q0 54 -29 88.5t-81 34.5q-77 0 -149 -162q46 -86 142 -86
q53 0 85 36t32 89zM336 334q-47 86 -141 86q-53 0 -85 -35.5t-32 -89.5q0 -51 28 -87t78 -36q51 0 95 59q23 32 57 103z" />
    <glyph glyph-name="integral" unicode="&#x222b;" horiz-adv-x="274" 
d="M364 690q0 -48 -49 -48q-26 0 -43.5 37t-29.5 37q-38 0 -48 -109q-5 -54 -9 -219q-4 -168 -11 -253q-12 -136 -39 -199q-50 -117 -144 -117q-33 0 -57 17.5t-24 49.5q0 47 49 47q26 0 44 -36.5t30 -36.5q36 0 47 109q6 58 9 220q4 169 11 250q11 135 39 201
q49 117 144 117q33 0 57 -17.5t24 -49.5z" />
    <glyph glyph-name="approxequal" unicode="&#x2248;" horiz-adv-x="549" 
d="M531 297q-81 -54 -146 -54q-34 0 -105.5 23.5t-109.5 23.5q-60 0 -152 -65v69q86 56 157 56q38 0 84 -14q29 -10 88 -28q21 -5 43 -5q54 0 141 63v-69zM531 178q-79 -54 -146 -54q-32 0 -105.5 23.5t-114.5 23.5q-55 0 -147 -65v69q89 57 158 57q35 0 84 -15l81 -25
q26 -8 49 -8q53 0 141 64v-70z" />
    <glyph glyph-name="approxequal" unicode="&#x22f2;" horiz-adv-x="549" 
d="M531 297q-81 -54 -146 -54q-34 0 -105.5 23.5t-109.5 23.5q-60 0 -152 -65v69q86 56 157 56q38 0 84 -14q29 -10 88 -28q21 -5 43 -5q54 0 141 63v-69zM531 178q-79 -54 -146 -54q-32 0 -105.5 23.5t-114.5 23.5q-55 0 -147 -65v69q89 57 158 57q35 0 84 -15l81 -25
q26 -8 49 -8q53 0 141 64v-70z" />
    <glyph glyph-name="notequal" unicode="&#x2260;" horiz-adv-x="549" 
d="M501 139h-279l-117 -117l-39 40l77 77h-95v58h148l79 78h-227v58h279l117 117l40 -40l-78 -77h95v-58h-147l-79 -78h226v-58z" />
    <glyph glyph-name="lessequal" unicode="&#x2264;" horiz-adv-x="549" 
d="M503 127l-456 143v61l456 143v-64l-351 -110l351 -109v-64zM503 0h-457v62h457v-62z" />
    <glyph glyph-name="greaterequal" unicode="&#x2265;" horiz-adv-x="549" 
d="M503 270l-457 -143v64l351 109l-351 110v64l457 -143v-61zM503 0h-457v62h457v-62z" />
    <glyph glyph-name="lozenge" unicode="&#x25ca;" horiz-adv-x="494" 
d="M491 289l-244 -522l-244 522l244 518zM435 289l-188 399l-188 -399l188 -403z" />
    <glyph glyph-name="apple" unicode="&#xf000;" horiz-adv-x="790" 
d="M566 808q0 -52 -2 -62q-8 -42 -34 -68q-30 -30 -68 -53q-7 -4 -56 -9q-3 30 6 52.5t34 67.5q28 35 54 48q38 19 66 24zM733 213q-61 -131 -109 -174q-14 -12 -27 -24q-17 -11 -47 -16q-8 -1 -17 -1q-29 0 -55 12q-43 20 -69 20q-25 0 -69 -20q-27 -13 -53 -13q-9 0 -18 2
q-37 7 -63 30q-60 54 -109 160q-41 89 -41 190q0 23 3 41q20 108 86 160q51 40 132 40q27 0 69 -16t63 -16q22 0 47 11q36 14 42 16q18 5 44 5q81 0 132 -40q14 -11 38 -38q-47 -34 -67 -68q-27 -46 -26 -100q1 -56 33 -98q23 -31 43 -44q19 -9 38 -19z" />
    <glyph glyph-name="fi" unicode="&#xf001;" horiz-adv-x="383" 
d="M282 607l-56 -72l-56 56l54 -100l-77 95l53 75zM355 72q-68 -89 -146 -89q-73 0 -106.5 24.5t-62.5 96.5l9 137l65 70l-50 -88l106 133l-17 116h89l-24 -206q-50 -11 -55 -13q-19 -8 -20 -31h-29l-16 -46q9 -80 71 -135h62l70 103z" />
    <glyph glyph-name="fl" unicode="&#xf002;" horiz-adv-x="270" 
d="M210 609l-53 -72l-52 52l50 -95l-72 95l49 74zM190 10l-96 -21l25 349l-48 -375l50 520h56z" />
    <glyph glyph-name="HT" horiz-adv-x="250" 
 />
    <glyph glyph-name="nonmarkingreturn" horiz-adv-x="250" 
 />
    <glyph glyph-name="glyph199" horiz-adv-x="250" 
 />
    <glyph glyph-name="eec257" horiz-adv-x="600" 
d="M550 -177h-500v882h500v-882zM494 -122v771h-388v-771h388z" />
  </font>
</defs>
</svg>
